G75*
%MOIN*%
%OFA0B0*%
%FSLAX25Y25*%
%IPPOS*%
%LPD*%
%AMOC8*
5,1,8,0,0,1.08239X$1,22.5*
%
%ADD10R,0.06337X0.06337*%
%ADD11C,0.06337*%
%ADD12R,0.08000X0.08000*%
%ADD13C,0.08000*%
%ADD14C,0.07400*%
%ADD15C,0.06400*%
%ADD16C,0.06140*%
%ADD17R,0.07400X0.07400*%
%ADD18C,0.05000*%
%ADD19R,0.04362X0.04362*%
%ADD20C,0.01200*%
%ADD21C,0.01600*%
%ADD22C,0.05150*%
%ADD23R,0.05150X0.05150*%
D10*
X0080000Y0091833D03*
X0080000Y0281833D03*
D11*
X0090000Y0281833D03*
X0100000Y0281833D03*
X0110000Y0281833D03*
X0120000Y0281833D03*
X0130000Y0281833D03*
X0140000Y0281833D03*
X0150000Y0281833D03*
X0160000Y0281833D03*
X0170000Y0281833D03*
X0180000Y0281833D03*
X0190000Y0281833D03*
X0200000Y0281833D03*
X0210000Y0281833D03*
X0220000Y0281833D03*
X0230000Y0281833D03*
X0240000Y0281833D03*
X0250000Y0281833D03*
X0260000Y0281833D03*
X0270000Y0281833D03*
X0280000Y0281833D03*
X0290000Y0281833D03*
X0300000Y0281833D03*
X0300000Y0291833D03*
X0290000Y0291833D03*
X0280000Y0291833D03*
X0270000Y0291833D03*
X0260000Y0291833D03*
X0250000Y0291833D03*
X0240000Y0291833D03*
X0230000Y0291833D03*
X0220000Y0291833D03*
X0210000Y0291833D03*
X0200000Y0291833D03*
X0190000Y0291833D03*
X0180000Y0291833D03*
X0170000Y0291833D03*
X0160000Y0291833D03*
X0150000Y0291833D03*
X0140000Y0291833D03*
X0130000Y0291833D03*
X0120000Y0291833D03*
X0110000Y0291833D03*
X0100000Y0291833D03*
X0090000Y0291833D03*
X0080000Y0291833D03*
X0080000Y0101833D03*
X0090000Y0101833D03*
X0090000Y0091833D03*
X0100000Y0091833D03*
X0110000Y0091833D03*
X0120000Y0091833D03*
X0130000Y0091833D03*
X0140000Y0091833D03*
X0150000Y0091833D03*
X0160000Y0091833D03*
X0170000Y0091833D03*
X0180000Y0091833D03*
X0190000Y0091833D03*
X0200000Y0091833D03*
X0210000Y0091833D03*
X0220000Y0091833D03*
X0230000Y0091833D03*
X0240000Y0091833D03*
X0250000Y0091833D03*
X0260000Y0091833D03*
X0270000Y0091833D03*
X0280000Y0091833D03*
X0290000Y0091833D03*
X0300000Y0091833D03*
X0300000Y0101833D03*
X0290000Y0101833D03*
X0280000Y0101833D03*
X0270000Y0101833D03*
X0260000Y0101833D03*
X0250000Y0101833D03*
X0240000Y0101833D03*
X0230000Y0101833D03*
X0220000Y0101833D03*
X0210000Y0101833D03*
X0200000Y0101833D03*
X0190000Y0101833D03*
X0180000Y0101833D03*
X0170000Y0101833D03*
X0160000Y0101833D03*
X0150000Y0101833D03*
X0140000Y0101833D03*
X0130000Y0101833D03*
X0120000Y0101833D03*
X0110000Y0101833D03*
X0100000Y0101833D03*
D12*
X0321000Y0146833D03*
X0321000Y0181333D03*
X0321000Y0213333D03*
D13*
X0321000Y0227113D03*
X0321000Y0195113D03*
X0321000Y0160613D03*
D14*
X0100000Y0114333D03*
X0070000Y0114333D03*
X0094000Y0162333D03*
X0094000Y0172333D03*
X0094000Y0182333D03*
X0094000Y0204333D03*
X0094000Y0214333D03*
X0094000Y0224333D03*
D15*
X0119300Y0221333D02*
X0125700Y0221333D01*
X0125700Y0211333D02*
X0119300Y0211333D01*
X0119300Y0201333D02*
X0125700Y0201333D01*
X0125700Y0177333D02*
X0119300Y0177333D01*
X0119300Y0167333D02*
X0125700Y0167333D01*
X0125700Y0157333D02*
X0119300Y0157333D01*
X0152800Y0157333D02*
X0159200Y0157333D01*
X0159200Y0167333D02*
X0152800Y0167333D01*
X0152800Y0177333D02*
X0159200Y0177333D01*
X0159200Y0201333D02*
X0152800Y0201333D01*
X0152800Y0211333D02*
X0159200Y0211333D01*
X0159200Y0221333D02*
X0152800Y0221333D01*
X0181000Y0223133D02*
X0181000Y0229533D01*
X0191000Y0229533D02*
X0191000Y0223133D01*
X0201000Y0223133D02*
X0201000Y0229533D01*
X0225000Y0229533D02*
X0225000Y0223133D01*
X0235000Y0223133D02*
X0235000Y0229533D01*
X0245000Y0229533D02*
X0245000Y0223133D01*
X0245000Y0257133D02*
X0245000Y0263533D01*
X0235000Y0263533D02*
X0235000Y0257133D01*
X0225000Y0257133D02*
X0225000Y0263533D01*
X0201000Y0263533D02*
X0201000Y0257133D01*
X0191000Y0257133D02*
X0191000Y0263533D01*
X0181000Y0263533D02*
X0181000Y0257133D01*
D16*
X0311157Y0255255D03*
X0321000Y0245412D03*
X0330843Y0255255D03*
D17*
X0094000Y0194333D03*
X0094000Y0152333D03*
D18*
X0122500Y0157333D02*
X0133500Y0146333D01*
X0161500Y0146333D01*
X0165800Y0150633D01*
X0165800Y0129633D01*
X0178500Y0116933D01*
X0290900Y0116933D01*
X0300000Y0107833D01*
X0300000Y0101833D01*
X0311500Y0181333D02*
X0295500Y0197333D01*
X0175000Y0197333D01*
X0167000Y0189333D01*
X0143000Y0189333D01*
X0142000Y0188333D01*
X0142000Y0176333D01*
X0133000Y0167333D01*
X0122500Y0167333D01*
X0122500Y0157333D02*
X0080000Y0114833D01*
X0080000Y0101833D01*
X0156000Y0177333D02*
X0161500Y0177333D01*
X0167000Y0171833D01*
X0167000Y0151833D01*
X0165800Y0150633D01*
X0143000Y0189333D02*
X0142000Y0189333D01*
X0138000Y0193333D01*
X0138000Y0206833D01*
X0133500Y0211333D01*
X0122500Y0211333D01*
X0156000Y0211333D02*
X0172000Y0211333D01*
X0178500Y0204833D01*
X0300500Y0204833D01*
X0310220Y0195113D01*
X0321000Y0195113D01*
X0314500Y0203833D02*
X0305500Y0212833D01*
X0239000Y0212833D01*
X0236000Y0215833D01*
X0204000Y0215833D01*
X0201000Y0218833D01*
X0201000Y0226333D01*
X0201000Y0239833D01*
X0197500Y0243333D01*
X0187000Y0243333D01*
X0181000Y0249333D01*
X0181000Y0260333D01*
X0235000Y0260333D02*
X0235000Y0251833D01*
X0242500Y0244333D01*
X0255000Y0244333D01*
X0266500Y0232833D01*
X0313500Y0232833D01*
X0317500Y0236833D01*
X0327000Y0236833D01*
X0330500Y0232833D01*
X0330500Y0218333D01*
X0325500Y0213333D01*
X0321000Y0213333D01*
X0314500Y0203833D02*
X0330000Y0203833D01*
X0333500Y0200333D01*
X0333500Y0198333D01*
X0321000Y0181333D02*
X0311500Y0181333D01*
X0310200Y0219833D02*
X0256500Y0219833D01*
X0250000Y0226333D01*
X0245000Y0226333D01*
X0235000Y0226333D02*
X0235000Y0231333D01*
X0240500Y0236833D01*
X0248500Y0236833D01*
X0253280Y0236613D01*
X0263500Y0226333D01*
X0316220Y0226333D01*
X0321000Y0227113D01*
D19*
X0333500Y0198333D03*
X0280500Y0238833D03*
X0280400Y0254533D03*
X0249000Y0271833D03*
X0209000Y0244833D03*
X0215500Y0228833D03*
X0209000Y0228333D03*
X0225000Y0210333D03*
X0240200Y0188433D03*
X0176500Y0188333D03*
X0168000Y0217333D03*
X0170000Y0226833D03*
X0158500Y0238833D03*
X0170500Y0250833D03*
X0170500Y0258833D03*
X0185000Y0272333D03*
X0134500Y0246333D03*
X0123500Y0228833D03*
X0109000Y0249833D03*
X0102000Y0249833D03*
X0094000Y0249833D03*
X0109100Y0134533D03*
X0313000Y0269333D03*
D20*
X0064350Y0132483D02*
X0064350Y0086183D01*
X0295000Y0086183D01*
X0298778Y0086332D01*
X0305000Y0087317D01*
X0305000Y0182318D01*
X0293885Y0193433D01*
X0176615Y0193433D01*
X0175097Y0191914D01*
X0179261Y0191914D01*
X0180081Y0191094D01*
X0180081Y0190333D01*
X0236619Y0190333D01*
X0236619Y0191194D01*
X0237439Y0192014D01*
X0242961Y0192014D01*
X0243781Y0191194D01*
X0243781Y0185672D01*
X0242961Y0184852D01*
X0237439Y0184852D01*
X0236619Y0185672D01*
X0236619Y0186333D01*
X0180081Y0186333D01*
X0180081Y0185572D01*
X0179261Y0184752D01*
X0173739Y0184752D01*
X0172919Y0185572D01*
X0172919Y0189737D01*
X0170306Y0187124D01*
X0169209Y0186027D01*
X0167776Y0185433D01*
X0145900Y0185433D01*
X0145900Y0175558D01*
X0145306Y0174124D01*
X0144209Y0173027D01*
X0135209Y0164027D01*
X0133776Y0163433D01*
X0128305Y0163433D01*
X0126615Y0162733D01*
X0118385Y0162733D01*
X0116694Y0163434D01*
X0115400Y0164728D01*
X0114700Y0166418D01*
X0114700Y0168248D01*
X0115400Y0169939D01*
X0116694Y0171233D01*
X0118385Y0171933D01*
X0126615Y0171933D01*
X0128305Y0171233D01*
X0131385Y0171233D01*
X0138100Y0177949D01*
X0138100Y0187718D01*
X0135791Y0190027D01*
X0134694Y0191124D01*
X0134100Y0192558D01*
X0134100Y0205218D01*
X0132485Y0206833D01*
X0126856Y0206833D01*
X0126615Y0206733D01*
X0118385Y0206733D01*
X0118144Y0206833D01*
X0098485Y0206833D01*
X0099100Y0205348D01*
X0099100Y0203319D01*
X0098324Y0201444D01*
X0096889Y0200010D01*
X0095497Y0199433D01*
X0098280Y0199433D01*
X0099100Y0198613D01*
X0099100Y0192345D01*
X0102811Y0188633D01*
X0104100Y0187345D01*
X0104100Y0163645D01*
X0108211Y0159533D01*
X0115232Y0159533D01*
X0115400Y0159939D01*
X0116694Y0161233D01*
X0118385Y0161933D01*
X0126615Y0161933D01*
X0128306Y0161233D01*
X0129600Y0159939D01*
X0130300Y0158248D01*
X0130300Y0156418D01*
X0129899Y0155450D01*
X0135115Y0150233D01*
X0159885Y0150233D01*
X0163100Y0153449D01*
X0163100Y0154728D01*
X0163100Y0154728D01*
X0161806Y0153434D01*
X0160115Y0152733D01*
X0151885Y0152733D01*
X0150194Y0153434D01*
X0148900Y0154728D01*
X0148200Y0156418D01*
X0148200Y0158248D01*
X0148900Y0159939D01*
X0150194Y0161233D01*
X0151885Y0161933D01*
X0160115Y0161933D01*
X0161806Y0161233D01*
X0163100Y0159939D01*
X0163100Y0159938D01*
X0163100Y0164728D01*
X0163100Y0164728D01*
X0161806Y0163434D01*
X0160115Y0162733D01*
X0151885Y0162733D01*
X0150194Y0163434D01*
X0148900Y0164728D01*
X0148200Y0166418D01*
X0148200Y0168248D01*
X0148900Y0169939D01*
X0150194Y0171233D01*
X0151885Y0171933D01*
X0160115Y0171933D01*
X0161806Y0171233D01*
X0163100Y0169939D01*
X0163100Y0169938D01*
X0163100Y0170218D01*
X0160447Y0172871D01*
X0160115Y0172733D01*
X0151885Y0172733D01*
X0150194Y0173434D01*
X0148900Y0174728D01*
X0148200Y0176418D01*
X0148200Y0178248D01*
X0148900Y0179939D01*
X0150194Y0181233D01*
X0151885Y0181933D01*
X0160115Y0181933D01*
X0161805Y0181233D01*
X0162276Y0181233D01*
X0163709Y0180640D01*
X0169209Y0175140D01*
X0170306Y0174042D01*
X0170900Y0172609D01*
X0170900Y0151058D01*
X0170306Y0149624D01*
X0169700Y0149018D01*
X0169700Y0131249D01*
X0180115Y0120833D01*
X0291676Y0120833D01*
X0293109Y0120240D01*
X0294206Y0119142D01*
X0303306Y0110042D01*
X0303900Y0108609D01*
X0303900Y0104356D01*
X0304568Y0102742D01*
X0304568Y0100925D01*
X0303873Y0099245D01*
X0302588Y0097960D01*
X0300909Y0097265D01*
X0299091Y0097265D01*
X0297412Y0097960D01*
X0296127Y0099245D01*
X0295431Y0100925D01*
X0295431Y0102742D01*
X0296100Y0104356D01*
X0296100Y0106218D01*
X0289285Y0113033D01*
X0177724Y0113033D01*
X0176291Y0113627D01*
X0163591Y0126327D01*
X0162494Y0127424D01*
X0161900Y0128858D01*
X0161900Y0142433D01*
X0132724Y0142433D01*
X0131291Y0143027D01*
X0122500Y0151818D01*
X0108797Y0138114D01*
X0111861Y0138114D01*
X0112681Y0137294D01*
X0112681Y0131772D01*
X0111861Y0130952D01*
X0108630Y0130952D01*
X0102200Y0124522D01*
X0102200Y0118942D01*
X0102889Y0118657D01*
X0104324Y0117222D01*
X0105100Y0115348D01*
X0105100Y0113319D01*
X0104324Y0111444D01*
X0102889Y0110010D01*
X0101014Y0109233D01*
X0098986Y0109233D01*
X0097111Y0110010D01*
X0095676Y0111444D01*
X0094900Y0113319D01*
X0094900Y0115348D01*
X0095676Y0117222D01*
X0097111Y0118657D01*
X0097800Y0118942D01*
X0097800Y0126345D01*
X0099089Y0127633D01*
X0105519Y0134063D01*
X0105519Y0134837D01*
X0083900Y0113218D01*
X0083900Y0104356D01*
X0084568Y0102742D01*
X0084568Y0100925D01*
X0083873Y0099245D01*
X0082588Y0097960D01*
X0080909Y0097265D01*
X0079091Y0097265D01*
X0077412Y0097960D01*
X0076127Y0099245D01*
X0075431Y0100925D01*
X0075431Y0102742D01*
X0076100Y0104356D01*
X0076100Y0115609D01*
X0076694Y0117042D01*
X0077791Y0118140D01*
X0114785Y0155133D01*
X0099911Y0155133D01*
X0099100Y0154322D01*
X0099100Y0148053D01*
X0098280Y0147233D01*
X0089720Y0147233D01*
X0088900Y0148053D01*
X0088900Y0156613D01*
X0089720Y0157433D01*
X0092503Y0157433D01*
X0091111Y0158010D01*
X0089676Y0159444D01*
X0088900Y0161319D01*
X0088900Y0163348D01*
X0089676Y0165222D01*
X0091111Y0166657D01*
X0092744Y0167333D01*
X0091111Y0168010D01*
X0089676Y0169444D01*
X0088900Y0171319D01*
X0088900Y0173348D01*
X0089156Y0173966D01*
X0086850Y0176272D01*
X0086850Y0154090D01*
X0085629Y0148740D01*
X0085629Y0148740D01*
X0083248Y0143796D01*
X0083248Y0143796D01*
X0079827Y0139506D01*
X0079827Y0139506D01*
X0079827Y0139506D01*
X0075537Y0136085D01*
X0075537Y0136085D01*
X0070593Y0133704D01*
X0070593Y0133704D01*
X0065244Y0132483D01*
X0064350Y0132483D01*
X0064350Y0132472D02*
X0092124Y0132472D01*
X0093322Y0133671D02*
X0070446Y0133671D01*
X0073012Y0134869D02*
X0094521Y0134869D01*
X0095719Y0136068D02*
X0075501Y0136068D01*
X0077018Y0137266D02*
X0096918Y0137266D01*
X0098116Y0138465D02*
X0078521Y0138465D01*
X0079952Y0139663D02*
X0099315Y0139663D01*
X0100513Y0140862D02*
X0080908Y0140862D01*
X0081864Y0142060D02*
X0101712Y0142060D01*
X0102910Y0143259D02*
X0082820Y0143259D01*
X0083567Y0144457D02*
X0104109Y0144457D01*
X0105307Y0145656D02*
X0084144Y0145656D01*
X0084721Y0146854D02*
X0106506Y0146854D01*
X0107704Y0148053D02*
X0099100Y0148053D01*
X0099100Y0149251D02*
X0108903Y0149251D01*
X0110101Y0150450D02*
X0099100Y0150450D01*
X0099100Y0151648D02*
X0111300Y0151648D01*
X0112498Y0152847D02*
X0099100Y0152847D01*
X0099100Y0154045D02*
X0113697Y0154045D01*
X0115499Y0160038D02*
X0107707Y0160038D01*
X0106508Y0161237D02*
X0116703Y0161237D01*
X0116494Y0163634D02*
X0104111Y0163634D01*
X0104100Y0164832D02*
X0115357Y0164832D01*
X0114861Y0166031D02*
X0104100Y0166031D01*
X0104100Y0167229D02*
X0114700Y0167229D01*
X0114774Y0168428D02*
X0104100Y0168428D01*
X0104100Y0169626D02*
X0115271Y0169626D01*
X0116286Y0170825D02*
X0104100Y0170825D01*
X0104100Y0172023D02*
X0132174Y0172023D01*
X0133373Y0173222D02*
X0127794Y0173222D01*
X0128306Y0173434D02*
X0126615Y0172733D01*
X0118385Y0172733D01*
X0116694Y0173434D01*
X0115400Y0174728D01*
X0114700Y0176418D01*
X0114700Y0178248D01*
X0115400Y0179939D01*
X0116694Y0181233D01*
X0118385Y0181933D01*
X0126615Y0181933D01*
X0128306Y0181233D01*
X0129600Y0179939D01*
X0130300Y0178248D01*
X0130300Y0176418D01*
X0129600Y0174728D01*
X0128306Y0173434D01*
X0129292Y0174420D02*
X0134571Y0174420D01*
X0135770Y0175619D02*
X0129969Y0175619D01*
X0130300Y0176817D02*
X0136968Y0176817D01*
X0138100Y0178016D02*
X0130300Y0178016D01*
X0129900Y0179214D02*
X0138100Y0179214D01*
X0138100Y0180413D02*
X0129126Y0180413D01*
X0127393Y0181611D02*
X0138100Y0181611D01*
X0138100Y0182810D02*
X0104100Y0182810D01*
X0104100Y0184008D02*
X0138100Y0184008D01*
X0138100Y0185207D02*
X0104100Y0185207D01*
X0104100Y0186405D02*
X0138100Y0186405D01*
X0138100Y0187604D02*
X0103841Y0187604D01*
X0102642Y0188802D02*
X0137016Y0188802D01*
X0135817Y0190001D02*
X0101444Y0190001D01*
X0100245Y0191199D02*
X0134663Y0191199D01*
X0134166Y0192398D02*
X0099100Y0192398D01*
X0099100Y0193596D02*
X0134100Y0193596D01*
X0134100Y0194795D02*
X0099100Y0194795D01*
X0099100Y0195993D02*
X0134100Y0195993D01*
X0134100Y0197192D02*
X0127722Y0197192D01*
X0128306Y0197434D02*
X0126615Y0196733D01*
X0118385Y0196733D01*
X0116694Y0197434D01*
X0115400Y0198728D01*
X0114700Y0200418D01*
X0114700Y0202248D01*
X0115400Y0203939D01*
X0116694Y0205233D01*
X0118385Y0205933D01*
X0126615Y0205933D01*
X0128306Y0205233D01*
X0129600Y0203939D01*
X0130300Y0202248D01*
X0130300Y0200418D01*
X0129600Y0198728D01*
X0128306Y0197434D01*
X0129262Y0198390D02*
X0134100Y0198390D01*
X0134100Y0199589D02*
X0129956Y0199589D01*
X0130300Y0200787D02*
X0134100Y0200787D01*
X0134100Y0201986D02*
X0130300Y0201986D01*
X0129912Y0203184D02*
X0134100Y0203184D01*
X0134100Y0204383D02*
X0129156Y0204383D01*
X0127464Y0205581D02*
X0133736Y0205581D01*
X0132538Y0206780D02*
X0126728Y0206780D01*
X0118272Y0206780D02*
X0098507Y0206780D01*
X0099003Y0205581D02*
X0117536Y0205581D01*
X0115844Y0204383D02*
X0099100Y0204383D01*
X0099044Y0203184D02*
X0115088Y0203184D01*
X0114700Y0201986D02*
X0098548Y0201986D01*
X0097667Y0200787D02*
X0114700Y0200787D01*
X0115044Y0199589D02*
X0095873Y0199589D01*
X0099100Y0198390D02*
X0115738Y0198390D01*
X0117278Y0197192D02*
X0099100Y0197192D01*
X0104100Y0181611D02*
X0117607Y0181611D01*
X0115874Y0180413D02*
X0104100Y0180413D01*
X0104100Y0179214D02*
X0115100Y0179214D01*
X0114700Y0178016D02*
X0104100Y0178016D01*
X0104100Y0176817D02*
X0114700Y0176817D01*
X0115031Y0175619D02*
X0104100Y0175619D01*
X0104100Y0174420D02*
X0115708Y0174420D01*
X0117206Y0173222D02*
X0104100Y0173222D01*
X0105310Y0162435D02*
X0163100Y0162435D01*
X0163100Y0161237D02*
X0161797Y0161237D01*
X0163001Y0160038D02*
X0163100Y0160038D01*
X0163100Y0163634D02*
X0162006Y0163634D01*
X0162418Y0154045D02*
X0163100Y0154045D01*
X0162498Y0152847D02*
X0160389Y0152847D01*
X0161300Y0151648D02*
X0133700Y0151648D01*
X0134899Y0150450D02*
X0160101Y0150450D01*
X0169700Y0148053D02*
X0305000Y0148053D01*
X0305000Y0149251D02*
X0169934Y0149251D01*
X0170648Y0150450D02*
X0305000Y0150450D01*
X0305000Y0151648D02*
X0170900Y0151648D01*
X0170900Y0152847D02*
X0305000Y0152847D01*
X0305000Y0154045D02*
X0170900Y0154045D01*
X0170900Y0155244D02*
X0305000Y0155244D01*
X0305000Y0156443D02*
X0170900Y0156443D01*
X0170900Y0157641D02*
X0305000Y0157641D01*
X0305000Y0158840D02*
X0170900Y0158840D01*
X0170900Y0160038D02*
X0305000Y0160038D01*
X0305000Y0161237D02*
X0170900Y0161237D01*
X0170900Y0162435D02*
X0305000Y0162435D01*
X0305000Y0163634D02*
X0170900Y0163634D01*
X0170900Y0164832D02*
X0305000Y0164832D01*
X0305000Y0166031D02*
X0170900Y0166031D01*
X0170900Y0167229D02*
X0305000Y0167229D01*
X0305000Y0168428D02*
X0170900Y0168428D01*
X0170900Y0169626D02*
X0305000Y0169626D01*
X0305000Y0170825D02*
X0170900Y0170825D01*
X0170900Y0172023D02*
X0305000Y0172023D01*
X0305000Y0173222D02*
X0170646Y0173222D01*
X0169929Y0174420D02*
X0305000Y0174420D01*
X0305000Y0175619D02*
X0168730Y0175619D01*
X0167532Y0176817D02*
X0305000Y0176817D01*
X0305000Y0178016D02*
X0166333Y0178016D01*
X0165135Y0179214D02*
X0305000Y0179214D01*
X0305000Y0180413D02*
X0163936Y0180413D01*
X0160893Y0181611D02*
X0305000Y0181611D01*
X0304508Y0182810D02*
X0145900Y0182810D01*
X0145900Y0184008D02*
X0303310Y0184008D01*
X0302111Y0185207D02*
X0243316Y0185207D01*
X0243781Y0186405D02*
X0300913Y0186405D01*
X0299714Y0187604D02*
X0243781Y0187604D01*
X0243781Y0188802D02*
X0298516Y0188802D01*
X0297317Y0190001D02*
X0243781Y0190001D01*
X0243776Y0191199D02*
X0296119Y0191199D01*
X0294920Y0192398D02*
X0175580Y0192398D01*
X0176500Y0188333D02*
X0240100Y0188333D01*
X0240200Y0188433D01*
X0237084Y0185207D02*
X0179716Y0185207D01*
X0179976Y0191199D02*
X0236624Y0191199D01*
X0225000Y0210333D02*
X0182500Y0210333D01*
X0180500Y0212333D01*
X0180500Y0225833D01*
X0181000Y0226333D01*
X0185600Y0225956D02*
X0186400Y0225956D01*
X0186400Y0224758D02*
X0185600Y0224758D01*
X0185600Y0223559D02*
X0186400Y0223559D01*
X0186400Y0222361D02*
X0185600Y0222361D01*
X0185600Y0222218D02*
X0185600Y0230448D01*
X0184900Y0232139D01*
X0183606Y0233433D01*
X0181915Y0234133D01*
X0180085Y0234133D01*
X0178394Y0233433D01*
X0177100Y0232139D01*
X0176400Y0230448D01*
X0176400Y0222218D01*
X0177100Y0220528D01*
X0178394Y0219234D01*
X0178500Y0219190D01*
X0178500Y0211833D01*
X0177015Y0211833D01*
X0175306Y0213542D01*
X0174209Y0214640D01*
X0172776Y0215233D01*
X0171581Y0215233D01*
X0171581Y0220094D01*
X0170761Y0220914D01*
X0170000Y0220914D01*
X0170000Y0223252D01*
X0172761Y0223252D01*
X0173581Y0224072D01*
X0173581Y0229594D01*
X0172761Y0230414D01*
X0167239Y0230414D01*
X0166419Y0229594D01*
X0166419Y0226081D01*
X0166000Y0225662D01*
X0166000Y0220914D01*
X0165239Y0220914D01*
X0164419Y0220094D01*
X0164419Y0215233D01*
X0161805Y0215233D01*
X0160115Y0215933D01*
X0151885Y0215933D01*
X0150194Y0215233D01*
X0149000Y0214039D01*
X0149000Y0218628D01*
X0150194Y0217434D01*
X0151885Y0216733D01*
X0160115Y0216733D01*
X0161806Y0217434D01*
X0163100Y0218728D01*
X0163800Y0220418D01*
X0163800Y0222248D01*
X0163100Y0223939D01*
X0161806Y0225233D01*
X0160115Y0225933D01*
X0151885Y0225933D01*
X0150194Y0225233D01*
X0148900Y0223939D01*
X0148409Y0222753D01*
X0141500Y0229662D01*
X0140328Y0230833D01*
X0127081Y0230833D01*
X0127081Y0231594D01*
X0126261Y0232414D01*
X0120739Y0232414D01*
X0119919Y0231594D01*
X0119919Y0226072D01*
X0120058Y0225933D01*
X0118385Y0225933D01*
X0116694Y0225233D01*
X0115400Y0223939D01*
X0114700Y0222248D01*
X0114700Y0220418D01*
X0115400Y0218728D01*
X0116694Y0217434D01*
X0118385Y0216733D01*
X0126615Y0216733D01*
X0128306Y0217434D01*
X0129600Y0218728D01*
X0130300Y0220418D01*
X0130300Y0222248D01*
X0129600Y0223939D01*
X0128306Y0225233D01*
X0126846Y0225838D01*
X0127081Y0226072D01*
X0127081Y0226833D01*
X0138672Y0226833D01*
X0145000Y0220505D01*
X0145000Y0211833D01*
X0138515Y0211833D01*
X0136806Y0213542D01*
X0135709Y0214640D01*
X0134276Y0215233D01*
X0128305Y0215233D01*
X0126615Y0215933D01*
X0118385Y0215933D01*
X0116694Y0215233D01*
X0115400Y0213939D01*
X0114700Y0212248D01*
X0114700Y0211833D01*
X0098485Y0211833D01*
X0099100Y0213319D01*
X0099100Y0215348D01*
X0098324Y0217222D01*
X0096889Y0218657D01*
X0095256Y0219333D01*
X0096889Y0220010D01*
X0098324Y0221444D01*
X0099100Y0223319D01*
X0099100Y0225348D01*
X0098324Y0227222D01*
X0096889Y0228657D01*
X0095014Y0229433D01*
X0092986Y0229433D01*
X0091111Y0228657D01*
X0089676Y0227222D01*
X0088900Y0225348D01*
X0088900Y0223319D01*
X0089676Y0221444D01*
X0091111Y0220010D01*
X0092744Y0219333D01*
X0091111Y0218657D01*
X0089676Y0217222D01*
X0088900Y0215348D01*
X0088900Y0213319D01*
X0089185Y0212630D01*
X0088389Y0211833D01*
X0086850Y0211833D01*
X0086850Y0229577D01*
X0085629Y0234927D01*
X0083248Y0239870D01*
X0083248Y0239870D01*
X0079827Y0244160D01*
X0075537Y0247581D01*
X0075537Y0247582D01*
X0070593Y0249962D01*
X0065244Y0251183D01*
X0064350Y0251183D01*
X0064350Y0297483D01*
X0075322Y0297483D01*
X0074172Y0296333D01*
X0073000Y0295162D01*
X0073000Y0264351D01*
X0072986Y0263540D01*
X0073000Y0263525D01*
X0073000Y0263505D01*
X0073573Y0262931D01*
X0087000Y0249025D01*
X0087000Y0249005D01*
X0087573Y0248432D01*
X0088137Y0247848D01*
X0088157Y0247848D01*
X0088172Y0247833D01*
X0088982Y0247833D01*
X0089793Y0247819D01*
X0089808Y0247833D01*
X0090419Y0247833D01*
X0090419Y0247072D01*
X0091239Y0246252D01*
X0096761Y0246252D01*
X0097581Y0247072D01*
X0097581Y0252594D01*
X0096761Y0253414D01*
X0091239Y0253414D01*
X0090419Y0252594D01*
X0090419Y0251833D01*
X0089849Y0251833D01*
X0077000Y0265141D01*
X0077000Y0277065D01*
X0079616Y0277065D01*
X0079616Y0281449D01*
X0080384Y0281449D01*
X0080384Y0277065D01*
X0083379Y0277065D01*
X0083786Y0277174D01*
X0084151Y0277385D01*
X0084449Y0277682D01*
X0084659Y0278047D01*
X0084768Y0278454D01*
X0084768Y0281449D01*
X0080384Y0281449D01*
X0080384Y0282218D01*
X0079616Y0282218D01*
X0079616Y0286602D01*
X0077000Y0286602D01*
X0077000Y0288119D01*
X0077501Y0287755D01*
X0078170Y0287414D01*
X0078883Y0287182D01*
X0079616Y0287066D01*
X0079616Y0291449D01*
X0080384Y0291449D01*
X0080384Y0287066D01*
X0081117Y0287182D01*
X0081830Y0287414D01*
X0082499Y0287755D01*
X0083106Y0288196D01*
X0083637Y0288727D01*
X0084078Y0289334D01*
X0084419Y0290003D01*
X0084651Y0290717D01*
X0084767Y0291449D01*
X0080384Y0291449D01*
X0080384Y0292218D01*
X0084767Y0292218D01*
X0084651Y0292950D01*
X0084419Y0293664D01*
X0084078Y0294333D01*
X0083715Y0294833D01*
X0086539Y0294833D01*
X0086127Y0294421D01*
X0085431Y0292742D01*
X0085431Y0290925D01*
X0086127Y0289245D01*
X0087412Y0287960D01*
X0089091Y0287265D01*
X0090909Y0287265D01*
X0092588Y0287960D01*
X0093873Y0289245D01*
X0094568Y0290925D01*
X0094568Y0292742D01*
X0093873Y0294421D01*
X0093461Y0294833D01*
X0096539Y0294833D01*
X0096127Y0294421D01*
X0095431Y0292742D01*
X0095431Y0290925D01*
X0096127Y0289245D01*
X0097412Y0287960D01*
X0099091Y0287265D01*
X0100909Y0287265D01*
X0102588Y0287960D01*
X0103873Y0289245D01*
X0104568Y0290925D01*
X0104568Y0292742D01*
X0103873Y0294421D01*
X0103461Y0294833D01*
X0106539Y0294833D01*
X0106127Y0294421D01*
X0105431Y0292742D01*
X0105431Y0290925D01*
X0106127Y0289245D01*
X0107412Y0287960D01*
X0109091Y0287265D01*
X0110909Y0287265D01*
X0112588Y0287960D01*
X0113873Y0289245D01*
X0114568Y0290925D01*
X0114568Y0292742D01*
X0113873Y0294421D01*
X0113461Y0294833D01*
X0116539Y0294833D01*
X0116127Y0294421D01*
X0115431Y0292742D01*
X0115431Y0290925D01*
X0116127Y0289245D01*
X0117412Y0287960D01*
X0119091Y0287265D01*
X0120909Y0287265D01*
X0122588Y0287960D01*
X0123873Y0289245D01*
X0124568Y0290925D01*
X0124568Y0292742D01*
X0123873Y0294421D01*
X0123461Y0294833D01*
X0126539Y0294833D01*
X0126127Y0294421D01*
X0125431Y0292742D01*
X0125431Y0290925D01*
X0125675Y0290337D01*
X0124172Y0288833D01*
X0123000Y0287662D01*
X0123000Y0285294D01*
X0122588Y0285706D01*
X0120909Y0286402D01*
X0119091Y0286402D01*
X0117412Y0285706D01*
X0116127Y0284421D01*
X0115431Y0282742D01*
X0115431Y0280925D01*
X0116127Y0279245D01*
X0117412Y0277960D01*
X0119091Y0277265D01*
X0120909Y0277265D01*
X0122588Y0277960D01*
X0123000Y0278373D01*
X0123000Y0257662D01*
X0117172Y0251833D01*
X0112581Y0251833D01*
X0112581Y0252594D01*
X0111761Y0253414D01*
X0106239Y0253414D01*
X0105500Y0252675D01*
X0104761Y0253414D01*
X0099239Y0253414D01*
X0098419Y0252594D01*
X0098419Y0247072D01*
X0099239Y0246252D01*
X0100000Y0246252D01*
X0100000Y0245005D01*
X0101172Y0243833D01*
X0120828Y0243833D01*
X0122000Y0245005D01*
X0132000Y0255005D01*
X0132000Y0277717D01*
X0132588Y0277960D01*
X0133873Y0279245D01*
X0134568Y0280925D01*
X0134568Y0282742D01*
X0133873Y0284421D01*
X0132588Y0285706D01*
X0130909Y0286402D01*
X0129091Y0286402D01*
X0127412Y0285706D01*
X0127000Y0285294D01*
X0127000Y0286005D01*
X0128503Y0287508D01*
X0129091Y0287265D01*
X0130909Y0287265D01*
X0132588Y0287960D01*
X0133873Y0289245D01*
X0134568Y0290925D01*
X0134568Y0292742D01*
X0133873Y0294421D01*
X0133461Y0294833D01*
X0136539Y0294833D01*
X0136127Y0294421D01*
X0135431Y0292742D01*
X0135431Y0290925D01*
X0136127Y0289245D01*
X0137412Y0287960D01*
X0139091Y0287265D01*
X0140909Y0287265D01*
X0142588Y0287960D01*
X0143873Y0289245D01*
X0144568Y0290925D01*
X0144568Y0292742D01*
X0143873Y0294421D01*
X0143461Y0294833D01*
X0146539Y0294833D01*
X0146127Y0294421D01*
X0145431Y0292742D01*
X0145431Y0290925D01*
X0146127Y0289245D01*
X0147412Y0287960D01*
X0149091Y0287265D01*
X0150909Y0287265D01*
X0152588Y0287960D01*
X0153873Y0289245D01*
X0154568Y0290925D01*
X0154568Y0292742D01*
X0153873Y0294421D01*
X0153461Y0294833D01*
X0156539Y0294833D01*
X0156127Y0294421D01*
X0155431Y0292742D01*
X0155431Y0290925D01*
X0156127Y0289245D01*
X0157412Y0287960D01*
X0159091Y0287265D01*
X0160909Y0287265D01*
X0162588Y0287960D01*
X0163873Y0289245D01*
X0164568Y0290925D01*
X0164568Y0292742D01*
X0163873Y0294421D01*
X0163461Y0294833D01*
X0166539Y0294833D01*
X0166127Y0294421D01*
X0165431Y0292742D01*
X0165431Y0290925D01*
X0166127Y0289245D01*
X0167412Y0287960D01*
X0169091Y0287265D01*
X0170909Y0287265D01*
X0172588Y0287960D01*
X0173873Y0289245D01*
X0174568Y0290925D01*
X0174568Y0292742D01*
X0173873Y0294421D01*
X0173461Y0294833D01*
X0176539Y0294833D01*
X0176127Y0294421D01*
X0175431Y0292742D01*
X0175431Y0290925D01*
X0176127Y0289245D01*
X0176539Y0288833D01*
X0174172Y0288833D01*
X0173000Y0287662D01*
X0173000Y0285294D01*
X0172588Y0285706D01*
X0170909Y0286402D01*
X0169091Y0286402D01*
X0167412Y0285706D01*
X0166127Y0284421D01*
X0165431Y0282742D01*
X0165431Y0280925D01*
X0166127Y0279245D01*
X0167412Y0277960D01*
X0169091Y0277265D01*
X0170603Y0277265D01*
X0168500Y0275162D01*
X0168500Y0262414D01*
X0167739Y0262414D01*
X0166919Y0261594D01*
X0166919Y0256072D01*
X0167739Y0255252D01*
X0173261Y0255252D01*
X0173500Y0255491D01*
X0173500Y0254662D01*
X0173253Y0254414D01*
X0167739Y0254414D01*
X0166919Y0253594D01*
X0166919Y0248072D01*
X0167739Y0247252D01*
X0173261Y0247252D01*
X0174081Y0248072D01*
X0174081Y0249586D01*
X0176328Y0251833D01*
X0177500Y0253005D01*
X0177500Y0253845D01*
X0177873Y0253472D01*
X0178484Y0253028D01*
X0179157Y0252685D01*
X0179876Y0252452D01*
X0180600Y0252337D01*
X0180600Y0259933D01*
X0181400Y0259933D01*
X0181400Y0252337D01*
X0182124Y0252452D01*
X0182843Y0252685D01*
X0183516Y0253028D01*
X0184127Y0253472D01*
X0184661Y0254006D01*
X0185105Y0254618D01*
X0185448Y0255291D01*
X0185682Y0256009D01*
X0185800Y0256756D01*
X0185800Y0259933D01*
X0181400Y0259933D01*
X0181400Y0260733D01*
X0185800Y0260733D01*
X0185800Y0263911D01*
X0185682Y0264657D01*
X0185448Y0265376D01*
X0185105Y0266049D01*
X0184661Y0266660D01*
X0184127Y0267195D01*
X0183516Y0267639D01*
X0182843Y0267982D01*
X0182124Y0268215D01*
X0181400Y0268330D01*
X0181400Y0260733D01*
X0180600Y0260733D01*
X0180600Y0268330D01*
X0179876Y0268215D01*
X0179157Y0267982D01*
X0178484Y0267639D01*
X0177873Y0267195D01*
X0177500Y0266822D01*
X0177500Y0273505D01*
X0178828Y0274833D01*
X0181419Y0274833D01*
X0181419Y0269572D01*
X0182239Y0268752D01*
X0187761Y0268752D01*
X0188581Y0269572D01*
X0188581Y0270333D01*
X0196672Y0270333D01*
X0199000Y0268005D01*
X0199000Y0267684D01*
X0198394Y0267433D01*
X0197100Y0266139D01*
X0196400Y0264448D01*
X0196400Y0256218D01*
X0197100Y0254528D01*
X0198394Y0253234D01*
X0200085Y0252533D01*
X0201915Y0252533D01*
X0203606Y0253234D01*
X0204900Y0254528D01*
X0205600Y0256218D01*
X0205600Y0264448D01*
X0204900Y0266139D01*
X0203606Y0267433D01*
X0203000Y0267684D01*
X0203000Y0269662D01*
X0201828Y0270833D01*
X0198328Y0274333D01*
X0188581Y0274333D01*
X0188581Y0274833D01*
X0202298Y0274833D01*
X0202397Y0274754D01*
X0203111Y0274833D01*
X0203828Y0274833D01*
X0203918Y0274923D01*
X0204044Y0274937D01*
X0204493Y0275497D01*
X0205000Y0276005D01*
X0205000Y0276132D01*
X0206493Y0277997D01*
X0206934Y0278439D01*
X0207000Y0278372D01*
X0207000Y0248414D01*
X0206239Y0248414D01*
X0205419Y0247594D01*
X0205419Y0242072D01*
X0206239Y0241252D01*
X0207000Y0241252D01*
X0207000Y0231914D01*
X0206239Y0231914D01*
X0205510Y0231186D01*
X0205448Y0231376D01*
X0205105Y0232049D01*
X0204661Y0232660D01*
X0204127Y0233195D01*
X0203516Y0233639D01*
X0202843Y0233982D01*
X0202124Y0234215D01*
X0201400Y0234330D01*
X0201400Y0226733D01*
X0200600Y0226733D01*
X0200600Y0225933D01*
X0201400Y0225933D01*
X0201400Y0218337D01*
X0202124Y0218452D01*
X0202843Y0218685D01*
X0203516Y0219028D01*
X0204127Y0219472D01*
X0204661Y0220006D01*
X0205105Y0220618D01*
X0205448Y0221291D01*
X0205682Y0222009D01*
X0205800Y0222756D01*
X0205800Y0225191D01*
X0206239Y0224752D01*
X0211761Y0224752D01*
X0212500Y0225491D01*
X0212739Y0225252D01*
X0218261Y0225252D01*
X0219081Y0226072D01*
X0219081Y0231594D01*
X0218261Y0232414D01*
X0217500Y0232414D01*
X0217500Y0276505D01*
X0218503Y0277508D01*
X0219091Y0277265D01*
X0220909Y0277265D01*
X0222588Y0277960D01*
X0223000Y0278373D01*
X0223000Y0278005D01*
X0224172Y0276833D01*
X0231172Y0269833D01*
X0245419Y0269833D01*
X0245419Y0269072D01*
X0246239Y0268252D01*
X0251761Y0268252D01*
X0252581Y0269072D01*
X0252581Y0274594D01*
X0251761Y0275414D01*
X0246239Y0275414D01*
X0245419Y0274594D01*
X0245419Y0273833D01*
X0232828Y0273833D01*
X0229397Y0277265D01*
X0230909Y0277265D01*
X0232588Y0277960D01*
X0233873Y0279245D01*
X0234568Y0280925D01*
X0234568Y0282742D01*
X0233873Y0284421D01*
X0232588Y0285706D01*
X0230909Y0286402D01*
X0229091Y0286402D01*
X0227412Y0285706D01*
X0227000Y0285294D01*
X0227000Y0287662D01*
X0224325Y0290337D01*
X0224568Y0290925D01*
X0224568Y0292742D01*
X0223873Y0294421D01*
X0223461Y0294833D01*
X0226539Y0294833D01*
X0226127Y0294421D01*
X0225431Y0292742D01*
X0225431Y0290925D01*
X0226127Y0289245D01*
X0227412Y0287960D01*
X0229091Y0287265D01*
X0230909Y0287265D01*
X0232588Y0287960D01*
X0233873Y0289245D01*
X0234568Y0290925D01*
X0234568Y0292742D01*
X0233873Y0294421D01*
X0233461Y0294833D01*
X0236539Y0294833D01*
X0236127Y0294421D01*
X0235431Y0292742D01*
X0235431Y0290925D01*
X0236127Y0289245D01*
X0237412Y0287960D01*
X0239091Y0287265D01*
X0240909Y0287265D01*
X0242588Y0287960D01*
X0243000Y0288373D01*
X0243000Y0287662D01*
X0241497Y0286158D01*
X0240909Y0286402D01*
X0239091Y0286402D01*
X0237412Y0285706D01*
X0236127Y0284421D01*
X0235431Y0282742D01*
X0235431Y0280925D01*
X0236127Y0279245D01*
X0237412Y0277960D01*
X0239091Y0277265D01*
X0240909Y0277265D01*
X0242588Y0277960D01*
X0243873Y0279245D01*
X0244568Y0280925D01*
X0244568Y0282742D01*
X0244325Y0283330D01*
X0245828Y0284833D01*
X0247000Y0286005D01*
X0247000Y0288373D01*
X0247412Y0287960D01*
X0249091Y0287265D01*
X0250909Y0287265D01*
X0252588Y0287960D01*
X0253873Y0289245D01*
X0254568Y0290925D01*
X0254568Y0292742D01*
X0253873Y0294421D01*
X0252588Y0295706D01*
X0250909Y0296402D01*
X0249091Y0296402D01*
X0247412Y0295706D01*
X0246934Y0295228D01*
X0244678Y0297483D01*
X0295000Y0297483D01*
X0298778Y0297335D01*
X0305000Y0296349D01*
X0305000Y0236733D01*
X0268115Y0236733D01*
X0258306Y0246542D01*
X0257209Y0247640D01*
X0255776Y0248233D01*
X0244115Y0248233D01*
X0238900Y0253449D01*
X0238900Y0254528D01*
X0239600Y0256218D01*
X0239600Y0264448D01*
X0238900Y0266139D01*
X0237606Y0267433D01*
X0235915Y0268133D01*
X0234085Y0268133D01*
X0232394Y0267433D01*
X0231100Y0266139D01*
X0230400Y0264448D01*
X0230400Y0256218D01*
X0231100Y0254528D01*
X0231100Y0251058D01*
X0231694Y0249624D01*
X0232791Y0248527D01*
X0240291Y0241027D01*
X0241000Y0240733D01*
X0239724Y0240733D01*
X0238291Y0240140D01*
X0232791Y0234640D01*
X0231694Y0233542D01*
X0231121Y0232160D01*
X0231100Y0232139D01*
X0230400Y0230448D01*
X0230400Y0222218D01*
X0231100Y0220528D01*
X0232394Y0219234D01*
X0234085Y0218533D01*
X0235915Y0218533D01*
X0237606Y0219234D01*
X0238900Y0220528D01*
X0239600Y0222218D01*
X0239600Y0230418D01*
X0240944Y0231762D01*
X0240400Y0230448D01*
X0240400Y0222218D01*
X0241100Y0220528D01*
X0242394Y0219234D01*
X0244085Y0218533D01*
X0245915Y0218533D01*
X0247606Y0219234D01*
X0248900Y0220528D01*
X0249307Y0221511D01*
X0253194Y0217624D01*
X0254291Y0216527D01*
X0255724Y0215933D01*
X0305000Y0215933D01*
X0305000Y0211833D01*
X0228581Y0211833D01*
X0228581Y0213094D01*
X0227761Y0213914D01*
X0222239Y0213914D01*
X0221419Y0213094D01*
X0221419Y0212333D01*
X0183328Y0212333D01*
X0182500Y0213162D01*
X0182500Y0218776D01*
X0183606Y0219234D01*
X0184900Y0220528D01*
X0185600Y0222218D01*
X0186400Y0222218D02*
X0187100Y0220528D01*
X0188394Y0219234D01*
X0190085Y0218533D01*
X0191915Y0218533D01*
X0193606Y0219234D01*
X0194900Y0220528D01*
X0195600Y0222218D01*
X0195600Y0230448D01*
X0194900Y0232139D01*
X0193606Y0233433D01*
X0191915Y0234133D01*
X0190085Y0234133D01*
X0188394Y0233433D01*
X0187100Y0232139D01*
X0186400Y0230448D01*
X0186400Y0222218D01*
X0186837Y0221162D02*
X0185162Y0221162D01*
X0184336Y0219964D02*
X0187664Y0219964D01*
X0189525Y0218765D02*
X0182500Y0218765D01*
X0182500Y0217567D02*
X0253251Y0217567D01*
X0252053Y0218765D02*
X0246475Y0218765D01*
X0248336Y0219964D02*
X0250854Y0219964D01*
X0249656Y0221162D02*
X0249162Y0221162D01*
X0243525Y0218765D02*
X0236475Y0218765D01*
X0238336Y0219964D02*
X0241664Y0219964D01*
X0240837Y0221162D02*
X0239162Y0221162D01*
X0239600Y0222361D02*
X0240400Y0222361D01*
X0240400Y0223559D02*
X0239600Y0223559D01*
X0239600Y0224758D02*
X0240400Y0224758D01*
X0240400Y0225956D02*
X0239600Y0225956D01*
X0239600Y0227155D02*
X0240400Y0227155D01*
X0240400Y0228353D02*
X0239600Y0228353D01*
X0239600Y0229552D02*
X0240400Y0229552D01*
X0240525Y0230750D02*
X0239932Y0230750D01*
X0234894Y0236743D02*
X0217500Y0236743D01*
X0217500Y0237941D02*
X0236093Y0237941D01*
X0237291Y0239140D02*
X0217500Y0239140D01*
X0217500Y0240338D02*
X0238771Y0240338D01*
X0239781Y0241537D02*
X0217500Y0241537D01*
X0217500Y0242735D02*
X0238583Y0242735D01*
X0237384Y0243934D02*
X0217500Y0243934D01*
X0217500Y0245132D02*
X0236186Y0245132D01*
X0234987Y0246331D02*
X0217500Y0246331D01*
X0217500Y0247529D02*
X0233789Y0247529D01*
X0232590Y0248728D02*
X0217500Y0248728D01*
X0217500Y0249926D02*
X0231569Y0249926D01*
X0231100Y0251125D02*
X0217500Y0251125D01*
X0217500Y0252323D02*
X0231100Y0252323D01*
X0231100Y0253522D02*
X0227894Y0253522D01*
X0227606Y0253234D02*
X0228900Y0254528D01*
X0229600Y0256218D01*
X0229600Y0264448D01*
X0228900Y0266139D01*
X0227606Y0267433D01*
X0225915Y0268133D01*
X0224085Y0268133D01*
X0222394Y0267433D01*
X0221100Y0266139D01*
X0220400Y0264448D01*
X0220400Y0256218D01*
X0221100Y0254528D01*
X0222394Y0253234D01*
X0224085Y0252533D01*
X0225915Y0252533D01*
X0227606Y0253234D01*
X0228980Y0254720D02*
X0231020Y0254720D01*
X0230524Y0255919D02*
X0229476Y0255919D01*
X0229600Y0257117D02*
X0230400Y0257117D01*
X0230400Y0258316D02*
X0229600Y0258316D01*
X0229600Y0259514D02*
X0230400Y0259514D01*
X0230400Y0260713D02*
X0229600Y0260713D01*
X0229600Y0261912D02*
X0230400Y0261912D01*
X0230400Y0263110D02*
X0229600Y0263110D01*
X0229600Y0264309D02*
X0230400Y0264309D01*
X0230839Y0265507D02*
X0229161Y0265507D01*
X0228333Y0266706D02*
X0231667Y0266706D01*
X0233532Y0267904D02*
X0226468Y0267904D01*
X0223532Y0267904D02*
X0217500Y0267904D01*
X0217500Y0266706D02*
X0221667Y0266706D01*
X0220839Y0265507D02*
X0217500Y0265507D01*
X0217500Y0264309D02*
X0220400Y0264309D01*
X0220400Y0263110D02*
X0217500Y0263110D01*
X0217500Y0261912D02*
X0220400Y0261912D01*
X0220400Y0260713D02*
X0217500Y0260713D01*
X0217500Y0259514D02*
X0220400Y0259514D01*
X0220400Y0258316D02*
X0217500Y0258316D01*
X0217500Y0257117D02*
X0220400Y0257117D01*
X0220524Y0255919D02*
X0217500Y0255919D01*
X0217500Y0254720D02*
X0221020Y0254720D01*
X0222106Y0253522D02*
X0217500Y0253522D01*
X0207000Y0253522D02*
X0203894Y0253522D01*
X0204980Y0254720D02*
X0207000Y0254720D01*
X0207000Y0255919D02*
X0205476Y0255919D01*
X0205600Y0257117D02*
X0207000Y0257117D01*
X0207000Y0258316D02*
X0205600Y0258316D01*
X0205600Y0259514D02*
X0207000Y0259514D01*
X0207000Y0260713D02*
X0205600Y0260713D01*
X0205600Y0261912D02*
X0207000Y0261912D01*
X0207000Y0263110D02*
X0205600Y0263110D01*
X0205600Y0264309D02*
X0207000Y0264309D01*
X0207000Y0265507D02*
X0205161Y0265507D01*
X0204333Y0266706D02*
X0207000Y0266706D01*
X0207000Y0267904D02*
X0203000Y0267904D01*
X0203000Y0269103D02*
X0207000Y0269103D01*
X0207000Y0270301D02*
X0202361Y0270301D01*
X0201162Y0271500D02*
X0207000Y0271500D01*
X0207000Y0272698D02*
X0199964Y0272698D01*
X0198765Y0273897D02*
X0207000Y0273897D01*
X0207000Y0275095D02*
X0204171Y0275095D01*
X0205129Y0276294D02*
X0207000Y0276294D01*
X0207000Y0277492D02*
X0206088Y0277492D01*
X0205000Y0279333D02*
X0205000Y0283833D01*
X0208500Y0286833D01*
X0215000Y0286833D01*
X0220000Y0291833D01*
X0225000Y0286833D01*
X0225000Y0278833D01*
X0232000Y0271833D01*
X0249000Y0271833D01*
X0252581Y0271500D02*
X0305000Y0271500D01*
X0305000Y0272698D02*
X0252581Y0272698D01*
X0252581Y0273897D02*
X0305000Y0273897D01*
X0305000Y0275095D02*
X0252080Y0275095D01*
X0250909Y0277265D02*
X0249091Y0277265D01*
X0247412Y0277960D01*
X0246127Y0279245D01*
X0245431Y0280925D01*
X0245431Y0282742D01*
X0246127Y0284421D01*
X0247412Y0285706D01*
X0249091Y0286402D01*
X0250909Y0286402D01*
X0252588Y0285706D01*
X0253873Y0284421D01*
X0254568Y0282742D01*
X0254568Y0280925D01*
X0253873Y0279245D01*
X0252588Y0277960D01*
X0250909Y0277265D01*
X0251458Y0277492D02*
X0258542Y0277492D01*
X0259091Y0277265D02*
X0260909Y0277265D01*
X0262588Y0277960D01*
X0263873Y0279245D01*
X0264568Y0280925D01*
X0264568Y0282742D01*
X0263873Y0284421D01*
X0262588Y0285706D01*
X0260909Y0286402D01*
X0259091Y0286402D01*
X0257412Y0285706D01*
X0256127Y0284421D01*
X0255431Y0282742D01*
X0255431Y0280925D01*
X0256127Y0279245D01*
X0257412Y0277960D01*
X0259091Y0277265D01*
X0261458Y0277492D02*
X0268542Y0277492D01*
X0269091Y0277265D02*
X0270909Y0277265D01*
X0272588Y0277960D01*
X0273873Y0279245D01*
X0274568Y0280925D01*
X0274568Y0282742D01*
X0273873Y0284421D01*
X0272588Y0285706D01*
X0270909Y0286402D01*
X0269091Y0286402D01*
X0267412Y0285706D01*
X0266127Y0284421D01*
X0265431Y0282742D01*
X0265431Y0280925D01*
X0266127Y0279245D01*
X0267412Y0277960D01*
X0269091Y0277265D01*
X0271458Y0277492D02*
X0278542Y0277492D01*
X0279091Y0277265D02*
X0280909Y0277265D01*
X0282588Y0277960D01*
X0283873Y0279245D01*
X0284568Y0280925D01*
X0284568Y0282742D01*
X0283873Y0284421D01*
X0282588Y0285706D01*
X0280909Y0286402D01*
X0279091Y0286402D01*
X0277412Y0285706D01*
X0276127Y0284421D01*
X0275431Y0282742D01*
X0275431Y0280925D01*
X0276127Y0279245D01*
X0277412Y0277960D01*
X0279091Y0277265D01*
X0281458Y0277492D02*
X0288542Y0277492D01*
X0289091Y0277265D02*
X0290909Y0277265D01*
X0292588Y0277960D01*
X0293873Y0279245D01*
X0294568Y0280925D01*
X0294568Y0282742D01*
X0293873Y0284421D01*
X0292588Y0285706D01*
X0290909Y0286402D01*
X0289091Y0286402D01*
X0287412Y0285706D01*
X0286127Y0284421D01*
X0285431Y0282742D01*
X0285431Y0280925D01*
X0286127Y0279245D01*
X0287412Y0277960D01*
X0289091Y0277265D01*
X0291458Y0277492D02*
X0298542Y0277492D01*
X0299091Y0277265D02*
X0300909Y0277265D01*
X0302588Y0277960D01*
X0303873Y0279245D01*
X0304568Y0280925D01*
X0304568Y0282742D01*
X0303873Y0284421D01*
X0302588Y0285706D01*
X0300909Y0286402D01*
X0299091Y0286402D01*
X0297412Y0285706D01*
X0296127Y0284421D01*
X0295431Y0282742D01*
X0295431Y0280925D01*
X0296127Y0279245D01*
X0297412Y0277960D01*
X0299091Y0277265D01*
X0301458Y0277492D02*
X0305000Y0277492D01*
X0305000Y0276294D02*
X0230368Y0276294D01*
X0231458Y0277492D02*
X0238542Y0277492D01*
X0236682Y0278691D02*
X0233318Y0278691D01*
X0234140Y0279889D02*
X0235860Y0279889D01*
X0235431Y0281088D02*
X0234568Y0281088D01*
X0234568Y0282286D02*
X0235431Y0282286D01*
X0235739Y0283485D02*
X0234261Y0283485D01*
X0233611Y0284683D02*
X0236389Y0284683D01*
X0237836Y0285882D02*
X0232164Y0285882D01*
X0232906Y0288279D02*
X0237094Y0288279D01*
X0236031Y0289477D02*
X0233969Y0289477D01*
X0234465Y0290676D02*
X0235535Y0290676D01*
X0235431Y0291874D02*
X0234568Y0291874D01*
X0234431Y0293073D02*
X0235569Y0293073D01*
X0236065Y0294271D02*
X0233935Y0294271D01*
X0226065Y0294271D02*
X0223935Y0294271D01*
X0224431Y0293073D02*
X0225569Y0293073D01*
X0225431Y0291874D02*
X0224568Y0291874D01*
X0224465Y0290676D02*
X0225535Y0290676D01*
X0225184Y0289477D02*
X0226031Y0289477D01*
X0226383Y0288279D02*
X0227094Y0288279D01*
X0227000Y0287080D02*
X0242419Y0287080D01*
X0242906Y0288279D02*
X0243000Y0288279D01*
X0245000Y0286833D02*
X0245000Y0294333D01*
X0242500Y0296833D01*
X0077500Y0296833D01*
X0075000Y0294333D01*
X0075000Y0264333D01*
X0089000Y0249833D01*
X0094000Y0249833D01*
X0097581Y0249926D02*
X0098419Y0249926D01*
X0098419Y0248728D02*
X0097581Y0248728D01*
X0097581Y0247529D02*
X0098419Y0247529D01*
X0099160Y0246331D02*
X0096840Y0246331D01*
X0100000Y0245132D02*
X0078608Y0245132D01*
X0079827Y0244160D02*
X0079827Y0244160D01*
X0080008Y0243934D02*
X0101071Y0243934D01*
X0102000Y0245833D02*
X0102000Y0249833D01*
X0098419Y0251125D02*
X0097581Y0251125D01*
X0097581Y0252323D02*
X0098419Y0252323D01*
X0102000Y0245833D02*
X0120000Y0245833D01*
X0130000Y0255833D01*
X0130000Y0281833D01*
X0134261Y0283485D02*
X0135739Y0283485D01*
X0135431Y0282742D02*
X0136127Y0284421D01*
X0137412Y0285706D01*
X0139091Y0286402D01*
X0140909Y0286402D01*
X0142588Y0285706D01*
X0143873Y0284421D01*
X0144568Y0282742D01*
X0144568Y0280925D01*
X0143873Y0279245D01*
X0142588Y0277960D01*
X0140909Y0277265D01*
X0139091Y0277265D01*
X0137412Y0277960D01*
X0136127Y0279245D01*
X0135431Y0280925D01*
X0135431Y0282742D01*
X0135431Y0282286D02*
X0134568Y0282286D01*
X0134568Y0281088D02*
X0135431Y0281088D01*
X0135860Y0279889D02*
X0134140Y0279889D01*
X0133318Y0278691D02*
X0136682Y0278691D01*
X0138542Y0277492D02*
X0132000Y0277492D01*
X0132000Y0276294D02*
X0169632Y0276294D01*
X0168542Y0277492D02*
X0161458Y0277492D01*
X0160909Y0277265D02*
X0162588Y0277960D01*
X0163873Y0279245D01*
X0164568Y0280925D01*
X0164568Y0282742D01*
X0163873Y0284421D01*
X0162588Y0285706D01*
X0160909Y0286402D01*
X0159091Y0286402D01*
X0157412Y0285706D01*
X0156127Y0284421D01*
X0155431Y0282742D01*
X0155431Y0280925D01*
X0156127Y0279245D01*
X0157412Y0277960D01*
X0159091Y0277265D01*
X0160909Y0277265D01*
X0158542Y0277492D02*
X0151458Y0277492D01*
X0150909Y0277265D02*
X0152588Y0277960D01*
X0153873Y0279245D01*
X0154568Y0280925D01*
X0154568Y0282742D01*
X0153873Y0284421D01*
X0152588Y0285706D01*
X0150909Y0286402D01*
X0149091Y0286402D01*
X0147412Y0285706D01*
X0146127Y0284421D01*
X0145431Y0282742D01*
X0145431Y0280925D01*
X0146127Y0279245D01*
X0147412Y0277960D01*
X0149091Y0277265D01*
X0150909Y0277265D01*
X0148542Y0277492D02*
X0141458Y0277492D01*
X0143318Y0278691D02*
X0146682Y0278691D01*
X0145860Y0279889D02*
X0144140Y0279889D01*
X0144568Y0281088D02*
X0145431Y0281088D01*
X0145431Y0282286D02*
X0144568Y0282286D01*
X0144261Y0283485D02*
X0145739Y0283485D01*
X0146389Y0284683D02*
X0143611Y0284683D01*
X0142164Y0285882D02*
X0147836Y0285882D01*
X0147094Y0288279D02*
X0142906Y0288279D01*
X0143969Y0289477D02*
X0146031Y0289477D01*
X0145535Y0290676D02*
X0144465Y0290676D01*
X0144568Y0291874D02*
X0145431Y0291874D01*
X0145569Y0293073D02*
X0144431Y0293073D01*
X0143935Y0294271D02*
X0146065Y0294271D01*
X0153935Y0294271D02*
X0156065Y0294271D01*
X0155569Y0293073D02*
X0154431Y0293073D01*
X0154568Y0291874D02*
X0155431Y0291874D01*
X0155535Y0290676D02*
X0154465Y0290676D01*
X0153969Y0289477D02*
X0156031Y0289477D01*
X0157094Y0288279D02*
X0152906Y0288279D01*
X0152164Y0285882D02*
X0157836Y0285882D01*
X0156389Y0284683D02*
X0153611Y0284683D01*
X0154261Y0283485D02*
X0155739Y0283485D01*
X0155431Y0282286D02*
X0154568Y0282286D01*
X0154568Y0281088D02*
X0155431Y0281088D01*
X0155860Y0279889D02*
X0154140Y0279889D01*
X0153318Y0278691D02*
X0156682Y0278691D01*
X0163318Y0278691D02*
X0166682Y0278691D01*
X0165860Y0279889D02*
X0164140Y0279889D01*
X0164568Y0281088D02*
X0165431Y0281088D01*
X0165431Y0282286D02*
X0164568Y0282286D01*
X0164261Y0283485D02*
X0165739Y0283485D01*
X0166389Y0284683D02*
X0163611Y0284683D01*
X0162164Y0285882D02*
X0167836Y0285882D01*
X0167094Y0288279D02*
X0162906Y0288279D01*
X0163969Y0289477D02*
X0166031Y0289477D01*
X0165535Y0290676D02*
X0164465Y0290676D01*
X0164568Y0291874D02*
X0165431Y0291874D01*
X0165569Y0293073D02*
X0164431Y0293073D01*
X0163935Y0294271D02*
X0166065Y0294271D01*
X0172906Y0288279D02*
X0173617Y0288279D01*
X0173969Y0289477D02*
X0176031Y0289477D01*
X0175535Y0290676D02*
X0174465Y0290676D01*
X0174568Y0291874D02*
X0175431Y0291874D01*
X0175569Y0293073D02*
X0174431Y0293073D01*
X0173935Y0294271D02*
X0176065Y0294271D01*
X0175000Y0286833D02*
X0205000Y0286833D01*
X0210000Y0291833D01*
X0210000Y0281833D02*
X0209000Y0280833D01*
X0209000Y0244833D01*
X0209000Y0228333D01*
X0207000Y0231949D02*
X0205156Y0231949D01*
X0204174Y0233147D02*
X0207000Y0233147D01*
X0207000Y0234346D02*
X0085762Y0234346D01*
X0085629Y0234927D02*
X0085629Y0234927D01*
X0085331Y0235544D02*
X0155447Y0235544D01*
X0155739Y0235252D02*
X0161261Y0235252D01*
X0162081Y0236072D01*
X0162081Y0241594D01*
X0161261Y0242414D01*
X0155739Y0242414D01*
X0154919Y0241594D01*
X0154919Y0240833D01*
X0142828Y0240833D01*
X0138081Y0245581D01*
X0138081Y0249094D01*
X0137261Y0249914D01*
X0131739Y0249914D01*
X0130919Y0249094D01*
X0130919Y0243572D01*
X0131739Y0242752D01*
X0135253Y0242752D01*
X0140000Y0238005D01*
X0141172Y0236833D01*
X0154919Y0236833D01*
X0154919Y0236072D01*
X0155739Y0235252D01*
X0154919Y0236743D02*
X0084754Y0236743D01*
X0084177Y0237941D02*
X0140064Y0237941D01*
X0138865Y0239140D02*
X0083600Y0239140D01*
X0082875Y0240338D02*
X0137667Y0240338D01*
X0136468Y0241537D02*
X0081919Y0241537D01*
X0080963Y0242735D02*
X0135270Y0242735D01*
X0134500Y0246333D02*
X0142000Y0238833D01*
X0158500Y0238833D01*
X0162081Y0239140D02*
X0207000Y0239140D01*
X0207000Y0240338D02*
X0162081Y0240338D01*
X0162081Y0241537D02*
X0205954Y0241537D01*
X0205419Y0242735D02*
X0140926Y0242735D01*
X0139728Y0243934D02*
X0205419Y0243934D01*
X0205419Y0245132D02*
X0138529Y0245132D01*
X0138081Y0246331D02*
X0205419Y0246331D01*
X0205419Y0247529D02*
X0173538Y0247529D01*
X0174081Y0248728D02*
X0207000Y0248728D01*
X0207000Y0249926D02*
X0174421Y0249926D01*
X0175620Y0251125D02*
X0207000Y0251125D01*
X0207000Y0252323D02*
X0176819Y0252323D01*
X0177500Y0253522D02*
X0177823Y0253522D01*
X0175500Y0253833D02*
X0175500Y0274333D01*
X0178000Y0276833D01*
X0203000Y0276833D01*
X0205000Y0279333D01*
X0197500Y0272333D02*
X0201000Y0268833D01*
X0201000Y0260333D01*
X0196400Y0260713D02*
X0195600Y0260713D01*
X0195600Y0261912D02*
X0196400Y0261912D01*
X0196400Y0263110D02*
X0195600Y0263110D01*
X0195600Y0264309D02*
X0196400Y0264309D01*
X0195600Y0264448D02*
X0194900Y0266139D01*
X0193606Y0267433D01*
X0191915Y0268133D01*
X0190085Y0268133D01*
X0188394Y0267433D01*
X0187100Y0266139D01*
X0186400Y0264448D01*
X0186400Y0256218D01*
X0187100Y0254528D01*
X0188394Y0253234D01*
X0190085Y0252533D01*
X0191915Y0252533D01*
X0193606Y0253234D01*
X0194900Y0254528D01*
X0195600Y0256218D01*
X0195600Y0264448D01*
X0195161Y0265507D02*
X0196839Y0265507D01*
X0197667Y0266706D02*
X0194333Y0266706D01*
X0192468Y0267904D02*
X0199000Y0267904D01*
X0197902Y0269103D02*
X0188111Y0269103D01*
X0188581Y0270301D02*
X0196704Y0270301D01*
X0197500Y0272333D02*
X0185000Y0272333D01*
X0181419Y0272698D02*
X0177500Y0272698D01*
X0177500Y0271500D02*
X0181419Y0271500D01*
X0181419Y0270301D02*
X0177500Y0270301D01*
X0177500Y0269103D02*
X0181889Y0269103D01*
X0181400Y0267904D02*
X0180600Y0267904D01*
X0180600Y0266706D02*
X0181400Y0266706D01*
X0181400Y0265507D02*
X0180600Y0265507D01*
X0180600Y0264309D02*
X0181400Y0264309D01*
X0181400Y0263110D02*
X0180600Y0263110D01*
X0180600Y0261912D02*
X0181400Y0261912D01*
X0181400Y0260713D02*
X0186400Y0260713D01*
X0186400Y0261912D02*
X0185800Y0261912D01*
X0185800Y0263110D02*
X0186400Y0263110D01*
X0186400Y0264309D02*
X0185737Y0264309D01*
X0185381Y0265507D02*
X0186839Y0265507D01*
X0187667Y0266706D02*
X0184616Y0266706D01*
X0182995Y0267904D02*
X0189532Y0267904D01*
X0186400Y0259514D02*
X0185800Y0259514D01*
X0185800Y0258316D02*
X0186400Y0258316D01*
X0186400Y0257117D02*
X0185800Y0257117D01*
X0185652Y0255919D02*
X0186524Y0255919D01*
X0187020Y0254720D02*
X0185158Y0254720D01*
X0184177Y0253522D02*
X0188106Y0253522D01*
X0193894Y0253522D02*
X0198106Y0253522D01*
X0197020Y0254720D02*
X0194980Y0254720D01*
X0195476Y0255919D02*
X0196524Y0255919D01*
X0196400Y0257117D02*
X0195600Y0257117D01*
X0195600Y0258316D02*
X0196400Y0258316D01*
X0196400Y0259514D02*
X0195600Y0259514D01*
X0181400Y0259514D02*
X0180600Y0259514D01*
X0180600Y0258316D02*
X0181400Y0258316D01*
X0181400Y0257117D02*
X0180600Y0257117D01*
X0180600Y0255919D02*
X0181400Y0255919D01*
X0181400Y0254720D02*
X0180600Y0254720D01*
X0180600Y0253522D02*
X0181400Y0253522D01*
X0175500Y0253833D02*
X0172500Y0250833D01*
X0170500Y0250833D01*
X0166919Y0251125D02*
X0128120Y0251125D01*
X0129319Y0252323D02*
X0166919Y0252323D01*
X0166919Y0253522D02*
X0130517Y0253522D01*
X0131716Y0254720D02*
X0173500Y0254720D01*
X0170500Y0258833D02*
X0170500Y0274333D01*
X0175000Y0278833D01*
X0175000Y0286833D01*
X0173000Y0287080D02*
X0128075Y0287080D01*
X0127836Y0285882D02*
X0127000Y0285882D01*
X0125000Y0286833D02*
X0125000Y0256833D01*
X0118000Y0249833D01*
X0109000Y0249833D01*
X0112581Y0252323D02*
X0117662Y0252323D01*
X0118860Y0253522D02*
X0088219Y0253522D01*
X0089376Y0252323D02*
X0090419Y0252323D01*
X0087061Y0254720D02*
X0120059Y0254720D01*
X0121257Y0255919D02*
X0085904Y0255919D01*
X0084747Y0257117D02*
X0122456Y0257117D01*
X0123000Y0258316D02*
X0083590Y0258316D01*
X0082433Y0259514D02*
X0123000Y0259514D01*
X0123000Y0260713D02*
X0081276Y0260713D01*
X0080118Y0261912D02*
X0123000Y0261912D01*
X0123000Y0263110D02*
X0078961Y0263110D01*
X0077804Y0264309D02*
X0123000Y0264309D01*
X0123000Y0265507D02*
X0077000Y0265507D01*
X0077000Y0266706D02*
X0123000Y0266706D01*
X0123000Y0267904D02*
X0077000Y0267904D01*
X0077000Y0269103D02*
X0123000Y0269103D01*
X0123000Y0270301D02*
X0077000Y0270301D01*
X0077000Y0271500D02*
X0123000Y0271500D01*
X0123000Y0272698D02*
X0077000Y0272698D01*
X0077000Y0273897D02*
X0123000Y0273897D01*
X0123000Y0275095D02*
X0077000Y0275095D01*
X0077000Y0276294D02*
X0123000Y0276294D01*
X0123000Y0277492D02*
X0121458Y0277492D01*
X0118542Y0277492D02*
X0111458Y0277492D01*
X0110909Y0277265D02*
X0112588Y0277960D01*
X0113873Y0279245D01*
X0114568Y0280925D01*
X0114568Y0282742D01*
X0113873Y0284421D01*
X0112588Y0285706D01*
X0110909Y0286402D01*
X0109091Y0286402D01*
X0107412Y0285706D01*
X0106127Y0284421D01*
X0105431Y0282742D01*
X0105431Y0280925D01*
X0106127Y0279245D01*
X0107412Y0277960D01*
X0109091Y0277265D01*
X0110909Y0277265D01*
X0108542Y0277492D02*
X0101458Y0277492D01*
X0100909Y0277265D02*
X0102588Y0277960D01*
X0103873Y0279245D01*
X0104568Y0280925D01*
X0104568Y0282742D01*
X0103873Y0284421D01*
X0102588Y0285706D01*
X0100909Y0286402D01*
X0099091Y0286402D01*
X0097412Y0285706D01*
X0096127Y0284421D01*
X0095431Y0282742D01*
X0095431Y0280925D01*
X0096127Y0279245D01*
X0097412Y0277960D01*
X0099091Y0277265D01*
X0100909Y0277265D01*
X0098542Y0277492D02*
X0091458Y0277492D01*
X0090909Y0277265D02*
X0092588Y0277960D01*
X0093873Y0279245D01*
X0094568Y0280925D01*
X0094568Y0282742D01*
X0093873Y0284421D01*
X0092588Y0285706D01*
X0090909Y0286402D01*
X0089091Y0286402D01*
X0087412Y0285706D01*
X0086127Y0284421D01*
X0085431Y0282742D01*
X0085431Y0280925D01*
X0086127Y0279245D01*
X0087412Y0277960D01*
X0089091Y0277265D01*
X0090909Y0277265D01*
X0088542Y0277492D02*
X0084259Y0277492D01*
X0084768Y0278691D02*
X0086682Y0278691D01*
X0085860Y0279889D02*
X0084768Y0279889D01*
X0084768Y0281088D02*
X0085431Y0281088D01*
X0085431Y0282286D02*
X0084768Y0282286D01*
X0084768Y0282218D02*
X0084768Y0285212D01*
X0084659Y0285619D01*
X0084449Y0285984D01*
X0084151Y0286282D01*
X0083786Y0286493D01*
X0083379Y0286602D01*
X0080384Y0286602D01*
X0080384Y0282218D01*
X0084768Y0282218D01*
X0084768Y0283485D02*
X0085739Y0283485D01*
X0086389Y0284683D02*
X0084768Y0284683D01*
X0084508Y0285882D02*
X0087836Y0285882D01*
X0087094Y0288279D02*
X0083189Y0288279D01*
X0084151Y0289477D02*
X0086031Y0289477D01*
X0085535Y0290676D02*
X0084638Y0290676D01*
X0085431Y0291874D02*
X0080384Y0291874D01*
X0080384Y0290676D02*
X0079616Y0290676D01*
X0079616Y0289477D02*
X0080384Y0289477D01*
X0080384Y0288279D02*
X0079616Y0288279D01*
X0079616Y0287080D02*
X0080384Y0287080D01*
X0080473Y0287080D02*
X0123000Y0287080D01*
X0123000Y0285882D02*
X0122164Y0285882D01*
X0122906Y0288279D02*
X0123617Y0288279D01*
X0123969Y0289477D02*
X0124816Y0289477D01*
X0124465Y0290676D02*
X0125535Y0290676D01*
X0125431Y0291874D02*
X0124568Y0291874D01*
X0124431Y0293073D02*
X0125569Y0293073D01*
X0126065Y0294271D02*
X0123935Y0294271D01*
X0130000Y0291833D02*
X0125000Y0286833D01*
X0132164Y0285882D02*
X0137836Y0285882D01*
X0136389Y0284683D02*
X0133611Y0284683D01*
X0132906Y0288279D02*
X0137094Y0288279D01*
X0136031Y0289477D02*
X0133969Y0289477D01*
X0134465Y0290676D02*
X0135535Y0290676D01*
X0135431Y0291874D02*
X0134568Y0291874D01*
X0134431Y0293073D02*
X0135569Y0293073D01*
X0136065Y0294271D02*
X0133935Y0294271D01*
X0116065Y0294271D02*
X0113935Y0294271D01*
X0114431Y0293073D02*
X0115569Y0293073D01*
X0115431Y0291874D02*
X0114568Y0291874D01*
X0114465Y0290676D02*
X0115535Y0290676D01*
X0116031Y0289477D02*
X0113969Y0289477D01*
X0112906Y0288279D02*
X0117094Y0288279D01*
X0117836Y0285882D02*
X0112164Y0285882D01*
X0113611Y0284683D02*
X0116389Y0284683D01*
X0115739Y0283485D02*
X0114261Y0283485D01*
X0114568Y0282286D02*
X0115431Y0282286D01*
X0115431Y0281088D02*
X0114568Y0281088D01*
X0114140Y0279889D02*
X0115860Y0279889D01*
X0116682Y0278691D02*
X0113318Y0278691D01*
X0106682Y0278691D02*
X0103318Y0278691D01*
X0104140Y0279889D02*
X0105860Y0279889D01*
X0105431Y0281088D02*
X0104568Y0281088D01*
X0104568Y0282286D02*
X0105431Y0282286D01*
X0105739Y0283485D02*
X0104261Y0283485D01*
X0103611Y0284683D02*
X0106389Y0284683D01*
X0107836Y0285882D02*
X0102164Y0285882D01*
X0102906Y0288279D02*
X0107094Y0288279D01*
X0106031Y0289477D02*
X0103969Y0289477D01*
X0104465Y0290676D02*
X0105535Y0290676D01*
X0105431Y0291874D02*
X0104568Y0291874D01*
X0104431Y0293073D02*
X0105569Y0293073D01*
X0106065Y0294271D02*
X0103935Y0294271D01*
X0096065Y0294271D02*
X0093935Y0294271D01*
X0094431Y0293073D02*
X0095569Y0293073D01*
X0095431Y0291874D02*
X0094568Y0291874D01*
X0094465Y0290676D02*
X0095535Y0290676D01*
X0096031Y0289477D02*
X0093969Y0289477D01*
X0092906Y0288279D02*
X0097094Y0288279D01*
X0097836Y0285882D02*
X0092164Y0285882D01*
X0093611Y0284683D02*
X0096389Y0284683D01*
X0095739Y0283485D02*
X0094261Y0283485D01*
X0094568Y0282286D02*
X0095431Y0282286D01*
X0095431Y0281088D02*
X0094568Y0281088D01*
X0094140Y0279889D02*
X0095860Y0279889D01*
X0096682Y0278691D02*
X0093318Y0278691D01*
X0080384Y0278691D02*
X0079616Y0278691D01*
X0079616Y0279889D02*
X0080384Y0279889D01*
X0080384Y0281088D02*
X0079616Y0281088D01*
X0079616Y0282286D02*
X0080384Y0282286D01*
X0080384Y0283485D02*
X0079616Y0283485D01*
X0079616Y0284683D02*
X0080384Y0284683D01*
X0080384Y0285882D02*
X0079616Y0285882D01*
X0079527Y0287080D02*
X0077000Y0287080D01*
X0073000Y0287080D02*
X0064350Y0287080D01*
X0064350Y0285882D02*
X0073000Y0285882D01*
X0073000Y0284683D02*
X0064350Y0284683D01*
X0064350Y0283485D02*
X0073000Y0283485D01*
X0073000Y0282286D02*
X0064350Y0282286D01*
X0064350Y0281088D02*
X0073000Y0281088D01*
X0073000Y0279889D02*
X0064350Y0279889D01*
X0064350Y0278691D02*
X0073000Y0278691D01*
X0073000Y0277492D02*
X0064350Y0277492D01*
X0064350Y0276294D02*
X0073000Y0276294D01*
X0073000Y0275095D02*
X0064350Y0275095D01*
X0064350Y0273897D02*
X0073000Y0273897D01*
X0073000Y0272698D02*
X0064350Y0272698D01*
X0064350Y0271500D02*
X0073000Y0271500D01*
X0073000Y0270301D02*
X0064350Y0270301D01*
X0064350Y0269103D02*
X0073000Y0269103D01*
X0073000Y0267904D02*
X0064350Y0267904D01*
X0064350Y0266706D02*
X0073000Y0266706D01*
X0073000Y0265507D02*
X0064350Y0265507D01*
X0064350Y0264309D02*
X0072999Y0264309D01*
X0073395Y0263110D02*
X0064350Y0263110D01*
X0064350Y0261912D02*
X0074558Y0261912D01*
X0075715Y0260713D02*
X0064350Y0260713D01*
X0064350Y0259514D02*
X0076873Y0259514D01*
X0078030Y0258316D02*
X0064350Y0258316D01*
X0064350Y0257117D02*
X0079187Y0257117D01*
X0080344Y0255919D02*
X0064350Y0255919D01*
X0064350Y0254720D02*
X0081501Y0254720D01*
X0082658Y0253522D02*
X0064350Y0253522D01*
X0064350Y0252323D02*
X0083816Y0252323D01*
X0084973Y0251125D02*
X0065499Y0251125D01*
X0070668Y0249926D02*
X0086130Y0249926D01*
X0087277Y0248728D02*
X0073156Y0248728D01*
X0075602Y0247529D02*
X0090419Y0247529D01*
X0091160Y0246331D02*
X0077105Y0246331D01*
X0086035Y0233147D02*
X0178109Y0233147D01*
X0177021Y0231949D02*
X0126727Y0231949D01*
X0123500Y0228833D02*
X0139500Y0228833D01*
X0147000Y0221333D01*
X0147000Y0205833D01*
X0151500Y0201333D01*
X0156000Y0201333D01*
X0145000Y0212773D02*
X0137576Y0212773D01*
X0136378Y0213971D02*
X0145000Y0213971D01*
X0145000Y0215170D02*
X0134430Y0215170D01*
X0129615Y0218765D02*
X0145000Y0218765D01*
X0145000Y0217567D02*
X0128439Y0217567D01*
X0130112Y0219964D02*
X0145000Y0219964D01*
X0144343Y0221162D02*
X0130300Y0221162D01*
X0130253Y0222361D02*
X0143144Y0222361D01*
X0141946Y0223559D02*
X0129757Y0223559D01*
X0128781Y0224758D02*
X0140747Y0224758D01*
X0139549Y0225956D02*
X0126965Y0225956D01*
X0120035Y0225956D02*
X0098848Y0225956D01*
X0099100Y0224758D02*
X0116219Y0224758D01*
X0115243Y0223559D02*
X0099100Y0223559D01*
X0098703Y0222361D02*
X0114747Y0222361D01*
X0114700Y0221162D02*
X0098041Y0221162D01*
X0096778Y0219964D02*
X0114888Y0219964D01*
X0115385Y0218765D02*
X0096628Y0218765D01*
X0097979Y0217567D02*
X0116561Y0217567D01*
X0116631Y0215170D02*
X0099100Y0215170D01*
X0099100Y0213971D02*
X0115432Y0213971D01*
X0114917Y0212773D02*
X0098874Y0212773D01*
X0098677Y0216368D02*
X0145000Y0216368D01*
X0149000Y0216368D02*
X0164419Y0216368D01*
X0164419Y0217567D02*
X0161939Y0217567D01*
X0163115Y0218765D02*
X0164419Y0218765D01*
X0164419Y0219964D02*
X0163612Y0219964D01*
X0163800Y0221162D02*
X0166000Y0221162D01*
X0166000Y0222361D02*
X0163753Y0222361D01*
X0163257Y0223559D02*
X0166000Y0223559D01*
X0166000Y0224758D02*
X0162281Y0224758D01*
X0166294Y0225956D02*
X0145206Y0225956D01*
X0146404Y0224758D02*
X0149719Y0224758D01*
X0148743Y0223559D02*
X0147603Y0223559D01*
X0144007Y0227155D02*
X0166419Y0227155D01*
X0166419Y0228353D02*
X0142809Y0228353D01*
X0141610Y0229552D02*
X0166419Y0229552D01*
X0170000Y0226833D02*
X0168000Y0224833D01*
X0168000Y0217333D01*
X0171581Y0217567D02*
X0178500Y0217567D01*
X0178500Y0218765D02*
X0171581Y0218765D01*
X0171581Y0219964D02*
X0177664Y0219964D01*
X0176837Y0221162D02*
X0170000Y0221162D01*
X0170000Y0222361D02*
X0176400Y0222361D01*
X0176400Y0223559D02*
X0173068Y0223559D01*
X0173581Y0224758D02*
X0176400Y0224758D01*
X0176400Y0225956D02*
X0173581Y0225956D01*
X0173581Y0227155D02*
X0176400Y0227155D01*
X0176400Y0228353D02*
X0173581Y0228353D01*
X0173581Y0229552D02*
X0176400Y0229552D01*
X0176525Y0230750D02*
X0140412Y0230750D01*
X0142125Y0241537D02*
X0154919Y0241537D01*
X0162081Y0237941D02*
X0207000Y0237941D01*
X0207000Y0236743D02*
X0162081Y0236743D01*
X0161553Y0235544D02*
X0207000Y0235544D01*
X0201400Y0233147D02*
X0200600Y0233147D01*
X0200600Y0234330D02*
X0199876Y0234215D01*
X0199157Y0233982D01*
X0198484Y0233639D01*
X0197873Y0233195D01*
X0197339Y0232660D01*
X0196895Y0232049D01*
X0196552Y0231376D01*
X0196318Y0230657D01*
X0196200Y0229911D01*
X0196200Y0226733D01*
X0200600Y0226733D01*
X0200600Y0234330D01*
X0200600Y0231949D02*
X0201400Y0231949D01*
X0201400Y0230750D02*
X0200600Y0230750D01*
X0200600Y0229552D02*
X0201400Y0229552D01*
X0201400Y0228353D02*
X0200600Y0228353D01*
X0200600Y0227155D02*
X0201400Y0227155D01*
X0200600Y0225956D02*
X0195600Y0225956D01*
X0196200Y0225933D02*
X0196200Y0222756D01*
X0196318Y0222009D01*
X0196552Y0221291D01*
X0196895Y0220618D01*
X0197339Y0220006D01*
X0197873Y0219472D01*
X0198484Y0219028D01*
X0199157Y0218685D01*
X0199876Y0218452D01*
X0200600Y0218337D01*
X0200600Y0225933D01*
X0196200Y0225933D01*
X0196200Y0224758D02*
X0195600Y0224758D01*
X0195600Y0223559D02*
X0196200Y0223559D01*
X0196263Y0222361D02*
X0195600Y0222361D01*
X0195162Y0221162D02*
X0196617Y0221162D01*
X0197381Y0219964D02*
X0194336Y0219964D01*
X0192475Y0218765D02*
X0199000Y0218765D01*
X0200600Y0218765D02*
X0201400Y0218765D01*
X0201400Y0219964D02*
X0200600Y0219964D01*
X0200600Y0221162D02*
X0201400Y0221162D01*
X0201400Y0222361D02*
X0200600Y0222361D01*
X0200600Y0223559D02*
X0201400Y0223559D01*
X0201400Y0224758D02*
X0200600Y0224758D01*
X0196200Y0227155D02*
X0195600Y0227155D01*
X0195600Y0228353D02*
X0196200Y0228353D01*
X0196200Y0229552D02*
X0195600Y0229552D01*
X0195475Y0230750D02*
X0196348Y0230750D01*
X0196844Y0231949D02*
X0194979Y0231949D01*
X0193891Y0233147D02*
X0197826Y0233147D01*
X0188109Y0233147D02*
X0183891Y0233147D01*
X0184979Y0231949D02*
X0187021Y0231949D01*
X0186525Y0230750D02*
X0185475Y0230750D01*
X0185600Y0229552D02*
X0186400Y0229552D01*
X0186400Y0228353D02*
X0185600Y0228353D01*
X0185600Y0227155D02*
X0186400Y0227155D01*
X0182500Y0216368D02*
X0254675Y0216368D01*
X0233525Y0218765D02*
X0226475Y0218765D01*
X0225915Y0218533D02*
X0227606Y0219234D01*
X0228900Y0220528D01*
X0229600Y0222218D01*
X0229600Y0230448D01*
X0228900Y0232139D01*
X0227606Y0233433D01*
X0225915Y0234133D01*
X0224085Y0234133D01*
X0222394Y0233433D01*
X0221100Y0232139D01*
X0220400Y0230448D01*
X0220400Y0222218D01*
X0221100Y0220528D01*
X0222394Y0219234D01*
X0224085Y0218533D01*
X0225915Y0218533D01*
X0223525Y0218765D02*
X0203000Y0218765D01*
X0204619Y0219964D02*
X0221664Y0219964D01*
X0220837Y0221162D02*
X0205383Y0221162D01*
X0205737Y0222361D02*
X0220400Y0222361D01*
X0220400Y0223559D02*
X0205800Y0223559D01*
X0205800Y0224758D02*
X0206234Y0224758D01*
X0211766Y0224758D02*
X0220400Y0224758D01*
X0220400Y0225956D02*
X0218965Y0225956D01*
X0219081Y0227155D02*
X0220400Y0227155D01*
X0220400Y0228353D02*
X0219081Y0228353D01*
X0219081Y0229552D02*
X0220400Y0229552D01*
X0220525Y0230750D02*
X0219081Y0230750D01*
X0218727Y0231949D02*
X0221021Y0231949D01*
X0222109Y0233147D02*
X0217500Y0233147D01*
X0217500Y0234346D02*
X0232497Y0234346D01*
X0231530Y0233147D02*
X0227891Y0233147D01*
X0228979Y0231949D02*
X0231021Y0231949D01*
X0230525Y0230750D02*
X0229475Y0230750D01*
X0229600Y0229552D02*
X0230400Y0229552D01*
X0230400Y0228353D02*
X0229600Y0228353D01*
X0229600Y0227155D02*
X0230400Y0227155D01*
X0230400Y0225956D02*
X0229600Y0225956D01*
X0229600Y0224758D02*
X0230400Y0224758D01*
X0230400Y0223559D02*
X0229600Y0223559D01*
X0229600Y0222361D02*
X0230400Y0222361D01*
X0230837Y0221162D02*
X0229162Y0221162D01*
X0228336Y0219964D02*
X0231664Y0219964D01*
X0228581Y0212773D02*
X0305000Y0212773D01*
X0305000Y0213971D02*
X0182500Y0213971D01*
X0182500Y0215170D02*
X0305000Y0215170D01*
X0309000Y0215170D02*
X0315600Y0215170D01*
X0315600Y0216368D02*
X0309000Y0216368D01*
X0309000Y0217567D02*
X0315600Y0217567D01*
X0315600Y0217913D02*
X0315600Y0208753D01*
X0316420Y0207933D01*
X0325580Y0207933D01*
X0326400Y0208753D01*
X0326400Y0209485D01*
X0327709Y0210027D01*
X0332709Y0215027D01*
X0333806Y0216124D01*
X0334400Y0217558D01*
X0334400Y0232703D01*
X0334443Y0233348D01*
X0334400Y0233475D01*
X0334400Y0233609D01*
X0334153Y0234206D01*
X0333946Y0234818D01*
X0333858Y0234919D01*
X0333806Y0235042D01*
X0333349Y0235499D01*
X0330358Y0238919D01*
X0330306Y0239042D01*
X0329850Y0239499D01*
X0329424Y0239985D01*
X0329304Y0240045D01*
X0329209Y0240140D01*
X0328613Y0240387D01*
X0328033Y0240673D01*
X0327900Y0240682D01*
X0327776Y0240733D01*
X0327130Y0240733D01*
X0326485Y0240776D01*
X0326358Y0240733D01*
X0316724Y0240733D01*
X0315291Y0240140D01*
X0311885Y0236733D01*
X0309000Y0236733D01*
X0309000Y0251310D01*
X0310268Y0250785D01*
X0312047Y0250785D01*
X0313690Y0251465D01*
X0314947Y0252722D01*
X0315628Y0254365D01*
X0315628Y0256144D01*
X0314947Y0257787D01*
X0313690Y0259044D01*
X0312047Y0259725D01*
X0310268Y0259725D01*
X0309000Y0259199D01*
X0309000Y0295256D01*
X0313426Y0293818D01*
X0320158Y0290388D01*
X0326271Y0285947D01*
X0331614Y0280604D01*
X0336055Y0274492D01*
X0339485Y0267760D01*
X0341820Y0260574D01*
X0343002Y0253111D01*
X0343150Y0249333D01*
X0343150Y0134333D01*
X0343002Y0130556D01*
X0341820Y0123093D01*
X0339485Y0115907D01*
X0336055Y0109175D01*
X0331614Y0103062D01*
X0326271Y0097720D01*
X0320158Y0093279D01*
X0313426Y0089849D01*
X0309000Y0088410D01*
X0309000Y0178318D01*
X0309291Y0178027D01*
X0310724Y0177433D01*
X0315600Y0177433D01*
X0315600Y0176753D01*
X0316420Y0175933D01*
X0325580Y0175933D01*
X0326400Y0176753D01*
X0326400Y0185913D01*
X0325580Y0186733D01*
X0316420Y0186733D01*
X0315600Y0185913D01*
X0315600Y0185233D01*
X0313115Y0185233D01*
X0309000Y0189349D01*
X0309000Y0191397D01*
X0309445Y0191213D01*
X0317263Y0191213D01*
X0317941Y0190535D01*
X0319926Y0189713D01*
X0322074Y0189713D01*
X0324059Y0190535D01*
X0325578Y0192054D01*
X0326400Y0194039D01*
X0326400Y0196187D01*
X0325578Y0198172D01*
X0324059Y0199691D01*
X0323473Y0199933D01*
X0328385Y0199933D01*
X0329600Y0198718D01*
X0329600Y0197558D01*
X0329919Y0196788D01*
X0329919Y0195572D01*
X0330739Y0194752D01*
X0331954Y0194752D01*
X0332724Y0194433D01*
X0334276Y0194433D01*
X0335046Y0194752D01*
X0336261Y0194752D01*
X0337081Y0195572D01*
X0337081Y0196788D01*
X0337400Y0197558D01*
X0337400Y0201109D01*
X0336806Y0202542D01*
X0333306Y0206042D01*
X0332209Y0207140D01*
X0330776Y0207733D01*
X0316115Y0207733D01*
X0309000Y0214849D01*
X0309000Y0222433D01*
X0315768Y0222433D01*
X0316083Y0222359D01*
X0316536Y0222433D01*
X0316996Y0222433D01*
X0317295Y0222557D01*
X0317832Y0222645D01*
X0317941Y0222535D01*
X0319926Y0221713D01*
X0322074Y0221713D01*
X0324059Y0222535D01*
X0325578Y0224054D01*
X0326400Y0226039D01*
X0326400Y0228187D01*
X0325578Y0230172D01*
X0324059Y0231691D01*
X0322074Y0232513D01*
X0319926Y0232513D01*
X0317941Y0231691D01*
X0316597Y0230346D01*
X0316515Y0230333D01*
X0316806Y0230624D01*
X0319115Y0232933D01*
X0325230Y0232933D01*
X0326600Y0231368D01*
X0326600Y0219949D01*
X0325385Y0218733D01*
X0316420Y0218733D01*
X0315600Y0217913D01*
X0315600Y0213971D02*
X0309878Y0213971D01*
X0311076Y0212773D02*
X0315600Y0212773D01*
X0315600Y0211574D02*
X0312275Y0211574D01*
X0313473Y0210376D02*
X0315600Y0210376D01*
X0315600Y0209177D02*
X0314672Y0209177D01*
X0315870Y0207979D02*
X0316375Y0207979D01*
X0325625Y0207979D02*
X0343150Y0207979D01*
X0343150Y0209177D02*
X0326400Y0209177D01*
X0328058Y0210376D02*
X0343150Y0210376D01*
X0343150Y0211574D02*
X0329256Y0211574D01*
X0330455Y0212773D02*
X0343150Y0212773D01*
X0343150Y0213971D02*
X0331653Y0213971D01*
X0332852Y0215170D02*
X0343150Y0215170D01*
X0343150Y0216368D02*
X0333907Y0216368D01*
X0334400Y0217567D02*
X0343150Y0217567D01*
X0343150Y0218765D02*
X0334400Y0218765D01*
X0334400Y0219964D02*
X0343150Y0219964D01*
X0343150Y0221162D02*
X0334400Y0221162D01*
X0334400Y0222361D02*
X0343150Y0222361D01*
X0343150Y0223559D02*
X0334400Y0223559D01*
X0334400Y0224758D02*
X0343150Y0224758D01*
X0343150Y0225956D02*
X0334400Y0225956D01*
X0334400Y0227155D02*
X0343150Y0227155D01*
X0343150Y0228353D02*
X0334400Y0228353D01*
X0334400Y0229552D02*
X0343150Y0229552D01*
X0343150Y0230750D02*
X0334400Y0230750D01*
X0334400Y0231949D02*
X0343150Y0231949D01*
X0343150Y0233147D02*
X0334430Y0233147D01*
X0334105Y0234346D02*
X0343150Y0234346D01*
X0343150Y0235544D02*
X0333310Y0235544D01*
X0332261Y0236743D02*
X0343150Y0236743D01*
X0343150Y0237941D02*
X0331213Y0237941D01*
X0330209Y0239140D02*
X0343150Y0239140D01*
X0343150Y0240338D02*
X0328729Y0240338D01*
X0324994Y0242964D02*
X0325328Y0243619D01*
X0325555Y0244318D01*
X0325670Y0245045D01*
X0325670Y0245077D01*
X0321335Y0245077D01*
X0321335Y0240742D01*
X0321368Y0240742D01*
X0322094Y0240857D01*
X0322793Y0241084D01*
X0323448Y0241418D01*
X0324042Y0241850D01*
X0324562Y0242370D01*
X0324994Y0242964D01*
X0324828Y0242735D02*
X0343150Y0242735D01*
X0343150Y0241537D02*
X0323611Y0241537D01*
X0321335Y0241537D02*
X0320665Y0241537D01*
X0320665Y0240742D02*
X0320665Y0245077D01*
X0321335Y0245077D01*
X0321335Y0245747D01*
X0325670Y0245747D01*
X0325670Y0245780D01*
X0325555Y0246506D01*
X0325328Y0247205D01*
X0324994Y0247860D01*
X0324562Y0248454D01*
X0324042Y0248974D01*
X0323448Y0249406D01*
X0322793Y0249740D01*
X0322094Y0249967D01*
X0321368Y0250082D01*
X0321335Y0250082D01*
X0321335Y0245747D01*
X0320665Y0245747D01*
X0320665Y0245077D01*
X0316330Y0245077D01*
X0316330Y0245045D01*
X0316445Y0244318D01*
X0316672Y0243619D01*
X0317006Y0242964D01*
X0317438Y0242370D01*
X0317958Y0241850D01*
X0318552Y0241418D01*
X0319207Y0241084D01*
X0319906Y0240857D01*
X0320632Y0240742D01*
X0320665Y0240742D01*
X0320665Y0242735D02*
X0321335Y0242735D01*
X0321335Y0243934D02*
X0320665Y0243934D01*
X0320665Y0245132D02*
X0309000Y0245132D01*
X0309000Y0243934D02*
X0316570Y0243934D01*
X0317172Y0242735D02*
X0309000Y0242735D01*
X0309000Y0241537D02*
X0318389Y0241537D01*
X0315771Y0240338D02*
X0309000Y0240338D01*
X0309000Y0239140D02*
X0314291Y0239140D01*
X0313093Y0237941D02*
X0309000Y0237941D01*
X0309000Y0236743D02*
X0311894Y0236743D01*
X0305000Y0236743D02*
X0268106Y0236743D01*
X0266907Y0237941D02*
X0305000Y0237941D01*
X0305000Y0239140D02*
X0265709Y0239140D01*
X0264510Y0240338D02*
X0305000Y0240338D01*
X0305000Y0241537D02*
X0263312Y0241537D01*
X0262113Y0242735D02*
X0305000Y0242735D01*
X0305000Y0243934D02*
X0260915Y0243934D01*
X0259716Y0245132D02*
X0305000Y0245132D01*
X0305000Y0246331D02*
X0258518Y0246331D01*
X0257319Y0247529D02*
X0305000Y0247529D01*
X0305000Y0248728D02*
X0243621Y0248728D01*
X0242422Y0249926D02*
X0305000Y0249926D01*
X0305000Y0251125D02*
X0241224Y0251125D01*
X0240025Y0252323D02*
X0305000Y0252323D01*
X0305000Y0253522D02*
X0247894Y0253522D01*
X0247606Y0253234D02*
X0248900Y0254528D01*
X0249600Y0256218D01*
X0249600Y0264448D01*
X0248900Y0266139D01*
X0247606Y0267433D01*
X0245915Y0268133D01*
X0244085Y0268133D01*
X0242394Y0267433D01*
X0241100Y0266139D01*
X0240400Y0264448D01*
X0240400Y0256218D01*
X0241100Y0254528D01*
X0242394Y0253234D01*
X0244085Y0252533D01*
X0245915Y0252533D01*
X0247606Y0253234D01*
X0248980Y0254720D02*
X0305000Y0254720D01*
X0305000Y0255919D02*
X0249476Y0255919D01*
X0249600Y0257117D02*
X0305000Y0257117D01*
X0305000Y0258316D02*
X0249600Y0258316D01*
X0249600Y0259514D02*
X0305000Y0259514D01*
X0305000Y0260713D02*
X0249600Y0260713D01*
X0249600Y0261912D02*
X0305000Y0261912D01*
X0305000Y0263110D02*
X0249600Y0263110D01*
X0249600Y0264309D02*
X0305000Y0264309D01*
X0305000Y0265507D02*
X0249161Y0265507D01*
X0248333Y0266706D02*
X0305000Y0266706D01*
X0305000Y0267904D02*
X0246468Y0267904D01*
X0245419Y0269103D02*
X0217500Y0269103D01*
X0217500Y0270301D02*
X0230704Y0270301D01*
X0229505Y0271500D02*
X0217500Y0271500D01*
X0217500Y0272698D02*
X0228307Y0272698D01*
X0227108Y0273897D02*
X0217500Y0273897D01*
X0217500Y0275095D02*
X0225910Y0275095D01*
X0224711Y0276294D02*
X0217500Y0276294D01*
X0218487Y0277492D02*
X0218542Y0277492D01*
X0221458Y0277492D02*
X0223513Y0277492D01*
X0220000Y0281833D02*
X0215500Y0277333D01*
X0215500Y0228833D01*
X0217500Y0235544D02*
X0233696Y0235544D01*
X0238900Y0253522D02*
X0242106Y0253522D01*
X0241020Y0254720D02*
X0238980Y0254720D01*
X0239476Y0255919D02*
X0240524Y0255919D01*
X0240400Y0257117D02*
X0239600Y0257117D01*
X0239600Y0258316D02*
X0240400Y0258316D01*
X0240400Y0259514D02*
X0239600Y0259514D01*
X0239600Y0260713D02*
X0240400Y0260713D01*
X0240400Y0261912D02*
X0239600Y0261912D01*
X0239600Y0263110D02*
X0240400Y0263110D01*
X0240400Y0264309D02*
X0239600Y0264309D01*
X0239161Y0265507D02*
X0240839Y0265507D01*
X0241667Y0266706D02*
X0238333Y0266706D01*
X0236468Y0267904D02*
X0243532Y0267904D01*
X0245419Y0273897D02*
X0232765Y0273897D01*
X0231567Y0275095D02*
X0245920Y0275095D01*
X0248542Y0277492D02*
X0241458Y0277492D01*
X0243318Y0278691D02*
X0246682Y0278691D01*
X0245860Y0279889D02*
X0244140Y0279889D01*
X0244568Y0281088D02*
X0245431Y0281088D01*
X0245431Y0282286D02*
X0244568Y0282286D01*
X0244480Y0283485D02*
X0245739Y0283485D01*
X0245678Y0284683D02*
X0246389Y0284683D01*
X0246877Y0285882D02*
X0247836Y0285882D01*
X0247000Y0287080D02*
X0305000Y0287080D01*
X0305000Y0285882D02*
X0302164Y0285882D01*
X0300909Y0287265D02*
X0302588Y0287960D01*
X0303873Y0289245D01*
X0304568Y0290925D01*
X0304568Y0292742D01*
X0303873Y0294421D01*
X0302588Y0295706D01*
X0300909Y0296402D01*
X0299091Y0296402D01*
X0297412Y0295706D01*
X0296127Y0294421D01*
X0295431Y0292742D01*
X0295431Y0290925D01*
X0296127Y0289245D01*
X0297412Y0287960D01*
X0299091Y0287265D01*
X0300909Y0287265D01*
X0302906Y0288279D02*
X0305000Y0288279D01*
X0305000Y0289477D02*
X0303969Y0289477D01*
X0304465Y0290676D02*
X0305000Y0290676D01*
X0305000Y0291874D02*
X0304568Y0291874D01*
X0304431Y0293073D02*
X0305000Y0293073D01*
X0305000Y0294271D02*
X0303935Y0294271D01*
X0305000Y0295470D02*
X0302824Y0295470D01*
X0302986Y0296668D02*
X0245493Y0296668D01*
X0246692Y0295470D02*
X0247176Y0295470D01*
X0252824Y0295470D02*
X0257176Y0295470D01*
X0257412Y0295706D02*
X0256127Y0294421D01*
X0255431Y0292742D01*
X0255431Y0290925D01*
X0256127Y0289245D01*
X0257412Y0287960D01*
X0259091Y0287265D01*
X0260909Y0287265D01*
X0262588Y0287960D01*
X0263873Y0289245D01*
X0264568Y0290925D01*
X0264568Y0292742D01*
X0263873Y0294421D01*
X0262588Y0295706D01*
X0260909Y0296402D01*
X0259091Y0296402D01*
X0257412Y0295706D01*
X0256065Y0294271D02*
X0253935Y0294271D01*
X0254431Y0293073D02*
X0255569Y0293073D01*
X0255431Y0291874D02*
X0254568Y0291874D01*
X0254465Y0290676D02*
X0255535Y0290676D01*
X0256031Y0289477D02*
X0253969Y0289477D01*
X0252906Y0288279D02*
X0257094Y0288279D01*
X0257836Y0285882D02*
X0252164Y0285882D01*
X0253611Y0284683D02*
X0256389Y0284683D01*
X0255739Y0283485D02*
X0254261Y0283485D01*
X0254568Y0282286D02*
X0255431Y0282286D01*
X0255431Y0281088D02*
X0254568Y0281088D01*
X0254140Y0279889D02*
X0255860Y0279889D01*
X0256682Y0278691D02*
X0253318Y0278691D01*
X0252581Y0270301D02*
X0305000Y0270301D01*
X0305000Y0269103D02*
X0252581Y0269103D01*
X0263318Y0278691D02*
X0266682Y0278691D01*
X0265860Y0279889D02*
X0264140Y0279889D01*
X0264568Y0281088D02*
X0265431Y0281088D01*
X0265431Y0282286D02*
X0264568Y0282286D01*
X0264261Y0283485D02*
X0265739Y0283485D01*
X0266389Y0284683D02*
X0263611Y0284683D01*
X0262164Y0285882D02*
X0267836Y0285882D01*
X0269091Y0287265D02*
X0270909Y0287265D01*
X0272588Y0287960D01*
X0273873Y0289245D01*
X0274568Y0290925D01*
X0274568Y0292742D01*
X0273873Y0294421D01*
X0272588Y0295706D01*
X0270909Y0296402D01*
X0269091Y0296402D01*
X0267412Y0295706D01*
X0266127Y0294421D01*
X0265431Y0292742D01*
X0265431Y0290925D01*
X0266127Y0289245D01*
X0267412Y0287960D01*
X0269091Y0287265D01*
X0267094Y0288279D02*
X0262906Y0288279D01*
X0263969Y0289477D02*
X0266031Y0289477D01*
X0265535Y0290676D02*
X0264465Y0290676D01*
X0264568Y0291874D02*
X0265431Y0291874D01*
X0265569Y0293073D02*
X0264431Y0293073D01*
X0263935Y0294271D02*
X0266065Y0294271D01*
X0267176Y0295470D02*
X0262824Y0295470D01*
X0272824Y0295470D02*
X0277176Y0295470D01*
X0277412Y0295706D02*
X0276127Y0294421D01*
X0275431Y0292742D01*
X0275431Y0290925D01*
X0276127Y0289245D01*
X0277412Y0287960D01*
X0279091Y0287265D01*
X0280909Y0287265D01*
X0282588Y0287960D01*
X0283873Y0289245D01*
X0284568Y0290925D01*
X0284568Y0292742D01*
X0283873Y0294421D01*
X0282588Y0295706D01*
X0280909Y0296402D01*
X0279091Y0296402D01*
X0277412Y0295706D01*
X0276065Y0294271D02*
X0273935Y0294271D01*
X0274431Y0293073D02*
X0275569Y0293073D01*
X0275431Y0291874D02*
X0274568Y0291874D01*
X0274465Y0290676D02*
X0275535Y0290676D01*
X0276031Y0289477D02*
X0273969Y0289477D01*
X0272906Y0288279D02*
X0277094Y0288279D01*
X0277836Y0285882D02*
X0272164Y0285882D01*
X0273611Y0284683D02*
X0276389Y0284683D01*
X0275739Y0283485D02*
X0274261Y0283485D01*
X0274568Y0282286D02*
X0275431Y0282286D01*
X0275431Y0281088D02*
X0274568Y0281088D01*
X0274140Y0279889D02*
X0275860Y0279889D01*
X0276682Y0278691D02*
X0273318Y0278691D01*
X0283318Y0278691D02*
X0286682Y0278691D01*
X0285860Y0279889D02*
X0284140Y0279889D01*
X0284568Y0281088D02*
X0285431Y0281088D01*
X0285431Y0282286D02*
X0284568Y0282286D01*
X0284261Y0283485D02*
X0285739Y0283485D01*
X0286389Y0284683D02*
X0283611Y0284683D01*
X0282164Y0285882D02*
X0287836Y0285882D01*
X0289091Y0287265D02*
X0287412Y0287960D01*
X0286127Y0289245D01*
X0285431Y0290925D01*
X0285431Y0292742D01*
X0286127Y0294421D01*
X0287412Y0295706D01*
X0289091Y0296402D01*
X0290909Y0296402D01*
X0292588Y0295706D01*
X0293873Y0294421D01*
X0294568Y0292742D01*
X0294568Y0290925D01*
X0293873Y0289245D01*
X0292588Y0287960D01*
X0290909Y0287265D01*
X0289091Y0287265D01*
X0287094Y0288279D02*
X0282906Y0288279D01*
X0283969Y0289477D02*
X0286031Y0289477D01*
X0285535Y0290676D02*
X0284465Y0290676D01*
X0284568Y0291874D02*
X0285431Y0291874D01*
X0285569Y0293073D02*
X0284431Y0293073D01*
X0283935Y0294271D02*
X0286065Y0294271D01*
X0287176Y0295470D02*
X0282824Y0295470D01*
X0292824Y0295470D02*
X0297176Y0295470D01*
X0296065Y0294271D02*
X0293935Y0294271D01*
X0294431Y0293073D02*
X0295569Y0293073D01*
X0295431Y0291874D02*
X0294568Y0291874D01*
X0294465Y0290676D02*
X0295535Y0290676D01*
X0296031Y0289477D02*
X0293969Y0289477D01*
X0292906Y0288279D02*
X0297094Y0288279D01*
X0297836Y0285882D02*
X0292164Y0285882D01*
X0293611Y0284683D02*
X0296389Y0284683D01*
X0295739Y0283485D02*
X0294261Y0283485D01*
X0294568Y0282286D02*
X0295431Y0282286D01*
X0295431Y0281088D02*
X0294568Y0281088D01*
X0294140Y0279889D02*
X0295860Y0279889D01*
X0296682Y0278691D02*
X0293318Y0278691D01*
X0303318Y0278691D02*
X0305000Y0278691D01*
X0305000Y0279889D02*
X0304140Y0279889D01*
X0304568Y0281088D02*
X0305000Y0281088D01*
X0305000Y0282286D02*
X0304568Y0282286D01*
X0304261Y0283485D02*
X0305000Y0283485D01*
X0305000Y0284683D02*
X0303611Y0284683D01*
X0309000Y0284683D02*
X0327535Y0284683D01*
X0328733Y0283485D02*
X0309000Y0283485D01*
X0309000Y0282286D02*
X0329932Y0282286D01*
X0331130Y0281088D02*
X0309000Y0281088D01*
X0309000Y0279889D02*
X0332133Y0279889D01*
X0333004Y0278691D02*
X0309000Y0278691D01*
X0309000Y0277492D02*
X0333875Y0277492D01*
X0334745Y0276294D02*
X0309000Y0276294D01*
X0309000Y0275095D02*
X0335616Y0275095D01*
X0336358Y0273897D02*
X0309000Y0273897D01*
X0309000Y0272698D02*
X0336968Y0272698D01*
X0337579Y0271500D02*
X0309000Y0271500D01*
X0309000Y0270301D02*
X0338190Y0270301D01*
X0338800Y0269103D02*
X0309000Y0269103D01*
X0309000Y0267904D02*
X0339411Y0267904D01*
X0339827Y0266706D02*
X0309000Y0266706D01*
X0309000Y0265507D02*
X0340217Y0265507D01*
X0340606Y0264309D02*
X0309000Y0264309D01*
X0309000Y0263110D02*
X0340996Y0263110D01*
X0341385Y0261912D02*
X0309000Y0261912D01*
X0309000Y0260713D02*
X0341774Y0260713D01*
X0341987Y0259514D02*
X0332239Y0259514D01*
X0331732Y0259725D02*
X0329953Y0259725D01*
X0328310Y0259044D01*
X0327053Y0257787D01*
X0326372Y0256144D01*
X0326372Y0254365D01*
X0327053Y0252722D01*
X0328310Y0251465D01*
X0329953Y0250785D01*
X0331732Y0250785D01*
X0333375Y0251465D01*
X0334632Y0252722D01*
X0335313Y0254365D01*
X0335313Y0256144D01*
X0334632Y0257787D01*
X0333375Y0259044D01*
X0331732Y0259725D01*
X0329446Y0259514D02*
X0312554Y0259514D01*
X0314418Y0258316D02*
X0327582Y0258316D01*
X0326776Y0257117D02*
X0315224Y0257117D01*
X0315628Y0255919D02*
X0326372Y0255919D01*
X0326372Y0254720D02*
X0315628Y0254720D01*
X0315278Y0253522D02*
X0326722Y0253522D01*
X0327452Y0252323D02*
X0314548Y0252323D01*
X0312868Y0251125D02*
X0329132Y0251125D01*
X0332553Y0251125D02*
X0343080Y0251125D01*
X0343033Y0252323D02*
X0334233Y0252323D01*
X0334963Y0253522D02*
X0342937Y0253522D01*
X0342747Y0254720D02*
X0335313Y0254720D01*
X0335313Y0255919D02*
X0342557Y0255919D01*
X0342367Y0257117D02*
X0334909Y0257117D01*
X0334103Y0258316D02*
X0342177Y0258316D01*
X0343127Y0249926D02*
X0322219Y0249926D01*
X0321335Y0249926D02*
X0320665Y0249926D01*
X0320665Y0250082D02*
X0320632Y0250082D01*
X0319906Y0249967D01*
X0319207Y0249740D01*
X0318552Y0249406D01*
X0317958Y0248974D01*
X0317438Y0248454D01*
X0317006Y0247860D01*
X0316672Y0247205D01*
X0316445Y0246506D01*
X0316330Y0245780D01*
X0316330Y0245747D01*
X0320665Y0245747D01*
X0320665Y0250082D01*
X0319781Y0249926D02*
X0309000Y0249926D01*
X0309000Y0248728D02*
X0317711Y0248728D01*
X0316837Y0247529D02*
X0309000Y0247529D01*
X0309000Y0246331D02*
X0316417Y0246331D01*
X0320500Y0245912D02*
X0321000Y0245412D01*
X0321335Y0245132D02*
X0343150Y0245132D01*
X0343150Y0243934D02*
X0325430Y0243934D01*
X0325583Y0246331D02*
X0343150Y0246331D01*
X0343150Y0247529D02*
X0325163Y0247529D01*
X0324289Y0248728D02*
X0343150Y0248728D01*
X0326092Y0231949D02*
X0323436Y0231949D01*
X0324999Y0230750D02*
X0326600Y0230750D01*
X0326600Y0229552D02*
X0325835Y0229552D01*
X0326331Y0228353D02*
X0326600Y0228353D01*
X0326600Y0227155D02*
X0326400Y0227155D01*
X0326366Y0225956D02*
X0326600Y0225956D01*
X0326600Y0224758D02*
X0325869Y0224758D01*
X0326600Y0223559D02*
X0325083Y0223559D01*
X0323638Y0222361D02*
X0326600Y0222361D01*
X0326600Y0221162D02*
X0309000Y0221162D01*
X0309000Y0219964D02*
X0326600Y0219964D01*
X0325416Y0218765D02*
X0309000Y0218765D01*
X0309000Y0222361D02*
X0316077Y0222361D01*
X0316091Y0222361D02*
X0318362Y0222361D01*
X0317001Y0230750D02*
X0316932Y0230750D01*
X0318131Y0231949D02*
X0318564Y0231949D01*
X0320500Y0245912D02*
X0320500Y0264333D01*
X0315500Y0269333D01*
X0313000Y0269333D01*
X0309761Y0259514D02*
X0309000Y0259514D01*
X0311157Y0255255D02*
X0280421Y0255255D01*
X0280400Y0254533D01*
X0280400Y0238833D01*
X0280500Y0238833D01*
X0309000Y0251125D02*
X0309447Y0251125D01*
X0320665Y0248728D02*
X0321335Y0248728D01*
X0321335Y0247529D02*
X0320665Y0247529D01*
X0320665Y0246331D02*
X0321335Y0246331D01*
X0326336Y0285882D02*
X0309000Y0285882D01*
X0309000Y0287080D02*
X0324711Y0287080D01*
X0323061Y0288279D02*
X0309000Y0288279D01*
X0309000Y0289477D02*
X0321412Y0289477D01*
X0319593Y0290676D02*
X0309000Y0290676D01*
X0309000Y0291874D02*
X0317241Y0291874D01*
X0314889Y0293073D02*
X0309000Y0293073D01*
X0309000Y0294271D02*
X0312031Y0294271D01*
X0247094Y0288279D02*
X0247000Y0288279D01*
X0245000Y0286833D02*
X0240000Y0281833D01*
X0227836Y0285882D02*
X0227000Y0285882D01*
X0181419Y0273897D02*
X0177892Y0273897D01*
X0177500Y0267904D02*
X0179005Y0267904D01*
X0168500Y0267904D02*
X0132000Y0267904D01*
X0132000Y0266706D02*
X0168500Y0266706D01*
X0168500Y0265507D02*
X0132000Y0265507D01*
X0132000Y0264309D02*
X0168500Y0264309D01*
X0168500Y0263110D02*
X0132000Y0263110D01*
X0132000Y0261912D02*
X0167236Y0261912D01*
X0166919Y0260713D02*
X0132000Y0260713D01*
X0132000Y0259514D02*
X0166919Y0259514D01*
X0166919Y0258316D02*
X0132000Y0258316D01*
X0132000Y0257117D02*
X0166919Y0257117D01*
X0167072Y0255919D02*
X0132000Y0255919D01*
X0130919Y0248728D02*
X0125723Y0248728D01*
X0126921Y0249926D02*
X0166919Y0249926D01*
X0166919Y0248728D02*
X0138081Y0248728D01*
X0138081Y0247529D02*
X0167462Y0247529D01*
X0168500Y0269103D02*
X0132000Y0269103D01*
X0132000Y0270301D02*
X0168500Y0270301D01*
X0168500Y0271500D02*
X0132000Y0271500D01*
X0132000Y0272698D02*
X0168500Y0272698D01*
X0168500Y0273897D02*
X0132000Y0273897D01*
X0132000Y0275095D02*
X0168500Y0275095D01*
X0172164Y0285882D02*
X0173000Y0285882D01*
X0130919Y0247529D02*
X0124524Y0247529D01*
X0123326Y0246331D02*
X0130919Y0246331D01*
X0130919Y0245132D02*
X0122127Y0245132D01*
X0120929Y0243934D02*
X0130919Y0243934D01*
X0120273Y0231949D02*
X0086309Y0231949D01*
X0086582Y0230750D02*
X0119919Y0230750D01*
X0119919Y0229552D02*
X0086850Y0229552D01*
X0086850Y0228353D02*
X0090807Y0228353D01*
X0089648Y0227155D02*
X0086850Y0227155D01*
X0086850Y0225956D02*
X0089152Y0225956D01*
X0088900Y0224758D02*
X0086850Y0224758D01*
X0086850Y0223559D02*
X0088900Y0223559D01*
X0089297Y0222361D02*
X0086850Y0222361D01*
X0086850Y0221162D02*
X0089959Y0221162D01*
X0091222Y0219964D02*
X0086850Y0219964D01*
X0086850Y0218765D02*
X0091372Y0218765D01*
X0090021Y0217567D02*
X0086850Y0217567D01*
X0086850Y0216368D02*
X0089323Y0216368D01*
X0088900Y0215170D02*
X0086850Y0215170D01*
X0086850Y0213971D02*
X0088900Y0213971D01*
X0089126Y0212773D02*
X0086850Y0212773D01*
X0098352Y0227155D02*
X0119919Y0227155D01*
X0119919Y0228353D02*
X0097193Y0228353D01*
X0149000Y0217567D02*
X0150061Y0217567D01*
X0150131Y0215170D02*
X0149000Y0215170D01*
X0171581Y0216368D02*
X0178500Y0216368D01*
X0178500Y0215170D02*
X0172930Y0215170D01*
X0174878Y0213971D02*
X0178500Y0213971D01*
X0178500Y0212773D02*
X0176076Y0212773D01*
X0182889Y0212773D02*
X0221419Y0212773D01*
X0172919Y0188802D02*
X0171984Y0188802D01*
X0172919Y0187604D02*
X0170786Y0187604D01*
X0169587Y0186405D02*
X0172919Y0186405D01*
X0173284Y0185207D02*
X0145900Y0185207D01*
X0145900Y0181611D02*
X0151107Y0181611D01*
X0149374Y0180413D02*
X0145900Y0180413D01*
X0145900Y0179214D02*
X0148600Y0179214D01*
X0148200Y0178016D02*
X0145900Y0178016D01*
X0145900Y0176817D02*
X0148200Y0176817D01*
X0148531Y0175619D02*
X0145900Y0175619D01*
X0145429Y0174420D02*
X0149208Y0174420D01*
X0150706Y0173222D02*
X0144404Y0173222D01*
X0143205Y0172023D02*
X0161295Y0172023D01*
X0162214Y0170825D02*
X0162493Y0170825D01*
X0149786Y0170825D02*
X0142007Y0170825D01*
X0140808Y0169626D02*
X0148771Y0169626D01*
X0148274Y0168428D02*
X0139610Y0168428D01*
X0138411Y0167229D02*
X0148200Y0167229D01*
X0148361Y0166031D02*
X0137213Y0166031D01*
X0136014Y0164832D02*
X0148857Y0164832D01*
X0149994Y0163634D02*
X0134259Y0163634D01*
X0129501Y0160038D02*
X0148999Y0160038D01*
X0148445Y0158840D02*
X0130055Y0158840D01*
X0130300Y0157641D02*
X0148200Y0157641D01*
X0148200Y0156443D02*
X0130300Y0156443D01*
X0130105Y0155244D02*
X0148686Y0155244D01*
X0149582Y0154045D02*
X0131303Y0154045D01*
X0132502Y0152847D02*
X0151611Y0152847D01*
X0150203Y0161237D02*
X0128297Y0161237D01*
X0122669Y0151648D02*
X0122331Y0151648D01*
X0121132Y0150450D02*
X0123868Y0150450D01*
X0125066Y0149251D02*
X0119934Y0149251D01*
X0118735Y0148053D02*
X0126265Y0148053D01*
X0127463Y0146854D02*
X0117537Y0146854D01*
X0116338Y0145656D02*
X0128662Y0145656D01*
X0129860Y0144457D02*
X0115139Y0144457D01*
X0113941Y0143259D02*
X0131059Y0143259D01*
X0112742Y0142060D02*
X0161900Y0142060D01*
X0161900Y0140862D02*
X0111544Y0140862D01*
X0110345Y0139663D02*
X0161900Y0139663D01*
X0161900Y0138465D02*
X0109147Y0138465D01*
X0112681Y0137266D02*
X0161900Y0137266D01*
X0161900Y0136068D02*
X0112681Y0136068D01*
X0112681Y0134869D02*
X0161900Y0134869D01*
X0161900Y0133671D02*
X0112681Y0133671D01*
X0112681Y0132472D02*
X0161900Y0132472D01*
X0161900Y0131274D02*
X0112183Y0131274D01*
X0107753Y0130075D02*
X0161900Y0130075D01*
X0161900Y0128877D02*
X0106555Y0128877D01*
X0105356Y0127678D02*
X0162388Y0127678D01*
X0163438Y0126480D02*
X0104158Y0126480D01*
X0102959Y0125281D02*
X0164637Y0125281D01*
X0165835Y0124083D02*
X0102200Y0124083D01*
X0102200Y0122884D02*
X0167034Y0122884D01*
X0168232Y0121686D02*
X0102200Y0121686D01*
X0102200Y0120487D02*
X0169431Y0120487D01*
X0170629Y0119289D02*
X0102200Y0119289D01*
X0103456Y0118090D02*
X0171828Y0118090D01*
X0173026Y0116892D02*
X0104461Y0116892D01*
X0104957Y0115693D02*
X0174225Y0115693D01*
X0175423Y0114495D02*
X0105100Y0114495D01*
X0105091Y0113296D02*
X0177090Y0113296D01*
X0179091Y0106402D02*
X0177412Y0105706D01*
X0176127Y0104421D01*
X0175431Y0102742D01*
X0175431Y0100925D01*
X0176127Y0099245D01*
X0177412Y0097960D01*
X0179091Y0097265D01*
X0180909Y0097265D01*
X0182588Y0097960D01*
X0183873Y0099245D01*
X0184568Y0100925D01*
X0184568Y0102742D01*
X0183873Y0104421D01*
X0182588Y0105706D01*
X0180909Y0106402D01*
X0179091Y0106402D01*
X0178375Y0106105D02*
X0171625Y0106105D01*
X0170909Y0106402D02*
X0169091Y0106402D01*
X0167412Y0105706D01*
X0166127Y0104421D01*
X0165431Y0102742D01*
X0165431Y0100925D01*
X0166127Y0099245D01*
X0167412Y0097960D01*
X0169091Y0097265D01*
X0170909Y0097265D01*
X0172588Y0097960D01*
X0173873Y0099245D01*
X0174568Y0100925D01*
X0174568Y0102742D01*
X0173873Y0104421D01*
X0172588Y0105706D01*
X0170909Y0106402D01*
X0168375Y0106105D02*
X0161625Y0106105D01*
X0160909Y0106402D02*
X0159091Y0106402D01*
X0157412Y0105706D01*
X0156127Y0104421D01*
X0155431Y0102742D01*
X0155431Y0100925D01*
X0156127Y0099245D01*
X0157412Y0097960D01*
X0159091Y0097265D01*
X0160909Y0097265D01*
X0162588Y0097960D01*
X0163873Y0099245D01*
X0164568Y0100925D01*
X0164568Y0102742D01*
X0163873Y0104421D01*
X0162588Y0105706D01*
X0160909Y0106402D01*
X0158375Y0106105D02*
X0151625Y0106105D01*
X0150909Y0106402D02*
X0149091Y0106402D01*
X0147412Y0105706D01*
X0146127Y0104421D01*
X0145431Y0102742D01*
X0145431Y0100925D01*
X0146127Y0099245D01*
X0147412Y0097960D01*
X0149091Y0097265D01*
X0150909Y0097265D01*
X0152588Y0097960D01*
X0153873Y0099245D01*
X0154568Y0100925D01*
X0154568Y0102742D01*
X0153873Y0104421D01*
X0152588Y0105706D01*
X0150909Y0106402D01*
X0148375Y0106105D02*
X0141625Y0106105D01*
X0140909Y0106402D02*
X0139091Y0106402D01*
X0137412Y0105706D01*
X0136127Y0104421D01*
X0135431Y0102742D01*
X0135431Y0100925D01*
X0136127Y0099245D01*
X0137412Y0097960D01*
X0139091Y0097265D01*
X0140909Y0097265D01*
X0142588Y0097960D01*
X0143873Y0099245D01*
X0144568Y0100925D01*
X0144568Y0102742D01*
X0143873Y0104421D01*
X0142588Y0105706D01*
X0140909Y0106402D01*
X0138375Y0106105D02*
X0131625Y0106105D01*
X0130909Y0106402D02*
X0129091Y0106402D01*
X0127412Y0105706D01*
X0126127Y0104421D01*
X0125431Y0102742D01*
X0125431Y0100925D01*
X0126127Y0099245D01*
X0127412Y0097960D01*
X0129091Y0097265D01*
X0130909Y0097265D01*
X0132588Y0097960D01*
X0133873Y0099245D01*
X0134568Y0100925D01*
X0134568Y0102742D01*
X0133873Y0104421D01*
X0132588Y0105706D01*
X0130909Y0106402D01*
X0128375Y0106105D02*
X0121625Y0106105D01*
X0120909Y0106402D02*
X0122588Y0105706D01*
X0123873Y0104421D01*
X0124568Y0102742D01*
X0124568Y0100925D01*
X0123873Y0099245D01*
X0122588Y0097960D01*
X0120909Y0097265D01*
X0119091Y0097265D01*
X0117412Y0097960D01*
X0116127Y0099245D01*
X0115431Y0100925D01*
X0115431Y0102742D01*
X0116127Y0104421D01*
X0117412Y0105706D01*
X0119091Y0106402D01*
X0120909Y0106402D01*
X0118375Y0106105D02*
X0111625Y0106105D01*
X0110909Y0106402D02*
X0112588Y0105706D01*
X0113873Y0104421D01*
X0114568Y0102742D01*
X0114568Y0100925D01*
X0113873Y0099245D01*
X0112588Y0097960D01*
X0110909Y0097265D01*
X0109091Y0097265D01*
X0107412Y0097960D01*
X0106127Y0099245D01*
X0105431Y0100925D01*
X0105431Y0102742D01*
X0106127Y0104421D01*
X0107412Y0105706D01*
X0109091Y0106402D01*
X0110909Y0106402D01*
X0108375Y0106105D02*
X0101625Y0106105D01*
X0100909Y0106402D02*
X0099091Y0106402D01*
X0097412Y0105706D01*
X0096127Y0104421D01*
X0095431Y0102742D01*
X0095431Y0100925D01*
X0096127Y0099245D01*
X0097412Y0097960D01*
X0099091Y0097265D01*
X0100909Y0097265D01*
X0102588Y0097960D01*
X0103873Y0099245D01*
X0104568Y0100925D01*
X0104568Y0102742D01*
X0103873Y0104421D01*
X0102588Y0105706D01*
X0100909Y0106402D01*
X0098375Y0106105D02*
X0091625Y0106105D01*
X0090909Y0106402D02*
X0089091Y0106402D01*
X0087412Y0105706D01*
X0086127Y0104421D01*
X0085431Y0102742D01*
X0085431Y0100925D01*
X0086127Y0099245D01*
X0087412Y0097960D01*
X0089091Y0097265D01*
X0090909Y0097265D01*
X0092588Y0097960D01*
X0093873Y0099245D01*
X0094568Y0100925D01*
X0094568Y0102742D01*
X0093873Y0104421D01*
X0092588Y0105706D01*
X0090909Y0106402D01*
X0088375Y0106105D02*
X0083900Y0106105D01*
X0083900Y0104907D02*
X0086612Y0104907D01*
X0085832Y0103708D02*
X0084168Y0103708D01*
X0084568Y0102510D02*
X0085431Y0102510D01*
X0085431Y0101311D02*
X0084568Y0101311D01*
X0084232Y0100112D02*
X0085768Y0100112D01*
X0086459Y0098914D02*
X0083541Y0098914D01*
X0081997Y0097715D02*
X0088003Y0097715D01*
X0089091Y0096402D02*
X0087412Y0095706D01*
X0086127Y0094421D01*
X0085431Y0092742D01*
X0085431Y0090925D01*
X0086127Y0089245D01*
X0087412Y0087960D01*
X0089091Y0087265D01*
X0090909Y0087265D01*
X0092588Y0087960D01*
X0093873Y0089245D01*
X0094568Y0090925D01*
X0094568Y0092742D01*
X0093873Y0094421D01*
X0092588Y0095706D01*
X0090909Y0096402D01*
X0089091Y0096402D01*
X0087024Y0095318D02*
X0084568Y0095318D01*
X0084568Y0095582D02*
X0083748Y0096402D01*
X0076252Y0096402D01*
X0075431Y0095582D01*
X0075431Y0088085D01*
X0076252Y0087265D01*
X0083748Y0087265D01*
X0084568Y0088085D01*
X0084568Y0095582D01*
X0084568Y0094120D02*
X0086002Y0094120D01*
X0085506Y0092921D02*
X0084568Y0092921D01*
X0084568Y0091723D02*
X0085431Y0091723D01*
X0085597Y0090524D02*
X0084568Y0090524D01*
X0084568Y0089326D02*
X0086094Y0089326D01*
X0087245Y0088127D02*
X0084568Y0088127D01*
X0092755Y0088127D02*
X0097245Y0088127D01*
X0097412Y0087960D02*
X0099091Y0087265D01*
X0100909Y0087265D01*
X0102588Y0087960D01*
X0103873Y0089245D01*
X0104568Y0090925D01*
X0104568Y0092742D01*
X0103873Y0094421D01*
X0102588Y0095706D01*
X0100909Y0096402D01*
X0099091Y0096402D01*
X0097412Y0095706D01*
X0096127Y0094421D01*
X0095431Y0092742D01*
X0095431Y0090925D01*
X0096127Y0089245D01*
X0097412Y0087960D01*
X0096094Y0089326D02*
X0093906Y0089326D01*
X0094403Y0090524D02*
X0095597Y0090524D01*
X0095431Y0091723D02*
X0094568Y0091723D01*
X0094494Y0092921D02*
X0095506Y0092921D01*
X0096002Y0094120D02*
X0093998Y0094120D01*
X0092976Y0095318D02*
X0097024Y0095318D01*
X0098003Y0097715D02*
X0091997Y0097715D01*
X0093541Y0098914D02*
X0096459Y0098914D01*
X0095768Y0100112D02*
X0094232Y0100112D01*
X0094568Y0101311D02*
X0095431Y0101311D01*
X0095431Y0102510D02*
X0094568Y0102510D01*
X0094168Y0103708D02*
X0095832Y0103708D01*
X0096612Y0104907D02*
X0093388Y0104907D01*
X0097857Y0109701D02*
X0083900Y0109701D01*
X0083900Y0110899D02*
X0096222Y0110899D01*
X0095406Y0112098D02*
X0083900Y0112098D01*
X0083978Y0113296D02*
X0094909Y0113296D01*
X0094900Y0114495D02*
X0085177Y0114495D01*
X0086375Y0115693D02*
X0095043Y0115693D01*
X0095539Y0116892D02*
X0087574Y0116892D01*
X0088772Y0118090D02*
X0096544Y0118090D01*
X0097800Y0119289D02*
X0089971Y0119289D01*
X0091169Y0120487D02*
X0097800Y0120487D01*
X0097800Y0121686D02*
X0092368Y0121686D01*
X0093566Y0122884D02*
X0097800Y0122884D01*
X0097800Y0124083D02*
X0094765Y0124083D01*
X0095963Y0125281D02*
X0097800Y0125281D01*
X0097935Y0126480D02*
X0097162Y0126480D01*
X0098360Y0127678D02*
X0099134Y0127678D01*
X0099559Y0128877D02*
X0100332Y0128877D01*
X0100757Y0130075D02*
X0101531Y0130075D01*
X0101956Y0131274D02*
X0102729Y0131274D01*
X0103154Y0132472D02*
X0103928Y0132472D01*
X0104353Y0133671D02*
X0105126Y0133671D01*
X0090925Y0131274D02*
X0064350Y0131274D01*
X0064350Y0130075D02*
X0089727Y0130075D01*
X0088528Y0128877D02*
X0064350Y0128877D01*
X0064350Y0127678D02*
X0087330Y0127678D01*
X0086131Y0126480D02*
X0064350Y0126480D01*
X0064350Y0125281D02*
X0084932Y0125281D01*
X0083734Y0124083D02*
X0064350Y0124083D01*
X0064350Y0122884D02*
X0082535Y0122884D01*
X0081337Y0121686D02*
X0064350Y0121686D01*
X0064350Y0120487D02*
X0080138Y0120487D01*
X0078940Y0119289D02*
X0071900Y0119289D01*
X0072034Y0119245D02*
X0071241Y0119503D01*
X0070417Y0119633D01*
X0070286Y0119633D01*
X0070286Y0114619D01*
X0075300Y0114619D01*
X0075300Y0114750D01*
X0075169Y0115574D01*
X0074912Y0116368D01*
X0074533Y0117111D01*
X0074043Y0117786D01*
X0073453Y0118376D01*
X0072778Y0118866D01*
X0072034Y0119245D01*
X0070286Y0119289D02*
X0069714Y0119289D01*
X0069714Y0119633D02*
X0069714Y0114619D01*
X0069714Y0114047D01*
X0070286Y0114047D01*
X0070286Y0109033D01*
X0070417Y0109033D01*
X0071241Y0109164D01*
X0072034Y0109422D01*
X0072778Y0109800D01*
X0073453Y0110291D01*
X0074043Y0110881D01*
X0074533Y0111556D01*
X0074912Y0112299D01*
X0075169Y0113092D01*
X0075300Y0113916D01*
X0075300Y0114047D01*
X0070286Y0114047D01*
X0070286Y0114619D01*
X0069714Y0114619D01*
X0064700Y0114619D01*
X0064700Y0114750D01*
X0064830Y0115574D01*
X0065088Y0116368D01*
X0065467Y0117111D01*
X0065957Y0117786D01*
X0066547Y0118376D01*
X0067222Y0118866D01*
X0067966Y0119245D01*
X0068759Y0119503D01*
X0069583Y0119633D01*
X0069714Y0119633D01*
X0069714Y0118090D02*
X0070286Y0118090D01*
X0070286Y0116892D02*
X0069714Y0116892D01*
X0069714Y0115693D02*
X0070286Y0115693D01*
X0070286Y0114495D02*
X0076100Y0114495D01*
X0076135Y0115693D02*
X0075131Y0115693D01*
X0074645Y0116892D02*
X0076631Y0116892D01*
X0077741Y0118090D02*
X0073738Y0118090D01*
X0075202Y0113296D02*
X0076100Y0113296D01*
X0076100Y0112098D02*
X0074809Y0112098D01*
X0074056Y0110899D02*
X0076100Y0110899D01*
X0076100Y0109701D02*
X0072582Y0109701D01*
X0070286Y0109701D02*
X0069714Y0109701D01*
X0069714Y0109033D02*
X0069714Y0114047D01*
X0064700Y0114047D01*
X0064700Y0113916D01*
X0064830Y0113092D01*
X0065088Y0112299D01*
X0065467Y0111556D01*
X0065957Y0110881D01*
X0066547Y0110291D01*
X0067222Y0109800D01*
X0067966Y0109422D01*
X0068759Y0109164D01*
X0069583Y0109033D01*
X0069714Y0109033D01*
X0069714Y0110899D02*
X0070286Y0110899D01*
X0070286Y0112098D02*
X0069714Y0112098D01*
X0069714Y0113296D02*
X0070286Y0113296D01*
X0069714Y0114495D02*
X0064350Y0114495D01*
X0064350Y0115693D02*
X0064869Y0115693D01*
X0065355Y0116892D02*
X0064350Y0116892D01*
X0064350Y0118090D02*
X0066262Y0118090D01*
X0068100Y0119289D02*
X0064350Y0119289D01*
X0064350Y0113296D02*
X0064798Y0113296D01*
X0065191Y0112098D02*
X0064350Y0112098D01*
X0064350Y0110899D02*
X0065944Y0110899D01*
X0067418Y0109701D02*
X0064350Y0109701D01*
X0064350Y0108502D02*
X0076100Y0108502D01*
X0076100Y0107304D02*
X0064350Y0107304D01*
X0064350Y0106105D02*
X0076100Y0106105D01*
X0076100Y0104907D02*
X0064350Y0104907D01*
X0064350Y0103708D02*
X0075832Y0103708D01*
X0075431Y0102510D02*
X0064350Y0102510D01*
X0064350Y0101311D02*
X0075431Y0101311D01*
X0075768Y0100112D02*
X0064350Y0100112D01*
X0064350Y0098914D02*
X0076459Y0098914D01*
X0078003Y0097715D02*
X0064350Y0097715D01*
X0064350Y0096517D02*
X0305000Y0096517D01*
X0305000Y0097715D02*
X0301997Y0097715D01*
X0300909Y0096402D02*
X0302588Y0095706D01*
X0303873Y0094421D01*
X0304568Y0092742D01*
X0304568Y0090925D01*
X0303873Y0089245D01*
X0302588Y0087960D01*
X0300909Y0087265D01*
X0299091Y0087265D01*
X0297412Y0087960D01*
X0296127Y0089245D01*
X0295431Y0090925D01*
X0295431Y0092742D01*
X0296127Y0094421D01*
X0297412Y0095706D01*
X0299091Y0096402D01*
X0300909Y0096402D01*
X0302976Y0095318D02*
X0305000Y0095318D01*
X0305000Y0094120D02*
X0303998Y0094120D01*
X0304494Y0092921D02*
X0305000Y0092921D01*
X0305000Y0091723D02*
X0304568Y0091723D01*
X0304403Y0090524D02*
X0305000Y0090524D01*
X0305000Y0089326D02*
X0303906Y0089326D01*
X0305000Y0088127D02*
X0302755Y0088127D01*
X0302548Y0086929D02*
X0064350Y0086929D01*
X0064350Y0088127D02*
X0075431Y0088127D01*
X0075431Y0089326D02*
X0064350Y0089326D01*
X0064350Y0090524D02*
X0075431Y0090524D01*
X0075431Y0091723D02*
X0064350Y0091723D01*
X0064350Y0092921D02*
X0075431Y0092921D01*
X0075431Y0094120D02*
X0064350Y0094120D01*
X0064350Y0095318D02*
X0075431Y0095318D01*
X0083900Y0107304D02*
X0295014Y0107304D01*
X0296100Y0106105D02*
X0291625Y0106105D01*
X0290909Y0106402D02*
X0292588Y0105706D01*
X0293873Y0104421D01*
X0294568Y0102742D01*
X0294568Y0100925D01*
X0293873Y0099245D01*
X0292588Y0097960D01*
X0290909Y0097265D01*
X0289091Y0097265D01*
X0287412Y0097960D01*
X0286127Y0099245D01*
X0285431Y0100925D01*
X0285431Y0102742D01*
X0286127Y0104421D01*
X0287412Y0105706D01*
X0289091Y0106402D01*
X0290909Y0106402D01*
X0288375Y0106105D02*
X0281625Y0106105D01*
X0280909Y0106402D02*
X0279091Y0106402D01*
X0277412Y0105706D01*
X0276127Y0104421D01*
X0275431Y0102742D01*
X0275431Y0100925D01*
X0276127Y0099245D01*
X0277412Y0097960D01*
X0279091Y0097265D01*
X0280909Y0097265D01*
X0282588Y0097960D01*
X0283873Y0099245D01*
X0284568Y0100925D01*
X0284568Y0102742D01*
X0283873Y0104421D01*
X0282588Y0105706D01*
X0280909Y0106402D01*
X0278375Y0106105D02*
X0271625Y0106105D01*
X0270909Y0106402D02*
X0269091Y0106402D01*
X0267412Y0105706D01*
X0266127Y0104421D01*
X0265431Y0102742D01*
X0265431Y0100925D01*
X0266127Y0099245D01*
X0267412Y0097960D01*
X0269091Y0097265D01*
X0270909Y0097265D01*
X0272588Y0097960D01*
X0273873Y0099245D01*
X0274568Y0100925D01*
X0274568Y0102742D01*
X0273873Y0104421D01*
X0272588Y0105706D01*
X0270909Y0106402D01*
X0268375Y0106105D02*
X0261625Y0106105D01*
X0260909Y0106402D02*
X0259091Y0106402D01*
X0257412Y0105706D01*
X0256127Y0104421D01*
X0255431Y0102742D01*
X0255431Y0100925D01*
X0256127Y0099245D01*
X0257412Y0097960D01*
X0259091Y0097265D01*
X0260909Y0097265D01*
X0262588Y0097960D01*
X0263873Y0099245D01*
X0264568Y0100925D01*
X0264568Y0102742D01*
X0263873Y0104421D01*
X0262588Y0105706D01*
X0260909Y0106402D01*
X0258375Y0106105D02*
X0251625Y0106105D01*
X0250909Y0106402D02*
X0249091Y0106402D01*
X0247412Y0105706D01*
X0246127Y0104421D01*
X0245431Y0102742D01*
X0245431Y0100925D01*
X0246127Y0099245D01*
X0247412Y0097960D01*
X0249091Y0097265D01*
X0250909Y0097265D01*
X0252588Y0097960D01*
X0253873Y0099245D01*
X0254568Y0100925D01*
X0254568Y0102742D01*
X0253873Y0104421D01*
X0252588Y0105706D01*
X0250909Y0106402D01*
X0248375Y0106105D02*
X0241625Y0106105D01*
X0240909Y0106402D02*
X0239091Y0106402D01*
X0237412Y0105706D01*
X0236127Y0104421D01*
X0235431Y0102742D01*
X0235431Y0100925D01*
X0236127Y0099245D01*
X0237412Y0097960D01*
X0239091Y0097265D01*
X0240909Y0097265D01*
X0242588Y0097960D01*
X0243873Y0099245D01*
X0244568Y0100925D01*
X0244568Y0102742D01*
X0243873Y0104421D01*
X0242588Y0105706D01*
X0240909Y0106402D01*
X0238375Y0106105D02*
X0231625Y0106105D01*
X0230909Y0106402D02*
X0229091Y0106402D01*
X0227412Y0105706D01*
X0226127Y0104421D01*
X0225431Y0102742D01*
X0225431Y0100925D01*
X0226127Y0099245D01*
X0227412Y0097960D01*
X0229091Y0097265D01*
X0230909Y0097265D01*
X0232588Y0097960D01*
X0233873Y0099245D01*
X0234568Y0100925D01*
X0234568Y0102742D01*
X0233873Y0104421D01*
X0232588Y0105706D01*
X0230909Y0106402D01*
X0228375Y0106105D02*
X0221625Y0106105D01*
X0220909Y0106402D02*
X0219091Y0106402D01*
X0217412Y0105706D01*
X0216127Y0104421D01*
X0215431Y0102742D01*
X0215431Y0100925D01*
X0216127Y0099245D01*
X0217412Y0097960D01*
X0219091Y0097265D01*
X0220909Y0097265D01*
X0222588Y0097960D01*
X0223873Y0099245D01*
X0224568Y0100925D01*
X0224568Y0102742D01*
X0223873Y0104421D01*
X0222588Y0105706D01*
X0220909Y0106402D01*
X0218375Y0106105D02*
X0211625Y0106105D01*
X0210909Y0106402D02*
X0212588Y0105706D01*
X0213873Y0104421D01*
X0214568Y0102742D01*
X0214568Y0100925D01*
X0213873Y0099245D01*
X0212588Y0097960D01*
X0210909Y0097265D01*
X0209091Y0097265D01*
X0207412Y0097960D01*
X0206127Y0099245D01*
X0205431Y0100925D01*
X0205431Y0102742D01*
X0206127Y0104421D01*
X0207412Y0105706D01*
X0209091Y0106402D01*
X0210909Y0106402D01*
X0208375Y0106105D02*
X0201625Y0106105D01*
X0200909Y0106402D02*
X0202588Y0105706D01*
X0203873Y0104421D01*
X0204568Y0102742D01*
X0204568Y0100925D01*
X0203873Y0099245D01*
X0202588Y0097960D01*
X0200909Y0097265D01*
X0199091Y0097265D01*
X0197412Y0097960D01*
X0196127Y0099245D01*
X0195431Y0100925D01*
X0195431Y0102742D01*
X0196127Y0104421D01*
X0197412Y0105706D01*
X0199091Y0106402D01*
X0200909Y0106402D01*
X0198375Y0106105D02*
X0191625Y0106105D01*
X0190909Y0106402D02*
X0189091Y0106402D01*
X0187412Y0105706D01*
X0186127Y0104421D01*
X0185431Y0102742D01*
X0185431Y0100925D01*
X0186127Y0099245D01*
X0187412Y0097960D01*
X0189091Y0097265D01*
X0190909Y0097265D01*
X0192588Y0097960D01*
X0193873Y0099245D01*
X0194568Y0100925D01*
X0194568Y0102742D01*
X0193873Y0104421D01*
X0192588Y0105706D01*
X0190909Y0106402D01*
X0188375Y0106105D02*
X0181625Y0106105D01*
X0183388Y0104907D02*
X0186612Y0104907D01*
X0185832Y0103708D02*
X0184168Y0103708D01*
X0184568Y0102510D02*
X0185431Y0102510D01*
X0185431Y0101311D02*
X0184568Y0101311D01*
X0184232Y0100112D02*
X0185768Y0100112D01*
X0186459Y0098914D02*
X0183541Y0098914D01*
X0181997Y0097715D02*
X0188003Y0097715D01*
X0189091Y0096402D02*
X0187412Y0095706D01*
X0186127Y0094421D01*
X0185431Y0092742D01*
X0185431Y0090925D01*
X0186127Y0089245D01*
X0187412Y0087960D01*
X0189091Y0087265D01*
X0190909Y0087265D01*
X0192588Y0087960D01*
X0193873Y0089245D01*
X0194568Y0090925D01*
X0194568Y0092742D01*
X0193873Y0094421D01*
X0192588Y0095706D01*
X0190909Y0096402D01*
X0189091Y0096402D01*
X0187024Y0095318D02*
X0182976Y0095318D01*
X0182588Y0095706D02*
X0180909Y0096402D01*
X0179091Y0096402D01*
X0177412Y0095706D01*
X0176127Y0094421D01*
X0175431Y0092742D01*
X0175431Y0090925D01*
X0176127Y0089245D01*
X0177412Y0087960D01*
X0179091Y0087265D01*
X0180909Y0087265D01*
X0182588Y0087960D01*
X0183873Y0089245D01*
X0184568Y0090925D01*
X0184568Y0092742D01*
X0183873Y0094421D01*
X0182588Y0095706D01*
X0183998Y0094120D02*
X0186002Y0094120D01*
X0185506Y0092921D02*
X0184494Y0092921D01*
X0184568Y0091723D02*
X0185431Y0091723D01*
X0185597Y0090524D02*
X0184403Y0090524D01*
X0183906Y0089326D02*
X0186094Y0089326D01*
X0187245Y0088127D02*
X0182755Y0088127D01*
X0177245Y0088127D02*
X0172755Y0088127D01*
X0172588Y0087960D02*
X0173873Y0089245D01*
X0174568Y0090925D01*
X0174568Y0092742D01*
X0173873Y0094421D01*
X0172588Y0095706D01*
X0170909Y0096402D01*
X0169091Y0096402D01*
X0167412Y0095706D01*
X0166127Y0094421D01*
X0165431Y0092742D01*
X0165431Y0090925D01*
X0166127Y0089245D01*
X0167412Y0087960D01*
X0169091Y0087265D01*
X0170909Y0087265D01*
X0172588Y0087960D01*
X0173906Y0089326D02*
X0176094Y0089326D01*
X0175597Y0090524D02*
X0174403Y0090524D01*
X0174568Y0091723D02*
X0175431Y0091723D01*
X0175506Y0092921D02*
X0174494Y0092921D01*
X0173998Y0094120D02*
X0176002Y0094120D01*
X0177024Y0095318D02*
X0172976Y0095318D01*
X0171997Y0097715D02*
X0178003Y0097715D01*
X0176459Y0098914D02*
X0173541Y0098914D01*
X0174232Y0100112D02*
X0175768Y0100112D01*
X0175431Y0101311D02*
X0174568Y0101311D01*
X0174568Y0102510D02*
X0175431Y0102510D01*
X0175832Y0103708D02*
X0174168Y0103708D01*
X0173388Y0104907D02*
X0176612Y0104907D01*
X0166612Y0104907D02*
X0163388Y0104907D01*
X0164168Y0103708D02*
X0165832Y0103708D01*
X0165431Y0102510D02*
X0164568Y0102510D01*
X0164568Y0101311D02*
X0165431Y0101311D01*
X0165768Y0100112D02*
X0164232Y0100112D01*
X0163541Y0098914D02*
X0166459Y0098914D01*
X0168003Y0097715D02*
X0161997Y0097715D01*
X0160909Y0096402D02*
X0159091Y0096402D01*
X0157412Y0095706D01*
X0156127Y0094421D01*
X0155431Y0092742D01*
X0155431Y0090925D01*
X0156127Y0089245D01*
X0157412Y0087960D01*
X0159091Y0087265D01*
X0160909Y0087265D01*
X0162588Y0087960D01*
X0163873Y0089245D01*
X0164568Y0090925D01*
X0164568Y0092742D01*
X0163873Y0094421D01*
X0162588Y0095706D01*
X0160909Y0096402D01*
X0162976Y0095318D02*
X0167024Y0095318D01*
X0166002Y0094120D02*
X0163998Y0094120D01*
X0164494Y0092921D02*
X0165506Y0092921D01*
X0165431Y0091723D02*
X0164568Y0091723D01*
X0164403Y0090524D02*
X0165597Y0090524D01*
X0166094Y0089326D02*
X0163906Y0089326D01*
X0162755Y0088127D02*
X0167245Y0088127D01*
X0157245Y0088127D02*
X0152755Y0088127D01*
X0152588Y0087960D02*
X0153873Y0089245D01*
X0154568Y0090925D01*
X0154568Y0092742D01*
X0153873Y0094421D01*
X0152588Y0095706D01*
X0150909Y0096402D01*
X0149091Y0096402D01*
X0147412Y0095706D01*
X0146127Y0094421D01*
X0145431Y0092742D01*
X0145431Y0090925D01*
X0146127Y0089245D01*
X0147412Y0087960D01*
X0149091Y0087265D01*
X0150909Y0087265D01*
X0152588Y0087960D01*
X0153906Y0089326D02*
X0156094Y0089326D01*
X0155597Y0090524D02*
X0154403Y0090524D01*
X0154568Y0091723D02*
X0155431Y0091723D01*
X0155506Y0092921D02*
X0154494Y0092921D01*
X0153998Y0094120D02*
X0156002Y0094120D01*
X0157024Y0095318D02*
X0152976Y0095318D01*
X0151997Y0097715D02*
X0158003Y0097715D01*
X0156459Y0098914D02*
X0153541Y0098914D01*
X0154232Y0100112D02*
X0155768Y0100112D01*
X0155431Y0101311D02*
X0154568Y0101311D01*
X0154568Y0102510D02*
X0155431Y0102510D01*
X0155832Y0103708D02*
X0154168Y0103708D01*
X0153388Y0104907D02*
X0156612Y0104907D01*
X0146612Y0104907D02*
X0143388Y0104907D01*
X0144168Y0103708D02*
X0145832Y0103708D01*
X0145431Y0102510D02*
X0144568Y0102510D01*
X0144568Y0101311D02*
X0145431Y0101311D01*
X0145768Y0100112D02*
X0144232Y0100112D01*
X0143541Y0098914D02*
X0146459Y0098914D01*
X0148003Y0097715D02*
X0141997Y0097715D01*
X0140909Y0096402D02*
X0139091Y0096402D01*
X0137412Y0095706D01*
X0136127Y0094421D01*
X0135431Y0092742D01*
X0135431Y0090925D01*
X0136127Y0089245D01*
X0137412Y0087960D01*
X0139091Y0087265D01*
X0140909Y0087265D01*
X0142588Y0087960D01*
X0143873Y0089245D01*
X0144568Y0090925D01*
X0144568Y0092742D01*
X0143873Y0094421D01*
X0142588Y0095706D01*
X0140909Y0096402D01*
X0142976Y0095318D02*
X0147024Y0095318D01*
X0146002Y0094120D02*
X0143998Y0094120D01*
X0144494Y0092921D02*
X0145506Y0092921D01*
X0145431Y0091723D02*
X0144568Y0091723D01*
X0144403Y0090524D02*
X0145597Y0090524D01*
X0146094Y0089326D02*
X0143906Y0089326D01*
X0142755Y0088127D02*
X0147245Y0088127D01*
X0137245Y0088127D02*
X0132755Y0088127D01*
X0132588Y0087960D02*
X0133873Y0089245D01*
X0134568Y0090925D01*
X0134568Y0092742D01*
X0133873Y0094421D01*
X0132588Y0095706D01*
X0130909Y0096402D01*
X0129091Y0096402D01*
X0127412Y0095706D01*
X0126127Y0094421D01*
X0125431Y0092742D01*
X0125431Y0090925D01*
X0126127Y0089245D01*
X0127412Y0087960D01*
X0129091Y0087265D01*
X0130909Y0087265D01*
X0132588Y0087960D01*
X0133906Y0089326D02*
X0136094Y0089326D01*
X0135597Y0090524D02*
X0134403Y0090524D01*
X0134568Y0091723D02*
X0135431Y0091723D01*
X0135506Y0092921D02*
X0134494Y0092921D01*
X0133998Y0094120D02*
X0136002Y0094120D01*
X0137024Y0095318D02*
X0132976Y0095318D01*
X0131997Y0097715D02*
X0138003Y0097715D01*
X0136459Y0098914D02*
X0133541Y0098914D01*
X0134232Y0100112D02*
X0135768Y0100112D01*
X0135431Y0101311D02*
X0134568Y0101311D01*
X0134568Y0102510D02*
X0135431Y0102510D01*
X0135832Y0103708D02*
X0134168Y0103708D01*
X0133388Y0104907D02*
X0136612Y0104907D01*
X0126612Y0104907D02*
X0123388Y0104907D01*
X0124168Y0103708D02*
X0125832Y0103708D01*
X0125431Y0102510D02*
X0124568Y0102510D01*
X0124568Y0101311D02*
X0125431Y0101311D01*
X0125768Y0100112D02*
X0124232Y0100112D01*
X0123541Y0098914D02*
X0126459Y0098914D01*
X0128003Y0097715D02*
X0121997Y0097715D01*
X0120909Y0096402D02*
X0122588Y0095706D01*
X0123873Y0094421D01*
X0124568Y0092742D01*
X0124568Y0090925D01*
X0123873Y0089245D01*
X0122588Y0087960D01*
X0120909Y0087265D01*
X0119091Y0087265D01*
X0117412Y0087960D01*
X0116127Y0089245D01*
X0115431Y0090925D01*
X0115431Y0092742D01*
X0116127Y0094421D01*
X0117412Y0095706D01*
X0119091Y0096402D01*
X0120909Y0096402D01*
X0122976Y0095318D02*
X0127024Y0095318D01*
X0126002Y0094120D02*
X0123998Y0094120D01*
X0124494Y0092921D02*
X0125506Y0092921D01*
X0125431Y0091723D02*
X0124568Y0091723D01*
X0124403Y0090524D02*
X0125597Y0090524D01*
X0126094Y0089326D02*
X0123906Y0089326D01*
X0122755Y0088127D02*
X0127245Y0088127D01*
X0117245Y0088127D02*
X0112755Y0088127D01*
X0112588Y0087960D02*
X0113873Y0089245D01*
X0114568Y0090925D01*
X0114568Y0092742D01*
X0113873Y0094421D01*
X0112588Y0095706D01*
X0110909Y0096402D01*
X0109091Y0096402D01*
X0107412Y0095706D01*
X0106127Y0094421D01*
X0105431Y0092742D01*
X0105431Y0090925D01*
X0106127Y0089245D01*
X0107412Y0087960D01*
X0109091Y0087265D01*
X0110909Y0087265D01*
X0112588Y0087960D01*
X0113906Y0089326D02*
X0116094Y0089326D01*
X0115597Y0090524D02*
X0114403Y0090524D01*
X0114568Y0091723D02*
X0115431Y0091723D01*
X0115506Y0092921D02*
X0114494Y0092921D01*
X0113998Y0094120D02*
X0116002Y0094120D01*
X0117024Y0095318D02*
X0112976Y0095318D01*
X0111997Y0097715D02*
X0118003Y0097715D01*
X0116459Y0098914D02*
X0113541Y0098914D01*
X0114232Y0100112D02*
X0115768Y0100112D01*
X0115431Y0101311D02*
X0114568Y0101311D01*
X0114568Y0102510D02*
X0115431Y0102510D01*
X0115832Y0103708D02*
X0114168Y0103708D01*
X0113388Y0104907D02*
X0116612Y0104907D01*
X0108003Y0097715D02*
X0101997Y0097715D01*
X0103541Y0098914D02*
X0106459Y0098914D01*
X0105768Y0100112D02*
X0104232Y0100112D01*
X0104568Y0101311D02*
X0105431Y0101311D01*
X0105431Y0102510D02*
X0104568Y0102510D01*
X0104168Y0103708D02*
X0105832Y0103708D01*
X0106612Y0104907D02*
X0103388Y0104907D01*
X0102142Y0109701D02*
X0292617Y0109701D01*
X0291419Y0110899D02*
X0103778Y0110899D01*
X0104594Y0112098D02*
X0290220Y0112098D01*
X0293816Y0108502D02*
X0083900Y0108502D01*
X0102976Y0095318D02*
X0107024Y0095318D01*
X0106002Y0094120D02*
X0103998Y0094120D01*
X0104494Y0092921D02*
X0105506Y0092921D01*
X0105431Y0091723D02*
X0104568Y0091723D01*
X0104403Y0090524D02*
X0105597Y0090524D01*
X0106094Y0089326D02*
X0103906Y0089326D01*
X0102755Y0088127D02*
X0107245Y0088127D01*
X0088900Y0148053D02*
X0085298Y0148053D01*
X0085746Y0149251D02*
X0088900Y0149251D01*
X0088900Y0150450D02*
X0086019Y0150450D01*
X0086293Y0151648D02*
X0088900Y0151648D01*
X0088900Y0152847D02*
X0086566Y0152847D01*
X0086840Y0154045D02*
X0088900Y0154045D01*
X0088900Y0155244D02*
X0086850Y0155244D01*
X0086850Y0156443D02*
X0088900Y0156443D01*
X0086850Y0157641D02*
X0092001Y0157641D01*
X0090281Y0158840D02*
X0086850Y0158840D01*
X0086850Y0160038D02*
X0089431Y0160038D01*
X0088934Y0161237D02*
X0086850Y0161237D01*
X0086850Y0162435D02*
X0088900Y0162435D01*
X0089018Y0163634D02*
X0086850Y0163634D01*
X0086850Y0164832D02*
X0089515Y0164832D01*
X0090485Y0166031D02*
X0086850Y0166031D01*
X0086850Y0167229D02*
X0092493Y0167229D01*
X0090693Y0168428D02*
X0086850Y0168428D01*
X0086850Y0169626D02*
X0089601Y0169626D01*
X0089105Y0170825D02*
X0086850Y0170825D01*
X0086850Y0172023D02*
X0088900Y0172023D01*
X0088900Y0173222D02*
X0086850Y0173222D01*
X0086850Y0174420D02*
X0088702Y0174420D01*
X0087503Y0175619D02*
X0086850Y0175619D01*
X0169700Y0146854D02*
X0305000Y0146854D01*
X0305000Y0145656D02*
X0169700Y0145656D01*
X0169700Y0144457D02*
X0305000Y0144457D01*
X0305000Y0143259D02*
X0169700Y0143259D01*
X0169700Y0142060D02*
X0305000Y0142060D01*
X0305000Y0140862D02*
X0169700Y0140862D01*
X0169700Y0139663D02*
X0305000Y0139663D01*
X0305000Y0138465D02*
X0169700Y0138465D01*
X0169700Y0137266D02*
X0305000Y0137266D01*
X0305000Y0136068D02*
X0169700Y0136068D01*
X0169700Y0134869D02*
X0305000Y0134869D01*
X0305000Y0133671D02*
X0169700Y0133671D01*
X0169700Y0132472D02*
X0305000Y0132472D01*
X0305000Y0131274D02*
X0169700Y0131274D01*
X0170873Y0130075D02*
X0305000Y0130075D01*
X0305000Y0128877D02*
X0172072Y0128877D01*
X0173270Y0127678D02*
X0305000Y0127678D01*
X0305000Y0126480D02*
X0174469Y0126480D01*
X0175668Y0125281D02*
X0305000Y0125281D01*
X0305000Y0124083D02*
X0176866Y0124083D01*
X0178065Y0122884D02*
X0305000Y0122884D01*
X0305000Y0121686D02*
X0179263Y0121686D01*
X0193388Y0104907D02*
X0196612Y0104907D01*
X0195832Y0103708D02*
X0194168Y0103708D01*
X0194568Y0102510D02*
X0195431Y0102510D01*
X0195431Y0101311D02*
X0194568Y0101311D01*
X0194232Y0100112D02*
X0195768Y0100112D01*
X0196459Y0098914D02*
X0193541Y0098914D01*
X0191997Y0097715D02*
X0198003Y0097715D01*
X0199091Y0096402D02*
X0197412Y0095706D01*
X0196127Y0094421D01*
X0195431Y0092742D01*
X0195431Y0090925D01*
X0196127Y0089245D01*
X0197412Y0087960D01*
X0199091Y0087265D01*
X0200909Y0087265D01*
X0202588Y0087960D01*
X0203873Y0089245D01*
X0204568Y0090925D01*
X0204568Y0092742D01*
X0203873Y0094421D01*
X0202588Y0095706D01*
X0200909Y0096402D01*
X0199091Y0096402D01*
X0197024Y0095318D02*
X0192976Y0095318D01*
X0193998Y0094120D02*
X0196002Y0094120D01*
X0195506Y0092921D02*
X0194494Y0092921D01*
X0194568Y0091723D02*
X0195431Y0091723D01*
X0195597Y0090524D02*
X0194403Y0090524D01*
X0193906Y0089326D02*
X0196094Y0089326D01*
X0197245Y0088127D02*
X0192755Y0088127D01*
X0202755Y0088127D02*
X0207245Y0088127D01*
X0207412Y0087960D02*
X0209091Y0087265D01*
X0210909Y0087265D01*
X0212588Y0087960D01*
X0213873Y0089245D01*
X0214568Y0090925D01*
X0214568Y0092742D01*
X0213873Y0094421D01*
X0212588Y0095706D01*
X0210909Y0096402D01*
X0209091Y0096402D01*
X0207412Y0095706D01*
X0206127Y0094421D01*
X0205431Y0092742D01*
X0205431Y0090925D01*
X0206127Y0089245D01*
X0207412Y0087960D01*
X0206094Y0089326D02*
X0203906Y0089326D01*
X0204403Y0090524D02*
X0205597Y0090524D01*
X0205431Y0091723D02*
X0204568Y0091723D01*
X0204494Y0092921D02*
X0205506Y0092921D01*
X0206002Y0094120D02*
X0203998Y0094120D01*
X0202976Y0095318D02*
X0207024Y0095318D01*
X0208003Y0097715D02*
X0201997Y0097715D01*
X0203541Y0098914D02*
X0206459Y0098914D01*
X0205768Y0100112D02*
X0204232Y0100112D01*
X0204568Y0101311D02*
X0205431Y0101311D01*
X0205431Y0102510D02*
X0204568Y0102510D01*
X0204168Y0103708D02*
X0205832Y0103708D01*
X0206612Y0104907D02*
X0203388Y0104907D01*
X0213388Y0104907D02*
X0216612Y0104907D01*
X0215832Y0103708D02*
X0214168Y0103708D01*
X0214568Y0102510D02*
X0215431Y0102510D01*
X0215431Y0101311D02*
X0214568Y0101311D01*
X0214232Y0100112D02*
X0215768Y0100112D01*
X0216459Y0098914D02*
X0213541Y0098914D01*
X0211997Y0097715D02*
X0218003Y0097715D01*
X0219091Y0096402D02*
X0217412Y0095706D01*
X0216127Y0094421D01*
X0215431Y0092742D01*
X0215431Y0090925D01*
X0216127Y0089245D01*
X0217412Y0087960D01*
X0219091Y0087265D01*
X0220909Y0087265D01*
X0222588Y0087960D01*
X0223873Y0089245D01*
X0224568Y0090925D01*
X0224568Y0092742D01*
X0223873Y0094421D01*
X0222588Y0095706D01*
X0220909Y0096402D01*
X0219091Y0096402D01*
X0217024Y0095318D02*
X0212976Y0095318D01*
X0213998Y0094120D02*
X0216002Y0094120D01*
X0215506Y0092921D02*
X0214494Y0092921D01*
X0214568Y0091723D02*
X0215431Y0091723D01*
X0215597Y0090524D02*
X0214403Y0090524D01*
X0213906Y0089326D02*
X0216094Y0089326D01*
X0217245Y0088127D02*
X0212755Y0088127D01*
X0222755Y0088127D02*
X0227245Y0088127D01*
X0227412Y0087960D02*
X0229091Y0087265D01*
X0230909Y0087265D01*
X0232588Y0087960D01*
X0233873Y0089245D01*
X0234568Y0090925D01*
X0234568Y0092742D01*
X0233873Y0094421D01*
X0232588Y0095706D01*
X0230909Y0096402D01*
X0229091Y0096402D01*
X0227412Y0095706D01*
X0226127Y0094421D01*
X0225431Y0092742D01*
X0225431Y0090925D01*
X0226127Y0089245D01*
X0227412Y0087960D01*
X0226094Y0089326D02*
X0223906Y0089326D01*
X0224403Y0090524D02*
X0225597Y0090524D01*
X0225431Y0091723D02*
X0224568Y0091723D01*
X0224494Y0092921D02*
X0225506Y0092921D01*
X0226002Y0094120D02*
X0223998Y0094120D01*
X0222976Y0095318D02*
X0227024Y0095318D01*
X0228003Y0097715D02*
X0221997Y0097715D01*
X0223541Y0098914D02*
X0226459Y0098914D01*
X0225768Y0100112D02*
X0224232Y0100112D01*
X0224568Y0101311D02*
X0225431Y0101311D01*
X0225431Y0102510D02*
X0224568Y0102510D01*
X0224168Y0103708D02*
X0225832Y0103708D01*
X0226612Y0104907D02*
X0223388Y0104907D01*
X0231997Y0097715D02*
X0238003Y0097715D01*
X0239091Y0096402D02*
X0237412Y0095706D01*
X0236127Y0094421D01*
X0235431Y0092742D01*
X0235431Y0090925D01*
X0236127Y0089245D01*
X0237412Y0087960D01*
X0239091Y0087265D01*
X0240909Y0087265D01*
X0242588Y0087960D01*
X0243873Y0089245D01*
X0244568Y0090925D01*
X0244568Y0092742D01*
X0243873Y0094421D01*
X0242588Y0095706D01*
X0240909Y0096402D01*
X0239091Y0096402D01*
X0237024Y0095318D02*
X0232976Y0095318D01*
X0233998Y0094120D02*
X0236002Y0094120D01*
X0235506Y0092921D02*
X0234494Y0092921D01*
X0234568Y0091723D02*
X0235431Y0091723D01*
X0235597Y0090524D02*
X0234403Y0090524D01*
X0233906Y0089326D02*
X0236094Y0089326D01*
X0237245Y0088127D02*
X0232755Y0088127D01*
X0242755Y0088127D02*
X0247245Y0088127D01*
X0247412Y0087960D02*
X0249091Y0087265D01*
X0250909Y0087265D01*
X0252588Y0087960D01*
X0253873Y0089245D01*
X0254568Y0090925D01*
X0254568Y0092742D01*
X0253873Y0094421D01*
X0252588Y0095706D01*
X0250909Y0096402D01*
X0249091Y0096402D01*
X0247412Y0095706D01*
X0246127Y0094421D01*
X0245431Y0092742D01*
X0245431Y0090925D01*
X0246127Y0089245D01*
X0247412Y0087960D01*
X0246094Y0089326D02*
X0243906Y0089326D01*
X0244403Y0090524D02*
X0245597Y0090524D01*
X0245431Y0091723D02*
X0244568Y0091723D01*
X0244494Y0092921D02*
X0245506Y0092921D01*
X0246002Y0094120D02*
X0243998Y0094120D01*
X0242976Y0095318D02*
X0247024Y0095318D01*
X0248003Y0097715D02*
X0241997Y0097715D01*
X0243541Y0098914D02*
X0246459Y0098914D01*
X0245768Y0100112D02*
X0244232Y0100112D01*
X0244568Y0101311D02*
X0245431Y0101311D01*
X0245431Y0102510D02*
X0244568Y0102510D01*
X0244168Y0103708D02*
X0245832Y0103708D01*
X0246612Y0104907D02*
X0243388Y0104907D01*
X0236612Y0104907D02*
X0233388Y0104907D01*
X0234168Y0103708D02*
X0235832Y0103708D01*
X0235431Y0102510D02*
X0234568Y0102510D01*
X0234568Y0101311D02*
X0235431Y0101311D01*
X0235768Y0100112D02*
X0234232Y0100112D01*
X0233541Y0098914D02*
X0236459Y0098914D01*
X0251997Y0097715D02*
X0258003Y0097715D01*
X0259091Y0096402D02*
X0257412Y0095706D01*
X0256127Y0094421D01*
X0255431Y0092742D01*
X0255431Y0090925D01*
X0256127Y0089245D01*
X0257412Y0087960D01*
X0259091Y0087265D01*
X0260909Y0087265D01*
X0262588Y0087960D01*
X0263873Y0089245D01*
X0264568Y0090925D01*
X0264568Y0092742D01*
X0263873Y0094421D01*
X0262588Y0095706D01*
X0260909Y0096402D01*
X0259091Y0096402D01*
X0257024Y0095318D02*
X0252976Y0095318D01*
X0253998Y0094120D02*
X0256002Y0094120D01*
X0255506Y0092921D02*
X0254494Y0092921D01*
X0254568Y0091723D02*
X0255431Y0091723D01*
X0255597Y0090524D02*
X0254403Y0090524D01*
X0253906Y0089326D02*
X0256094Y0089326D01*
X0257245Y0088127D02*
X0252755Y0088127D01*
X0262755Y0088127D02*
X0267245Y0088127D01*
X0267412Y0087960D02*
X0269091Y0087265D01*
X0270909Y0087265D01*
X0272588Y0087960D01*
X0273873Y0089245D01*
X0274568Y0090925D01*
X0274568Y0092742D01*
X0273873Y0094421D01*
X0272588Y0095706D01*
X0270909Y0096402D01*
X0269091Y0096402D01*
X0267412Y0095706D01*
X0266127Y0094421D01*
X0265431Y0092742D01*
X0265431Y0090925D01*
X0266127Y0089245D01*
X0267412Y0087960D01*
X0266094Y0089326D02*
X0263906Y0089326D01*
X0264403Y0090524D02*
X0265597Y0090524D01*
X0265431Y0091723D02*
X0264568Y0091723D01*
X0264494Y0092921D02*
X0265506Y0092921D01*
X0266002Y0094120D02*
X0263998Y0094120D01*
X0262976Y0095318D02*
X0267024Y0095318D01*
X0268003Y0097715D02*
X0261997Y0097715D01*
X0263541Y0098914D02*
X0266459Y0098914D01*
X0265768Y0100112D02*
X0264232Y0100112D01*
X0264568Y0101311D02*
X0265431Y0101311D01*
X0265431Y0102510D02*
X0264568Y0102510D01*
X0264168Y0103708D02*
X0265832Y0103708D01*
X0266612Y0104907D02*
X0263388Y0104907D01*
X0256612Y0104907D02*
X0253388Y0104907D01*
X0254168Y0103708D02*
X0255832Y0103708D01*
X0255431Y0102510D02*
X0254568Y0102510D01*
X0254568Y0101311D02*
X0255431Y0101311D01*
X0255768Y0100112D02*
X0254232Y0100112D01*
X0253541Y0098914D02*
X0256459Y0098914D01*
X0271997Y0097715D02*
X0278003Y0097715D01*
X0279091Y0096402D02*
X0277412Y0095706D01*
X0276127Y0094421D01*
X0275431Y0092742D01*
X0275431Y0090925D01*
X0276127Y0089245D01*
X0277412Y0087960D01*
X0279091Y0087265D01*
X0280909Y0087265D01*
X0282588Y0087960D01*
X0283873Y0089245D01*
X0284568Y0090925D01*
X0284568Y0092742D01*
X0283873Y0094421D01*
X0282588Y0095706D01*
X0280909Y0096402D01*
X0279091Y0096402D01*
X0277024Y0095318D02*
X0272976Y0095318D01*
X0273998Y0094120D02*
X0276002Y0094120D01*
X0275506Y0092921D02*
X0274494Y0092921D01*
X0274568Y0091723D02*
X0275431Y0091723D01*
X0275597Y0090524D02*
X0274403Y0090524D01*
X0273906Y0089326D02*
X0276094Y0089326D01*
X0277245Y0088127D02*
X0272755Y0088127D01*
X0282755Y0088127D02*
X0287245Y0088127D01*
X0287412Y0087960D02*
X0289091Y0087265D01*
X0290909Y0087265D01*
X0292588Y0087960D01*
X0293873Y0089245D01*
X0294568Y0090925D01*
X0294568Y0092742D01*
X0293873Y0094421D01*
X0292588Y0095706D01*
X0290909Y0096402D01*
X0289091Y0096402D01*
X0287412Y0095706D01*
X0286127Y0094421D01*
X0285431Y0092742D01*
X0285431Y0090925D01*
X0286127Y0089245D01*
X0287412Y0087960D01*
X0286094Y0089326D02*
X0283906Y0089326D01*
X0284403Y0090524D02*
X0285597Y0090524D01*
X0285431Y0091723D02*
X0284568Y0091723D01*
X0284494Y0092921D02*
X0285506Y0092921D01*
X0286002Y0094120D02*
X0283998Y0094120D01*
X0282976Y0095318D02*
X0287024Y0095318D01*
X0288003Y0097715D02*
X0281997Y0097715D01*
X0283541Y0098914D02*
X0286459Y0098914D01*
X0285768Y0100112D02*
X0284232Y0100112D01*
X0284568Y0101311D02*
X0285431Y0101311D01*
X0285431Y0102510D02*
X0284568Y0102510D01*
X0284168Y0103708D02*
X0285832Y0103708D01*
X0286612Y0104907D02*
X0283388Y0104907D01*
X0276612Y0104907D02*
X0273388Y0104907D01*
X0274168Y0103708D02*
X0275832Y0103708D01*
X0275431Y0102510D02*
X0274568Y0102510D01*
X0274568Y0101311D02*
X0275431Y0101311D01*
X0275768Y0100112D02*
X0274232Y0100112D01*
X0273541Y0098914D02*
X0276459Y0098914D01*
X0291997Y0097715D02*
X0298003Y0097715D01*
X0296459Y0098914D02*
X0293541Y0098914D01*
X0294232Y0100112D02*
X0295768Y0100112D01*
X0295431Y0101311D02*
X0294568Y0101311D01*
X0294568Y0102510D02*
X0295431Y0102510D01*
X0295832Y0103708D02*
X0294168Y0103708D01*
X0293388Y0104907D02*
X0296100Y0104907D01*
X0303900Y0104907D02*
X0305000Y0104907D01*
X0305000Y0106105D02*
X0303900Y0106105D01*
X0303900Y0107304D02*
X0305000Y0107304D01*
X0305000Y0108502D02*
X0303900Y0108502D01*
X0303448Y0109701D02*
X0305000Y0109701D01*
X0305000Y0110899D02*
X0302450Y0110899D01*
X0301251Y0112098D02*
X0305000Y0112098D01*
X0305000Y0113296D02*
X0300053Y0113296D01*
X0298854Y0114495D02*
X0305000Y0114495D01*
X0305000Y0115693D02*
X0297656Y0115693D01*
X0296457Y0116892D02*
X0305000Y0116892D01*
X0305000Y0118090D02*
X0295259Y0118090D01*
X0294060Y0119289D02*
X0305000Y0119289D01*
X0305000Y0120487D02*
X0292511Y0120487D01*
X0309000Y0120487D02*
X0340973Y0120487D01*
X0340584Y0119289D02*
X0309000Y0119289D01*
X0309000Y0118090D02*
X0340194Y0118090D01*
X0339805Y0116892D02*
X0309000Y0116892D01*
X0309000Y0115693D02*
X0339376Y0115693D01*
X0338765Y0114495D02*
X0309000Y0114495D01*
X0309000Y0113296D02*
X0338154Y0113296D01*
X0337544Y0112098D02*
X0309000Y0112098D01*
X0309000Y0110899D02*
X0336933Y0110899D01*
X0336322Y0109701D02*
X0309000Y0109701D01*
X0309000Y0108502D02*
X0335566Y0108502D01*
X0334695Y0107304D02*
X0309000Y0107304D01*
X0309000Y0106105D02*
X0333824Y0106105D01*
X0332953Y0104907D02*
X0309000Y0104907D01*
X0309000Y0103708D02*
X0332083Y0103708D01*
X0331061Y0102510D02*
X0309000Y0102510D01*
X0309000Y0101311D02*
X0329862Y0101311D01*
X0328664Y0100112D02*
X0309000Y0100112D01*
X0309000Y0098914D02*
X0327465Y0098914D01*
X0326265Y0097715D02*
X0309000Y0097715D01*
X0309000Y0096517D02*
X0324615Y0096517D01*
X0322966Y0095318D02*
X0309000Y0095318D01*
X0309000Y0094120D02*
X0321316Y0094120D01*
X0319457Y0092921D02*
X0309000Y0092921D01*
X0309000Y0091723D02*
X0317105Y0091723D01*
X0314753Y0090524D02*
X0309000Y0090524D01*
X0309000Y0089326D02*
X0311818Y0089326D01*
X0305000Y0098914D02*
X0303541Y0098914D01*
X0304232Y0100112D02*
X0305000Y0100112D01*
X0305000Y0101311D02*
X0304568Y0101311D01*
X0304568Y0102510D02*
X0305000Y0102510D01*
X0305000Y0103708D02*
X0304168Y0103708D01*
X0297024Y0095318D02*
X0292976Y0095318D01*
X0293998Y0094120D02*
X0296002Y0094120D01*
X0295506Y0092921D02*
X0294494Y0092921D01*
X0294568Y0091723D02*
X0295431Y0091723D01*
X0295597Y0090524D02*
X0294403Y0090524D01*
X0293906Y0089326D02*
X0296094Y0089326D01*
X0297245Y0088127D02*
X0292755Y0088127D01*
X0309000Y0121686D02*
X0341362Y0121686D01*
X0341752Y0122884D02*
X0309000Y0122884D01*
X0309000Y0124083D02*
X0341976Y0124083D01*
X0342166Y0125281D02*
X0309000Y0125281D01*
X0309000Y0126480D02*
X0342356Y0126480D01*
X0342546Y0127678D02*
X0309000Y0127678D01*
X0309000Y0128877D02*
X0342736Y0128877D01*
X0342926Y0130075D02*
X0309000Y0130075D01*
X0309000Y0131274D02*
X0343030Y0131274D01*
X0343077Y0132472D02*
X0309000Y0132472D01*
X0309000Y0133671D02*
X0343124Y0133671D01*
X0343150Y0134869D02*
X0309000Y0134869D01*
X0309000Y0136068D02*
X0343150Y0136068D01*
X0343150Y0137266D02*
X0309000Y0137266D01*
X0309000Y0138465D02*
X0343150Y0138465D01*
X0343150Y0139663D02*
X0309000Y0139663D01*
X0309000Y0140862D02*
X0343150Y0140862D01*
X0343150Y0142060D02*
X0326401Y0142060D01*
X0326491Y0142216D02*
X0326600Y0142623D01*
X0326600Y0146252D01*
X0321581Y0146252D01*
X0321581Y0141233D01*
X0325211Y0141233D01*
X0325618Y0141342D01*
X0325982Y0141553D01*
X0326280Y0141851D01*
X0326491Y0142216D01*
X0326600Y0143259D02*
X0343150Y0143259D01*
X0343150Y0144457D02*
X0326600Y0144457D01*
X0326600Y0145656D02*
X0343150Y0145656D01*
X0343150Y0146854D02*
X0321581Y0146854D01*
X0321581Y0147414D02*
X0326600Y0147414D01*
X0326600Y0151044D01*
X0326491Y0151451D01*
X0326280Y0151816D01*
X0325982Y0152114D01*
X0325618Y0152324D01*
X0325211Y0152433D01*
X0321581Y0152433D01*
X0321581Y0147415D01*
X0320419Y0147415D01*
X0320419Y0152433D01*
X0316789Y0152433D01*
X0316382Y0152324D01*
X0316018Y0152114D01*
X0315720Y0151816D01*
X0315509Y0151451D01*
X0315400Y0151044D01*
X0315400Y0147414D01*
X0320419Y0147414D01*
X0320419Y0146252D01*
X0321581Y0146252D01*
X0321581Y0147414D01*
X0321581Y0148053D02*
X0320419Y0148053D01*
X0320419Y0149251D02*
X0321581Y0149251D01*
X0321581Y0150450D02*
X0320419Y0150450D01*
X0320419Y0151648D02*
X0321581Y0151648D01*
X0322074Y0155213D02*
X0324059Y0156035D01*
X0325578Y0157554D01*
X0326400Y0159539D01*
X0326400Y0161687D01*
X0325578Y0163672D01*
X0324059Y0165191D01*
X0322074Y0166013D01*
X0319926Y0166013D01*
X0317941Y0165191D01*
X0316422Y0163672D01*
X0315600Y0161687D01*
X0315600Y0159539D01*
X0316422Y0157554D01*
X0317941Y0156035D01*
X0319926Y0155213D01*
X0322074Y0155213D01*
X0322149Y0155244D02*
X0343150Y0155244D01*
X0343150Y0154045D02*
X0309000Y0154045D01*
X0309000Y0152847D02*
X0343150Y0152847D01*
X0343150Y0151648D02*
X0326377Y0151648D01*
X0326600Y0150450D02*
X0343150Y0150450D01*
X0343150Y0149251D02*
X0326600Y0149251D01*
X0326600Y0148053D02*
X0343150Y0148053D01*
X0343150Y0156443D02*
X0324466Y0156443D01*
X0325614Y0157641D02*
X0343150Y0157641D01*
X0343150Y0158840D02*
X0326110Y0158840D01*
X0326400Y0160038D02*
X0343150Y0160038D01*
X0343150Y0161237D02*
X0326400Y0161237D01*
X0326090Y0162435D02*
X0343150Y0162435D01*
X0343150Y0163634D02*
X0325594Y0163634D01*
X0324417Y0164832D02*
X0343150Y0164832D01*
X0343150Y0166031D02*
X0309000Y0166031D01*
X0309000Y0167229D02*
X0343150Y0167229D01*
X0343150Y0168428D02*
X0309000Y0168428D01*
X0309000Y0169626D02*
X0343150Y0169626D01*
X0343150Y0170825D02*
X0309000Y0170825D01*
X0309000Y0172023D02*
X0343150Y0172023D01*
X0343150Y0173222D02*
X0309000Y0173222D01*
X0309000Y0174420D02*
X0343150Y0174420D01*
X0343150Y0175619D02*
X0309000Y0175619D01*
X0309000Y0176817D02*
X0315600Y0176817D01*
X0309318Y0178016D02*
X0309000Y0178016D01*
X0311943Y0186405D02*
X0316092Y0186405D01*
X0319231Y0190001D02*
X0309000Y0190001D01*
X0309000Y0191199D02*
X0317277Y0191199D01*
X0322769Y0190001D02*
X0343150Y0190001D01*
X0343150Y0191199D02*
X0324723Y0191199D01*
X0325720Y0192398D02*
X0343150Y0192398D01*
X0343150Y0193596D02*
X0326217Y0193596D01*
X0326400Y0194795D02*
X0330696Y0194795D01*
X0329919Y0195993D02*
X0326400Y0195993D01*
X0325984Y0197192D02*
X0329751Y0197192D01*
X0329600Y0198390D02*
X0325359Y0198390D01*
X0324161Y0199589D02*
X0328729Y0199589D01*
X0333767Y0205581D02*
X0343150Y0205581D01*
X0343150Y0204383D02*
X0334966Y0204383D01*
X0336164Y0203184D02*
X0343150Y0203184D01*
X0343150Y0201986D02*
X0337037Y0201986D01*
X0337400Y0200787D02*
X0343150Y0200787D01*
X0343150Y0199589D02*
X0337400Y0199589D01*
X0337400Y0198390D02*
X0343150Y0198390D01*
X0343150Y0197192D02*
X0337249Y0197192D01*
X0337081Y0195993D02*
X0343150Y0195993D01*
X0343150Y0194795D02*
X0336304Y0194795D01*
X0343150Y0188802D02*
X0309546Y0188802D01*
X0310745Y0187604D02*
X0343150Y0187604D01*
X0343150Y0186405D02*
X0325908Y0186405D01*
X0326400Y0185207D02*
X0343150Y0185207D01*
X0343150Y0184008D02*
X0326400Y0184008D01*
X0326400Y0182810D02*
X0343150Y0182810D01*
X0343150Y0181611D02*
X0326400Y0181611D01*
X0326400Y0180413D02*
X0343150Y0180413D01*
X0343150Y0179214D02*
X0326400Y0179214D01*
X0326400Y0178016D02*
X0343150Y0178016D01*
X0343150Y0176817D02*
X0326400Y0176817D01*
X0317582Y0164832D02*
X0309000Y0164832D01*
X0309000Y0163634D02*
X0316406Y0163634D01*
X0315910Y0162435D02*
X0309000Y0162435D01*
X0309000Y0161237D02*
X0315600Y0161237D01*
X0315600Y0160038D02*
X0309000Y0160038D01*
X0309000Y0158840D02*
X0315890Y0158840D01*
X0316386Y0157641D02*
X0309000Y0157641D01*
X0309000Y0156443D02*
X0317534Y0156443D01*
X0319851Y0155244D02*
X0309000Y0155244D01*
X0309000Y0151648D02*
X0315623Y0151648D01*
X0315400Y0150450D02*
X0309000Y0150450D01*
X0309000Y0149251D02*
X0315400Y0149251D01*
X0315400Y0148053D02*
X0309000Y0148053D01*
X0309000Y0146854D02*
X0320419Y0146854D01*
X0320419Y0146252D02*
X0315400Y0146252D01*
X0315400Y0142623D01*
X0315509Y0142216D01*
X0315720Y0141851D01*
X0316018Y0141553D01*
X0316382Y0141342D01*
X0316789Y0141233D01*
X0320419Y0141233D01*
X0320419Y0146252D01*
X0320419Y0145656D02*
X0321581Y0145656D01*
X0321581Y0144457D02*
X0320419Y0144457D01*
X0320419Y0143259D02*
X0321581Y0143259D01*
X0321581Y0142060D02*
X0320419Y0142060D01*
X0315599Y0142060D02*
X0309000Y0142060D01*
X0309000Y0143259D02*
X0315400Y0143259D01*
X0315400Y0144457D02*
X0309000Y0144457D01*
X0309000Y0145656D02*
X0315400Y0145656D01*
X0332569Y0206780D02*
X0343150Y0206780D01*
X0086065Y0294271D02*
X0084110Y0294271D01*
X0084611Y0293073D02*
X0085569Y0293073D01*
X0074507Y0296668D02*
X0064350Y0296668D01*
X0064350Y0295470D02*
X0073308Y0295470D01*
X0073000Y0294271D02*
X0064350Y0294271D01*
X0064350Y0293073D02*
X0073000Y0293073D01*
X0073000Y0291874D02*
X0064350Y0291874D01*
X0064350Y0290676D02*
X0073000Y0290676D01*
X0073000Y0289477D02*
X0064350Y0289477D01*
X0064350Y0288279D02*
X0073000Y0288279D01*
X0079616Y0277492D02*
X0080384Y0277492D01*
D21*
X0094000Y0214333D02*
X0088300Y0208633D01*
X0088300Y0177933D01*
X0093900Y0172333D01*
X0094000Y0172333D01*
X0101900Y0162733D02*
X0107300Y0157333D01*
X0099000Y0157333D01*
X0094000Y0152333D01*
X0101900Y0162733D02*
X0101900Y0186433D01*
X0094000Y0194333D01*
X0107300Y0157333D02*
X0122500Y0157333D01*
X0109100Y0134533D02*
X0100000Y0125433D01*
X0100000Y0114333D01*
D22*
X0176000Y0149833D03*
X0176000Y0159833D03*
X0176000Y0169833D03*
X0176000Y0179833D03*
X0236000Y0178833D03*
X0236000Y0168833D03*
X0236000Y0158833D03*
X0236000Y0148833D03*
D23*
X0310200Y0219833D03*
M02*
