G75*
%MOIN*%
%OFA0B0*%
%FSLAX25Y25*%
%IPPOS*%
%LPD*%
%AMOC8*
5,1,8,0,0,1.08239X$1,22.5*
%
%ADD10R,0.07137X0.07137*%
%ADD11C,0.07137*%
%ADD12R,0.08800X0.08800*%
%ADD13C,0.08800*%
%ADD14C,0.08200*%
%ADD15C,0.07200*%
%ADD16C,0.06940*%
%ADD17R,0.08200X0.08200*%
%ADD18C,0.05950*%
%ADD19R,0.05950X0.05950*%
D10*
X0080000Y0091833D03*
X0080000Y0281833D03*
D11*
X0090000Y0281833D03*
X0100000Y0281833D03*
X0110000Y0281833D03*
X0120000Y0281833D03*
X0130000Y0281833D03*
X0140000Y0281833D03*
X0150000Y0281833D03*
X0160000Y0281833D03*
X0170000Y0281833D03*
X0180000Y0281833D03*
X0190000Y0281833D03*
X0200000Y0281833D03*
X0210000Y0281833D03*
X0220000Y0281833D03*
X0230000Y0281833D03*
X0240000Y0281833D03*
X0250000Y0281833D03*
X0260000Y0281833D03*
X0270000Y0281833D03*
X0280000Y0281833D03*
X0290000Y0281833D03*
X0300000Y0281833D03*
X0300000Y0291833D03*
X0290000Y0291833D03*
X0280000Y0291833D03*
X0270000Y0291833D03*
X0260000Y0291833D03*
X0250000Y0291833D03*
X0240000Y0291833D03*
X0230000Y0291833D03*
X0220000Y0291833D03*
X0210000Y0291833D03*
X0200000Y0291833D03*
X0190000Y0291833D03*
X0180000Y0291833D03*
X0170000Y0291833D03*
X0160000Y0291833D03*
X0150000Y0291833D03*
X0140000Y0291833D03*
X0130000Y0291833D03*
X0120000Y0291833D03*
X0110000Y0291833D03*
X0100000Y0291833D03*
X0090000Y0291833D03*
X0080000Y0291833D03*
X0080000Y0101833D03*
X0090000Y0101833D03*
X0090000Y0091833D03*
X0100000Y0091833D03*
X0110000Y0091833D03*
X0120000Y0091833D03*
X0130000Y0091833D03*
X0140000Y0091833D03*
X0150000Y0091833D03*
X0160000Y0091833D03*
X0170000Y0091833D03*
X0180000Y0091833D03*
X0190000Y0091833D03*
X0200000Y0091833D03*
X0210000Y0091833D03*
X0220000Y0091833D03*
X0230000Y0091833D03*
X0240000Y0091833D03*
X0250000Y0091833D03*
X0260000Y0091833D03*
X0270000Y0091833D03*
X0280000Y0091833D03*
X0290000Y0091833D03*
X0300000Y0091833D03*
X0300000Y0101833D03*
X0290000Y0101833D03*
X0280000Y0101833D03*
X0270000Y0101833D03*
X0260000Y0101833D03*
X0250000Y0101833D03*
X0240000Y0101833D03*
X0230000Y0101833D03*
X0220000Y0101833D03*
X0210000Y0101833D03*
X0200000Y0101833D03*
X0190000Y0101833D03*
X0180000Y0101833D03*
X0170000Y0101833D03*
X0160000Y0101833D03*
X0150000Y0101833D03*
X0140000Y0101833D03*
X0130000Y0101833D03*
X0120000Y0101833D03*
X0110000Y0101833D03*
X0100000Y0101833D03*
D12*
X0321000Y0146833D03*
X0321000Y0181333D03*
X0321000Y0213333D03*
D13*
X0321000Y0227113D03*
X0321000Y0195113D03*
X0321000Y0160613D03*
D14*
X0100000Y0114333D03*
X0070000Y0114333D03*
X0094000Y0162333D03*
X0094000Y0172333D03*
X0094000Y0182333D03*
X0094000Y0204333D03*
X0094000Y0214333D03*
X0094000Y0224333D03*
D15*
X0119300Y0221333D02*
X0125700Y0221333D01*
X0125700Y0211333D02*
X0119300Y0211333D01*
X0119300Y0201333D02*
X0125700Y0201333D01*
X0125700Y0177333D02*
X0119300Y0177333D01*
X0119300Y0167333D02*
X0125700Y0167333D01*
X0125700Y0157333D02*
X0119300Y0157333D01*
X0152800Y0157333D02*
X0159200Y0157333D01*
X0159200Y0167333D02*
X0152800Y0167333D01*
X0152800Y0177333D02*
X0159200Y0177333D01*
X0159200Y0201333D02*
X0152800Y0201333D01*
X0152800Y0211333D02*
X0159200Y0211333D01*
X0159200Y0221333D02*
X0152800Y0221333D01*
X0181000Y0223133D02*
X0181000Y0229533D01*
X0191000Y0229533D02*
X0191000Y0223133D01*
X0201000Y0223133D02*
X0201000Y0229533D01*
X0225000Y0229533D02*
X0225000Y0223133D01*
X0235000Y0223133D02*
X0235000Y0229533D01*
X0245000Y0229533D02*
X0245000Y0223133D01*
X0245000Y0257133D02*
X0245000Y0263533D01*
X0235000Y0263533D02*
X0235000Y0257133D01*
X0225000Y0257133D02*
X0225000Y0263533D01*
X0201000Y0263533D02*
X0201000Y0257133D01*
X0191000Y0257133D02*
X0191000Y0263533D01*
X0181000Y0263533D02*
X0181000Y0257133D01*
D16*
X0311157Y0255255D03*
X0321000Y0245412D03*
X0330843Y0255255D03*
D17*
X0094000Y0194333D03*
X0094000Y0152333D03*
D18*
X0176000Y0149833D03*
X0176000Y0159833D03*
X0176000Y0169833D03*
X0176000Y0179833D03*
X0236000Y0178833D03*
X0236000Y0168833D03*
X0236000Y0158833D03*
X0236000Y0148833D03*
D19*
X0310200Y0219833D03*
M02*
