%
M48
M72
T01C0.02362
T02C0.03150
T03C0.03543
T04C0.03740
T05C0.03937
T06C0.04000
T07C0.04724
%
T01
X109100Y134533
X176500Y188333
X168000Y217333
X170000Y226833
X158500Y238833
X170500Y250833
X170500Y258833
X185000Y272333
X209000Y244833
X215500Y228833
X209000Y228333
X225000Y210333
X240200Y188433
X280500Y238833
X280400Y254533
X249000Y271833
X313000Y269333
X333500Y198333
X134500Y246333
X123500Y228833
X109000Y249833
X102000Y249833
X94000Y249833
T02
X176000Y179833
X176000Y169833
X176000Y159833
X176000Y149833
X236000Y148833
X236000Y158833
X236000Y168833
X236000Y178833
X310200Y219833
T03
X100000Y114333
X70000Y114333
T04
X311157Y255255
X321000Y245412
X330843Y255255
T05
X80000Y91833
X90000Y91833
X100000Y91833
X110000Y91833
X120000Y91833
X130000Y91833
X140000Y91833
X150000Y91833
X160000Y91833
X170000Y91833
X180000Y91833
X190000Y91833
X200000Y91833
X210000Y91833
X220000Y91833
X230000Y91833
X240000Y91833
X250000Y91833
X260000Y91833
X270000Y91833
X280000Y91833
X290000Y91833
X300000Y91833
X300000Y101833
X290000Y101833
X280000Y101833
X270000Y101833
X260000Y101833
X250000Y101833
X240000Y101833
X230000Y101833
X220000Y101833
X210000Y101833
X200000Y101833
X190000Y101833
X180000Y101833
X170000Y101833
X160000Y101833
X150000Y101833
X140000Y101833
X130000Y101833
X120000Y101833
X110000Y101833
X100000Y101833
X90000Y101833
X80000Y101833
X80000Y281833
X90000Y281833
X100000Y281833
X110000Y281833
X120000Y281833
X130000Y281833
X140000Y281833
X150000Y281833
X160000Y281833
X170000Y281833
X180000Y281833
X190000Y281833
X200000Y281833
X210000Y281833
X220000Y281833
X230000Y281833
X240000Y281833
X250000Y281833
X260000Y281833
X270000Y281833
X280000Y281833
X290000Y281833
X300000Y281833
X300000Y291833
X290000Y291833
X280000Y291833
X270000Y291833
X260000Y291833
X250000Y291833
X240000Y291833
X230000Y291833
X220000Y291833
X210000Y291833
X200000Y291833
X190000Y291833
X180000Y291833
X170000Y291833
X160000Y291833
X150000Y291833
X140000Y291833
X130000Y291833
X120000Y291833
X110000Y291833
X100000Y291833
X90000Y291833
X80000Y291833
T06
X94000Y224333
X94000Y214333
X94000Y204333
X94000Y194333
X94000Y182333
X94000Y172333
X94000Y162333
X94000Y152333
X122500Y157333
X122500Y167333
X122500Y177333
X122500Y201333
X122500Y211333
X122500Y221333
X156000Y221333
X156000Y211333
X156000Y201333
X156000Y177333
X156000Y167333
X156000Y157333
X181000Y226333
X191000Y226333
X201000Y226333
X225000Y226333
X235000Y226333
X245000Y226333
X245000Y260333
X235000Y260333
X225000Y260333
X201000Y260333
X191000Y260333
X181000Y260333
T07
X321000Y227113
X321000Y213333
X321000Y195113
X321000Y181333
X321000Y160613
X321000Y146833
M30
