G75*
%MOIN*%
%OFA0B0*%
%FSLAX25Y25*%
%IPPOS*%
%LPD*%
%AMOC8*
5,1,8,0,0,1.08239X$1,22.5*
%
%ADD10C,0.00500*%
%ADD11R,0.06337X0.06337*%
%ADD12C,0.06337*%
%ADD13R,0.48031X0.38386*%
%ADD14R,0.06299X0.13780*%
%ADD15R,0.08000X0.08000*%
%ADD16C,0.08000*%
%ADD17R,0.05000X0.05787*%
%ADD18R,0.05512X0.11811*%
%ADD19R,0.05512X0.06299*%
%ADD20R,0.02756X0.03543*%
%ADD21C,0.07400*%
%ADD22C,0.06400*%
%ADD23R,0.05118X0.06299*%
%ADD24R,0.03937X0.05512*%
%ADD25R,0.05512X0.03937*%
%ADD26R,0.06299X0.05118*%
%ADD27C,0.06140*%
%ADD28R,0.06299X0.07098*%
%ADD29R,0.07400X0.07400*%
%ADD30C,0.01200*%
%ADD31C,0.05000*%
%ADD32R,0.04362X0.04362*%
%ADD33C,0.02400*%
%ADD34C,0.03200*%
%ADD35C,0.01600*%
%ADD36C,0.05150*%
%ADD37R,0.05150X0.05150*%
D10*
X0062500Y0084333D02*
X0062500Y0134333D01*
X0063044Y0134340D01*
X0063587Y0134359D01*
X0064130Y0134392D01*
X0064672Y0134438D01*
X0065212Y0134497D01*
X0065751Y0134569D01*
X0066288Y0134654D01*
X0066823Y0134752D01*
X0067355Y0134863D01*
X0067885Y0134987D01*
X0068411Y0135123D01*
X0068934Y0135272D01*
X0069453Y0135434D01*
X0069968Y0135608D01*
X0070479Y0135795D01*
X0070985Y0135994D01*
X0071486Y0136205D01*
X0071982Y0136428D01*
X0072472Y0136663D01*
X0072956Y0136910D01*
X0073435Y0137169D01*
X0073907Y0137439D01*
X0074372Y0137720D01*
X0074830Y0138012D01*
X0075281Y0138316D01*
X0075725Y0138630D01*
X0076161Y0138955D01*
X0076589Y0139290D01*
X0077009Y0139636D01*
X0077420Y0139992D01*
X0077823Y0140357D01*
X0078217Y0140732D01*
X0078601Y0141116D01*
X0078976Y0141510D01*
X0079341Y0141913D01*
X0079697Y0142324D01*
X0080043Y0142744D01*
X0080378Y0143172D01*
X0080703Y0143608D01*
X0081017Y0144052D01*
X0081321Y0144503D01*
X0081613Y0144961D01*
X0081894Y0145426D01*
X0082164Y0145898D01*
X0082423Y0146377D01*
X0082670Y0146861D01*
X0082905Y0147351D01*
X0083128Y0147847D01*
X0083339Y0148348D01*
X0083538Y0148854D01*
X0083725Y0149365D01*
X0083899Y0149880D01*
X0084061Y0150399D01*
X0084210Y0150922D01*
X0084346Y0151448D01*
X0084470Y0151978D01*
X0084581Y0152510D01*
X0084679Y0153045D01*
X0084764Y0153582D01*
X0084836Y0154121D01*
X0084895Y0154661D01*
X0084941Y0155203D01*
X0084974Y0155746D01*
X0084993Y0156289D01*
X0085000Y0156833D01*
X0085000Y0226833D01*
X0084993Y0227377D01*
X0084974Y0227920D01*
X0084941Y0228463D01*
X0084895Y0229005D01*
X0084836Y0229545D01*
X0084764Y0230084D01*
X0084679Y0230621D01*
X0084581Y0231156D01*
X0084470Y0231688D01*
X0084346Y0232218D01*
X0084210Y0232744D01*
X0084061Y0233267D01*
X0083899Y0233786D01*
X0083725Y0234301D01*
X0083538Y0234812D01*
X0083339Y0235318D01*
X0083128Y0235819D01*
X0082905Y0236315D01*
X0082670Y0236805D01*
X0082423Y0237289D01*
X0082164Y0237768D01*
X0081894Y0238240D01*
X0081613Y0238705D01*
X0081321Y0239163D01*
X0081017Y0239614D01*
X0080703Y0240058D01*
X0080378Y0240494D01*
X0080043Y0240922D01*
X0079697Y0241342D01*
X0079341Y0241753D01*
X0078976Y0242156D01*
X0078601Y0242550D01*
X0078217Y0242934D01*
X0077823Y0243309D01*
X0077420Y0243674D01*
X0077009Y0244030D01*
X0076589Y0244376D01*
X0076161Y0244711D01*
X0075725Y0245036D01*
X0075281Y0245350D01*
X0074830Y0245654D01*
X0074372Y0245946D01*
X0073907Y0246227D01*
X0073435Y0246497D01*
X0072956Y0246756D01*
X0072472Y0247003D01*
X0071982Y0247238D01*
X0071486Y0247461D01*
X0070985Y0247672D01*
X0070479Y0247871D01*
X0069968Y0248058D01*
X0069453Y0248232D01*
X0068934Y0248394D01*
X0068411Y0248543D01*
X0067885Y0248679D01*
X0067355Y0248803D01*
X0066823Y0248914D01*
X0066288Y0249012D01*
X0065751Y0249097D01*
X0065212Y0249169D01*
X0064672Y0249228D01*
X0064130Y0249274D01*
X0063587Y0249307D01*
X0063044Y0249326D01*
X0062500Y0249333D01*
X0062500Y0299333D01*
X0295000Y0299333D01*
X0296208Y0299318D01*
X0297416Y0299275D01*
X0298622Y0299202D01*
X0299826Y0299100D01*
X0301027Y0298968D01*
X0302224Y0298808D01*
X0303418Y0298619D01*
X0304606Y0298402D01*
X0305789Y0298155D01*
X0306966Y0297880D01*
X0308135Y0297577D01*
X0309297Y0297245D01*
X0310451Y0296886D01*
X0311595Y0296499D01*
X0312730Y0296084D01*
X0313855Y0295642D01*
X0314968Y0295173D01*
X0316070Y0294677D01*
X0317160Y0294154D01*
X0318236Y0293606D01*
X0319299Y0293031D01*
X0320348Y0292431D01*
X0321382Y0291806D01*
X0322401Y0291157D01*
X0323403Y0290482D01*
X0324389Y0289784D01*
X0325358Y0289062D01*
X0326309Y0288317D01*
X0327242Y0287549D01*
X0328156Y0286759D01*
X0329051Y0285946D01*
X0329926Y0285113D01*
X0330780Y0284259D01*
X0331613Y0283384D01*
X0332426Y0282489D01*
X0333216Y0281575D01*
X0333984Y0280642D01*
X0334729Y0279691D01*
X0335451Y0278722D01*
X0336149Y0277736D01*
X0336824Y0276734D01*
X0337473Y0275715D01*
X0338098Y0274681D01*
X0338698Y0273632D01*
X0339273Y0272569D01*
X0339821Y0271493D01*
X0340344Y0270403D01*
X0340840Y0269301D01*
X0341309Y0268188D01*
X0341751Y0267063D01*
X0342166Y0265928D01*
X0342553Y0264784D01*
X0342912Y0263630D01*
X0343244Y0262468D01*
X0343547Y0261299D01*
X0343822Y0260122D01*
X0344069Y0258939D01*
X0344286Y0257751D01*
X0344475Y0256557D01*
X0344635Y0255360D01*
X0344767Y0254159D01*
X0344869Y0252955D01*
X0344942Y0251749D01*
X0344985Y0250541D01*
X0345000Y0249333D01*
X0345000Y0134333D01*
X0344985Y0133125D01*
X0344942Y0131917D01*
X0344869Y0130711D01*
X0344767Y0129507D01*
X0344635Y0128306D01*
X0344475Y0127109D01*
X0344286Y0125915D01*
X0344069Y0124727D01*
X0343822Y0123544D01*
X0343547Y0122367D01*
X0343244Y0121198D01*
X0342912Y0120036D01*
X0342553Y0118882D01*
X0342166Y0117738D01*
X0341751Y0116603D01*
X0341309Y0115478D01*
X0340840Y0114365D01*
X0340344Y0113263D01*
X0339821Y0112173D01*
X0339273Y0111097D01*
X0338698Y0110034D01*
X0338098Y0108985D01*
X0337473Y0107951D01*
X0336824Y0106932D01*
X0336149Y0105930D01*
X0335451Y0104944D01*
X0334729Y0103975D01*
X0333984Y0103024D01*
X0333216Y0102091D01*
X0332426Y0101177D01*
X0331613Y0100282D01*
X0330780Y0099407D01*
X0329926Y0098553D01*
X0329051Y0097720D01*
X0328156Y0096907D01*
X0327242Y0096117D01*
X0326309Y0095349D01*
X0325358Y0094604D01*
X0324389Y0093882D01*
X0323403Y0093184D01*
X0322401Y0092509D01*
X0321382Y0091860D01*
X0320348Y0091235D01*
X0319299Y0090635D01*
X0318236Y0090060D01*
X0317160Y0089512D01*
X0316070Y0088989D01*
X0314968Y0088493D01*
X0313855Y0088024D01*
X0312730Y0087582D01*
X0311595Y0087167D01*
X0310451Y0086780D01*
X0309297Y0086421D01*
X0308135Y0086089D01*
X0306966Y0085786D01*
X0305789Y0085511D01*
X0304606Y0085264D01*
X0303418Y0085047D01*
X0302224Y0084858D01*
X0301027Y0084698D01*
X0299826Y0084566D01*
X0298622Y0084464D01*
X0297416Y0084391D01*
X0296208Y0084348D01*
X0295000Y0084333D01*
X0062500Y0084333D01*
D11*
X0080000Y0091833D03*
X0080000Y0281833D03*
D12*
X0090000Y0281833D03*
X0100000Y0281833D03*
X0110000Y0281833D03*
X0120000Y0281833D03*
X0130000Y0281833D03*
X0140000Y0281833D03*
X0150000Y0281833D03*
X0160000Y0281833D03*
X0170000Y0281833D03*
X0180000Y0281833D03*
X0190000Y0281833D03*
X0200000Y0281833D03*
X0210000Y0281833D03*
X0220000Y0281833D03*
X0230000Y0281833D03*
X0240000Y0281833D03*
X0250000Y0281833D03*
X0260000Y0281833D03*
X0270000Y0281833D03*
X0280000Y0281833D03*
X0290000Y0281833D03*
X0300000Y0281833D03*
X0300000Y0291833D03*
X0290000Y0291833D03*
X0280000Y0291833D03*
X0270000Y0291833D03*
X0260000Y0291833D03*
X0250000Y0291833D03*
X0240000Y0291833D03*
X0230000Y0291833D03*
X0220000Y0291833D03*
X0210000Y0291833D03*
X0200000Y0291833D03*
X0190000Y0291833D03*
X0180000Y0291833D03*
X0170000Y0291833D03*
X0160000Y0291833D03*
X0150000Y0291833D03*
X0140000Y0291833D03*
X0130000Y0291833D03*
X0120000Y0291833D03*
X0110000Y0291833D03*
X0100000Y0291833D03*
X0090000Y0291833D03*
X0080000Y0291833D03*
X0080000Y0101833D03*
X0090000Y0101833D03*
X0090000Y0091833D03*
X0100000Y0091833D03*
X0110000Y0091833D03*
X0120000Y0091833D03*
X0130000Y0091833D03*
X0140000Y0091833D03*
X0150000Y0091833D03*
X0160000Y0091833D03*
X0170000Y0091833D03*
X0180000Y0091833D03*
X0190000Y0091833D03*
X0200000Y0091833D03*
X0210000Y0091833D03*
X0220000Y0091833D03*
X0230000Y0091833D03*
X0240000Y0091833D03*
X0250000Y0091833D03*
X0260000Y0091833D03*
X0270000Y0091833D03*
X0280000Y0091833D03*
X0290000Y0091833D03*
X0300000Y0091833D03*
X0300000Y0101833D03*
X0290000Y0101833D03*
X0280000Y0101833D03*
X0270000Y0101833D03*
X0260000Y0101833D03*
X0250000Y0101833D03*
X0240000Y0101833D03*
X0230000Y0101833D03*
X0220000Y0101833D03*
X0210000Y0101833D03*
X0200000Y0101833D03*
X0190000Y0101833D03*
X0180000Y0101833D03*
X0170000Y0101833D03*
X0160000Y0101833D03*
X0150000Y0101833D03*
X0140000Y0101833D03*
X0130000Y0101833D03*
X0120000Y0101833D03*
X0110000Y0101833D03*
X0100000Y0101833D03*
D13*
X0206000Y0168207D03*
D14*
X0206000Y0127755D03*
X0196000Y0127755D03*
X0216000Y0127755D03*
D15*
X0321000Y0146833D03*
X0321000Y0181333D03*
X0321000Y0213333D03*
D16*
X0321000Y0227113D03*
X0321000Y0195113D03*
X0321000Y0160613D03*
D17*
X0314465Y0125333D03*
X0297535Y0125333D03*
D18*
X0281000Y0134282D03*
X0281000Y0115385D03*
D19*
X0090512Y0124833D03*
X0079488Y0124833D03*
D20*
X0082441Y0134333D03*
X0087559Y0134333D03*
X0172941Y0130333D03*
X0178059Y0130333D03*
X0178059Y0124833D03*
X0172941Y0124833D03*
D21*
X0100000Y0114333D03*
X0070000Y0114333D03*
X0094000Y0162333D03*
X0094000Y0172333D03*
X0094000Y0182333D03*
X0094000Y0204333D03*
X0094000Y0214333D03*
X0094000Y0224333D03*
D22*
X0119300Y0221333D02*
X0125700Y0221333D01*
X0125700Y0211333D02*
X0119300Y0211333D01*
X0119300Y0201333D02*
X0125700Y0201333D01*
X0125700Y0177333D02*
X0119300Y0177333D01*
X0119300Y0167333D02*
X0125700Y0167333D01*
X0125700Y0157333D02*
X0119300Y0157333D01*
X0152800Y0157333D02*
X0159200Y0157333D01*
X0159200Y0167333D02*
X0152800Y0167333D01*
X0152800Y0177333D02*
X0159200Y0177333D01*
X0159200Y0201333D02*
X0152800Y0201333D01*
X0152800Y0211333D02*
X0159200Y0211333D01*
X0159200Y0221333D02*
X0152800Y0221333D01*
X0181000Y0223133D02*
X0181000Y0229533D01*
X0191000Y0229533D02*
X0191000Y0223133D01*
X0201000Y0223133D02*
X0201000Y0229533D01*
X0225000Y0229533D02*
X0225000Y0223133D01*
X0235000Y0223133D02*
X0235000Y0229533D01*
X0245000Y0229533D02*
X0245000Y0223133D01*
X0245000Y0257133D02*
X0245000Y0263533D01*
X0235000Y0263533D02*
X0235000Y0257133D01*
X0225000Y0257133D02*
X0225000Y0263533D01*
X0201000Y0263533D02*
X0201000Y0257133D01*
X0191000Y0257133D02*
X0191000Y0263533D01*
X0181000Y0263533D02*
X0181000Y0257133D01*
D23*
X0162740Y0258833D03*
X0155260Y0258833D03*
X0155260Y0250833D03*
X0162740Y0250833D03*
X0146740Y0237833D03*
X0139260Y0237833D03*
X0132740Y0237833D03*
X0125260Y0237833D03*
X0176760Y0196333D03*
X0184240Y0196333D03*
X0194760Y0207833D03*
X0202240Y0207833D03*
X0211760Y0192333D03*
X0219240Y0192333D03*
X0228760Y0203833D03*
X0236240Y0203833D03*
X0285460Y0229633D03*
X0292940Y0229633D03*
D24*
X0145740Y0260664D03*
X0138260Y0260664D03*
X0132740Y0260664D03*
X0125260Y0260664D03*
X0129000Y0252003D03*
X0142000Y0252003D03*
D25*
X0194169Y0196333D03*
X0202831Y0192593D03*
X0202831Y0200073D03*
X0211169Y0200093D03*
X0211169Y0207573D03*
X0219831Y0203833D03*
X0269869Y0243093D03*
X0269869Y0250573D03*
X0278531Y0246833D03*
X0286569Y0243193D03*
X0286569Y0250673D03*
X0295231Y0246933D03*
D26*
X0285900Y0260493D03*
X0285900Y0267973D03*
X0278300Y0267973D03*
X0278300Y0260493D03*
X0270600Y0260493D03*
X0270600Y0267973D03*
X0263000Y0267973D03*
X0263000Y0260493D03*
X0263900Y0159673D03*
X0256700Y0159673D03*
X0256700Y0152193D03*
X0263900Y0152193D03*
X0271100Y0152193D03*
X0278300Y0152193D03*
X0278300Y0159673D03*
X0271100Y0159673D03*
X0115000Y0234093D03*
X0115000Y0241573D03*
X0107500Y0241573D03*
X0107500Y0234093D03*
X0100000Y0234093D03*
X0100000Y0241573D03*
X0092500Y0241573D03*
X0092500Y0234093D03*
X0094000Y0257093D03*
X0094000Y0264573D03*
X0101500Y0264573D03*
X0101500Y0257093D03*
X0109000Y0257093D03*
X0109000Y0264573D03*
X0086500Y0264573D03*
X0086500Y0257093D03*
D27*
X0311157Y0255255D03*
X0321000Y0245412D03*
X0330843Y0255255D03*
D28*
X0270098Y0229333D03*
X0258902Y0229333D03*
X0258902Y0213333D03*
X0270098Y0213333D03*
X0270098Y0197333D03*
X0258902Y0197333D03*
X0258902Y0181333D03*
X0270098Y0181333D03*
D29*
X0094000Y0194333D03*
X0094000Y0152333D03*
D30*
X0099100Y0152847D02*
X0118111Y0152847D01*
X0118385Y0152733D02*
X0126615Y0152733D01*
X0128306Y0153434D01*
X0129600Y0154728D01*
X0130300Y0156418D01*
X0130300Y0158248D01*
X0129600Y0159939D01*
X0128306Y0161233D01*
X0126615Y0161933D01*
X0118385Y0161933D01*
X0116694Y0161233D01*
X0115400Y0159939D01*
X0114700Y0158248D01*
X0114700Y0156418D01*
X0115400Y0154728D01*
X0116694Y0153434D01*
X0118385Y0152733D01*
X0116082Y0154045D02*
X0099100Y0154045D01*
X0099100Y0155244D02*
X0115186Y0155244D01*
X0114700Y0156443D02*
X0099100Y0156443D01*
X0099100Y0156613D02*
X0098280Y0157433D01*
X0095497Y0157433D01*
X0096889Y0158010D01*
X0098324Y0159444D01*
X0099100Y0161319D01*
X0099100Y0163348D01*
X0098732Y0164237D01*
X0112000Y0177505D01*
X0112000Y0176505D01*
X0113172Y0175333D01*
X0115149Y0175333D01*
X0115400Y0174728D01*
X0116694Y0173434D01*
X0118385Y0172733D01*
X0126615Y0172733D01*
X0128306Y0173434D01*
X0129600Y0174728D01*
X0130300Y0176418D01*
X0130300Y0178248D01*
X0129600Y0179939D01*
X0128306Y0181233D01*
X0126615Y0181933D01*
X0118385Y0181933D01*
X0116694Y0181233D01*
X0116000Y0180539D01*
X0116000Y0198128D01*
X0116694Y0197434D01*
X0118385Y0196733D01*
X0126615Y0196733D01*
X0128305Y0197433D01*
X0136776Y0197433D01*
X0138209Y0198027D01*
X0141209Y0201027D01*
X0142100Y0201918D01*
X0142100Y0170058D01*
X0142694Y0168624D01*
X0143791Y0167527D01*
X0147291Y0164027D01*
X0148724Y0163433D01*
X0150195Y0163433D01*
X0151885Y0162733D01*
X0160115Y0162733D01*
X0161806Y0163434D01*
X0163100Y0164728D01*
X0163800Y0166418D01*
X0163800Y0168248D01*
X0163100Y0169939D01*
X0161806Y0171233D01*
X0160115Y0171933D01*
X0151885Y0171933D01*
X0150846Y0171503D01*
X0149900Y0172449D01*
X0149900Y0173728D01*
X0150194Y0173434D01*
X0151885Y0172733D01*
X0160115Y0172733D01*
X0161806Y0173434D01*
X0163100Y0174728D01*
X0163800Y0176418D01*
X0163800Y0178248D01*
X0163100Y0179939D01*
X0161806Y0181233D01*
X0160115Y0181933D01*
X0151885Y0181933D01*
X0150194Y0181233D01*
X0149900Y0180939D01*
X0149900Y0197728D01*
X0150194Y0197434D01*
X0151885Y0196733D01*
X0160115Y0196733D01*
X0161806Y0197434D01*
X0163100Y0198728D01*
X0163298Y0199207D01*
X0166000Y0196505D01*
X0166000Y0161162D01*
X0164172Y0159333D01*
X0163351Y0159333D01*
X0163100Y0159939D01*
X0161806Y0161233D01*
X0160115Y0161933D01*
X0151885Y0161933D01*
X0150194Y0161233D01*
X0148900Y0159939D01*
X0148200Y0158248D01*
X0148200Y0156418D01*
X0148900Y0154728D01*
X0150194Y0153434D01*
X0151885Y0152733D01*
X0160115Y0152733D01*
X0161806Y0153434D01*
X0163100Y0154728D01*
X0163351Y0155333D01*
X0165828Y0155333D01*
X0167000Y0156505D01*
X0170000Y0159505D01*
X0170000Y0189505D01*
X0170672Y0188833D01*
X0172919Y0186586D01*
X0172919Y0185572D01*
X0173739Y0184752D01*
X0179261Y0184752D01*
X0180081Y0185572D01*
X0180081Y0191094D01*
X0179392Y0191784D01*
X0179899Y0191784D01*
X0180500Y0192385D01*
X0181101Y0191784D01*
X0187379Y0191784D01*
X0188199Y0192604D01*
X0188199Y0194333D01*
X0190013Y0194333D01*
X0190013Y0193785D01*
X0190833Y0192965D01*
X0197505Y0192965D01*
X0198325Y0193785D01*
X0198325Y0198093D01*
X0198675Y0198093D01*
X0198675Y0197525D01*
X0199495Y0196705D01*
X0206167Y0196705D01*
X0206987Y0197525D01*
X0206987Y0198093D01*
X0207013Y0198093D01*
X0207013Y0197545D01*
X0207833Y0196725D01*
X0208463Y0196725D01*
X0207801Y0196063D01*
X0207801Y0194593D01*
X0206987Y0194593D01*
X0206987Y0195142D01*
X0206167Y0195962D01*
X0199495Y0195962D01*
X0198675Y0195142D01*
X0198675Y0190045D01*
X0199495Y0189225D01*
X0206167Y0189225D01*
X0206987Y0190045D01*
X0206987Y0190593D01*
X0207801Y0190593D01*
X0207801Y0188604D01*
X0208621Y0187784D01*
X0214899Y0187784D01*
X0215500Y0188385D01*
X0216101Y0187784D01*
X0222379Y0187784D01*
X0223199Y0188604D01*
X0223199Y0190333D01*
X0236619Y0190333D01*
X0236619Y0185672D01*
X0237439Y0184852D01*
X0242961Y0184852D01*
X0243781Y0185672D01*
X0243781Y0186433D01*
X0244473Y0186433D01*
X0245300Y0186433D01*
X0246130Y0186433D01*
X0246130Y0186433D01*
X0246130Y0186433D01*
X0246754Y0187057D01*
X0247302Y0187605D01*
X0247302Y0188485D01*
X0247302Y0189262D01*
X0247302Y0189262D01*
X0247300Y0206505D01*
X0252128Y0211333D01*
X0254352Y0211333D01*
X0254352Y0209204D01*
X0255172Y0208384D01*
X0261500Y0208384D01*
X0261500Y0202283D01*
X0255172Y0202283D01*
X0254352Y0201462D01*
X0254352Y0193204D01*
X0255172Y0192384D01*
X0262631Y0192384D01*
X0263451Y0193204D01*
X0263451Y0195456D01*
X0263500Y0195505D01*
X0263500Y0183333D01*
X0263451Y0183333D01*
X0263451Y0185462D01*
X0262631Y0186283D01*
X0255172Y0186283D01*
X0254352Y0185462D01*
X0254352Y0177204D01*
X0255172Y0176384D01*
X0262631Y0176384D01*
X0263451Y0177204D01*
X0263451Y0179333D01*
X0265000Y0179333D01*
X0265000Y0173933D01*
X0261072Y0173933D01*
X0255872Y0168733D01*
X0254700Y0167562D01*
X0254700Y0163633D01*
X0252970Y0163633D01*
X0252150Y0162812D01*
X0252150Y0156535D01*
X0252752Y0155933D01*
X0252150Y0155332D01*
X0252150Y0149054D01*
X0252970Y0148234D01*
X0265000Y0148234D01*
X0265000Y0139333D01*
X0176500Y0139333D01*
X0176500Y0144333D01*
X0090100Y0144333D01*
X0090100Y0147233D01*
X0098280Y0147233D01*
X0099100Y0148053D01*
X0099100Y0156613D01*
X0097719Y0158840D02*
X0114945Y0158840D01*
X0114700Y0157641D02*
X0095999Y0157641D01*
X0098569Y0160038D02*
X0115499Y0160038D01*
X0116703Y0161237D02*
X0099066Y0161237D01*
X0099100Y0162435D02*
X0166000Y0162435D01*
X0166000Y0161237D02*
X0161797Y0161237D01*
X0163001Y0160038D02*
X0164876Y0160038D01*
X0165000Y0157333D02*
X0156000Y0157333D01*
X0162418Y0154045D02*
X0252150Y0154045D01*
X0252150Y0152847D02*
X0160389Y0152847D01*
X0163314Y0155244D02*
X0252150Y0155244D01*
X0252242Y0156443D02*
X0166938Y0156443D01*
X0168136Y0157641D02*
X0252150Y0157641D01*
X0252150Y0158840D02*
X0169335Y0158840D01*
X0170000Y0160038D02*
X0252150Y0160038D01*
X0252150Y0161237D02*
X0170000Y0161237D01*
X0170000Y0162435D02*
X0252150Y0162435D01*
X0254700Y0163634D02*
X0170000Y0163634D01*
X0170000Y0164832D02*
X0254700Y0164832D01*
X0254700Y0166031D02*
X0170000Y0166031D01*
X0170000Y0167229D02*
X0254700Y0167229D01*
X0255566Y0168428D02*
X0170000Y0168428D01*
X0170000Y0169626D02*
X0256764Y0169626D01*
X0257963Y0170825D02*
X0170000Y0170825D01*
X0170000Y0172023D02*
X0259161Y0172023D01*
X0260360Y0173222D02*
X0170000Y0173222D01*
X0170000Y0174420D02*
X0265000Y0174420D01*
X0265000Y0175619D02*
X0170000Y0175619D01*
X0170000Y0176817D02*
X0254739Y0176817D01*
X0254352Y0178016D02*
X0170000Y0178016D01*
X0170000Y0179214D02*
X0254352Y0179214D01*
X0254352Y0180413D02*
X0170000Y0180413D01*
X0170000Y0181611D02*
X0254352Y0181611D01*
X0254352Y0182810D02*
X0170000Y0182810D01*
X0170000Y0184008D02*
X0254352Y0184008D01*
X0254352Y0185207D02*
X0243316Y0185207D01*
X0243781Y0186405D02*
X0263500Y0186405D01*
X0263500Y0185207D02*
X0263451Y0185207D01*
X0263451Y0184008D02*
X0263500Y0184008D01*
X0265500Y0181333D02*
X0258902Y0181333D01*
X0263451Y0179214D02*
X0265000Y0179214D01*
X0265000Y0178016D02*
X0263451Y0178016D01*
X0263064Y0176817D02*
X0265000Y0176817D01*
X0261900Y0171933D02*
X0256700Y0166733D01*
X0256700Y0159673D01*
X0263900Y0159673D02*
X0263900Y0163933D01*
X0268500Y0168533D01*
X0275900Y0168533D01*
X0277300Y0169933D01*
X0277300Y0195133D01*
X0275100Y0197333D01*
X0270098Y0197333D01*
X0263500Y0198333D02*
X0262500Y0197333D01*
X0258902Y0197333D01*
X0254352Y0197192D02*
X0247301Y0197192D01*
X0247301Y0198390D02*
X0254352Y0198390D01*
X0254352Y0199589D02*
X0247301Y0199589D01*
X0247301Y0200787D02*
X0254352Y0200787D01*
X0254875Y0201986D02*
X0247300Y0201986D01*
X0247300Y0203184D02*
X0261500Y0203184D01*
X0261500Y0204383D02*
X0247300Y0204383D01*
X0247300Y0205581D02*
X0261500Y0205581D01*
X0261500Y0206780D02*
X0247575Y0206780D01*
X0248774Y0207979D02*
X0261500Y0207979D01*
X0258902Y0213333D02*
X0251300Y0213333D01*
X0245300Y0207333D01*
X0245302Y0188433D01*
X0240200Y0188433D01*
X0236619Y0188802D02*
X0223199Y0188802D01*
X0223199Y0190001D02*
X0236619Y0190001D01*
X0236619Y0187604D02*
X0180081Y0187604D01*
X0180081Y0188802D02*
X0207801Y0188802D01*
X0207801Y0190001D02*
X0206943Y0190001D01*
X0202831Y0192593D02*
X0211500Y0192593D01*
X0211760Y0192333D01*
X0215500Y0197833D02*
X0215500Y0228833D01*
X0209000Y0228333D02*
X0209000Y0219333D01*
X0204500Y0214833D01*
X0197000Y0214833D01*
X0194760Y0212593D01*
X0194760Y0207833D01*
X0189000Y0212333D02*
X0194000Y0217333D01*
X0199500Y0217333D01*
X0201000Y0218833D01*
X0201000Y0226333D01*
X0184240Y0223093D02*
X0181000Y0226333D01*
X0184240Y0223093D02*
X0184240Y0196333D01*
X0194169Y0196333D01*
X0198325Y0195993D02*
X0207801Y0195993D01*
X0207801Y0194795D02*
X0206987Y0194795D01*
X0206653Y0197192D02*
X0207366Y0197192D01*
X0211169Y0200093D02*
X0202850Y0200093D01*
X0191740Y0200093D01*
X0189000Y0202833D01*
X0189000Y0212333D01*
X0177000Y0215333D02*
X0177000Y0196573D01*
X0176760Y0196333D01*
X0179976Y0191199D02*
X0198675Y0191199D01*
X0198675Y0192398D02*
X0187993Y0192398D01*
X0188199Y0193596D02*
X0190202Y0193596D01*
X0198137Y0193596D02*
X0198675Y0193596D01*
X0198675Y0194795D02*
X0198325Y0194795D01*
X0198325Y0197192D02*
X0199008Y0197192D01*
X0202831Y0200073D02*
X0202850Y0200093D01*
X0202500Y0207573D02*
X0202240Y0207833D01*
X0202500Y0207573D02*
X0211169Y0207573D01*
X0219831Y0203833D02*
X0228760Y0203833D01*
X0229000Y0203593D01*
X0229000Y0199333D01*
X0230500Y0197833D01*
X0240700Y0197833D01*
X0240700Y0209933D01*
X0245500Y0214733D01*
X0250500Y0219633D01*
X0250500Y0254333D01*
X0245000Y0259833D01*
X0245000Y0260333D01*
X0245000Y0270333D01*
X0240500Y0274833D01*
X0188500Y0274833D01*
X0185000Y0272333D01*
X0188581Y0272433D02*
X0188581Y0269572D01*
X0187761Y0268752D01*
X0182239Y0268752D01*
X0181419Y0269572D01*
X0181419Y0275094D01*
X0182239Y0275914D01*
X0186573Y0275914D01*
X0187203Y0276365D01*
X0187672Y0276833D01*
X0187859Y0276833D01*
X0188012Y0276942D01*
X0188666Y0276833D01*
X0214763Y0276833D01*
X0214220Y0277333D01*
X0214172Y0277333D01*
X0213615Y0277890D01*
X0213043Y0278416D01*
X0212588Y0277960D01*
X0210909Y0277265D01*
X0209091Y0277265D01*
X0207412Y0277960D01*
X0206127Y0279245D01*
X0205431Y0280925D01*
X0205431Y0282742D01*
X0206127Y0284421D01*
X0207412Y0285706D01*
X0209091Y0286402D01*
X0210909Y0286402D01*
X0212588Y0285706D01*
X0213000Y0285294D01*
X0213000Y0286005D01*
X0211497Y0287508D01*
X0210909Y0287265D01*
X0209091Y0287265D01*
X0207412Y0287960D01*
X0206127Y0289245D01*
X0205431Y0290925D01*
X0205431Y0292742D01*
X0206127Y0294421D01*
X0206539Y0294833D01*
X0203461Y0294833D01*
X0203873Y0294421D01*
X0204568Y0292742D01*
X0204568Y0290925D01*
X0203873Y0289245D01*
X0202588Y0287960D01*
X0200909Y0287265D01*
X0199091Y0287265D01*
X0197412Y0287960D01*
X0196127Y0289245D01*
X0195431Y0290925D01*
X0195431Y0292742D01*
X0196127Y0294421D01*
X0196539Y0294833D01*
X0193461Y0294833D01*
X0193873Y0294421D01*
X0194568Y0292742D01*
X0194568Y0290925D01*
X0193873Y0289245D01*
X0192588Y0287960D01*
X0190909Y0287265D01*
X0189091Y0287265D01*
X0187412Y0287960D01*
X0186127Y0289245D01*
X0185431Y0290925D01*
X0185431Y0292742D01*
X0186127Y0294421D01*
X0186539Y0294833D01*
X0183461Y0294833D01*
X0183873Y0294421D01*
X0184568Y0292742D01*
X0184568Y0290925D01*
X0183873Y0289245D01*
X0182588Y0287960D01*
X0180909Y0287265D01*
X0179091Y0287265D01*
X0177412Y0287960D01*
X0176127Y0289245D01*
X0175431Y0290925D01*
X0175431Y0292742D01*
X0176127Y0294421D01*
X0176539Y0294833D01*
X0173461Y0294833D01*
X0173873Y0294421D01*
X0174568Y0292742D01*
X0174568Y0290925D01*
X0173873Y0289245D01*
X0172588Y0287960D01*
X0170909Y0287265D01*
X0169091Y0287265D01*
X0167412Y0287960D01*
X0166127Y0289245D01*
X0165431Y0290925D01*
X0165431Y0292742D01*
X0166127Y0294421D01*
X0166539Y0294833D01*
X0163461Y0294833D01*
X0163873Y0294421D01*
X0164568Y0292742D01*
X0164568Y0290925D01*
X0163873Y0289245D01*
X0162588Y0287960D01*
X0160909Y0287265D01*
X0159091Y0287265D01*
X0157412Y0287960D01*
X0156127Y0289245D01*
X0155431Y0290925D01*
X0155431Y0292742D01*
X0156127Y0294421D01*
X0156539Y0294833D01*
X0153461Y0294833D01*
X0153873Y0294421D01*
X0154568Y0292742D01*
X0154568Y0290925D01*
X0153873Y0289245D01*
X0152588Y0287960D01*
X0150909Y0287265D01*
X0149091Y0287265D01*
X0147412Y0287960D01*
X0146127Y0289245D01*
X0145431Y0290925D01*
X0145431Y0292742D01*
X0146127Y0294421D01*
X0146539Y0294833D01*
X0143461Y0294833D01*
X0143873Y0294421D01*
X0144568Y0292742D01*
X0144568Y0290925D01*
X0143873Y0289245D01*
X0142588Y0287960D01*
X0140909Y0287265D01*
X0139091Y0287265D01*
X0137412Y0287960D01*
X0136127Y0289245D01*
X0135431Y0290925D01*
X0135431Y0292742D01*
X0136127Y0294421D01*
X0136539Y0294833D01*
X0133461Y0294833D01*
X0133873Y0294421D01*
X0134568Y0292742D01*
X0134568Y0290925D01*
X0133873Y0289245D01*
X0132588Y0287960D01*
X0130909Y0287265D01*
X0129091Y0287265D01*
X0127412Y0287960D01*
X0126127Y0289245D01*
X0125431Y0290925D01*
X0125431Y0292742D01*
X0126127Y0294421D01*
X0126539Y0294833D01*
X0123461Y0294833D01*
X0123873Y0294421D01*
X0124568Y0292742D01*
X0124568Y0290925D01*
X0123873Y0289245D01*
X0122588Y0287960D01*
X0120909Y0287265D01*
X0119091Y0287265D01*
X0117412Y0287960D01*
X0116127Y0289245D01*
X0115431Y0290925D01*
X0115431Y0292742D01*
X0116127Y0294421D01*
X0116539Y0294833D01*
X0113461Y0294833D01*
X0113873Y0294421D01*
X0114568Y0292742D01*
X0114568Y0290925D01*
X0113873Y0289245D01*
X0112588Y0287960D01*
X0110909Y0287265D01*
X0109091Y0287265D01*
X0107412Y0287960D01*
X0106127Y0289245D01*
X0105431Y0290925D01*
X0105431Y0292742D01*
X0106127Y0294421D01*
X0106539Y0294833D01*
X0103461Y0294833D01*
X0103873Y0294421D01*
X0104568Y0292742D01*
X0104568Y0290925D01*
X0103873Y0289245D01*
X0102588Y0287960D01*
X0100909Y0287265D01*
X0099091Y0287265D01*
X0097412Y0287960D01*
X0096127Y0289245D01*
X0095431Y0290925D01*
X0095431Y0292742D01*
X0096127Y0294421D01*
X0096539Y0294833D01*
X0093461Y0294833D01*
X0093873Y0294421D01*
X0094568Y0292742D01*
X0094568Y0290925D01*
X0093873Y0289245D01*
X0092588Y0287960D01*
X0090909Y0287265D01*
X0089091Y0287265D01*
X0087412Y0287960D01*
X0086127Y0289245D01*
X0085431Y0290925D01*
X0085431Y0292742D01*
X0086127Y0294421D01*
X0086539Y0294833D01*
X0083715Y0294833D01*
X0084078Y0294333D01*
X0084419Y0293664D01*
X0084651Y0292950D01*
X0084767Y0292218D01*
X0080384Y0292218D01*
X0080384Y0291449D01*
X0080384Y0287066D01*
X0081117Y0287182D01*
X0081830Y0287414D01*
X0082499Y0287755D01*
X0083106Y0288196D01*
X0083637Y0288727D01*
X0084078Y0289334D01*
X0084419Y0290003D01*
X0084651Y0290717D01*
X0084767Y0291449D01*
X0080384Y0291449D01*
X0079616Y0291449D01*
X0079616Y0287066D01*
X0078883Y0287182D01*
X0078170Y0287414D01*
X0077501Y0287755D01*
X0077000Y0288119D01*
X0077000Y0286602D01*
X0079616Y0286602D01*
X0079616Y0282218D01*
X0080384Y0282218D01*
X0080384Y0286602D01*
X0083379Y0286602D01*
X0083786Y0286493D01*
X0084151Y0286282D01*
X0084449Y0285984D01*
X0084659Y0285619D01*
X0084768Y0285212D01*
X0084768Y0282218D01*
X0080384Y0282218D01*
X0080384Y0281449D01*
X0080384Y0277065D01*
X0083379Y0277065D01*
X0083786Y0277174D01*
X0084151Y0277385D01*
X0084449Y0277682D01*
X0084659Y0278047D01*
X0084768Y0278454D01*
X0084768Y0281449D01*
X0080384Y0281449D01*
X0079616Y0281449D01*
X0079616Y0277065D01*
X0077000Y0277065D01*
X0077000Y0265162D01*
X0081328Y0260833D01*
X0082269Y0260833D01*
X0082070Y0261032D01*
X0081859Y0261397D01*
X0081750Y0261804D01*
X0081750Y0263973D01*
X0085900Y0263973D01*
X0085900Y0265173D01*
X0081750Y0265173D01*
X0081750Y0267343D01*
X0081859Y0267750D01*
X0082070Y0268115D01*
X0082368Y0268413D01*
X0082733Y0268623D01*
X0083140Y0268733D01*
X0085900Y0268733D01*
X0085900Y0265174D01*
X0087100Y0265174D01*
X0087100Y0268733D01*
X0089860Y0268733D01*
X0090250Y0268628D01*
X0090640Y0268733D01*
X0093400Y0268733D01*
X0093400Y0265174D01*
X0094600Y0265174D01*
X0094600Y0268733D01*
X0097360Y0268733D01*
X0097750Y0268628D01*
X0098140Y0268733D01*
X0100900Y0268733D01*
X0100900Y0265174D01*
X0102100Y0265174D01*
X0102100Y0268733D01*
X0104860Y0268733D01*
X0105250Y0268628D01*
X0105640Y0268733D01*
X0108400Y0268733D01*
X0108400Y0265174D01*
X0109600Y0265174D01*
X0109600Y0268733D01*
X0112360Y0268733D01*
X0112767Y0268623D01*
X0113132Y0268413D01*
X0113430Y0268115D01*
X0113641Y0267750D01*
X0113750Y0267343D01*
X0113750Y0265173D01*
X0109600Y0265173D01*
X0109600Y0263973D01*
X0113750Y0263973D01*
X0113750Y0261804D01*
X0113641Y0261397D01*
X0113430Y0261032D01*
X0113132Y0260734D01*
X0113078Y0260703D01*
X0113550Y0260232D01*
X0113550Y0253954D01*
X0112730Y0253134D01*
X0112041Y0253134D01*
X0112581Y0252594D01*
X0112581Y0251833D01*
X0113328Y0251833D01*
X0115828Y0249333D01*
X0117000Y0248162D01*
X0117000Y0245533D01*
X0118730Y0245533D01*
X0119550Y0244712D01*
X0119550Y0238435D01*
X0118948Y0237833D01*
X0119550Y0237232D01*
X0119550Y0230954D01*
X0118730Y0230134D01*
X0117000Y0230134D01*
X0117000Y0229333D01*
X0119919Y0229333D01*
X0119919Y0231594D01*
X0120739Y0232414D01*
X0122162Y0232414D01*
X0122332Y0233284D01*
X0122121Y0233284D01*
X0121301Y0234104D01*
X0121301Y0241563D01*
X0122121Y0242383D01*
X0123260Y0242383D01*
X0123260Y0249091D01*
X0125631Y0251463D01*
X0125631Y0255338D01*
X0126452Y0256159D01*
X0131346Y0256159D01*
X0130997Y0256508D01*
X0130192Y0256508D01*
X0129372Y0257328D01*
X0129372Y0264000D01*
X0130192Y0264820D01*
X0135289Y0264820D01*
X0135372Y0264737D01*
X0135674Y0264911D01*
X0136081Y0265020D01*
X0137876Y0265020D01*
X0137876Y0261048D01*
X0138644Y0261048D01*
X0141828Y0261048D01*
X0141828Y0263631D01*
X0141719Y0264038D01*
X0141509Y0264402D01*
X0141211Y0264700D01*
X0140846Y0264911D01*
X0140439Y0265020D01*
X0138644Y0265020D01*
X0138644Y0261048D01*
X0138644Y0260280D01*
X0141828Y0260280D01*
X0141828Y0258333D01*
X0142372Y0258333D01*
X0142372Y0264000D01*
X0143192Y0264820D01*
X0148289Y0264820D01*
X0149109Y0264000D01*
X0149109Y0262664D01*
X0151402Y0262664D01*
X0152121Y0263383D01*
X0158399Y0263383D01*
X0159000Y0262782D01*
X0159601Y0263383D01*
X0165879Y0263383D01*
X0166699Y0262563D01*
X0166699Y0260833D01*
X0166919Y0260833D01*
X0166919Y0261594D01*
X0167739Y0262414D01*
X0173261Y0262414D01*
X0174081Y0261594D01*
X0174081Y0256072D01*
X0173261Y0255252D01*
X0167739Y0255252D01*
X0166919Y0256072D01*
X0166919Y0256833D01*
X0166699Y0256833D01*
X0166699Y0255104D01*
X0166429Y0254833D01*
X0166699Y0254563D01*
X0166699Y0252833D01*
X0166919Y0252833D01*
X0166919Y0253594D01*
X0167739Y0254414D01*
X0173261Y0254414D01*
X0174081Y0253594D01*
X0174081Y0248072D01*
X0173261Y0247252D01*
X0167739Y0247252D01*
X0166919Y0248072D01*
X0166919Y0248833D01*
X0166699Y0248833D01*
X0166699Y0247104D01*
X0165879Y0246284D01*
X0159601Y0246284D01*
X0159000Y0246885D01*
X0158399Y0246284D01*
X0152121Y0246284D01*
X0151301Y0247104D01*
X0151301Y0249704D01*
X0148743Y0252262D01*
X0148782Y0251545D01*
X0148740Y0251497D01*
X0148740Y0242383D01*
X0149879Y0242383D01*
X0150699Y0241563D01*
X0150699Y0234104D01*
X0149879Y0233284D01*
X0147000Y0233284D01*
X0147000Y0232505D01*
X0146983Y0232488D01*
X0146983Y0232464D01*
X0146400Y0231905D01*
X0145828Y0231333D01*
X0145805Y0231333D01*
X0143721Y0229333D01*
X0156485Y0229333D01*
X0160828Y0233677D01*
X0159253Y0235252D01*
X0155739Y0235252D01*
X0154919Y0236072D01*
X0154919Y0241594D01*
X0155739Y0242414D01*
X0161261Y0242414D01*
X0162081Y0241594D01*
X0162081Y0238081D01*
X0163656Y0236505D01*
X0177694Y0250542D01*
X0178791Y0251640D01*
X0180224Y0252233D01*
X0201385Y0252233D01*
X0201685Y0252533D01*
X0200085Y0252533D01*
X0198394Y0253234D01*
X0197100Y0254528D01*
X0196400Y0256218D01*
X0196400Y0264448D01*
X0196591Y0264909D01*
X0195600Y0263918D01*
X0195600Y0256218D01*
X0194900Y0254528D01*
X0193606Y0253234D01*
X0191915Y0252533D01*
X0190085Y0252533D01*
X0188394Y0253234D01*
X0187100Y0254528D01*
X0186400Y0256218D01*
X0186400Y0264448D01*
X0187100Y0266139D01*
X0187475Y0266513D01*
X0187694Y0267042D01*
X0193485Y0272833D01*
X0189141Y0272833D01*
X0188581Y0272433D01*
X0188952Y0272698D02*
X0193349Y0272698D01*
X0192151Y0271500D02*
X0188581Y0271500D01*
X0188581Y0270301D02*
X0190952Y0270301D01*
X0189754Y0269103D02*
X0188111Y0269103D01*
X0188555Y0267904D02*
X0182995Y0267904D01*
X0182843Y0267982D02*
X0182124Y0268215D01*
X0181400Y0268330D01*
X0181400Y0260733D01*
X0185800Y0260733D01*
X0185800Y0263911D01*
X0185682Y0264657D01*
X0185448Y0265376D01*
X0185105Y0266049D01*
X0184661Y0266660D01*
X0184127Y0267195D01*
X0183516Y0267639D01*
X0182843Y0267982D01*
X0181400Y0267904D02*
X0180600Y0267904D01*
X0180600Y0268330D02*
X0179876Y0268215D01*
X0179157Y0267982D01*
X0178484Y0267639D01*
X0177873Y0267195D01*
X0177339Y0266660D01*
X0176895Y0266049D01*
X0176552Y0265376D01*
X0176318Y0264657D01*
X0176200Y0263911D01*
X0176200Y0260733D01*
X0180600Y0260733D01*
X0180600Y0259933D01*
X0181400Y0259933D01*
X0181400Y0252337D01*
X0182124Y0252452D01*
X0182843Y0252685D01*
X0183516Y0253028D01*
X0184127Y0253472D01*
X0184661Y0254006D01*
X0185105Y0254618D01*
X0185448Y0255291D01*
X0185682Y0256009D01*
X0185800Y0256756D01*
X0185800Y0259933D01*
X0181400Y0259933D01*
X0181400Y0260733D01*
X0180600Y0260733D01*
X0180600Y0268330D01*
X0181889Y0269103D02*
X0077000Y0269103D01*
X0077000Y0270301D02*
X0181419Y0270301D01*
X0181419Y0271500D02*
X0077000Y0271500D01*
X0077000Y0272698D02*
X0181419Y0272698D01*
X0181419Y0273897D02*
X0077000Y0273897D01*
X0077000Y0275095D02*
X0181420Y0275095D01*
X0180909Y0277265D02*
X0179091Y0277265D01*
X0177412Y0277960D01*
X0176127Y0279245D01*
X0175431Y0280925D01*
X0175431Y0282742D01*
X0176127Y0284421D01*
X0177412Y0285706D01*
X0179091Y0286402D01*
X0180909Y0286402D01*
X0182588Y0285706D01*
X0183873Y0284421D01*
X0184568Y0282742D01*
X0184568Y0280925D01*
X0183873Y0279245D01*
X0182588Y0277960D01*
X0180909Y0277265D01*
X0181458Y0277492D02*
X0188542Y0277492D01*
X0189091Y0277265D02*
X0190909Y0277265D01*
X0192588Y0277960D01*
X0193873Y0279245D01*
X0194568Y0280925D01*
X0194568Y0282742D01*
X0193873Y0284421D01*
X0192588Y0285706D01*
X0190909Y0286402D01*
X0189091Y0286402D01*
X0187412Y0285706D01*
X0186127Y0284421D01*
X0185431Y0282742D01*
X0185431Y0280925D01*
X0186127Y0279245D01*
X0187412Y0277960D01*
X0189091Y0277265D01*
X0187104Y0276294D02*
X0077000Y0276294D01*
X0079616Y0277492D02*
X0080384Y0277492D01*
X0080384Y0278691D02*
X0079616Y0278691D01*
X0079616Y0279889D02*
X0080384Y0279889D01*
X0080384Y0281088D02*
X0079616Y0281088D01*
X0079616Y0282286D02*
X0080384Y0282286D01*
X0080384Y0283485D02*
X0079616Y0283485D01*
X0079616Y0284683D02*
X0080384Y0284683D01*
X0080384Y0285882D02*
X0079616Y0285882D01*
X0079616Y0287080D02*
X0080384Y0287080D01*
X0080473Y0287080D02*
X0211925Y0287080D01*
X0212164Y0285882D02*
X0213000Y0285882D01*
X0215000Y0286833D02*
X0210000Y0291833D01*
X0205431Y0291874D02*
X0204568Y0291874D01*
X0204465Y0290676D02*
X0205535Y0290676D01*
X0206031Y0289477D02*
X0203969Y0289477D01*
X0202906Y0288279D02*
X0207094Y0288279D01*
X0207836Y0285882D02*
X0202164Y0285882D01*
X0202588Y0285706D02*
X0200909Y0286402D01*
X0199091Y0286402D01*
X0197412Y0285706D01*
X0196127Y0284421D01*
X0195431Y0282742D01*
X0195431Y0280925D01*
X0196127Y0279245D01*
X0197412Y0277960D01*
X0199091Y0277265D01*
X0200909Y0277265D01*
X0202588Y0277960D01*
X0203873Y0279245D01*
X0204568Y0280925D01*
X0204568Y0282742D01*
X0203873Y0284421D01*
X0202588Y0285706D01*
X0203611Y0284683D02*
X0206389Y0284683D01*
X0205739Y0283485D02*
X0204261Y0283485D01*
X0204568Y0282286D02*
X0205431Y0282286D01*
X0205431Y0281088D02*
X0204568Y0281088D01*
X0204140Y0279889D02*
X0205860Y0279889D01*
X0206682Y0278691D02*
X0203318Y0278691D01*
X0201458Y0277492D02*
X0208542Y0277492D01*
X0211458Y0277492D02*
X0214013Y0277492D01*
X0215000Y0279333D02*
X0215000Y0286833D01*
X0215000Y0279333D02*
X0217500Y0277033D01*
X0256300Y0277033D01*
X0256200Y0267533D01*
X0256200Y0236333D01*
X0265500Y0236333D01*
X0265500Y0181333D01*
X0270098Y0181333D02*
X0270098Y0173532D01*
X0268500Y0171933D01*
X0261900Y0171933D01*
X0271100Y0163333D02*
X0271100Y0159673D01*
X0271100Y0163333D02*
X0273100Y0165333D01*
X0278500Y0165333D01*
X0279700Y0166533D01*
X0279700Y0210533D01*
X0276900Y0213333D01*
X0270098Y0213333D01*
X0254352Y0210376D02*
X0251171Y0210376D01*
X0249972Y0209177D02*
X0254379Y0209177D01*
X0253300Y0218533D02*
X0253300Y0223832D01*
X0258902Y0229333D01*
X0263500Y0234333D02*
X0253500Y0234333D01*
X0253500Y0271833D01*
X0249000Y0271833D01*
X0250000Y0281833D02*
X0245000Y0286833D01*
X0245000Y0294333D01*
X0242500Y0296833D01*
X0077500Y0296833D01*
X0075000Y0294333D01*
X0075000Y0264333D01*
X0080500Y0258833D01*
X0086260Y0258833D01*
X0086500Y0257093D01*
X0086500Y0247833D01*
X0088500Y0245833D01*
X0091500Y0245833D01*
X0092500Y0244833D01*
X0092500Y0241573D01*
X0095000Y0245833D02*
X0094000Y0246833D01*
X0094000Y0249833D01*
X0094000Y0257093D01*
X0093400Y0263973D02*
X0089250Y0263973D01*
X0087100Y0263973D01*
X0087100Y0265173D01*
X0093400Y0265173D01*
X0093400Y0263973D01*
X0093400Y0264309D02*
X0087100Y0264309D01*
X0087100Y0265507D02*
X0085900Y0265507D01*
X0085900Y0264309D02*
X0077853Y0264309D01*
X0077000Y0265507D02*
X0081750Y0265507D01*
X0081750Y0266706D02*
X0077000Y0266706D01*
X0077000Y0267904D02*
X0081948Y0267904D01*
X0085900Y0267904D02*
X0087100Y0267904D01*
X0087100Y0266706D02*
X0085900Y0266706D01*
X0081750Y0263110D02*
X0079052Y0263110D01*
X0080250Y0261912D02*
X0081750Y0261912D01*
X0093400Y0265507D02*
X0094600Y0265507D01*
X0094600Y0265173D02*
X0098750Y0265173D01*
X0100900Y0265173D01*
X0100900Y0263973D01*
X0094600Y0263973D01*
X0094600Y0265173D01*
X0094600Y0264309D02*
X0100900Y0264309D01*
X0100900Y0265507D02*
X0102100Y0265507D01*
X0102100Y0265173D02*
X0106250Y0265173D01*
X0108400Y0265173D01*
X0108400Y0263973D01*
X0102100Y0263973D01*
X0102100Y0265173D01*
X0102100Y0264309D02*
X0108400Y0264309D01*
X0108400Y0265507D02*
X0109600Y0265507D01*
X0109600Y0264309D02*
X0121957Y0264309D01*
X0122011Y0264402D02*
X0121800Y0264038D01*
X0121691Y0263631D01*
X0121691Y0261048D01*
X0124876Y0261048D01*
X0124876Y0260280D01*
X0125644Y0260280D01*
X0125644Y0261048D01*
X0128828Y0261048D01*
X0128828Y0263631D01*
X0128719Y0264038D01*
X0128509Y0264402D01*
X0128211Y0264700D01*
X0127846Y0264911D01*
X0127439Y0265020D01*
X0125644Y0265020D01*
X0125644Y0261048D01*
X0124876Y0261048D01*
X0124876Y0265020D01*
X0123081Y0265020D01*
X0122674Y0264911D01*
X0122309Y0264700D01*
X0122011Y0264402D01*
X0121691Y0263110D02*
X0113750Y0263110D01*
X0113750Y0261912D02*
X0121691Y0261912D01*
X0121691Y0260280D02*
X0121691Y0257697D01*
X0121800Y0257291D01*
X0122011Y0256926D01*
X0122309Y0256628D01*
X0122674Y0256417D01*
X0123081Y0256308D01*
X0124876Y0256308D01*
X0124876Y0260280D01*
X0121691Y0260280D01*
X0121691Y0259514D02*
X0113550Y0259514D01*
X0113550Y0258316D02*
X0121691Y0258316D01*
X0121900Y0257117D02*
X0113550Y0257117D01*
X0113550Y0255919D02*
X0126212Y0255919D01*
X0125644Y0256308D02*
X0127439Y0256308D01*
X0127846Y0256417D01*
X0128211Y0256628D01*
X0128509Y0256926D01*
X0128719Y0257291D01*
X0128828Y0257697D01*
X0128828Y0260280D01*
X0125644Y0260280D01*
X0125644Y0256308D01*
X0125644Y0257117D02*
X0124876Y0257117D01*
X0124876Y0258316D02*
X0125644Y0258316D01*
X0125644Y0259514D02*
X0124876Y0259514D01*
X0124876Y0260713D02*
X0113095Y0260713D01*
X0113750Y0265507D02*
X0176619Y0265507D01*
X0176263Y0264309D02*
X0148800Y0264309D01*
X0149109Y0263110D02*
X0151848Y0263110D01*
X0153429Y0260664D02*
X0145740Y0260664D01*
X0142372Y0260713D02*
X0138644Y0260713D01*
X0138260Y0260664D02*
X0138260Y0270593D01*
X0139000Y0271333D01*
X0139091Y0277265D02*
X0137412Y0277960D01*
X0136127Y0279245D01*
X0135431Y0280925D01*
X0135431Y0282742D01*
X0136127Y0284421D01*
X0137412Y0285706D01*
X0139091Y0286402D01*
X0140909Y0286402D01*
X0142588Y0285706D01*
X0143873Y0284421D01*
X0144568Y0282742D01*
X0144568Y0280925D01*
X0143873Y0279245D01*
X0142588Y0277960D01*
X0140909Y0277265D01*
X0139091Y0277265D01*
X0138542Y0277492D02*
X0131458Y0277492D01*
X0130909Y0277265D02*
X0132588Y0277960D01*
X0133873Y0279245D01*
X0134568Y0280925D01*
X0134568Y0282742D01*
X0133873Y0284421D01*
X0132588Y0285706D01*
X0130909Y0286402D01*
X0129091Y0286402D01*
X0127412Y0285706D01*
X0126127Y0284421D01*
X0125431Y0282742D01*
X0125431Y0280925D01*
X0126127Y0279245D01*
X0127412Y0277960D01*
X0129091Y0277265D01*
X0130909Y0277265D01*
X0128542Y0277492D02*
X0121458Y0277492D01*
X0120909Y0277265D02*
X0122588Y0277960D01*
X0123873Y0279245D01*
X0124568Y0280925D01*
X0124568Y0282742D01*
X0123873Y0284421D01*
X0122588Y0285706D01*
X0120909Y0286402D01*
X0119091Y0286402D01*
X0117412Y0285706D01*
X0116127Y0284421D01*
X0115431Y0282742D01*
X0115431Y0280925D01*
X0116127Y0279245D01*
X0117412Y0277960D01*
X0119091Y0277265D01*
X0120909Y0277265D01*
X0118542Y0277492D02*
X0111458Y0277492D01*
X0110909Y0277265D02*
X0112588Y0277960D01*
X0113873Y0279245D01*
X0114568Y0280925D01*
X0114568Y0282742D01*
X0113873Y0284421D01*
X0112588Y0285706D01*
X0110909Y0286402D01*
X0109091Y0286402D01*
X0107412Y0285706D01*
X0106127Y0284421D01*
X0105431Y0282742D01*
X0105431Y0280925D01*
X0106127Y0279245D01*
X0107412Y0277960D01*
X0109091Y0277265D01*
X0110909Y0277265D01*
X0108542Y0277492D02*
X0101458Y0277492D01*
X0100909Y0277265D02*
X0102588Y0277960D01*
X0103873Y0279245D01*
X0104568Y0280925D01*
X0104568Y0282742D01*
X0103873Y0284421D01*
X0102588Y0285706D01*
X0100909Y0286402D01*
X0099091Y0286402D01*
X0097412Y0285706D01*
X0096127Y0284421D01*
X0095431Y0282742D01*
X0095431Y0280925D01*
X0096127Y0279245D01*
X0097412Y0277960D01*
X0099091Y0277265D01*
X0100909Y0277265D01*
X0098542Y0277492D02*
X0091458Y0277492D01*
X0090909Y0277265D02*
X0092588Y0277960D01*
X0093873Y0279245D01*
X0094568Y0280925D01*
X0094568Y0282742D01*
X0093873Y0284421D01*
X0092588Y0285706D01*
X0090909Y0286402D01*
X0089091Y0286402D01*
X0087412Y0285706D01*
X0086127Y0284421D01*
X0085431Y0282742D01*
X0085431Y0280925D01*
X0086127Y0279245D01*
X0087412Y0277960D01*
X0089091Y0277265D01*
X0090909Y0277265D01*
X0088542Y0277492D02*
X0084259Y0277492D01*
X0084768Y0278691D02*
X0086682Y0278691D01*
X0085860Y0279889D02*
X0084768Y0279889D01*
X0084768Y0281088D02*
X0085431Y0281088D01*
X0085431Y0282286D02*
X0084768Y0282286D01*
X0084768Y0283485D02*
X0085739Y0283485D01*
X0086389Y0284683D02*
X0084768Y0284683D01*
X0084508Y0285882D02*
X0087836Y0285882D01*
X0087094Y0288279D02*
X0083189Y0288279D01*
X0084151Y0289477D02*
X0086031Y0289477D01*
X0085535Y0290676D02*
X0084638Y0290676D01*
X0085431Y0291874D02*
X0080384Y0291874D01*
X0080384Y0290676D02*
X0079616Y0290676D01*
X0079616Y0289477D02*
X0080384Y0289477D01*
X0080384Y0288279D02*
X0079616Y0288279D01*
X0079527Y0287080D02*
X0077000Y0287080D01*
X0084611Y0293073D02*
X0085569Y0293073D01*
X0086065Y0294271D02*
X0084110Y0294271D01*
X0092906Y0288279D02*
X0097094Y0288279D01*
X0096031Y0289477D02*
X0093969Y0289477D01*
X0094465Y0290676D02*
X0095535Y0290676D01*
X0095431Y0291874D02*
X0094568Y0291874D01*
X0094431Y0293073D02*
X0095569Y0293073D01*
X0096065Y0294271D02*
X0093935Y0294271D01*
X0103935Y0294271D02*
X0106065Y0294271D01*
X0105569Y0293073D02*
X0104431Y0293073D01*
X0104568Y0291874D02*
X0105431Y0291874D01*
X0105535Y0290676D02*
X0104465Y0290676D01*
X0103969Y0289477D02*
X0106031Y0289477D01*
X0107094Y0288279D02*
X0102906Y0288279D01*
X0102164Y0285882D02*
X0107836Y0285882D01*
X0106389Y0284683D02*
X0103611Y0284683D01*
X0104261Y0283485D02*
X0105739Y0283485D01*
X0105431Y0282286D02*
X0104568Y0282286D01*
X0104568Y0281088D02*
X0105431Y0281088D01*
X0105860Y0279889D02*
X0104140Y0279889D01*
X0103318Y0278691D02*
X0106682Y0278691D01*
X0113318Y0278691D02*
X0116682Y0278691D01*
X0115860Y0279889D02*
X0114140Y0279889D01*
X0114568Y0281088D02*
X0115431Y0281088D01*
X0115431Y0282286D02*
X0114568Y0282286D01*
X0114261Y0283485D02*
X0115739Y0283485D01*
X0116389Y0284683D02*
X0113611Y0284683D01*
X0112164Y0285882D02*
X0117836Y0285882D01*
X0117094Y0288279D02*
X0112906Y0288279D01*
X0113969Y0289477D02*
X0116031Y0289477D01*
X0115535Y0290676D02*
X0114465Y0290676D01*
X0114568Y0291874D02*
X0115431Y0291874D01*
X0115569Y0293073D02*
X0114431Y0293073D01*
X0113935Y0294271D02*
X0116065Y0294271D01*
X0123935Y0294271D02*
X0126065Y0294271D01*
X0125569Y0293073D02*
X0124431Y0293073D01*
X0124568Y0291874D02*
X0125431Y0291874D01*
X0125535Y0290676D02*
X0124465Y0290676D01*
X0123969Y0289477D02*
X0126031Y0289477D01*
X0127094Y0288279D02*
X0122906Y0288279D01*
X0122164Y0285882D02*
X0127836Y0285882D01*
X0126389Y0284683D02*
X0123611Y0284683D01*
X0124261Y0283485D02*
X0125739Y0283485D01*
X0125431Y0282286D02*
X0124568Y0282286D01*
X0124568Y0281088D02*
X0125431Y0281088D01*
X0125860Y0279889D02*
X0124140Y0279889D01*
X0123318Y0278691D02*
X0126682Y0278691D01*
X0133318Y0278691D02*
X0136682Y0278691D01*
X0135860Y0279889D02*
X0134140Y0279889D01*
X0134568Y0281088D02*
X0135431Y0281088D01*
X0135431Y0282286D02*
X0134568Y0282286D01*
X0134261Y0283485D02*
X0135739Y0283485D01*
X0136389Y0284683D02*
X0133611Y0284683D01*
X0132164Y0285882D02*
X0137836Y0285882D01*
X0137094Y0288279D02*
X0132906Y0288279D01*
X0133969Y0289477D02*
X0136031Y0289477D01*
X0135535Y0290676D02*
X0134465Y0290676D01*
X0134568Y0291874D02*
X0135431Y0291874D01*
X0135569Y0293073D02*
X0134431Y0293073D01*
X0133935Y0294271D02*
X0136065Y0294271D01*
X0143935Y0294271D02*
X0146065Y0294271D01*
X0145569Y0293073D02*
X0144431Y0293073D01*
X0144568Y0291874D02*
X0145431Y0291874D01*
X0145535Y0290676D02*
X0144465Y0290676D01*
X0143969Y0289477D02*
X0146031Y0289477D01*
X0147094Y0288279D02*
X0142906Y0288279D01*
X0142164Y0285882D02*
X0147836Y0285882D01*
X0147412Y0285706D02*
X0146127Y0284421D01*
X0145431Y0282742D01*
X0145431Y0280925D01*
X0146127Y0279245D01*
X0147412Y0277960D01*
X0149091Y0277265D01*
X0150909Y0277265D01*
X0152588Y0277960D01*
X0153873Y0279245D01*
X0154568Y0280925D01*
X0154568Y0282742D01*
X0153873Y0284421D01*
X0152588Y0285706D01*
X0150909Y0286402D01*
X0149091Y0286402D01*
X0147412Y0285706D01*
X0146389Y0284683D02*
X0143611Y0284683D01*
X0144261Y0283485D02*
X0145739Y0283485D01*
X0145431Y0282286D02*
X0144568Y0282286D01*
X0144568Y0281088D02*
X0145431Y0281088D01*
X0145860Y0279889D02*
X0144140Y0279889D01*
X0143318Y0278691D02*
X0146682Y0278691D01*
X0148542Y0277492D02*
X0141458Y0277492D01*
X0151458Y0277492D02*
X0158542Y0277492D01*
X0159091Y0277265D02*
X0160909Y0277265D01*
X0162588Y0277960D01*
X0163873Y0279245D01*
X0164568Y0280925D01*
X0164568Y0282742D01*
X0163873Y0284421D01*
X0162588Y0285706D01*
X0160909Y0286402D01*
X0159091Y0286402D01*
X0157412Y0285706D01*
X0156127Y0284421D01*
X0155431Y0282742D01*
X0155431Y0280925D01*
X0156127Y0279245D01*
X0157412Y0277960D01*
X0159091Y0277265D01*
X0161458Y0277492D02*
X0168542Y0277492D01*
X0169091Y0277265D02*
X0170909Y0277265D01*
X0172588Y0277960D01*
X0173873Y0279245D01*
X0174568Y0280925D01*
X0174568Y0282742D01*
X0173873Y0284421D01*
X0172588Y0285706D01*
X0170909Y0286402D01*
X0169091Y0286402D01*
X0167412Y0285706D01*
X0166127Y0284421D01*
X0165431Y0282742D01*
X0165431Y0280925D01*
X0166127Y0279245D01*
X0167412Y0277960D01*
X0169091Y0277265D01*
X0171458Y0277492D02*
X0178542Y0277492D01*
X0176682Y0278691D02*
X0173318Y0278691D01*
X0174140Y0279889D02*
X0175860Y0279889D01*
X0175431Y0281088D02*
X0174568Y0281088D01*
X0174568Y0282286D02*
X0175431Y0282286D01*
X0175739Y0283485D02*
X0174261Y0283485D01*
X0173611Y0284683D02*
X0176389Y0284683D01*
X0177836Y0285882D02*
X0172164Y0285882D01*
X0172906Y0288279D02*
X0177094Y0288279D01*
X0176031Y0289477D02*
X0173969Y0289477D01*
X0174465Y0290676D02*
X0175535Y0290676D01*
X0175431Y0291874D02*
X0174568Y0291874D01*
X0174431Y0293073D02*
X0175569Y0293073D01*
X0176065Y0294271D02*
X0173935Y0294271D01*
X0167094Y0288279D02*
X0162906Y0288279D01*
X0163969Y0289477D02*
X0166031Y0289477D01*
X0165535Y0290676D02*
X0164465Y0290676D01*
X0164568Y0291874D02*
X0165431Y0291874D01*
X0165569Y0293073D02*
X0164431Y0293073D01*
X0163935Y0294271D02*
X0166065Y0294271D01*
X0156065Y0294271D02*
X0153935Y0294271D01*
X0154431Y0293073D02*
X0155569Y0293073D01*
X0155431Y0291874D02*
X0154568Y0291874D01*
X0154465Y0290676D02*
X0155535Y0290676D01*
X0156031Y0289477D02*
X0153969Y0289477D01*
X0152906Y0288279D02*
X0157094Y0288279D01*
X0157836Y0285882D02*
X0152164Y0285882D01*
X0153611Y0284683D02*
X0156389Y0284683D01*
X0155739Y0283485D02*
X0154261Y0283485D01*
X0154568Y0282286D02*
X0155431Y0282286D01*
X0155431Y0281088D02*
X0154568Y0281088D01*
X0154140Y0279889D02*
X0155860Y0279889D01*
X0156682Y0278691D02*
X0153318Y0278691D01*
X0162164Y0285882D02*
X0167836Y0285882D01*
X0166389Y0284683D02*
X0163611Y0284683D01*
X0164261Y0283485D02*
X0165739Y0283485D01*
X0165431Y0282286D02*
X0164568Y0282286D01*
X0164568Y0281088D02*
X0165431Y0281088D01*
X0165860Y0279889D02*
X0164140Y0279889D01*
X0163318Y0278691D02*
X0166682Y0278691D01*
X0177384Y0266706D02*
X0113750Y0266706D01*
X0113552Y0267904D02*
X0179005Y0267904D01*
X0180600Y0266706D02*
X0181400Y0266706D01*
X0181400Y0265507D02*
X0180600Y0265507D01*
X0180600Y0264309D02*
X0181400Y0264309D01*
X0181400Y0263110D02*
X0180600Y0263110D01*
X0180600Y0261912D02*
X0181400Y0261912D01*
X0181400Y0260713D02*
X0186400Y0260713D01*
X0186400Y0261912D02*
X0185800Y0261912D01*
X0185800Y0263110D02*
X0186400Y0263110D01*
X0186400Y0264309D02*
X0185737Y0264309D01*
X0185381Y0265507D02*
X0186839Y0265507D01*
X0187554Y0266706D02*
X0184616Y0266706D01*
X0180600Y0260713D02*
X0174081Y0260713D01*
X0174081Y0259514D02*
X0176200Y0259514D01*
X0176200Y0259933D02*
X0176200Y0256756D01*
X0176318Y0256009D01*
X0176552Y0255291D01*
X0176895Y0254618D01*
X0177339Y0254006D01*
X0177873Y0253472D01*
X0178484Y0253028D01*
X0179157Y0252685D01*
X0179876Y0252452D01*
X0180600Y0252337D01*
X0180600Y0259933D01*
X0176200Y0259933D01*
X0176200Y0258316D02*
X0174081Y0258316D01*
X0174081Y0257117D02*
X0176200Y0257117D01*
X0176348Y0255919D02*
X0173928Y0255919D01*
X0174081Y0253522D02*
X0177823Y0253522D01*
X0176842Y0254720D02*
X0166542Y0254720D01*
X0166699Y0253522D02*
X0166919Y0253522D01*
X0167072Y0255919D02*
X0166699Y0255919D01*
X0170500Y0258833D02*
X0162740Y0258833D01*
X0166699Y0261912D02*
X0167236Y0261912D01*
X0166152Y0263110D02*
X0176200Y0263110D01*
X0176200Y0261912D02*
X0173764Y0261912D01*
X0180600Y0259514D02*
X0181400Y0259514D01*
X0181400Y0258316D02*
X0180600Y0258316D01*
X0180600Y0257117D02*
X0181400Y0257117D01*
X0181400Y0255919D02*
X0180600Y0255919D01*
X0180600Y0254720D02*
X0181400Y0254720D01*
X0181400Y0253522D02*
X0180600Y0253522D01*
X0178276Y0251125D02*
X0174081Y0251125D01*
X0174081Y0252323D02*
X0201475Y0252323D01*
X0198106Y0253522D02*
X0193894Y0253522D01*
X0194980Y0254720D02*
X0197020Y0254720D01*
X0196524Y0255919D02*
X0195476Y0255919D01*
X0195600Y0257117D02*
X0196400Y0257117D01*
X0196400Y0258316D02*
X0195600Y0258316D01*
X0195600Y0259514D02*
X0196400Y0259514D01*
X0196400Y0260713D02*
X0195600Y0260713D01*
X0195600Y0261912D02*
X0196400Y0261912D01*
X0196400Y0263110D02*
X0195600Y0263110D01*
X0195991Y0264309D02*
X0196400Y0264309D01*
X0186400Y0259514D02*
X0185800Y0259514D01*
X0185800Y0258316D02*
X0186400Y0258316D01*
X0186400Y0257117D02*
X0185800Y0257117D01*
X0185652Y0255919D02*
X0186524Y0255919D01*
X0187020Y0254720D02*
X0185158Y0254720D01*
X0184177Y0253522D02*
X0188106Y0253522D01*
X0184500Y0242833D02*
X0207000Y0242833D01*
X0209000Y0244833D01*
X0225000Y0226333D02*
X0225000Y0210333D01*
X0236240Y0211073D02*
X0236240Y0203833D01*
X0236240Y0211073D02*
X0245000Y0219833D01*
X0245000Y0226333D01*
X0253300Y0218533D02*
X0243000Y0208233D01*
X0243000Y0192333D01*
X0219240Y0192333D01*
X0219240Y0194093D01*
X0215500Y0197833D01*
X0198719Y0190001D02*
X0180081Y0190001D01*
X0180081Y0186405D02*
X0236619Y0186405D01*
X0237084Y0185207D02*
X0179716Y0185207D01*
X0176500Y0188333D02*
X0174000Y0188333D01*
X0171500Y0190833D01*
X0171500Y0213833D01*
X0168000Y0217333D01*
X0171000Y0221333D02*
X0177000Y0215333D01*
X0171000Y0221333D02*
X0156000Y0221333D01*
X0156703Y0229552D02*
X0143949Y0229552D01*
X0145197Y0230750D02*
X0157901Y0230750D01*
X0159100Y0231949D02*
X0146446Y0231949D01*
X0147000Y0233147D02*
X0160298Y0233147D01*
X0160159Y0234346D02*
X0150699Y0234346D01*
X0150699Y0235544D02*
X0155447Y0235544D01*
X0154919Y0236743D02*
X0150699Y0236743D01*
X0150699Y0237941D02*
X0154919Y0237941D01*
X0154919Y0239140D02*
X0150699Y0239140D01*
X0150699Y0240338D02*
X0154919Y0240338D01*
X0154919Y0241537D02*
X0150699Y0241537D01*
X0148740Y0242735D02*
X0169887Y0242735D01*
X0171085Y0243934D02*
X0148740Y0243934D01*
X0148740Y0245132D02*
X0172284Y0245132D01*
X0173482Y0246331D02*
X0165926Y0246331D01*
X0166699Y0247529D02*
X0167462Y0247529D01*
X0166919Y0248728D02*
X0166699Y0248728D01*
X0170500Y0250833D02*
X0162740Y0250833D01*
X0159554Y0246331D02*
X0158446Y0246331D01*
X0155260Y0250833D02*
X0153000Y0250833D01*
X0147500Y0256333D01*
X0134000Y0256333D01*
X0132740Y0257593D01*
X0132740Y0260664D01*
X0129372Y0260713D02*
X0125644Y0260713D01*
X0125260Y0260664D02*
X0125260Y0271093D01*
X0123000Y0271333D01*
X0121000Y0270833D02*
X0120500Y0271333D01*
X0124876Y0264309D02*
X0125644Y0264309D01*
X0125644Y0263110D02*
X0124876Y0263110D01*
X0124876Y0261912D02*
X0125644Y0261912D01*
X0128828Y0261912D02*
X0129372Y0261912D01*
X0129372Y0263110D02*
X0128828Y0263110D01*
X0128563Y0264309D02*
X0129680Y0264309D01*
X0129372Y0259514D02*
X0128828Y0259514D01*
X0128828Y0258316D02*
X0129372Y0258316D01*
X0129582Y0257117D02*
X0128619Y0257117D01*
X0125631Y0254720D02*
X0113550Y0254720D01*
X0113117Y0253522D02*
X0125631Y0253522D01*
X0125631Y0252323D02*
X0112581Y0252323D01*
X0114037Y0251125D02*
X0125294Y0251125D01*
X0124095Y0249926D02*
X0115235Y0249926D01*
X0116434Y0248728D02*
X0123260Y0248728D01*
X0123260Y0247529D02*
X0117000Y0247529D01*
X0117000Y0246331D02*
X0123260Y0246331D01*
X0123260Y0245132D02*
X0119130Y0245132D01*
X0119550Y0243934D02*
X0123260Y0243934D01*
X0123260Y0242735D02*
X0119550Y0242735D01*
X0119550Y0241537D02*
X0121301Y0241537D01*
X0121301Y0240338D02*
X0119550Y0240338D01*
X0119550Y0239140D02*
X0121301Y0239140D01*
X0121301Y0237941D02*
X0119056Y0237941D01*
X0119550Y0236743D02*
X0121301Y0236743D01*
X0121301Y0235544D02*
X0119550Y0235544D01*
X0119550Y0234346D02*
X0121301Y0234346D01*
X0122306Y0233147D02*
X0119550Y0233147D01*
X0119550Y0231949D02*
X0120273Y0231949D01*
X0119919Y0230750D02*
X0119346Y0230750D01*
X0119919Y0229552D02*
X0117000Y0229552D01*
X0115000Y0228033D02*
X0110500Y0223533D01*
X0110500Y0178833D01*
X0094000Y0162333D01*
X0098982Y0163634D02*
X0116494Y0163634D01*
X0116694Y0163434D02*
X0118385Y0162733D01*
X0126615Y0162733D01*
X0128306Y0163434D01*
X0129600Y0164728D01*
X0130300Y0166418D01*
X0130300Y0168248D01*
X0129600Y0169939D01*
X0128306Y0171233D01*
X0126615Y0171933D01*
X0118385Y0171933D01*
X0116694Y0171233D01*
X0115400Y0169939D01*
X0114700Y0168248D01*
X0114700Y0166418D01*
X0115400Y0164728D01*
X0116694Y0163434D01*
X0115357Y0164832D02*
X0099327Y0164832D01*
X0100526Y0166031D02*
X0114861Y0166031D01*
X0114700Y0167229D02*
X0101724Y0167229D01*
X0102923Y0168428D02*
X0114774Y0168428D01*
X0115271Y0169626D02*
X0104121Y0169626D01*
X0105320Y0170825D02*
X0116286Y0170825D01*
X0117206Y0173222D02*
X0107717Y0173222D01*
X0108915Y0174420D02*
X0115708Y0174420D01*
X0112886Y0175619D02*
X0110114Y0175619D01*
X0111312Y0176817D02*
X0112000Y0176817D01*
X0114000Y0177333D02*
X0122500Y0177333D01*
X0127794Y0173222D02*
X0142100Y0173222D01*
X0142100Y0174420D02*
X0129292Y0174420D01*
X0129969Y0175619D02*
X0142100Y0175619D01*
X0142100Y0176817D02*
X0130300Y0176817D01*
X0130300Y0178016D02*
X0142100Y0178016D01*
X0142100Y0179214D02*
X0129900Y0179214D01*
X0129126Y0180413D02*
X0142100Y0180413D01*
X0142100Y0181611D02*
X0127393Y0181611D01*
X0117607Y0181611D02*
X0116000Y0181611D01*
X0116000Y0182810D02*
X0142100Y0182810D01*
X0142100Y0184008D02*
X0116000Y0184008D01*
X0116000Y0185207D02*
X0142100Y0185207D01*
X0142100Y0186405D02*
X0116000Y0186405D01*
X0116000Y0187604D02*
X0142100Y0187604D01*
X0142100Y0188802D02*
X0116000Y0188802D01*
X0116000Y0190001D02*
X0142100Y0190001D01*
X0142100Y0191199D02*
X0116000Y0191199D01*
X0116000Y0192398D02*
X0142100Y0192398D01*
X0142100Y0193596D02*
X0116000Y0193596D01*
X0116000Y0194795D02*
X0142100Y0194795D01*
X0142100Y0195993D02*
X0116000Y0195993D01*
X0116000Y0197192D02*
X0117278Y0197192D01*
X0107500Y0195833D02*
X0094000Y0182333D01*
X0106518Y0172023D02*
X0142100Y0172023D01*
X0142100Y0170825D02*
X0128714Y0170825D01*
X0129729Y0169626D02*
X0142279Y0169626D01*
X0142890Y0168428D02*
X0130226Y0168428D01*
X0130300Y0167229D02*
X0144089Y0167229D01*
X0145287Y0166031D02*
X0130139Y0166031D01*
X0129643Y0164832D02*
X0146486Y0164832D01*
X0148241Y0163634D02*
X0128506Y0163634D01*
X0128297Y0161237D02*
X0150203Y0161237D01*
X0148999Y0160038D02*
X0129501Y0160038D01*
X0130055Y0158840D02*
X0148445Y0158840D01*
X0148200Y0157641D02*
X0130300Y0157641D01*
X0130300Y0156443D02*
X0148200Y0156443D01*
X0148686Y0155244D02*
X0129814Y0155244D01*
X0128918Y0154045D02*
X0149582Y0154045D01*
X0151611Y0152847D02*
X0126889Y0152847D01*
X0111861Y0138114D02*
X0108830Y0138114D01*
X0107611Y0139333D01*
X0165000Y0139333D01*
X0165000Y0134333D01*
X0191450Y0134333D01*
X0191450Y0132533D01*
X0180837Y0132533D01*
X0180837Y0132685D01*
X0180017Y0133505D01*
X0176101Y0133505D01*
X0175630Y0133034D01*
X0175599Y0133087D01*
X0175301Y0133385D01*
X0174936Y0133596D01*
X0174530Y0133705D01*
X0173030Y0133705D01*
X0173030Y0130422D01*
X0172852Y0130422D01*
X0172852Y0130244D01*
X0169963Y0130244D01*
X0169963Y0128351D01*
X0170072Y0127944D01*
X0170283Y0127579D01*
X0170420Y0127442D01*
X0170163Y0127185D01*
X0170163Y0122482D01*
X0170964Y0121681D01*
X0170971Y0120733D01*
X0125615Y0120733D01*
X0118209Y0128140D01*
X0116776Y0128733D01*
X0094497Y0128733D01*
X0093848Y0129383D01*
X0092500Y0129383D01*
X0092500Y0135162D01*
X0091328Y0136333D01*
X0090337Y0136333D01*
X0090337Y0136685D01*
X0089517Y0137505D01*
X0085601Y0137505D01*
X0085130Y0137034D01*
X0085099Y0137087D01*
X0084801Y0137385D01*
X0084436Y0137596D01*
X0084030Y0137705D01*
X0082530Y0137705D01*
X0082530Y0134422D01*
X0082352Y0134422D01*
X0082352Y0134244D01*
X0082530Y0134244D01*
X0082530Y0130962D01*
X0084030Y0130962D01*
X0084436Y0131071D01*
X0084801Y0131281D01*
X0085099Y0131579D01*
X0085130Y0131633D01*
X0085601Y0131162D01*
X0088500Y0131162D01*
X0088500Y0129383D01*
X0087176Y0129383D01*
X0086356Y0128563D01*
X0086356Y0121104D01*
X0087176Y0120284D01*
X0093848Y0120284D01*
X0094497Y0120933D01*
X0114385Y0120933D01*
X0120694Y0114624D01*
X0121791Y0113527D01*
X0123224Y0112933D01*
X0206776Y0112933D01*
X0208209Y0113527D01*
X0209306Y0114624D01*
X0209900Y0116058D01*
X0209900Y0119635D01*
X0210550Y0120285D01*
X0210550Y0134333D01*
X0211450Y0134333D01*
X0211450Y0120285D01*
X0212270Y0119465D01*
X0219730Y0119465D01*
X0220550Y0120285D01*
X0220550Y0123855D01*
X0275248Y0123855D01*
X0276682Y0124448D01*
X0277779Y0125545D01*
X0279210Y0126977D01*
X0284336Y0126977D01*
X0285156Y0127797D01*
X0285156Y0130410D01*
X0286900Y0130422D01*
X0293635Y0123713D01*
X0293635Y0121860D01*
X0294456Y0121040D01*
X0300615Y0121040D01*
X0301435Y0121860D01*
X0301435Y0124562D01*
X0301437Y0124565D01*
X0301435Y0125339D01*
X0301435Y0128807D01*
X0300615Y0129627D01*
X0298751Y0129627D01*
X0291795Y0136556D01*
X0291791Y0136565D01*
X0291246Y0137103D01*
X0290703Y0137644D01*
X0290694Y0137648D01*
X0290687Y0137655D01*
X0289976Y0137943D01*
X0289268Y0138235D01*
X0289258Y0138235D01*
X0289249Y0138239D01*
X0288483Y0138233D01*
X0287717Y0138232D01*
X0287707Y0138228D01*
X0285156Y0138211D01*
X0285156Y0140768D01*
X0284336Y0141588D01*
X0282500Y0141588D01*
X0282500Y0148422D01*
X0282730Y0148652D01*
X0282941Y0149017D01*
X0283050Y0149423D01*
X0283050Y0151593D01*
X0282500Y0151593D01*
X0282500Y0152793D01*
X0283050Y0152793D01*
X0283050Y0154963D01*
X0282941Y0155370D01*
X0282730Y0155735D01*
X0282500Y0155965D01*
X0282500Y0156185D01*
X0282850Y0156535D01*
X0282850Y0161395D01*
X0285100Y0163645D01*
X0285100Y0223762D01*
X0283928Y0224933D01*
X0283778Y0225084D01*
X0288599Y0225084D01*
X0289200Y0225685D01*
X0289801Y0225084D01*
X0296079Y0225084D01*
X0296899Y0225904D01*
X0296899Y0227633D01*
X0306300Y0227633D01*
X0306300Y0223063D01*
X0306225Y0222988D01*
X0306225Y0216679D01*
X0306300Y0216604D01*
X0306300Y0147069D01*
X0306286Y0146330D01*
X0306300Y0146295D01*
X0306300Y0146258D01*
X0306583Y0145574D01*
X0306853Y0144886D01*
X0306879Y0144859D01*
X0306894Y0144824D01*
X0307417Y0144301D01*
X0307930Y0143769D01*
X0307964Y0143754D01*
X0307991Y0143727D01*
X0308674Y0143444D01*
X0309352Y0143148D01*
X0309390Y0143148D01*
X0309424Y0143133D01*
X0310164Y0143133D01*
X0315600Y0143033D01*
X0315600Y0142253D01*
X0316420Y0141433D01*
X0317100Y0141433D01*
X0317100Y0134333D01*
X0294026Y0134333D01*
X0291795Y0136556D01*
X0291791Y0136565D01*
X0291246Y0137103D01*
X0290703Y0137644D01*
X0290694Y0137648D01*
X0290687Y0137655D01*
X0289976Y0137943D01*
X0289268Y0138235D01*
X0289258Y0138235D01*
X0289249Y0138239D01*
X0288483Y0138233D01*
X0287717Y0138232D01*
X0287707Y0138228D01*
X0285156Y0138211D01*
X0285156Y0140768D01*
X0284336Y0141588D01*
X0277664Y0141588D01*
X0276844Y0140768D01*
X0276844Y0135642D01*
X0272857Y0131655D01*
X0220550Y0131655D01*
X0220550Y0134333D01*
X0270000Y0134333D01*
X0270000Y0148034D01*
X0270500Y0148034D01*
X0270500Y0151593D01*
X0271700Y0151593D01*
X0271700Y0148034D01*
X0274460Y0148034D01*
X0274700Y0148098D01*
X0274940Y0148034D01*
X0277700Y0148034D01*
X0277700Y0151593D01*
X0278900Y0151593D01*
X0278900Y0148034D01*
X0281660Y0148034D01*
X0282067Y0148143D01*
X0282432Y0148354D01*
X0282730Y0148652D01*
X0282941Y0149017D01*
X0283050Y0149423D01*
X0283050Y0151593D01*
X0278900Y0151593D01*
X0278900Y0152793D01*
X0283050Y0152793D01*
X0283050Y0154963D01*
X0282941Y0155370D01*
X0282730Y0155735D01*
X0282432Y0156033D01*
X0282378Y0156063D01*
X0282850Y0156535D01*
X0282850Y0159333D01*
X0306300Y0159333D01*
X0306300Y0147069D01*
X0306286Y0146330D01*
X0306300Y0146295D01*
X0306300Y0146258D01*
X0306583Y0145574D01*
X0306853Y0144886D01*
X0306879Y0144859D01*
X0306894Y0144824D01*
X0307417Y0144301D01*
X0307930Y0143769D01*
X0307964Y0143754D01*
X0307991Y0143727D01*
X0308674Y0143444D01*
X0309352Y0143148D01*
X0309390Y0143148D01*
X0309424Y0143133D01*
X0310164Y0143133D01*
X0315600Y0143033D01*
X0315600Y0142253D01*
X0316420Y0141433D01*
X0317100Y0141433D01*
X0317100Y0129627D01*
X0311385Y0129627D01*
X0310565Y0128807D01*
X0310565Y0121860D01*
X0311385Y0121040D01*
X0317544Y0121040D01*
X0317938Y0121433D01*
X0321776Y0121433D01*
X0323209Y0122027D01*
X0324306Y0123124D01*
X0324900Y0124558D01*
X0324900Y0141433D01*
X0325580Y0141433D01*
X0326400Y0142253D01*
X0326400Y0151413D01*
X0325580Y0152233D01*
X0316420Y0152233D01*
X0315600Y0151413D01*
X0315600Y0150834D01*
X0314100Y0150862D01*
X0314100Y0216604D01*
X0314175Y0216679D01*
X0314175Y0222988D01*
X0314100Y0223063D01*
X0314100Y0238518D01*
X0317094Y0241512D01*
X0318735Y0241512D01*
X0320111Y0240942D01*
X0321889Y0240942D01*
X0323532Y0241623D01*
X0324790Y0242880D01*
X0325470Y0244523D01*
X0325470Y0246301D01*
X0324790Y0247944D01*
X0323532Y0249202D01*
X0321889Y0249882D01*
X0320111Y0249882D01*
X0318735Y0249312D01*
X0314703Y0249312D01*
X0313270Y0248718D01*
X0312172Y0247621D01*
X0307991Y0243440D01*
X0306894Y0242342D01*
X0306300Y0240909D01*
X0306300Y0231633D01*
X0296899Y0231633D01*
X0296899Y0233363D01*
X0296079Y0234183D01*
X0291178Y0234183D01*
X0297231Y0240236D01*
X0297231Y0243565D01*
X0298567Y0243565D01*
X0299387Y0244385D01*
X0299387Y0249482D01*
X0298567Y0250302D01*
X0293000Y0250302D01*
X0293000Y0254361D01*
X0293159Y0254680D01*
X0293000Y0255158D01*
X0293000Y0255662D01*
X0292748Y0255914D01*
X0292635Y0256252D01*
X0292185Y0256477D01*
X0291828Y0256833D01*
X0291472Y0256833D01*
X0290443Y0257348D01*
X0290450Y0257354D01*
X0290450Y0258493D01*
X0307792Y0258493D01*
X0307595Y0258297D01*
X0307163Y0257702D01*
X0306830Y0257047D01*
X0306602Y0256348D01*
X0306487Y0255622D01*
X0306487Y0255590D01*
X0310822Y0255590D01*
X0310822Y0254920D01*
X0306487Y0254920D01*
X0306487Y0254887D01*
X0306602Y0254161D01*
X0306830Y0253462D01*
X0307163Y0252807D01*
X0307595Y0252212D01*
X0308115Y0251692D01*
X0308710Y0251260D01*
X0309365Y0250927D01*
X0310064Y0250700D01*
X0310790Y0250585D01*
X0310822Y0250584D01*
X0310822Y0254919D01*
X0311493Y0254919D01*
X0311493Y0254920D02*
X0311493Y0255590D01*
X0315828Y0255590D01*
X0315828Y0255622D01*
X0315713Y0256348D01*
X0315485Y0257047D01*
X0315152Y0257702D01*
X0314720Y0258297D01*
X0314523Y0258493D01*
X0324776Y0258493D01*
X0326593Y0256676D01*
X0326372Y0256144D01*
X0326372Y0254365D01*
X0327053Y0252722D01*
X0328310Y0251465D01*
X0329953Y0250785D01*
X0331732Y0250785D01*
X0333375Y0251465D01*
X0334632Y0252722D01*
X0335000Y0253611D01*
X0335000Y0229333D01*
X0325925Y0229333D01*
X0325578Y0230172D01*
X0324059Y0231691D01*
X0322074Y0232513D01*
X0319926Y0232513D01*
X0317941Y0231691D01*
X0316422Y0230172D01*
X0316075Y0229333D01*
X0314100Y0229333D01*
X0314100Y0238518D01*
X0317094Y0241512D01*
X0318735Y0241512D01*
X0320111Y0240942D01*
X0321889Y0240942D01*
X0323532Y0241623D01*
X0324790Y0242880D01*
X0325470Y0244523D01*
X0325470Y0246301D01*
X0324790Y0247944D01*
X0323532Y0249202D01*
X0321889Y0249882D01*
X0320111Y0249882D01*
X0318735Y0249312D01*
X0314703Y0249312D01*
X0313270Y0248718D01*
X0312172Y0247621D01*
X0307991Y0243440D01*
X0307991Y0243440D01*
X0306894Y0242342D01*
X0306300Y0240909D01*
X0306300Y0231633D01*
X0296899Y0231633D01*
X0296899Y0233363D01*
X0296079Y0234183D01*
X0291178Y0234183D01*
X0297231Y0240236D01*
X0297231Y0243565D01*
X0298567Y0243565D01*
X0299387Y0244385D01*
X0299387Y0249482D01*
X0298567Y0250302D01*
X0293000Y0250302D01*
X0293000Y0254361D01*
X0293159Y0254680D01*
X0293000Y0255158D01*
X0293000Y0255662D01*
X0292748Y0255914D01*
X0292635Y0256252D01*
X0292185Y0256477D01*
X0291828Y0256833D01*
X0291472Y0256833D01*
X0290443Y0257348D01*
X0290450Y0257354D01*
X0290450Y0258493D01*
X0307792Y0258493D01*
X0307595Y0258297D01*
X0307163Y0257702D01*
X0306830Y0257047D01*
X0306602Y0256348D01*
X0306487Y0255622D01*
X0306487Y0255590D01*
X0310822Y0255590D01*
X0310822Y0254920D01*
X0306487Y0254920D01*
X0306487Y0254887D01*
X0306602Y0254161D01*
X0306830Y0253462D01*
X0307163Y0252807D01*
X0307595Y0252212D01*
X0308115Y0251692D01*
X0308710Y0251260D01*
X0309365Y0250927D01*
X0310064Y0250700D01*
X0310790Y0250585D01*
X0310822Y0250584D01*
X0310822Y0254919D01*
X0311493Y0254919D01*
X0311493Y0254920D02*
X0315828Y0254920D01*
X0315828Y0254887D01*
X0315713Y0254161D01*
X0315485Y0253462D01*
X0315152Y0252807D01*
X0314720Y0252212D01*
X0314200Y0251692D01*
X0313605Y0251260D01*
X0312950Y0250927D01*
X0312251Y0250700D01*
X0311525Y0250585D01*
X0311493Y0250585D01*
X0311493Y0254919D01*
X0311493Y0254920D02*
X0311493Y0255590D01*
X0315828Y0255590D01*
X0315828Y0255622D01*
X0315713Y0256348D01*
X0315485Y0257047D01*
X0315152Y0257702D01*
X0314720Y0258297D01*
X0314523Y0258493D01*
X0324776Y0258493D01*
X0326593Y0256676D01*
X0326372Y0256144D01*
X0326372Y0254365D01*
X0327053Y0252722D01*
X0328310Y0251465D01*
X0329953Y0250785D01*
X0331732Y0250785D01*
X0333375Y0251465D01*
X0334632Y0252722D01*
X0335313Y0254365D01*
X0335313Y0256144D01*
X0334632Y0257787D01*
X0333375Y0259044D01*
X0331732Y0259725D01*
X0329953Y0259725D01*
X0329421Y0259504D01*
X0327604Y0261322D01*
X0326432Y0262493D01*
X0290450Y0262493D01*
X0290450Y0263632D01*
X0289848Y0264233D01*
X0290450Y0264835D01*
X0290450Y0265973D01*
X0310018Y0265973D01*
X0310239Y0265752D01*
X0315761Y0265752D01*
X0316581Y0266572D01*
X0316581Y0272094D01*
X0315761Y0272914D01*
X0310239Y0272914D01*
X0309419Y0272094D01*
X0309419Y0269973D01*
X0290450Y0269973D01*
X0290450Y0271112D01*
X0289630Y0271933D01*
X0282500Y0271933D01*
X0282500Y0274333D01*
X0336135Y0274333D01*
X0339485Y0267760D01*
X0341820Y0260574D01*
X0343002Y0253111D01*
X0343150Y0249333D01*
X0343150Y0134333D01*
X0343002Y0130556D01*
X0341820Y0123093D01*
X0339485Y0115907D01*
X0336055Y0109175D01*
X0331614Y0103062D01*
X0326271Y0097720D01*
X0320158Y0093279D01*
X0313426Y0089849D01*
X0306240Y0087514D01*
X0298778Y0086332D01*
X0295000Y0086183D01*
X0064350Y0086183D01*
X0064350Y0132483D01*
X0065244Y0132483D01*
X0070593Y0133704D01*
X0075537Y0136085D01*
X0079610Y0139333D01*
X0101389Y0139333D01*
X0105519Y0135203D01*
X0105519Y0131772D01*
X0106339Y0130952D01*
X0111861Y0130952D01*
X0112681Y0131772D01*
X0112681Y0137294D01*
X0111861Y0138114D01*
X0112681Y0137266D02*
X0165000Y0137266D01*
X0165000Y0136068D02*
X0112681Y0136068D01*
X0112681Y0134869D02*
X0165000Y0134869D01*
X0165000Y0138465D02*
X0108480Y0138465D01*
X0104654Y0136068D02*
X0091594Y0136068D01*
X0092500Y0134869D02*
X0105519Y0134869D01*
X0105519Y0133671D02*
X0092500Y0133671D01*
X0092500Y0132472D02*
X0105519Y0132472D01*
X0106017Y0131274D02*
X0092500Y0131274D01*
X0092500Y0130075D02*
X0169963Y0130075D01*
X0169963Y0130422D02*
X0172852Y0130422D01*
X0172852Y0133705D01*
X0171352Y0133705D01*
X0170945Y0133596D01*
X0170581Y0133385D01*
X0170283Y0133087D01*
X0170072Y0132723D01*
X0169963Y0132316D01*
X0169963Y0130422D01*
X0169441Y0130333D02*
X0172941Y0130333D01*
X0172852Y0131274D02*
X0173030Y0131274D01*
X0173030Y0132472D02*
X0172852Y0132472D01*
X0172852Y0133671D02*
X0173030Y0133671D01*
X0174657Y0133671D02*
X0191450Y0133671D01*
X0178059Y0130333D02*
X0178059Y0124833D01*
X0172941Y0124833D02*
X0173000Y0116833D01*
X0170959Y0121686D02*
X0124663Y0121686D01*
X0123465Y0122884D02*
X0170163Y0122884D01*
X0170163Y0124083D02*
X0122266Y0124083D01*
X0121068Y0125281D02*
X0170163Y0125281D01*
X0170163Y0126480D02*
X0119869Y0126480D01*
X0118670Y0127678D02*
X0170226Y0127678D01*
X0169963Y0128877D02*
X0094354Y0128877D01*
X0090500Y0125333D02*
X0090500Y0134333D01*
X0087559Y0134333D01*
X0085363Y0137266D02*
X0084920Y0137266D01*
X0082530Y0137266D02*
X0082352Y0137266D01*
X0082352Y0137705D02*
X0080852Y0137705D01*
X0080445Y0137596D01*
X0080081Y0137385D01*
X0079783Y0137087D01*
X0079572Y0136723D01*
X0079463Y0136316D01*
X0079463Y0134422D01*
X0082352Y0134422D01*
X0082352Y0137705D01*
X0082500Y0138133D02*
X0082500Y0134392D01*
X0082441Y0134333D01*
X0079488Y0134381D01*
X0079488Y0124833D01*
X0078888Y0125281D02*
X0064350Y0125281D01*
X0064350Y0124083D02*
X0075132Y0124083D01*
X0075132Y0124233D02*
X0075132Y0121473D01*
X0075241Y0121066D01*
X0075452Y0120701D01*
X0075750Y0120403D01*
X0076115Y0120193D01*
X0076522Y0120084D01*
X0078888Y0120084D01*
X0078888Y0124233D01*
X0080088Y0124233D01*
X0080088Y0120084D01*
X0082455Y0120084D01*
X0082862Y0120193D01*
X0083227Y0120403D01*
X0083524Y0120701D01*
X0083735Y0121066D01*
X0083844Y0121473D01*
X0083844Y0124233D01*
X0080088Y0124233D01*
X0080088Y0125433D01*
X0083844Y0125433D01*
X0083844Y0128194D01*
X0083735Y0128601D01*
X0083524Y0128965D01*
X0083227Y0129263D01*
X0082862Y0129474D01*
X0082455Y0129583D01*
X0080088Y0129583D01*
X0080088Y0125433D01*
X0078888Y0125433D01*
X0078888Y0124233D01*
X0075132Y0124233D01*
X0075132Y0125433D02*
X0075132Y0128194D01*
X0075241Y0128601D01*
X0075452Y0128965D01*
X0075750Y0129263D01*
X0076115Y0129474D01*
X0076522Y0129583D01*
X0078888Y0129583D01*
X0078888Y0125433D01*
X0075132Y0125433D01*
X0075132Y0126480D02*
X0064350Y0126480D01*
X0064350Y0127678D02*
X0075132Y0127678D01*
X0075401Y0128877D02*
X0064350Y0128877D01*
X0064350Y0130075D02*
X0088500Y0130075D01*
X0086670Y0128877D02*
X0083576Y0128877D01*
X0083844Y0127678D02*
X0086356Y0127678D01*
X0086356Y0126480D02*
X0083844Y0126480D01*
X0083844Y0124083D02*
X0086356Y0124083D01*
X0086356Y0125281D02*
X0080088Y0125281D01*
X0080088Y0124083D02*
X0078888Y0124083D01*
X0078888Y0122884D02*
X0080088Y0122884D01*
X0080088Y0121686D02*
X0078888Y0121686D01*
X0078888Y0120487D02*
X0080088Y0120487D01*
X0083310Y0120487D02*
X0086973Y0120487D01*
X0086356Y0121686D02*
X0083844Y0121686D01*
X0083844Y0122884D02*
X0086356Y0122884D01*
X0080088Y0126480D02*
X0078888Y0126480D01*
X0078888Y0127678D02*
X0080088Y0127678D01*
X0080088Y0128877D02*
X0078888Y0128877D01*
X0080094Y0131274D02*
X0064350Y0131274D01*
X0064350Y0132472D02*
X0079463Y0132472D01*
X0079463Y0132351D02*
X0079572Y0131944D01*
X0079783Y0131579D01*
X0080081Y0131281D01*
X0080445Y0131071D01*
X0080852Y0130962D01*
X0082352Y0130962D01*
X0082352Y0134244D01*
X0079463Y0134244D01*
X0079463Y0132351D01*
X0079463Y0133671D02*
X0070446Y0133671D01*
X0070593Y0133704D02*
X0070593Y0133704D01*
X0073012Y0134869D02*
X0079463Y0134869D01*
X0079463Y0136068D02*
X0075501Y0136068D01*
X0075537Y0136085D02*
X0075537Y0136085D01*
X0077018Y0137266D02*
X0079962Y0137266D01*
X0078521Y0138465D02*
X0102257Y0138465D01*
X0103456Y0137266D02*
X0089756Y0137266D01*
X0092500Y0138133D02*
X0082500Y0138133D01*
X0082530Y0136068D02*
X0082352Y0136068D01*
X0082352Y0134869D02*
X0082530Y0134869D01*
X0082530Y0133671D02*
X0082352Y0133671D01*
X0082352Y0132472D02*
X0082530Y0132472D01*
X0082530Y0131274D02*
X0082352Y0131274D01*
X0084788Y0131274D02*
X0085489Y0131274D01*
X0092500Y0138133D02*
X0100900Y0129733D01*
X0120100Y0129733D01*
X0127500Y0122333D01*
X0161441Y0122333D01*
X0169441Y0130333D01*
X0169963Y0131274D02*
X0112183Y0131274D01*
X0112681Y0132472D02*
X0170005Y0132472D01*
X0171225Y0133671D02*
X0112681Y0133671D01*
X0114831Y0120487D02*
X0094051Y0120487D01*
X0096544Y0118090D02*
X0073456Y0118090D01*
X0072889Y0118657D02*
X0071014Y0119433D01*
X0068986Y0119433D01*
X0067111Y0118657D01*
X0065676Y0117222D01*
X0064900Y0115348D01*
X0064900Y0113319D01*
X0065676Y0111444D01*
X0067111Y0110010D01*
X0068986Y0109233D01*
X0071014Y0109233D01*
X0072889Y0110010D01*
X0074324Y0111444D01*
X0075100Y0113319D01*
X0075100Y0115348D01*
X0074324Y0117222D01*
X0072889Y0118657D01*
X0071364Y0119289D02*
X0098636Y0119289D01*
X0098986Y0119433D02*
X0097111Y0118657D01*
X0095676Y0117222D01*
X0094900Y0115348D01*
X0094900Y0113319D01*
X0095676Y0111444D01*
X0096100Y0111021D01*
X0096100Y0104356D01*
X0095431Y0102742D01*
X0095431Y0100925D01*
X0096127Y0099245D01*
X0097000Y0098372D01*
X0097000Y0095294D01*
X0096127Y0094421D01*
X0095431Y0092742D01*
X0095431Y0090925D01*
X0096127Y0089245D01*
X0097412Y0087960D01*
X0099091Y0087265D01*
X0100909Y0087265D01*
X0102588Y0087960D01*
X0103873Y0089245D01*
X0104568Y0090925D01*
X0104568Y0092742D01*
X0103873Y0094421D01*
X0103000Y0095294D01*
X0103000Y0098372D01*
X0103873Y0099245D01*
X0104568Y0100925D01*
X0104568Y0102742D01*
X0103900Y0104356D01*
X0103900Y0111021D01*
X0104324Y0111444D01*
X0105100Y0113319D01*
X0105100Y0115348D01*
X0104324Y0117222D01*
X0102889Y0118657D01*
X0101014Y0119433D01*
X0098986Y0119433D01*
X0101364Y0119289D02*
X0116029Y0119289D01*
X0117228Y0118090D02*
X0103456Y0118090D01*
X0104461Y0116892D02*
X0118426Y0116892D01*
X0119625Y0115693D02*
X0104957Y0115693D01*
X0105100Y0114495D02*
X0120823Y0114495D01*
X0122348Y0113296D02*
X0105091Y0113296D01*
X0104594Y0112098D02*
X0276644Y0112098D01*
X0276644Y0113296D02*
X0207652Y0113296D01*
X0209177Y0114495D02*
X0276644Y0114495D01*
X0276644Y0114785D02*
X0276644Y0109268D01*
X0276753Y0108861D01*
X0276964Y0108497D01*
X0277262Y0108199D01*
X0277627Y0107988D01*
X0278033Y0107879D01*
X0280400Y0107879D01*
X0280400Y0114784D01*
X0281600Y0114784D01*
X0281600Y0107879D01*
X0283967Y0107879D01*
X0284373Y0107988D01*
X0284738Y0108199D01*
X0285036Y0108497D01*
X0285247Y0108861D01*
X0285356Y0109268D01*
X0285356Y0114785D01*
X0281600Y0114785D01*
X0281600Y0115984D01*
X0285356Y0115984D01*
X0285356Y0121501D01*
X0285247Y0121908D01*
X0285036Y0122272D01*
X0284738Y0122570D01*
X0284373Y0122781D01*
X0283967Y0122890D01*
X0281600Y0122890D01*
X0281600Y0115985D01*
X0280400Y0115985D01*
X0280400Y0122890D01*
X0278033Y0122890D01*
X0277627Y0122781D01*
X0277262Y0122570D01*
X0276964Y0122272D01*
X0276753Y0121908D01*
X0276644Y0121501D01*
X0276644Y0115984D01*
X0280400Y0115984D01*
X0280400Y0114785D01*
X0276644Y0114785D01*
X0276644Y0116892D02*
X0209900Y0116892D01*
X0209900Y0118090D02*
X0276644Y0118090D01*
X0276644Y0119289D02*
X0209900Y0119289D01*
X0210550Y0120487D02*
X0211450Y0120487D01*
X0211450Y0121686D02*
X0210550Y0121686D01*
X0210550Y0122884D02*
X0211450Y0122884D01*
X0211450Y0124083D02*
X0210550Y0124083D01*
X0210550Y0125281D02*
X0211450Y0125281D01*
X0211450Y0126480D02*
X0210550Y0126480D01*
X0210550Y0127678D02*
X0211450Y0127678D01*
X0211450Y0128877D02*
X0210550Y0128877D01*
X0210550Y0130075D02*
X0211450Y0130075D01*
X0211450Y0131274D02*
X0210550Y0131274D01*
X0210550Y0132472D02*
X0211450Y0132472D01*
X0211450Y0133671D02*
X0210550Y0133671D01*
X0220550Y0133671D02*
X0274873Y0133671D01*
X0273675Y0132472D02*
X0220550Y0132472D01*
X0220550Y0122884D02*
X0278012Y0122884D01*
X0276694Y0121686D02*
X0220550Y0121686D01*
X0220550Y0120487D02*
X0276644Y0120487D01*
X0275799Y0124083D02*
X0293265Y0124083D01*
X0293635Y0122884D02*
X0283988Y0122884D01*
X0285306Y0121686D02*
X0293809Y0121686D01*
X0292061Y0125281D02*
X0277515Y0125281D01*
X0278713Y0126480D02*
X0290858Y0126480D01*
X0289655Y0127678D02*
X0285037Y0127678D01*
X0285156Y0128877D02*
X0288452Y0128877D01*
X0287249Y0130075D02*
X0285156Y0130075D01*
X0285156Y0138465D02*
X0317100Y0138465D01*
X0285156Y0138465D01*
X0285156Y0139663D02*
X0317100Y0139663D01*
X0285156Y0139663D01*
X0285062Y0140862D02*
X0317100Y0140862D01*
X0285062Y0140862D01*
X0282500Y0142060D02*
X0315793Y0142060D01*
X0270000Y0142060D01*
X0270000Y0140862D02*
X0276938Y0140862D01*
X0276844Y0139663D02*
X0270000Y0139663D01*
X0270000Y0138465D02*
X0276844Y0138465D01*
X0276844Y0137266D02*
X0270000Y0137266D01*
X0270000Y0136068D02*
X0276844Y0136068D01*
X0276072Y0134869D02*
X0270000Y0134869D01*
X0265000Y0139663D02*
X0176500Y0139663D01*
X0176500Y0140862D02*
X0265000Y0140862D01*
X0265000Y0142060D02*
X0176500Y0142060D01*
X0176500Y0143259D02*
X0265000Y0143259D01*
X0265000Y0144457D02*
X0090100Y0144457D01*
X0090100Y0145656D02*
X0265000Y0145656D01*
X0265000Y0146854D02*
X0090100Y0146854D01*
X0099100Y0148053D02*
X0265000Y0148053D01*
X0263900Y0152193D02*
X0271100Y0152193D01*
X0278300Y0152193D01*
X0282640Y0152193D01*
X0306500Y0128333D01*
X0306500Y0101833D01*
X0304767Y0101449D02*
X0300384Y0101449D01*
X0300384Y0097066D01*
X0301117Y0097182D01*
X0301830Y0097414D01*
X0302499Y0097755D01*
X0303106Y0098196D01*
X0303637Y0098727D01*
X0304078Y0099334D01*
X0304419Y0100003D01*
X0304651Y0100717D01*
X0304767Y0101449D01*
X0304745Y0101311D02*
X0329862Y0101311D01*
X0328664Y0100112D02*
X0304455Y0100112D01*
X0303773Y0098914D02*
X0327465Y0098914D01*
X0326265Y0097715D02*
X0302422Y0097715D01*
X0301830Y0096252D02*
X0301117Y0096484D01*
X0300384Y0096600D01*
X0300384Y0092218D01*
X0299616Y0092218D01*
X0299616Y0096600D01*
X0298883Y0096484D01*
X0298170Y0096252D01*
X0297501Y0095912D01*
X0296894Y0095471D01*
X0296363Y0094940D01*
X0295922Y0094333D01*
X0295581Y0093664D01*
X0295349Y0092950D01*
X0295233Y0092218D01*
X0299616Y0092218D01*
X0299616Y0091449D01*
X0300384Y0091449D01*
X0300384Y0087066D01*
X0301117Y0087182D01*
X0301830Y0087414D01*
X0302499Y0087755D01*
X0303106Y0088196D01*
X0303637Y0088727D01*
X0304078Y0089334D01*
X0304419Y0090003D01*
X0304651Y0090717D01*
X0304767Y0091449D01*
X0300384Y0091449D01*
X0300384Y0092218D01*
X0304767Y0092218D01*
X0304651Y0092950D01*
X0304419Y0093664D01*
X0304078Y0094333D01*
X0303637Y0094940D01*
X0303106Y0095471D01*
X0302499Y0095912D01*
X0301830Y0096252D01*
X0300911Y0096517D02*
X0324615Y0096517D01*
X0322966Y0095318D02*
X0303259Y0095318D01*
X0304187Y0094120D02*
X0321316Y0094120D01*
X0319457Y0092921D02*
X0304656Y0092921D01*
X0304589Y0090524D02*
X0314753Y0090524D01*
X0317105Y0091723D02*
X0300384Y0091723D01*
X0299616Y0091723D02*
X0290384Y0091723D01*
X0290384Y0091449D02*
X0290384Y0092218D01*
X0289616Y0092218D01*
X0289616Y0096600D01*
X0288883Y0096484D01*
X0288170Y0096252D01*
X0287501Y0095912D01*
X0286894Y0095471D01*
X0286363Y0094940D01*
X0285922Y0094333D01*
X0285581Y0093664D01*
X0285349Y0092950D01*
X0285233Y0092218D01*
X0289616Y0092218D01*
X0289616Y0091449D01*
X0290384Y0091449D01*
X0290384Y0087066D01*
X0291117Y0087182D01*
X0291830Y0087414D01*
X0292499Y0087755D01*
X0293106Y0088196D01*
X0293637Y0088727D01*
X0294078Y0089334D01*
X0294419Y0090003D01*
X0294651Y0090717D01*
X0294767Y0091449D01*
X0290384Y0091449D01*
X0289616Y0091449D02*
X0289616Y0087066D01*
X0288883Y0087182D01*
X0288170Y0087414D01*
X0287501Y0087755D01*
X0286894Y0088196D01*
X0286363Y0088727D01*
X0285922Y0089334D01*
X0285581Y0090003D01*
X0285349Y0090717D01*
X0285233Y0091449D01*
X0289616Y0091449D01*
X0289616Y0091723D02*
X0284568Y0091723D01*
X0284568Y0090925D02*
X0283873Y0089245D01*
X0282588Y0087960D01*
X0280909Y0087265D01*
X0279091Y0087265D01*
X0277412Y0087960D01*
X0276127Y0089245D01*
X0275431Y0090925D01*
X0275431Y0092742D01*
X0276127Y0094421D01*
X0277412Y0095706D01*
X0279091Y0096402D01*
X0280909Y0096402D01*
X0282588Y0095706D01*
X0283873Y0094421D01*
X0284568Y0092742D01*
X0284568Y0090925D01*
X0284403Y0090524D02*
X0285411Y0090524D01*
X0285928Y0089326D02*
X0283906Y0089326D01*
X0282755Y0088127D02*
X0286988Y0088127D01*
X0289616Y0088127D02*
X0290384Y0088127D01*
X0290384Y0089326D02*
X0289616Y0089326D01*
X0289616Y0090524D02*
X0290384Y0090524D01*
X0290384Y0092218D02*
X0294767Y0092218D01*
X0294651Y0092950D01*
X0294419Y0093664D01*
X0294078Y0094333D01*
X0293637Y0094940D01*
X0293106Y0095471D01*
X0292499Y0095912D01*
X0291830Y0096252D01*
X0291117Y0096484D01*
X0290384Y0096600D01*
X0290384Y0092218D01*
X0290384Y0092921D02*
X0289616Y0092921D01*
X0289616Y0094120D02*
X0290384Y0094120D01*
X0290384Y0095318D02*
X0289616Y0095318D01*
X0289616Y0096517D02*
X0290384Y0096517D01*
X0290911Y0096517D02*
X0299089Y0096517D01*
X0299616Y0096517D02*
X0300384Y0096517D01*
X0299616Y0097066D02*
X0299616Y0101449D01*
X0300384Y0101449D01*
X0300384Y0102218D01*
X0299616Y0102218D01*
X0299616Y0106600D01*
X0298883Y0106484D01*
X0298170Y0106252D01*
X0297501Y0105912D01*
X0296894Y0105471D01*
X0296363Y0104940D01*
X0295922Y0104333D01*
X0295581Y0103664D01*
X0295349Y0102950D01*
X0295233Y0102218D01*
X0299616Y0102218D01*
X0299616Y0101449D01*
X0295233Y0101449D01*
X0295349Y0100717D01*
X0295581Y0100003D01*
X0295922Y0099334D01*
X0296363Y0098727D01*
X0296894Y0098196D01*
X0297501Y0097755D01*
X0298170Y0097414D01*
X0298883Y0097182D01*
X0299616Y0097066D01*
X0299616Y0097715D02*
X0300384Y0097715D01*
X0300384Y0098914D02*
X0299616Y0098914D01*
X0299616Y0100112D02*
X0300384Y0100112D01*
X0300384Y0101311D02*
X0299616Y0101311D01*
X0300384Y0102218D02*
X0304767Y0102218D01*
X0304651Y0102950D01*
X0304419Y0103664D01*
X0304078Y0104333D01*
X0303637Y0104940D01*
X0303106Y0105471D01*
X0302499Y0105912D01*
X0301830Y0106252D01*
X0301117Y0106484D01*
X0300384Y0106600D01*
X0300384Y0102218D01*
X0300384Y0102510D02*
X0299616Y0102510D01*
X0299616Y0103708D02*
X0300384Y0103708D01*
X0300384Y0104907D02*
X0299616Y0104907D01*
X0299616Y0106105D02*
X0300384Y0106105D01*
X0302120Y0106105D02*
X0333824Y0106105D01*
X0332953Y0104907D02*
X0303661Y0104907D01*
X0304397Y0103708D02*
X0332083Y0103708D01*
X0331061Y0102510D02*
X0304721Y0102510D01*
X0297880Y0106105D02*
X0292120Y0106105D01*
X0291830Y0106252D02*
X0291117Y0106484D01*
X0290384Y0106600D01*
X0290384Y0102218D01*
X0289616Y0102218D01*
X0289616Y0106600D01*
X0288883Y0106484D01*
X0288170Y0106252D01*
X0287501Y0105912D01*
X0286894Y0105471D01*
X0286363Y0104940D01*
X0285922Y0104333D01*
X0285581Y0103664D01*
X0285349Y0102950D01*
X0285233Y0102218D01*
X0289616Y0102218D01*
X0289616Y0101449D01*
X0290384Y0101449D01*
X0290384Y0097066D01*
X0291117Y0097182D01*
X0291830Y0097414D01*
X0292499Y0097755D01*
X0293106Y0098196D01*
X0293637Y0098727D01*
X0294078Y0099334D01*
X0294419Y0100003D01*
X0294651Y0100717D01*
X0294767Y0101449D01*
X0290384Y0101449D01*
X0290384Y0102218D01*
X0294767Y0102218D01*
X0294651Y0102950D01*
X0294419Y0103664D01*
X0294078Y0104333D01*
X0293637Y0104940D01*
X0293106Y0105471D01*
X0292499Y0105912D01*
X0291830Y0106252D01*
X0290384Y0106105D02*
X0289616Y0106105D01*
X0289616Y0104907D02*
X0290384Y0104907D01*
X0290384Y0103708D02*
X0289616Y0103708D01*
X0289616Y0102510D02*
X0290384Y0102510D01*
X0290384Y0101311D02*
X0289616Y0101311D01*
X0289616Y0101449D02*
X0289616Y0097066D01*
X0288883Y0097182D01*
X0288170Y0097414D01*
X0287501Y0097755D01*
X0286894Y0098196D01*
X0286363Y0098727D01*
X0285922Y0099334D01*
X0285581Y0100003D01*
X0285349Y0100717D01*
X0285233Y0101449D01*
X0289616Y0101449D01*
X0289616Y0100112D02*
X0290384Y0100112D01*
X0290384Y0098914D02*
X0289616Y0098914D01*
X0289616Y0097715D02*
X0290384Y0097715D01*
X0289089Y0096517D02*
X0103000Y0096517D01*
X0103000Y0097715D02*
X0108003Y0097715D01*
X0107412Y0097960D02*
X0109091Y0097265D01*
X0110909Y0097265D01*
X0112588Y0097960D01*
X0113873Y0099245D01*
X0114568Y0100925D01*
X0114568Y0102742D01*
X0113873Y0104421D01*
X0112588Y0105706D01*
X0110909Y0106402D01*
X0109091Y0106402D01*
X0107412Y0105706D01*
X0106127Y0104421D01*
X0105431Y0102742D01*
X0105431Y0100925D01*
X0106127Y0099245D01*
X0107412Y0097960D01*
X0106459Y0098914D02*
X0103541Y0098914D01*
X0104232Y0100112D02*
X0105768Y0100112D01*
X0105431Y0101311D02*
X0104568Y0101311D01*
X0104568Y0102510D02*
X0105431Y0102510D01*
X0105832Y0103708D02*
X0104168Y0103708D01*
X0103900Y0104907D02*
X0106612Y0104907D01*
X0108375Y0106105D02*
X0103900Y0106105D01*
X0103900Y0107304D02*
X0334695Y0107304D01*
X0335566Y0108502D02*
X0285039Y0108502D01*
X0285356Y0109701D02*
X0336322Y0109701D01*
X0336933Y0110899D02*
X0285356Y0110899D01*
X0285356Y0112098D02*
X0337544Y0112098D01*
X0338154Y0113296D02*
X0285356Y0113296D01*
X0285356Y0114495D02*
X0338765Y0114495D01*
X0339376Y0115693D02*
X0281600Y0115693D01*
X0281600Y0114495D02*
X0280400Y0114495D01*
X0280400Y0115693D02*
X0209749Y0115693D01*
X0209091Y0106402D02*
X0207412Y0105706D01*
X0206127Y0104421D01*
X0205431Y0102742D01*
X0205431Y0100925D01*
X0206127Y0099245D01*
X0207412Y0097960D01*
X0209091Y0097265D01*
X0210909Y0097265D01*
X0212588Y0097960D01*
X0213873Y0099245D01*
X0214568Y0100925D01*
X0214568Y0102742D01*
X0213873Y0104421D01*
X0212588Y0105706D01*
X0210909Y0106402D01*
X0209091Y0106402D01*
X0208375Y0106105D02*
X0201625Y0106105D01*
X0200909Y0106402D02*
X0202588Y0105706D01*
X0203873Y0104421D01*
X0204568Y0102742D01*
X0204568Y0100925D01*
X0203873Y0099245D01*
X0202588Y0097960D01*
X0200909Y0097265D01*
X0199091Y0097265D01*
X0197412Y0097960D01*
X0196127Y0099245D01*
X0195431Y0100925D01*
X0195431Y0102742D01*
X0196127Y0104421D01*
X0197412Y0105706D01*
X0199091Y0106402D01*
X0200909Y0106402D01*
X0198375Y0106105D02*
X0191625Y0106105D01*
X0190909Y0106402D02*
X0189091Y0106402D01*
X0187412Y0105706D01*
X0186127Y0104421D01*
X0185431Y0102742D01*
X0185431Y0100925D01*
X0186127Y0099245D01*
X0187412Y0097960D01*
X0189091Y0097265D01*
X0190909Y0097265D01*
X0192588Y0097960D01*
X0193873Y0099245D01*
X0194568Y0100925D01*
X0194568Y0102742D01*
X0193873Y0104421D01*
X0192588Y0105706D01*
X0190909Y0106402D01*
X0188375Y0106105D02*
X0181625Y0106105D01*
X0180909Y0106402D02*
X0179091Y0106402D01*
X0177412Y0105706D01*
X0176127Y0104421D01*
X0175431Y0102742D01*
X0175431Y0100925D01*
X0176127Y0099245D01*
X0177412Y0097960D01*
X0179091Y0097265D01*
X0180909Y0097265D01*
X0182588Y0097960D01*
X0183873Y0099245D01*
X0184568Y0100925D01*
X0184568Y0102742D01*
X0183873Y0104421D01*
X0182588Y0105706D01*
X0180909Y0106402D01*
X0178375Y0106105D02*
X0171625Y0106105D01*
X0170909Y0106402D02*
X0169091Y0106402D01*
X0167412Y0105706D01*
X0166127Y0104421D01*
X0165431Y0102742D01*
X0165431Y0100925D01*
X0166127Y0099245D01*
X0167412Y0097960D01*
X0169091Y0097265D01*
X0170909Y0097265D01*
X0172588Y0097960D01*
X0173873Y0099245D01*
X0174568Y0100925D01*
X0174568Y0102742D01*
X0173873Y0104421D01*
X0172588Y0105706D01*
X0170909Y0106402D01*
X0168375Y0106105D02*
X0161625Y0106105D01*
X0160909Y0106402D02*
X0159091Y0106402D01*
X0157412Y0105706D01*
X0156127Y0104421D01*
X0155431Y0102742D01*
X0155431Y0100925D01*
X0156127Y0099245D01*
X0157412Y0097960D01*
X0159091Y0097265D01*
X0160909Y0097265D01*
X0162588Y0097960D01*
X0163873Y0099245D01*
X0164568Y0100925D01*
X0164568Y0102742D01*
X0163873Y0104421D01*
X0162588Y0105706D01*
X0160909Y0106402D01*
X0158375Y0106105D02*
X0151625Y0106105D01*
X0150909Y0106402D02*
X0149091Y0106402D01*
X0147412Y0105706D01*
X0146127Y0104421D01*
X0145431Y0102742D01*
X0145431Y0100925D01*
X0146127Y0099245D01*
X0147412Y0097960D01*
X0149091Y0097265D01*
X0150909Y0097265D01*
X0152588Y0097960D01*
X0153873Y0099245D01*
X0154568Y0100925D01*
X0154568Y0102742D01*
X0153873Y0104421D01*
X0152588Y0105706D01*
X0150909Y0106402D01*
X0148375Y0106105D02*
X0141625Y0106105D01*
X0140909Y0106402D02*
X0139091Y0106402D01*
X0137412Y0105706D01*
X0136127Y0104421D01*
X0135431Y0102742D01*
X0135431Y0100925D01*
X0136127Y0099245D01*
X0137412Y0097960D01*
X0139091Y0097265D01*
X0140909Y0097265D01*
X0142588Y0097960D01*
X0143873Y0099245D01*
X0144568Y0100925D01*
X0144568Y0102742D01*
X0143873Y0104421D01*
X0142588Y0105706D01*
X0140909Y0106402D01*
X0138375Y0106105D02*
X0131625Y0106105D01*
X0130909Y0106402D02*
X0129091Y0106402D01*
X0127412Y0105706D01*
X0126127Y0104421D01*
X0125431Y0102742D01*
X0125431Y0100925D01*
X0126127Y0099245D01*
X0127412Y0097960D01*
X0129091Y0097265D01*
X0130909Y0097265D01*
X0132588Y0097960D01*
X0133873Y0099245D01*
X0134568Y0100925D01*
X0134568Y0102742D01*
X0133873Y0104421D01*
X0132588Y0105706D01*
X0130909Y0106402D01*
X0128375Y0106105D02*
X0121625Y0106105D01*
X0120909Y0106402D02*
X0122588Y0105706D01*
X0123873Y0104421D01*
X0124568Y0102742D01*
X0124568Y0100925D01*
X0123873Y0099245D01*
X0122588Y0097960D01*
X0120909Y0097265D01*
X0119091Y0097265D01*
X0117412Y0097960D01*
X0116127Y0099245D01*
X0115431Y0100925D01*
X0115431Y0102742D01*
X0116127Y0104421D01*
X0117412Y0105706D01*
X0119091Y0106402D01*
X0120909Y0106402D01*
X0118375Y0106105D02*
X0111625Y0106105D01*
X0113388Y0104907D02*
X0116612Y0104907D01*
X0115832Y0103708D02*
X0114168Y0103708D01*
X0114568Y0102510D02*
X0115431Y0102510D01*
X0115431Y0101311D02*
X0114568Y0101311D01*
X0114232Y0100112D02*
X0115768Y0100112D01*
X0116459Y0098914D02*
X0113541Y0098914D01*
X0111997Y0097715D02*
X0118003Y0097715D01*
X0119091Y0096402D02*
X0117412Y0095706D01*
X0116127Y0094421D01*
X0115431Y0092742D01*
X0115431Y0090925D01*
X0116127Y0089245D01*
X0117412Y0087960D01*
X0119091Y0087265D01*
X0120909Y0087265D01*
X0122588Y0087960D01*
X0123873Y0089245D01*
X0124568Y0090925D01*
X0124568Y0092742D01*
X0123873Y0094421D01*
X0122588Y0095706D01*
X0120909Y0096402D01*
X0119091Y0096402D01*
X0117024Y0095318D02*
X0112976Y0095318D01*
X0112588Y0095706D02*
X0113873Y0094421D01*
X0114568Y0092742D01*
X0114568Y0090925D01*
X0113873Y0089245D01*
X0112588Y0087960D01*
X0110909Y0087265D01*
X0109091Y0087265D01*
X0107412Y0087960D01*
X0106127Y0089245D01*
X0105431Y0090925D01*
X0105431Y0092742D01*
X0106127Y0094421D01*
X0107412Y0095706D01*
X0109091Y0096402D01*
X0110909Y0096402D01*
X0112588Y0095706D01*
X0113998Y0094120D02*
X0116002Y0094120D01*
X0115506Y0092921D02*
X0114494Y0092921D01*
X0114568Y0091723D02*
X0115431Y0091723D01*
X0115597Y0090524D02*
X0114403Y0090524D01*
X0113906Y0089326D02*
X0116094Y0089326D01*
X0117245Y0088127D02*
X0112755Y0088127D01*
X0107245Y0088127D02*
X0102755Y0088127D01*
X0103906Y0089326D02*
X0106094Y0089326D01*
X0105597Y0090524D02*
X0104403Y0090524D01*
X0104568Y0091723D02*
X0105431Y0091723D01*
X0105506Y0092921D02*
X0104494Y0092921D01*
X0103998Y0094120D02*
X0106002Y0094120D01*
X0107024Y0095318D02*
X0103000Y0095318D01*
X0097000Y0095318D02*
X0092976Y0095318D01*
X0092588Y0095706D02*
X0092000Y0095950D01*
X0092000Y0097717D01*
X0092588Y0097960D01*
X0093873Y0099245D01*
X0094568Y0100925D01*
X0094568Y0102742D01*
X0093873Y0104421D01*
X0092588Y0105706D01*
X0090909Y0106402D01*
X0089091Y0106402D01*
X0087412Y0105706D01*
X0086127Y0104421D01*
X0085431Y0102742D01*
X0085431Y0100925D01*
X0086127Y0099245D01*
X0087412Y0097960D01*
X0088000Y0097717D01*
X0088000Y0095950D01*
X0087412Y0095706D01*
X0086127Y0094421D01*
X0085431Y0092742D01*
X0085431Y0090925D01*
X0086127Y0089245D01*
X0087412Y0087960D01*
X0089091Y0087265D01*
X0090909Y0087265D01*
X0092588Y0087960D01*
X0093873Y0089245D01*
X0094568Y0090925D01*
X0094568Y0092742D01*
X0093873Y0094421D01*
X0092588Y0095706D01*
X0092000Y0096517D02*
X0097000Y0096517D01*
X0097000Y0097715D02*
X0092000Y0097715D01*
X0093541Y0098914D02*
X0096459Y0098914D01*
X0095768Y0100112D02*
X0094232Y0100112D01*
X0094568Y0101311D02*
X0095431Y0101311D01*
X0095431Y0102510D02*
X0094568Y0102510D01*
X0094168Y0103708D02*
X0095832Y0103708D01*
X0096100Y0104907D02*
X0093388Y0104907D01*
X0091625Y0106105D02*
X0096100Y0106105D01*
X0096100Y0107304D02*
X0064350Y0107304D01*
X0064350Y0108502D02*
X0096100Y0108502D01*
X0096100Y0109701D02*
X0072142Y0109701D01*
X0073778Y0110899D02*
X0096100Y0110899D01*
X0095406Y0112098D02*
X0074594Y0112098D01*
X0075091Y0113296D02*
X0094909Y0113296D01*
X0094900Y0114495D02*
X0075100Y0114495D01*
X0074957Y0115693D02*
X0095043Y0115693D01*
X0095539Y0116892D02*
X0074461Y0116892D01*
X0075666Y0120487D02*
X0064350Y0120487D01*
X0064350Y0119289D02*
X0068636Y0119289D01*
X0066544Y0118090D02*
X0064350Y0118090D01*
X0064350Y0116892D02*
X0065539Y0116892D01*
X0065043Y0115693D02*
X0064350Y0115693D01*
X0064350Y0114495D02*
X0064900Y0114495D01*
X0064909Y0113296D02*
X0064350Y0113296D01*
X0064350Y0112098D02*
X0065406Y0112098D01*
X0066222Y0110899D02*
X0064350Y0110899D01*
X0064350Y0109701D02*
X0067857Y0109701D01*
X0064350Y0106105D02*
X0077880Y0106105D01*
X0078170Y0106252D02*
X0077501Y0105912D01*
X0076894Y0105471D01*
X0076363Y0104940D01*
X0075922Y0104333D01*
X0075581Y0103664D01*
X0075349Y0102950D01*
X0075233Y0102218D01*
X0079616Y0102218D01*
X0079616Y0106600D01*
X0078883Y0106484D01*
X0078170Y0106252D01*
X0079616Y0106105D02*
X0080384Y0106105D01*
X0080384Y0106600D02*
X0081117Y0106484D01*
X0081830Y0106252D01*
X0082499Y0105912D01*
X0083106Y0105471D01*
X0083637Y0104940D01*
X0084078Y0104333D01*
X0084419Y0103664D01*
X0084651Y0102950D01*
X0084767Y0102218D01*
X0080384Y0102218D01*
X0079616Y0102218D01*
X0079616Y0101449D01*
X0080384Y0101449D01*
X0080384Y0097066D01*
X0081117Y0097182D01*
X0081830Y0097414D01*
X0082499Y0097755D01*
X0083106Y0098196D01*
X0083637Y0098727D01*
X0084078Y0099334D01*
X0084419Y0100003D01*
X0084651Y0100717D01*
X0084767Y0101449D01*
X0080384Y0101449D01*
X0080384Y0102218D01*
X0080384Y0106600D01*
X0080384Y0104907D02*
X0079616Y0104907D01*
X0079616Y0103708D02*
X0080384Y0103708D01*
X0080384Y0102510D02*
X0079616Y0102510D01*
X0079616Y0101449D02*
X0075233Y0101449D01*
X0075349Y0100717D01*
X0075581Y0100003D01*
X0075922Y0099334D01*
X0076363Y0098727D01*
X0076894Y0098196D01*
X0077501Y0097755D01*
X0078170Y0097414D01*
X0078883Y0097182D01*
X0079616Y0097066D01*
X0079616Y0101449D01*
X0079616Y0101311D02*
X0080384Y0101311D01*
X0080384Y0100112D02*
X0079616Y0100112D01*
X0079616Y0098914D02*
X0080384Y0098914D01*
X0080384Y0097715D02*
X0079616Y0097715D01*
X0079616Y0096602D02*
X0076621Y0096602D01*
X0076214Y0096493D01*
X0075849Y0096282D01*
X0075551Y0095984D01*
X0075341Y0095619D01*
X0075231Y0095212D01*
X0075231Y0092218D01*
X0079616Y0092218D01*
X0079616Y0096602D01*
X0079616Y0096517D02*
X0080384Y0096517D01*
X0080384Y0096602D02*
X0083379Y0096602D01*
X0083786Y0096493D01*
X0084151Y0096282D01*
X0084449Y0095984D01*
X0084659Y0095619D01*
X0084768Y0095212D01*
X0084768Y0092218D01*
X0080384Y0092218D01*
X0079616Y0092218D01*
X0079616Y0091449D01*
X0080384Y0091449D01*
X0080384Y0087065D01*
X0083379Y0087065D01*
X0083786Y0087174D01*
X0084151Y0087385D01*
X0084449Y0087682D01*
X0084659Y0088047D01*
X0084768Y0088454D01*
X0084768Y0091449D01*
X0080384Y0091449D01*
X0080384Y0092218D01*
X0080384Y0096602D01*
X0080384Y0095318D02*
X0079616Y0095318D01*
X0079616Y0094120D02*
X0080384Y0094120D01*
X0080384Y0092921D02*
X0079616Y0092921D01*
X0079616Y0091723D02*
X0064350Y0091723D01*
X0064350Y0092921D02*
X0075231Y0092921D01*
X0075231Y0094120D02*
X0064350Y0094120D01*
X0064350Y0095318D02*
X0075260Y0095318D01*
X0076304Y0096517D02*
X0064350Y0096517D01*
X0064350Y0097715D02*
X0077578Y0097715D01*
X0076227Y0098914D02*
X0064350Y0098914D01*
X0064350Y0100112D02*
X0075545Y0100112D01*
X0075255Y0101311D02*
X0064350Y0101311D01*
X0064350Y0102510D02*
X0075279Y0102510D01*
X0075603Y0103708D02*
X0064350Y0103708D01*
X0064350Y0104907D02*
X0076339Y0104907D01*
X0082120Y0106105D02*
X0088375Y0106105D01*
X0086612Y0104907D02*
X0083661Y0104907D01*
X0084397Y0103708D02*
X0085832Y0103708D01*
X0085431Y0102510D02*
X0084721Y0102510D01*
X0084745Y0101311D02*
X0085431Y0101311D01*
X0085768Y0100112D02*
X0084455Y0100112D01*
X0083773Y0098914D02*
X0086459Y0098914D01*
X0088000Y0097715D02*
X0082422Y0097715D01*
X0083696Y0096517D02*
X0088000Y0096517D01*
X0087024Y0095318D02*
X0084740Y0095318D01*
X0084768Y0094120D02*
X0086002Y0094120D01*
X0085506Y0092921D02*
X0084768Y0092921D01*
X0085431Y0091723D02*
X0080384Y0091723D01*
X0079616Y0091449D02*
X0079616Y0087065D01*
X0076621Y0087065D01*
X0076214Y0087174D01*
X0075849Y0087385D01*
X0075551Y0087682D01*
X0075341Y0088047D01*
X0075231Y0088454D01*
X0075231Y0091449D01*
X0079616Y0091449D01*
X0079616Y0090524D02*
X0080384Y0090524D01*
X0080384Y0089326D02*
X0079616Y0089326D01*
X0079616Y0088127D02*
X0080384Y0088127D01*
X0084681Y0088127D02*
X0087245Y0088127D01*
X0086094Y0089326D02*
X0084768Y0089326D01*
X0084768Y0090524D02*
X0085597Y0090524D01*
X0090000Y0091833D02*
X0090000Y0101833D01*
X0093998Y0094120D02*
X0096002Y0094120D01*
X0095506Y0092921D02*
X0094494Y0092921D01*
X0094568Y0091723D02*
X0095431Y0091723D01*
X0095597Y0090524D02*
X0094403Y0090524D01*
X0093906Y0089326D02*
X0096094Y0089326D01*
X0097245Y0088127D02*
X0092755Y0088127D01*
X0075319Y0088127D02*
X0064350Y0088127D01*
X0064350Y0086929D02*
X0302548Y0086929D01*
X0303012Y0088127D02*
X0308129Y0088127D01*
X0311818Y0089326D02*
X0304072Y0089326D01*
X0300384Y0089326D02*
X0299616Y0089326D01*
X0299616Y0090524D02*
X0300384Y0090524D01*
X0299616Y0091449D02*
X0299616Y0087066D01*
X0298883Y0087182D01*
X0298170Y0087414D01*
X0297501Y0087755D01*
X0296894Y0088196D01*
X0296363Y0088727D01*
X0295922Y0089334D01*
X0295581Y0090003D01*
X0295349Y0090717D01*
X0295233Y0091449D01*
X0299616Y0091449D01*
X0299616Y0092921D02*
X0300384Y0092921D01*
X0300384Y0094120D02*
X0299616Y0094120D01*
X0299616Y0095318D02*
X0300384Y0095318D01*
X0296741Y0095318D02*
X0293259Y0095318D01*
X0294187Y0094120D02*
X0295813Y0094120D01*
X0295344Y0092921D02*
X0294656Y0092921D01*
X0294589Y0090524D02*
X0295411Y0090524D01*
X0295928Y0089326D02*
X0294072Y0089326D01*
X0293012Y0088127D02*
X0296988Y0088127D01*
X0299616Y0088127D02*
X0300384Y0088127D01*
X0297578Y0097715D02*
X0292422Y0097715D01*
X0293773Y0098914D02*
X0296227Y0098914D01*
X0295545Y0100112D02*
X0294455Y0100112D01*
X0294745Y0101311D02*
X0295255Y0101311D01*
X0295279Y0102510D02*
X0294721Y0102510D01*
X0294397Y0103708D02*
X0295603Y0103708D01*
X0296339Y0104907D02*
X0293661Y0104907D01*
X0287880Y0106105D02*
X0281625Y0106105D01*
X0280909Y0106402D02*
X0279091Y0106402D01*
X0277412Y0105706D01*
X0276127Y0104421D01*
X0275431Y0102742D01*
X0275431Y0100925D01*
X0276127Y0099245D01*
X0277412Y0097960D01*
X0279091Y0097265D01*
X0280909Y0097265D01*
X0282588Y0097960D01*
X0283873Y0099245D01*
X0284568Y0100925D01*
X0284568Y0102742D01*
X0283873Y0104421D01*
X0282588Y0105706D01*
X0280909Y0106402D01*
X0280400Y0108502D02*
X0281600Y0108502D01*
X0281600Y0109701D02*
X0280400Y0109701D01*
X0280400Y0110899D02*
X0281600Y0110899D01*
X0281600Y0112098D02*
X0280400Y0112098D01*
X0280400Y0113296D02*
X0281600Y0113296D01*
X0281600Y0116892D02*
X0280400Y0116892D01*
X0280400Y0118090D02*
X0281600Y0118090D01*
X0281600Y0119289D02*
X0280400Y0119289D01*
X0280400Y0120487D02*
X0281600Y0120487D01*
X0281600Y0121686D02*
X0280400Y0121686D01*
X0280400Y0122884D02*
X0281600Y0122884D01*
X0285356Y0120487D02*
X0340973Y0120487D01*
X0340584Y0119289D02*
X0285356Y0119289D01*
X0285356Y0118090D02*
X0340194Y0118090D01*
X0339805Y0116892D02*
X0285356Y0116892D01*
X0276644Y0110899D02*
X0103900Y0110899D01*
X0103900Y0109701D02*
X0276644Y0109701D01*
X0276961Y0108502D02*
X0103900Y0108502D01*
X0123388Y0104907D02*
X0126612Y0104907D01*
X0125832Y0103708D02*
X0124168Y0103708D01*
X0124568Y0102510D02*
X0125431Y0102510D01*
X0125431Y0101311D02*
X0124568Y0101311D01*
X0124232Y0100112D02*
X0125768Y0100112D01*
X0126459Y0098914D02*
X0123541Y0098914D01*
X0121997Y0097715D02*
X0128003Y0097715D01*
X0129091Y0096402D02*
X0127412Y0095706D01*
X0126127Y0094421D01*
X0125431Y0092742D01*
X0125431Y0090925D01*
X0126127Y0089245D01*
X0127412Y0087960D01*
X0129091Y0087265D01*
X0130909Y0087265D01*
X0132588Y0087960D01*
X0133873Y0089245D01*
X0134568Y0090925D01*
X0134568Y0092742D01*
X0133873Y0094421D01*
X0132588Y0095706D01*
X0130909Y0096402D01*
X0129091Y0096402D01*
X0127024Y0095318D02*
X0122976Y0095318D01*
X0123998Y0094120D02*
X0126002Y0094120D01*
X0125506Y0092921D02*
X0124494Y0092921D01*
X0124568Y0091723D02*
X0125431Y0091723D01*
X0125597Y0090524D02*
X0124403Y0090524D01*
X0123906Y0089326D02*
X0126094Y0089326D01*
X0127245Y0088127D02*
X0122755Y0088127D01*
X0132755Y0088127D02*
X0137245Y0088127D01*
X0137412Y0087960D02*
X0139091Y0087265D01*
X0140909Y0087265D01*
X0142588Y0087960D01*
X0143873Y0089245D01*
X0144568Y0090925D01*
X0144568Y0092742D01*
X0143873Y0094421D01*
X0142588Y0095706D01*
X0140909Y0096402D01*
X0139091Y0096402D01*
X0137412Y0095706D01*
X0136127Y0094421D01*
X0135431Y0092742D01*
X0135431Y0090925D01*
X0136127Y0089245D01*
X0137412Y0087960D01*
X0136094Y0089326D02*
X0133906Y0089326D01*
X0134403Y0090524D02*
X0135597Y0090524D01*
X0135431Y0091723D02*
X0134568Y0091723D01*
X0134494Y0092921D02*
X0135506Y0092921D01*
X0136002Y0094120D02*
X0133998Y0094120D01*
X0132976Y0095318D02*
X0137024Y0095318D01*
X0138003Y0097715D02*
X0131997Y0097715D01*
X0133541Y0098914D02*
X0136459Y0098914D01*
X0135768Y0100112D02*
X0134232Y0100112D01*
X0134568Y0101311D02*
X0135431Y0101311D01*
X0135431Y0102510D02*
X0134568Y0102510D01*
X0134168Y0103708D02*
X0135832Y0103708D01*
X0136612Y0104907D02*
X0133388Y0104907D01*
X0141997Y0097715D02*
X0148003Y0097715D01*
X0149091Y0096402D02*
X0147412Y0095706D01*
X0146127Y0094421D01*
X0145431Y0092742D01*
X0145431Y0090925D01*
X0146127Y0089245D01*
X0147412Y0087960D01*
X0149091Y0087265D01*
X0150909Y0087265D01*
X0152588Y0087960D01*
X0153873Y0089245D01*
X0154568Y0090925D01*
X0154568Y0092742D01*
X0153873Y0094421D01*
X0152588Y0095706D01*
X0150909Y0096402D01*
X0149091Y0096402D01*
X0147024Y0095318D02*
X0142976Y0095318D01*
X0143998Y0094120D02*
X0146002Y0094120D01*
X0145506Y0092921D02*
X0144494Y0092921D01*
X0144568Y0091723D02*
X0145431Y0091723D01*
X0145597Y0090524D02*
X0144403Y0090524D01*
X0143906Y0089326D02*
X0146094Y0089326D01*
X0147245Y0088127D02*
X0142755Y0088127D01*
X0152755Y0088127D02*
X0157245Y0088127D01*
X0157412Y0087960D02*
X0159091Y0087265D01*
X0160909Y0087265D01*
X0162588Y0087960D01*
X0163873Y0089245D01*
X0164568Y0090925D01*
X0164568Y0092742D01*
X0163873Y0094421D01*
X0162588Y0095706D01*
X0160909Y0096402D01*
X0159091Y0096402D01*
X0157412Y0095706D01*
X0156127Y0094421D01*
X0155431Y0092742D01*
X0155431Y0090925D01*
X0156127Y0089245D01*
X0157412Y0087960D01*
X0156094Y0089326D02*
X0153906Y0089326D01*
X0154403Y0090524D02*
X0155597Y0090524D01*
X0155431Y0091723D02*
X0154568Y0091723D01*
X0154494Y0092921D02*
X0155506Y0092921D01*
X0156002Y0094120D02*
X0153998Y0094120D01*
X0152976Y0095318D02*
X0157024Y0095318D01*
X0158003Y0097715D02*
X0151997Y0097715D01*
X0153541Y0098914D02*
X0156459Y0098914D01*
X0155768Y0100112D02*
X0154232Y0100112D01*
X0154568Y0101311D02*
X0155431Y0101311D01*
X0155431Y0102510D02*
X0154568Y0102510D01*
X0154168Y0103708D02*
X0155832Y0103708D01*
X0156612Y0104907D02*
X0153388Y0104907D01*
X0146612Y0104907D02*
X0143388Y0104907D01*
X0144168Y0103708D02*
X0145832Y0103708D01*
X0145431Y0102510D02*
X0144568Y0102510D01*
X0144568Y0101311D02*
X0145431Y0101311D01*
X0145768Y0100112D02*
X0144232Y0100112D01*
X0143541Y0098914D02*
X0146459Y0098914D01*
X0161997Y0097715D02*
X0168003Y0097715D01*
X0169091Y0096402D02*
X0167412Y0095706D01*
X0166127Y0094421D01*
X0165431Y0092742D01*
X0165431Y0090925D01*
X0166127Y0089245D01*
X0167412Y0087960D01*
X0169091Y0087265D01*
X0170909Y0087265D01*
X0172588Y0087960D01*
X0173873Y0089245D01*
X0174568Y0090925D01*
X0174568Y0092742D01*
X0173873Y0094421D01*
X0172588Y0095706D01*
X0170909Y0096402D01*
X0169091Y0096402D01*
X0167024Y0095318D02*
X0162976Y0095318D01*
X0163998Y0094120D02*
X0166002Y0094120D01*
X0165506Y0092921D02*
X0164494Y0092921D01*
X0164568Y0091723D02*
X0165431Y0091723D01*
X0165597Y0090524D02*
X0164403Y0090524D01*
X0163906Y0089326D02*
X0166094Y0089326D01*
X0167245Y0088127D02*
X0162755Y0088127D01*
X0172755Y0088127D02*
X0177245Y0088127D01*
X0177412Y0087960D02*
X0179091Y0087265D01*
X0180909Y0087265D01*
X0182588Y0087960D01*
X0183873Y0089245D01*
X0184568Y0090925D01*
X0184568Y0092742D01*
X0183873Y0094421D01*
X0182588Y0095706D01*
X0180909Y0096402D01*
X0179091Y0096402D01*
X0177412Y0095706D01*
X0176127Y0094421D01*
X0175431Y0092742D01*
X0175431Y0090925D01*
X0176127Y0089245D01*
X0177412Y0087960D01*
X0176094Y0089326D02*
X0173906Y0089326D01*
X0174403Y0090524D02*
X0175597Y0090524D01*
X0175431Y0091723D02*
X0174568Y0091723D01*
X0174494Y0092921D02*
X0175506Y0092921D01*
X0176002Y0094120D02*
X0173998Y0094120D01*
X0172976Y0095318D02*
X0177024Y0095318D01*
X0178003Y0097715D02*
X0171997Y0097715D01*
X0173541Y0098914D02*
X0176459Y0098914D01*
X0175768Y0100112D02*
X0174232Y0100112D01*
X0174568Y0101311D02*
X0175431Y0101311D01*
X0175431Y0102510D02*
X0174568Y0102510D01*
X0174168Y0103708D02*
X0175832Y0103708D01*
X0176612Y0104907D02*
X0173388Y0104907D01*
X0166612Y0104907D02*
X0163388Y0104907D01*
X0164168Y0103708D02*
X0165832Y0103708D01*
X0165431Y0102510D02*
X0164568Y0102510D01*
X0164568Y0101311D02*
X0165431Y0101311D01*
X0165768Y0100112D02*
X0164232Y0100112D01*
X0163541Y0098914D02*
X0166459Y0098914D01*
X0181997Y0097715D02*
X0188003Y0097715D01*
X0189091Y0096402D02*
X0187412Y0095706D01*
X0186127Y0094421D01*
X0185431Y0092742D01*
X0185431Y0090925D01*
X0186127Y0089245D01*
X0187412Y0087960D01*
X0189091Y0087265D01*
X0190909Y0087265D01*
X0192588Y0087960D01*
X0193873Y0089245D01*
X0194568Y0090925D01*
X0194568Y0092742D01*
X0193873Y0094421D01*
X0192588Y0095706D01*
X0190909Y0096402D01*
X0189091Y0096402D01*
X0187024Y0095318D02*
X0182976Y0095318D01*
X0183998Y0094120D02*
X0186002Y0094120D01*
X0185506Y0092921D02*
X0184494Y0092921D01*
X0184568Y0091723D02*
X0185431Y0091723D01*
X0185597Y0090524D02*
X0184403Y0090524D01*
X0183906Y0089326D02*
X0186094Y0089326D01*
X0187245Y0088127D02*
X0182755Y0088127D01*
X0192755Y0088127D02*
X0197245Y0088127D01*
X0197412Y0087960D02*
X0199091Y0087265D01*
X0200909Y0087265D01*
X0202588Y0087960D01*
X0203873Y0089245D01*
X0204568Y0090925D01*
X0204568Y0092742D01*
X0203873Y0094421D01*
X0202588Y0095706D01*
X0200909Y0096402D01*
X0199091Y0096402D01*
X0197412Y0095706D01*
X0196127Y0094421D01*
X0195431Y0092742D01*
X0195431Y0090925D01*
X0196127Y0089245D01*
X0197412Y0087960D01*
X0196094Y0089326D02*
X0193906Y0089326D01*
X0194403Y0090524D02*
X0195597Y0090524D01*
X0195431Y0091723D02*
X0194568Y0091723D01*
X0194494Y0092921D02*
X0195506Y0092921D01*
X0196002Y0094120D02*
X0193998Y0094120D01*
X0192976Y0095318D02*
X0197024Y0095318D01*
X0198003Y0097715D02*
X0191997Y0097715D01*
X0193541Y0098914D02*
X0196459Y0098914D01*
X0195768Y0100112D02*
X0194232Y0100112D01*
X0194568Y0101311D02*
X0195431Y0101311D01*
X0195431Y0102510D02*
X0194568Y0102510D01*
X0194168Y0103708D02*
X0195832Y0103708D01*
X0196612Y0104907D02*
X0193388Y0104907D01*
X0186612Y0104907D02*
X0183388Y0104907D01*
X0184168Y0103708D02*
X0185832Y0103708D01*
X0185431Y0102510D02*
X0184568Y0102510D01*
X0184568Y0101311D02*
X0185431Y0101311D01*
X0185768Y0100112D02*
X0184232Y0100112D01*
X0183541Y0098914D02*
X0186459Y0098914D01*
X0201997Y0097715D02*
X0208003Y0097715D01*
X0209091Y0096402D02*
X0207412Y0095706D01*
X0206127Y0094421D01*
X0205431Y0092742D01*
X0205431Y0090925D01*
X0206127Y0089245D01*
X0207412Y0087960D01*
X0209091Y0087265D01*
X0210909Y0087265D01*
X0212588Y0087960D01*
X0213873Y0089245D01*
X0214568Y0090925D01*
X0214568Y0092742D01*
X0213873Y0094421D01*
X0212588Y0095706D01*
X0210909Y0096402D01*
X0209091Y0096402D01*
X0207024Y0095318D02*
X0202976Y0095318D01*
X0203998Y0094120D02*
X0206002Y0094120D01*
X0205506Y0092921D02*
X0204494Y0092921D01*
X0204568Y0091723D02*
X0205431Y0091723D01*
X0205597Y0090524D02*
X0204403Y0090524D01*
X0203906Y0089326D02*
X0206094Y0089326D01*
X0207245Y0088127D02*
X0202755Y0088127D01*
X0212755Y0088127D02*
X0217245Y0088127D01*
X0217412Y0087960D02*
X0219091Y0087265D01*
X0220909Y0087265D01*
X0222588Y0087960D01*
X0223873Y0089245D01*
X0224568Y0090925D01*
X0224568Y0092742D01*
X0223873Y0094421D01*
X0222588Y0095706D01*
X0220909Y0096402D01*
X0219091Y0096402D01*
X0217412Y0095706D01*
X0216127Y0094421D01*
X0215431Y0092742D01*
X0215431Y0090925D01*
X0216127Y0089245D01*
X0217412Y0087960D01*
X0216094Y0089326D02*
X0213906Y0089326D01*
X0214403Y0090524D02*
X0215597Y0090524D01*
X0215431Y0091723D02*
X0214568Y0091723D01*
X0214494Y0092921D02*
X0215506Y0092921D01*
X0216002Y0094120D02*
X0213998Y0094120D01*
X0212976Y0095318D02*
X0217024Y0095318D01*
X0218003Y0097715D02*
X0211997Y0097715D01*
X0213541Y0098914D02*
X0216459Y0098914D01*
X0216127Y0099245D02*
X0217412Y0097960D01*
X0219091Y0097265D01*
X0220909Y0097265D01*
X0222588Y0097960D01*
X0223873Y0099245D01*
X0224568Y0100925D01*
X0224568Y0102742D01*
X0223873Y0104421D01*
X0222588Y0105706D01*
X0220909Y0106402D01*
X0219091Y0106402D01*
X0217412Y0105706D01*
X0216127Y0104421D01*
X0215431Y0102742D01*
X0215431Y0100925D01*
X0216127Y0099245D01*
X0215768Y0100112D02*
X0214232Y0100112D01*
X0214568Y0101311D02*
X0215431Y0101311D01*
X0215431Y0102510D02*
X0214568Y0102510D01*
X0214168Y0103708D02*
X0215832Y0103708D01*
X0216612Y0104907D02*
X0213388Y0104907D01*
X0211625Y0106105D02*
X0218375Y0106105D01*
X0221625Y0106105D02*
X0228375Y0106105D01*
X0229091Y0106402D02*
X0227412Y0105706D01*
X0226127Y0104421D01*
X0225431Y0102742D01*
X0225431Y0100925D01*
X0226127Y0099245D01*
X0227412Y0097960D01*
X0229091Y0097265D01*
X0230909Y0097265D01*
X0232588Y0097960D01*
X0233873Y0099245D01*
X0234568Y0100925D01*
X0234568Y0102742D01*
X0233873Y0104421D01*
X0232588Y0105706D01*
X0230909Y0106402D01*
X0229091Y0106402D01*
X0231625Y0106105D02*
X0238375Y0106105D01*
X0239091Y0106402D02*
X0237412Y0105706D01*
X0236127Y0104421D01*
X0235431Y0102742D01*
X0235431Y0100925D01*
X0236127Y0099245D01*
X0237412Y0097960D01*
X0239091Y0097265D01*
X0240909Y0097265D01*
X0242588Y0097960D01*
X0243873Y0099245D01*
X0244568Y0100925D01*
X0244568Y0102742D01*
X0243873Y0104421D01*
X0242588Y0105706D01*
X0240909Y0106402D01*
X0239091Y0106402D01*
X0241625Y0106105D02*
X0248375Y0106105D01*
X0249091Y0106402D02*
X0247412Y0105706D01*
X0246127Y0104421D01*
X0245431Y0102742D01*
X0245431Y0100925D01*
X0246127Y0099245D01*
X0247412Y0097960D01*
X0249091Y0097265D01*
X0250909Y0097265D01*
X0252588Y0097960D01*
X0253873Y0099245D01*
X0254568Y0100925D01*
X0254568Y0102742D01*
X0253873Y0104421D01*
X0252588Y0105706D01*
X0250909Y0106402D01*
X0249091Y0106402D01*
X0251625Y0106105D02*
X0258375Y0106105D01*
X0259091Y0106402D02*
X0257412Y0105706D01*
X0256127Y0104421D01*
X0255431Y0102742D01*
X0255431Y0100925D01*
X0256127Y0099245D01*
X0257412Y0097960D01*
X0259091Y0097265D01*
X0260909Y0097265D01*
X0262588Y0097960D01*
X0263873Y0099245D01*
X0264568Y0100925D01*
X0264568Y0102742D01*
X0263873Y0104421D01*
X0262588Y0105706D01*
X0260909Y0106402D01*
X0259091Y0106402D01*
X0261625Y0106105D02*
X0268375Y0106105D01*
X0269091Y0106402D02*
X0267412Y0105706D01*
X0266127Y0104421D01*
X0265431Y0102742D01*
X0265431Y0100925D01*
X0266127Y0099245D01*
X0267412Y0097960D01*
X0269091Y0097265D01*
X0270909Y0097265D01*
X0272588Y0097960D01*
X0273873Y0099245D01*
X0274568Y0100925D01*
X0274568Y0102742D01*
X0273873Y0104421D01*
X0272588Y0105706D01*
X0270909Y0106402D01*
X0269091Y0106402D01*
X0271625Y0106105D02*
X0278375Y0106105D01*
X0276612Y0104907D02*
X0273388Y0104907D01*
X0274168Y0103708D02*
X0275832Y0103708D01*
X0275431Y0102510D02*
X0274568Y0102510D01*
X0274568Y0101311D02*
X0275431Y0101311D01*
X0275768Y0100112D02*
X0274232Y0100112D01*
X0273541Y0098914D02*
X0276459Y0098914D01*
X0278003Y0097715D02*
X0271997Y0097715D01*
X0270909Y0096402D02*
X0269091Y0096402D01*
X0267412Y0095706D01*
X0266127Y0094421D01*
X0265431Y0092742D01*
X0265431Y0090925D01*
X0266127Y0089245D01*
X0267412Y0087960D01*
X0269091Y0087265D01*
X0270909Y0087265D01*
X0272588Y0087960D01*
X0273873Y0089245D01*
X0274568Y0090925D01*
X0274568Y0092742D01*
X0273873Y0094421D01*
X0272588Y0095706D01*
X0270909Y0096402D01*
X0272976Y0095318D02*
X0277024Y0095318D01*
X0276002Y0094120D02*
X0273998Y0094120D01*
X0274494Y0092921D02*
X0275506Y0092921D01*
X0275431Y0091723D02*
X0274568Y0091723D01*
X0274403Y0090524D02*
X0275597Y0090524D01*
X0276094Y0089326D02*
X0273906Y0089326D01*
X0272755Y0088127D02*
X0277245Y0088127D01*
X0283998Y0094120D02*
X0285813Y0094120D01*
X0285344Y0092921D02*
X0284494Y0092921D01*
X0282976Y0095318D02*
X0286741Y0095318D01*
X0287578Y0097715D02*
X0281997Y0097715D01*
X0283541Y0098914D02*
X0286227Y0098914D01*
X0285545Y0100112D02*
X0284232Y0100112D01*
X0284568Y0101311D02*
X0285255Y0101311D01*
X0285279Y0102510D02*
X0284568Y0102510D01*
X0284168Y0103708D02*
X0285603Y0103708D01*
X0286339Y0104907D02*
X0283388Y0104907D01*
X0268003Y0097715D02*
X0261997Y0097715D01*
X0260909Y0096402D02*
X0259091Y0096402D01*
X0257412Y0095706D01*
X0256127Y0094421D01*
X0255431Y0092742D01*
X0255431Y0090925D01*
X0256127Y0089245D01*
X0257412Y0087960D01*
X0259091Y0087265D01*
X0260909Y0087265D01*
X0262588Y0087960D01*
X0263873Y0089245D01*
X0264568Y0090925D01*
X0264568Y0092742D01*
X0263873Y0094421D01*
X0262588Y0095706D01*
X0260909Y0096402D01*
X0262976Y0095318D02*
X0267024Y0095318D01*
X0266002Y0094120D02*
X0263998Y0094120D01*
X0264494Y0092921D02*
X0265506Y0092921D01*
X0265431Y0091723D02*
X0264568Y0091723D01*
X0264403Y0090524D02*
X0265597Y0090524D01*
X0266094Y0089326D02*
X0263906Y0089326D01*
X0262755Y0088127D02*
X0267245Y0088127D01*
X0257245Y0088127D02*
X0252755Y0088127D01*
X0252588Y0087960D02*
X0253873Y0089245D01*
X0254568Y0090925D01*
X0254568Y0092742D01*
X0253873Y0094421D01*
X0252588Y0095706D01*
X0250909Y0096402D01*
X0249091Y0096402D01*
X0247412Y0095706D01*
X0246127Y0094421D01*
X0245431Y0092742D01*
X0245431Y0090925D01*
X0246127Y0089245D01*
X0247412Y0087960D01*
X0249091Y0087265D01*
X0250909Y0087265D01*
X0252588Y0087960D01*
X0253906Y0089326D02*
X0256094Y0089326D01*
X0255597Y0090524D02*
X0254403Y0090524D01*
X0254568Y0091723D02*
X0255431Y0091723D01*
X0255506Y0092921D02*
X0254494Y0092921D01*
X0253998Y0094120D02*
X0256002Y0094120D01*
X0257024Y0095318D02*
X0252976Y0095318D01*
X0251997Y0097715D02*
X0258003Y0097715D01*
X0256459Y0098914D02*
X0253541Y0098914D01*
X0254232Y0100112D02*
X0255768Y0100112D01*
X0255431Y0101311D02*
X0254568Y0101311D01*
X0254568Y0102510D02*
X0255431Y0102510D01*
X0255832Y0103708D02*
X0254168Y0103708D01*
X0253388Y0104907D02*
X0256612Y0104907D01*
X0263388Y0104907D02*
X0266612Y0104907D01*
X0265832Y0103708D02*
X0264168Y0103708D01*
X0264568Y0102510D02*
X0265431Y0102510D01*
X0265431Y0101311D02*
X0264568Y0101311D01*
X0264232Y0100112D02*
X0265768Y0100112D01*
X0266459Y0098914D02*
X0263541Y0098914D01*
X0248003Y0097715D02*
X0241997Y0097715D01*
X0240909Y0096402D02*
X0239091Y0096402D01*
X0237412Y0095706D01*
X0236127Y0094421D01*
X0235431Y0092742D01*
X0235431Y0090925D01*
X0236127Y0089245D01*
X0237412Y0087960D01*
X0239091Y0087265D01*
X0240909Y0087265D01*
X0242588Y0087960D01*
X0243873Y0089245D01*
X0244568Y0090925D01*
X0244568Y0092742D01*
X0243873Y0094421D01*
X0242588Y0095706D01*
X0240909Y0096402D01*
X0242976Y0095318D02*
X0247024Y0095318D01*
X0246002Y0094120D02*
X0243998Y0094120D01*
X0244494Y0092921D02*
X0245506Y0092921D01*
X0245431Y0091723D02*
X0244568Y0091723D01*
X0244403Y0090524D02*
X0245597Y0090524D01*
X0246094Y0089326D02*
X0243906Y0089326D01*
X0242755Y0088127D02*
X0247245Y0088127D01*
X0237245Y0088127D02*
X0232755Y0088127D01*
X0232588Y0087960D02*
X0233873Y0089245D01*
X0234568Y0090925D01*
X0234568Y0092742D01*
X0233873Y0094421D01*
X0232588Y0095706D01*
X0230909Y0096402D01*
X0229091Y0096402D01*
X0227412Y0095706D01*
X0226127Y0094421D01*
X0225431Y0092742D01*
X0225431Y0090925D01*
X0226127Y0089245D01*
X0227412Y0087960D01*
X0229091Y0087265D01*
X0230909Y0087265D01*
X0232588Y0087960D01*
X0233906Y0089326D02*
X0236094Y0089326D01*
X0235597Y0090524D02*
X0234403Y0090524D01*
X0234568Y0091723D02*
X0235431Y0091723D01*
X0235506Y0092921D02*
X0234494Y0092921D01*
X0233998Y0094120D02*
X0236002Y0094120D01*
X0237024Y0095318D02*
X0232976Y0095318D01*
X0231997Y0097715D02*
X0238003Y0097715D01*
X0236459Y0098914D02*
X0233541Y0098914D01*
X0234232Y0100112D02*
X0235768Y0100112D01*
X0235431Y0101311D02*
X0234568Y0101311D01*
X0234568Y0102510D02*
X0235431Y0102510D01*
X0235832Y0103708D02*
X0234168Y0103708D01*
X0233388Y0104907D02*
X0236612Y0104907D01*
X0243388Y0104907D02*
X0246612Y0104907D01*
X0245832Y0103708D02*
X0244168Y0103708D01*
X0244568Y0102510D02*
X0245431Y0102510D01*
X0245431Y0101311D02*
X0244568Y0101311D01*
X0244232Y0100112D02*
X0245768Y0100112D01*
X0246459Y0098914D02*
X0243541Y0098914D01*
X0228003Y0097715D02*
X0221997Y0097715D01*
X0223541Y0098914D02*
X0226459Y0098914D01*
X0225768Y0100112D02*
X0224232Y0100112D01*
X0224568Y0101311D02*
X0225431Y0101311D01*
X0225431Y0102510D02*
X0224568Y0102510D01*
X0224168Y0103708D02*
X0225832Y0103708D01*
X0226612Y0104907D02*
X0223388Y0104907D01*
X0222976Y0095318D02*
X0227024Y0095318D01*
X0226002Y0094120D02*
X0223998Y0094120D01*
X0224494Y0092921D02*
X0225506Y0092921D01*
X0225431Y0091723D02*
X0224568Y0091723D01*
X0224403Y0090524D02*
X0225597Y0090524D01*
X0226094Y0089326D02*
X0223906Y0089326D01*
X0222755Y0088127D02*
X0227245Y0088127D01*
X0206459Y0098914D02*
X0203541Y0098914D01*
X0204232Y0100112D02*
X0205768Y0100112D01*
X0205431Y0101311D02*
X0204568Y0101311D01*
X0204568Y0102510D02*
X0205431Y0102510D01*
X0205832Y0103708D02*
X0204168Y0103708D01*
X0203388Y0104907D02*
X0206612Y0104907D01*
X0252150Y0149251D02*
X0099100Y0149251D01*
X0099100Y0150450D02*
X0252150Y0150450D01*
X0252150Y0151648D02*
X0099100Y0151648D01*
X0114000Y0177333D02*
X0114000Y0221333D01*
X0122500Y0221333D01*
X0132500Y0221333D01*
X0145000Y0233333D01*
X0145000Y0236093D01*
X0146740Y0237833D01*
X0146740Y0252262D01*
X0142000Y0252003D01*
X0148740Y0251125D02*
X0149880Y0251125D01*
X0148740Y0249926D02*
X0151078Y0249926D01*
X0151301Y0248728D02*
X0148740Y0248728D01*
X0148740Y0247529D02*
X0151301Y0247529D01*
X0152074Y0246331D02*
X0148740Y0246331D01*
X0139000Y0241833D02*
X0134500Y0246333D01*
X0129000Y0252003D02*
X0125260Y0248262D01*
X0125260Y0237833D01*
X0123500Y0228833D01*
X0115000Y0228033D02*
X0115000Y0234093D01*
X0115000Y0241573D02*
X0115000Y0247333D01*
X0112500Y0249833D01*
X0109000Y0249833D01*
X0109000Y0257093D01*
X0101500Y0257093D02*
X0101500Y0250333D01*
X0102000Y0249833D01*
X0102000Y0247833D01*
X0104000Y0245833D01*
X0107000Y0245833D01*
X0107500Y0245333D01*
X0107500Y0241573D01*
X0107500Y0234093D02*
X0107500Y0195833D01*
X0094000Y0204333D02*
X0094000Y0204433D01*
X0088300Y0210133D01*
X0088300Y0229893D01*
X0092500Y0234093D01*
X0100000Y0234093D02*
X0100000Y0230333D01*
X0094000Y0224333D01*
X0100000Y0241573D02*
X0100000Y0244833D01*
X0099000Y0245833D01*
X0095000Y0245833D01*
X0094600Y0266706D02*
X0093400Y0266706D01*
X0093400Y0267904D02*
X0094600Y0267904D01*
X0100900Y0267904D02*
X0102100Y0267904D01*
X0102100Y0266706D02*
X0100900Y0266706D01*
X0108400Y0266706D02*
X0109600Y0266706D01*
X0109600Y0267904D02*
X0108400Y0267904D01*
X0096682Y0278691D02*
X0093318Y0278691D01*
X0094140Y0279889D02*
X0095860Y0279889D01*
X0095431Y0281088D02*
X0094568Y0281088D01*
X0094568Y0282286D02*
X0095431Y0282286D01*
X0095739Y0283485D02*
X0094261Y0283485D01*
X0093611Y0284683D02*
X0096389Y0284683D01*
X0097836Y0285882D02*
X0092164Y0285882D01*
X0137876Y0264309D02*
X0138644Y0264309D01*
X0138644Y0263110D02*
X0137876Y0263110D01*
X0137876Y0261912D02*
X0138644Y0261912D01*
X0141828Y0261912D02*
X0142372Y0261912D01*
X0142372Y0263110D02*
X0141828Y0263110D01*
X0141563Y0264309D02*
X0142680Y0264309D01*
X0142372Y0259514D02*
X0141828Y0259514D01*
X0153429Y0260664D02*
X0155260Y0258833D01*
X0158672Y0263110D02*
X0159328Y0263110D01*
X0174081Y0249926D02*
X0177078Y0249926D01*
X0175879Y0248728D02*
X0174081Y0248728D01*
X0173538Y0247529D02*
X0174681Y0247529D01*
X0168688Y0241537D02*
X0162081Y0241537D01*
X0162081Y0240338D02*
X0167490Y0240338D01*
X0166291Y0239140D02*
X0162081Y0239140D01*
X0162220Y0237941D02*
X0165093Y0237941D01*
X0163894Y0236743D02*
X0163419Y0236743D01*
X0163500Y0233833D02*
X0166500Y0233833D01*
X0163500Y0233833D02*
X0158500Y0238833D01*
X0170000Y0228333D02*
X0184500Y0242833D01*
X0170000Y0228333D02*
X0170000Y0226833D01*
X0164000Y0201333D02*
X0156000Y0201333D01*
X0161222Y0197192D02*
X0165313Y0197192D01*
X0166000Y0195993D02*
X0149900Y0195993D01*
X0149900Y0194795D02*
X0166000Y0194795D01*
X0166000Y0193596D02*
X0149900Y0193596D01*
X0149900Y0192398D02*
X0166000Y0192398D01*
X0166000Y0191199D02*
X0149900Y0191199D01*
X0149900Y0190001D02*
X0166000Y0190001D01*
X0166000Y0188802D02*
X0149900Y0188802D01*
X0149900Y0187604D02*
X0166000Y0187604D01*
X0166000Y0186405D02*
X0149900Y0186405D01*
X0149900Y0185207D02*
X0166000Y0185207D01*
X0166000Y0184008D02*
X0149900Y0184008D01*
X0149900Y0182810D02*
X0166000Y0182810D01*
X0166000Y0181611D02*
X0160893Y0181611D01*
X0162626Y0180413D02*
X0166000Y0180413D01*
X0166000Y0179214D02*
X0163400Y0179214D01*
X0163800Y0178016D02*
X0166000Y0178016D01*
X0166000Y0176817D02*
X0163800Y0176817D01*
X0163469Y0175619D02*
X0166000Y0175619D01*
X0166000Y0174420D02*
X0162792Y0174420D01*
X0161294Y0173222D02*
X0166000Y0173222D01*
X0166000Y0172023D02*
X0150326Y0172023D01*
X0150706Y0173222D02*
X0149900Y0173222D01*
X0149900Y0181611D02*
X0151107Y0181611D01*
X0162214Y0170825D02*
X0166000Y0170825D01*
X0166000Y0169626D02*
X0163229Y0169626D01*
X0163726Y0168428D02*
X0166000Y0168428D01*
X0166000Y0167229D02*
X0163800Y0167229D01*
X0163639Y0166031D02*
X0166000Y0166031D01*
X0166000Y0164832D02*
X0163143Y0164832D01*
X0162006Y0163634D02*
X0166000Y0163634D01*
X0168000Y0160333D02*
X0165000Y0157333D01*
X0168000Y0160333D02*
X0168000Y0197333D01*
X0164000Y0201333D01*
X0164114Y0198390D02*
X0162762Y0198390D01*
X0170000Y0188802D02*
X0170703Y0188802D01*
X0170000Y0187604D02*
X0171901Y0187604D01*
X0172919Y0186405D02*
X0170000Y0186405D01*
X0170000Y0185207D02*
X0173284Y0185207D01*
X0150778Y0197192D02*
X0149900Y0197192D01*
X0142100Y0197192D02*
X0127722Y0197192D01*
X0138573Y0198390D02*
X0142100Y0198390D01*
X0142100Y0199589D02*
X0139771Y0199589D01*
X0140970Y0200787D02*
X0142100Y0200787D01*
X0139260Y0237833D02*
X0132740Y0237833D01*
X0139000Y0238093D02*
X0139000Y0241833D01*
X0139000Y0238093D02*
X0139260Y0237833D01*
X0183318Y0278691D02*
X0186682Y0278691D01*
X0185860Y0279889D02*
X0184140Y0279889D01*
X0184568Y0281088D02*
X0185431Y0281088D01*
X0185431Y0282286D02*
X0184568Y0282286D01*
X0184261Y0283485D02*
X0185739Y0283485D01*
X0186389Y0284683D02*
X0183611Y0284683D01*
X0182164Y0285882D02*
X0187836Y0285882D01*
X0187094Y0288279D02*
X0182906Y0288279D01*
X0183969Y0289477D02*
X0186031Y0289477D01*
X0185535Y0290676D02*
X0184465Y0290676D01*
X0184568Y0291874D02*
X0185431Y0291874D01*
X0185569Y0293073D02*
X0184431Y0293073D01*
X0183935Y0294271D02*
X0186065Y0294271D01*
X0193935Y0294271D02*
X0196065Y0294271D01*
X0195569Y0293073D02*
X0194431Y0293073D01*
X0194568Y0291874D02*
X0195431Y0291874D01*
X0195535Y0290676D02*
X0194465Y0290676D01*
X0193969Y0289477D02*
X0196031Y0289477D01*
X0197094Y0288279D02*
X0192906Y0288279D01*
X0192164Y0285882D02*
X0197836Y0285882D01*
X0196389Y0284683D02*
X0193611Y0284683D01*
X0194261Y0283485D02*
X0195739Y0283485D01*
X0195431Y0282286D02*
X0194568Y0282286D01*
X0194568Y0281088D02*
X0195431Y0281088D01*
X0195860Y0279889D02*
X0194140Y0279889D01*
X0193318Y0278691D02*
X0196682Y0278691D01*
X0198542Y0277492D02*
X0191458Y0277492D01*
X0204431Y0293073D02*
X0205569Y0293073D01*
X0206065Y0294271D02*
X0203935Y0294271D01*
X0260000Y0291833D02*
X0265000Y0286833D01*
X0265000Y0279333D01*
X0270600Y0273733D01*
X0270600Y0267973D01*
X0278300Y0267973D01*
X0282500Y0272698D02*
X0310023Y0272698D01*
X0309419Y0271500D02*
X0290062Y0271500D01*
X0290450Y0270301D02*
X0309419Y0270301D01*
X0311640Y0267973D02*
X0313000Y0269333D01*
X0311640Y0267973D02*
X0285900Y0267973D01*
X0290450Y0265507D02*
X0340217Y0265507D01*
X0340606Y0264309D02*
X0289924Y0264309D01*
X0290450Y0263110D02*
X0340996Y0263110D01*
X0341385Y0261912D02*
X0327014Y0261912D01*
X0328213Y0260713D02*
X0341774Y0260713D01*
X0341987Y0259514D02*
X0332239Y0259514D01*
X0334103Y0258316D02*
X0342177Y0258316D01*
X0342367Y0257117D02*
X0334909Y0257117D01*
X0335313Y0255919D02*
X0342557Y0255919D01*
X0342747Y0254720D02*
X0335313Y0254720D01*
X0335000Y0253522D02*
X0334963Y0253522D01*
X0342937Y0253522D01*
X0343033Y0252323D02*
X0334233Y0252323D01*
X0335000Y0252323D01*
X0335000Y0251125D02*
X0332553Y0251125D01*
X0343080Y0251125D01*
X0343127Y0249926D02*
X0298942Y0249926D01*
X0335000Y0249926D01*
X0335000Y0248728D02*
X0324006Y0248728D01*
X0343150Y0248728D01*
X0343150Y0247529D02*
X0324961Y0247529D01*
X0335000Y0247529D01*
X0335000Y0246331D02*
X0325458Y0246331D01*
X0343150Y0246331D01*
X0343150Y0245132D02*
X0325470Y0245132D01*
X0335000Y0245132D01*
X0335000Y0243934D02*
X0325226Y0243934D01*
X0343150Y0243934D01*
X0343150Y0242735D02*
X0324645Y0242735D01*
X0335000Y0242735D01*
X0335000Y0241537D02*
X0323325Y0241537D01*
X0343150Y0241537D01*
X0343150Y0240338D02*
X0315920Y0240338D01*
X0335000Y0240338D01*
X0335000Y0239140D02*
X0314722Y0239140D01*
X0343150Y0239140D01*
X0343150Y0237941D02*
X0314100Y0237941D01*
X0335000Y0237941D01*
X0335000Y0236743D02*
X0314100Y0236743D01*
X0343150Y0236743D01*
X0343150Y0235544D02*
X0314100Y0235544D01*
X0335000Y0235544D01*
X0335000Y0234346D02*
X0314100Y0234346D01*
X0343150Y0234346D01*
X0343150Y0233147D02*
X0314100Y0233147D01*
X0335000Y0233147D01*
X0335000Y0231949D02*
X0323436Y0231949D01*
X0343150Y0231949D01*
X0343150Y0230750D02*
X0324999Y0230750D01*
X0335000Y0230750D01*
X0335000Y0229552D02*
X0325835Y0229552D01*
X0343150Y0229552D01*
X0343150Y0228353D02*
X0326331Y0228353D01*
X0326400Y0228187D02*
X0325578Y0230172D01*
X0324059Y0231691D01*
X0322074Y0232513D01*
X0319926Y0232513D01*
X0317941Y0231691D01*
X0316422Y0230172D01*
X0315600Y0228187D01*
X0315600Y0226039D01*
X0316422Y0224054D01*
X0317941Y0222535D01*
X0319926Y0221713D01*
X0322074Y0221713D01*
X0324059Y0222535D01*
X0325578Y0224054D01*
X0326400Y0226039D01*
X0326400Y0228187D01*
X0326400Y0227155D02*
X0343150Y0227155D01*
X0343150Y0225956D02*
X0326366Y0225956D01*
X0325869Y0224758D02*
X0343150Y0224758D01*
X0343150Y0223559D02*
X0325083Y0223559D01*
X0323638Y0222361D02*
X0343150Y0222361D01*
X0343150Y0221162D02*
X0314175Y0221162D01*
X0314175Y0219964D02*
X0343150Y0219964D01*
X0343150Y0218765D02*
X0314175Y0218765D01*
X0314175Y0217567D02*
X0315600Y0217567D01*
X0315600Y0217913D02*
X0315600Y0208753D01*
X0316420Y0207933D01*
X0325580Y0207933D01*
X0326400Y0208753D01*
X0326400Y0217913D01*
X0325580Y0218733D01*
X0316420Y0218733D01*
X0315600Y0217913D01*
X0315600Y0216368D02*
X0314100Y0216368D01*
X0314100Y0215170D02*
X0315600Y0215170D01*
X0315600Y0213971D02*
X0314100Y0213971D01*
X0314100Y0212773D02*
X0315600Y0212773D01*
X0315600Y0211574D02*
X0314100Y0211574D01*
X0314100Y0210376D02*
X0315600Y0210376D01*
X0315600Y0209177D02*
X0314100Y0209177D01*
X0314100Y0207979D02*
X0316375Y0207979D01*
X0314100Y0206780D02*
X0343150Y0206780D01*
X0343150Y0207979D02*
X0325625Y0207979D01*
X0326400Y0209177D02*
X0343150Y0209177D01*
X0343150Y0210376D02*
X0326400Y0210376D01*
X0326400Y0211574D02*
X0343150Y0211574D01*
X0343150Y0212773D02*
X0326400Y0212773D01*
X0326400Y0213971D02*
X0343150Y0213971D01*
X0343150Y0215170D02*
X0326400Y0215170D01*
X0326400Y0216368D02*
X0343150Y0216368D01*
X0343150Y0217567D02*
X0326400Y0217567D01*
X0318362Y0222361D02*
X0314175Y0222361D01*
X0314100Y0223559D02*
X0316917Y0223559D01*
X0316131Y0224758D02*
X0314100Y0224758D01*
X0314100Y0225956D02*
X0315634Y0225956D01*
X0315600Y0227155D02*
X0314100Y0227155D01*
X0314100Y0228353D02*
X0315669Y0228353D01*
X0316165Y0229552D02*
X0314100Y0229552D01*
X0316165Y0229552D01*
X0317001Y0230750D02*
X0314100Y0230750D01*
X0317001Y0230750D01*
X0318564Y0231949D02*
X0314100Y0231949D01*
X0318564Y0231949D01*
X0310200Y0230333D02*
X0310200Y0229633D01*
X0292940Y0229633D01*
X0296899Y0231949D02*
X0306300Y0231949D01*
X0296899Y0231949D01*
X0296899Y0233147D02*
X0306300Y0233147D01*
X0296899Y0233147D01*
X0293738Y0236743D02*
X0306300Y0236743D01*
X0293738Y0236743D01*
X0294936Y0237941D02*
X0306300Y0237941D01*
X0294936Y0237941D01*
X0296135Y0239140D02*
X0306300Y0239140D01*
X0296135Y0239140D01*
X0297231Y0240338D02*
X0306300Y0240338D01*
X0297231Y0240338D01*
X0297231Y0241537D02*
X0306560Y0241537D01*
X0297231Y0241537D01*
X0297231Y0242735D02*
X0307287Y0242735D01*
X0297231Y0242735D01*
X0298936Y0243934D02*
X0308485Y0243934D01*
X0298936Y0243934D01*
X0299387Y0245132D02*
X0309684Y0245132D01*
X0299387Y0245132D01*
X0299387Y0246331D02*
X0310882Y0246331D01*
X0299387Y0246331D01*
X0299387Y0247529D02*
X0312081Y0247529D01*
X0299387Y0247529D01*
X0299387Y0248728D02*
X0313293Y0248728D01*
X0299387Y0248728D01*
X0295231Y0246933D02*
X0295231Y0241064D01*
X0289000Y0234833D01*
X0285100Y0234833D01*
X0285100Y0229633D01*
X0285460Y0229633D01*
X0285100Y0234833D02*
X0270700Y0234833D01*
X0265500Y0239933D01*
X0265500Y0248833D01*
X0266500Y0250333D01*
X0270129Y0250333D01*
X0269869Y0250573D01*
X0269485Y0246662D02*
X0267500Y0246662D01*
X0267500Y0247205D01*
X0273205Y0247205D01*
X0274025Y0248025D01*
X0274025Y0249811D01*
X0274082Y0249698D01*
X0274420Y0249585D01*
X0274499Y0249506D01*
X0274375Y0249382D01*
X0274375Y0244285D01*
X0275195Y0243465D01*
X0281867Y0243465D01*
X0282213Y0243812D01*
X0282213Y0243577D01*
X0286185Y0243577D01*
X0286185Y0242809D01*
X0282213Y0242809D01*
X0282213Y0241014D01*
X0282322Y0240607D01*
X0282533Y0240242D01*
X0282831Y0239944D01*
X0283196Y0239734D01*
X0283603Y0239625D01*
X0286185Y0239625D01*
X0286185Y0242809D01*
X0286954Y0242809D01*
X0286954Y0243577D01*
X0290925Y0243577D01*
X0290925Y0244833D01*
X0291075Y0244833D01*
X0291075Y0244385D01*
X0291895Y0243565D01*
X0293231Y0243565D01*
X0293231Y0241892D01*
X0288172Y0236833D01*
X0271517Y0236833D01*
X0268773Y0239525D01*
X0269485Y0239525D01*
X0269485Y0242709D01*
X0270254Y0242709D01*
X0270254Y0243477D01*
X0274225Y0243477D01*
X0274225Y0245272D01*
X0274116Y0245679D01*
X0273905Y0246044D01*
X0273608Y0246342D01*
X0273243Y0246553D01*
X0272836Y0246662D01*
X0270254Y0246662D01*
X0270254Y0243477D01*
X0269485Y0243477D01*
X0269485Y0246662D01*
X0269485Y0246331D02*
X0270254Y0246331D01*
X0270254Y0245132D02*
X0269485Y0245132D01*
X0269485Y0243934D02*
X0270254Y0243934D01*
X0270469Y0243193D02*
X0269869Y0243093D01*
X0270254Y0242735D02*
X0282213Y0242735D01*
X0282213Y0241537D02*
X0274225Y0241537D01*
X0274225Y0240914D02*
X0274225Y0242709D01*
X0270254Y0242709D01*
X0270254Y0239525D01*
X0272836Y0239525D01*
X0273243Y0239634D01*
X0273608Y0239844D01*
X0273905Y0240142D01*
X0274116Y0240507D01*
X0274225Y0240914D01*
X0274019Y0240338D02*
X0282478Y0240338D01*
X0282500Y0240300D02*
X0282533Y0240242D01*
X0282831Y0239944D01*
X0283196Y0239734D01*
X0283603Y0239625D01*
X0286185Y0239625D01*
X0286185Y0242809D01*
X0286954Y0242809D01*
X0290925Y0242809D01*
X0290925Y0241014D01*
X0290816Y0240607D01*
X0290605Y0240242D01*
X0290308Y0239944D01*
X0289943Y0239734D01*
X0289536Y0239625D01*
X0286954Y0239625D01*
X0286954Y0242809D01*
X0286954Y0243577D01*
X0290925Y0243577D01*
X0290925Y0244833D01*
X0291075Y0244833D01*
X0291075Y0244385D01*
X0291895Y0243565D01*
X0293231Y0243565D01*
X0293231Y0241892D01*
X0288172Y0236833D01*
X0282500Y0236833D01*
X0282500Y0240300D01*
X0282500Y0239140D02*
X0290478Y0239140D01*
X0269165Y0239140D01*
X0269485Y0240338D02*
X0270254Y0240338D01*
X0270254Y0241537D02*
X0269485Y0241537D01*
X0270469Y0243193D02*
X0280500Y0243193D01*
X0280500Y0238833D01*
X0282500Y0237941D02*
X0289280Y0237941D01*
X0270387Y0237941D01*
X0274225Y0243934D02*
X0274726Y0243934D01*
X0274375Y0245132D02*
X0274225Y0245132D01*
X0274375Y0246331D02*
X0273619Y0246331D01*
X0273529Y0247529D02*
X0274375Y0247529D01*
X0274375Y0248728D02*
X0274025Y0248728D01*
X0276500Y0250333D02*
X0286229Y0250333D01*
X0286569Y0250673D01*
X0288111Y0254042D02*
X0283233Y0254042D01*
X0282413Y0253222D01*
X0282413Y0252333D01*
X0277328Y0252333D01*
X0277144Y0252518D01*
X0276000Y0254805D01*
X0276000Y0255162D01*
X0275644Y0255518D01*
X0275418Y0255969D01*
X0275080Y0256081D01*
X0274828Y0256333D01*
X0274325Y0256333D01*
X0274161Y0256388D01*
X0274367Y0256443D01*
X0274554Y0256551D01*
X0274570Y0256534D01*
X0282030Y0256534D01*
X0282100Y0256605D01*
X0282170Y0256534D01*
X0284000Y0256534D01*
X0284000Y0256505D01*
X0284252Y0256253D01*
X0284365Y0255915D01*
X0284815Y0255690D01*
X0285172Y0255333D01*
X0285528Y0255333D01*
X0288111Y0254042D01*
X0283233Y0254042D01*
X0282500Y0253308D01*
X0282500Y0256534D01*
X0284000Y0256534D01*
X0284000Y0256505D01*
X0284252Y0256253D01*
X0284365Y0255915D01*
X0284815Y0255690D01*
X0285172Y0255333D01*
X0285528Y0255333D01*
X0288111Y0254042D01*
X0286754Y0254720D02*
X0276042Y0254720D01*
X0276800Y0254533D02*
X0280400Y0254533D01*
X0282500Y0254720D02*
X0286754Y0254720D01*
X0284363Y0255919D02*
X0275443Y0255919D01*
X0275000Y0256333D02*
X0276800Y0254533D01*
X0276642Y0253522D02*
X0282713Y0253522D01*
X0282500Y0253522D01*
X0282500Y0255919D02*
X0284363Y0255919D01*
X0286000Y0257333D02*
X0286000Y0260393D01*
X0285900Y0260493D01*
X0325604Y0260493D01*
X0330843Y0255255D01*
X0329132Y0251125D02*
X0313339Y0251125D01*
X0329132Y0251125D01*
X0327452Y0252323D02*
X0314800Y0252323D01*
X0327452Y0252323D01*
X0326722Y0253522D02*
X0315505Y0253522D01*
X0326722Y0253522D01*
X0326372Y0254720D02*
X0315801Y0254720D01*
X0326372Y0254720D01*
X0326372Y0255919D02*
X0315781Y0255919D01*
X0326372Y0255919D01*
X0326151Y0257117D02*
X0315450Y0257117D01*
X0326151Y0257117D01*
X0324953Y0258316D02*
X0314701Y0258316D01*
X0324953Y0258316D01*
X0329411Y0259514D02*
X0329446Y0259514D01*
X0339411Y0267904D02*
X0316581Y0267904D01*
X0316581Y0266706D02*
X0339827Y0266706D01*
X0338800Y0269103D02*
X0316581Y0269103D01*
X0316581Y0270301D02*
X0338190Y0270301D01*
X0337579Y0271500D02*
X0316581Y0271500D01*
X0315977Y0272698D02*
X0336968Y0272698D01*
X0336358Y0273897D02*
X0282500Y0273897D01*
X0285900Y0260493D02*
X0278300Y0260493D01*
X0275000Y0256333D02*
X0271000Y0256333D01*
X0270600Y0256733D01*
X0270600Y0260493D01*
X0271200Y0259893D02*
X0271200Y0256334D01*
X0273529Y0256334D01*
X0273528Y0256333D01*
X0265828Y0256333D01*
X0265628Y0256534D01*
X0266675Y0256534D01*
X0266833Y0256443D01*
X0267240Y0256334D01*
X0270000Y0256334D01*
X0270000Y0259893D01*
X0271200Y0259893D01*
X0271200Y0259514D02*
X0270000Y0259514D01*
X0270000Y0258316D02*
X0271200Y0258316D01*
X0271200Y0257117D02*
X0270000Y0257117D01*
X0274000Y0254333D02*
X0265000Y0254333D01*
X0263000Y0256333D01*
X0263000Y0260493D01*
X0263000Y0267973D02*
X0260000Y0270973D01*
X0260000Y0281833D01*
X0286000Y0257333D02*
X0291000Y0254833D01*
X0291000Y0246833D01*
X0278531Y0246833D01*
X0276500Y0250333D02*
X0275500Y0251333D01*
X0274000Y0254333D01*
X0280500Y0243193D02*
X0286569Y0243193D01*
X0286954Y0242809D02*
X0286954Y0239625D01*
X0289536Y0239625D01*
X0289943Y0239734D01*
X0290308Y0239944D01*
X0290605Y0240242D01*
X0290816Y0240607D01*
X0290925Y0241014D01*
X0290925Y0242809D01*
X0286954Y0242809D01*
X0286954Y0242735D02*
X0286185Y0242735D01*
X0286954Y0242735D01*
X0286954Y0241537D02*
X0286185Y0241537D01*
X0286954Y0241537D01*
X0286954Y0240338D02*
X0286185Y0240338D01*
X0286954Y0240338D01*
X0290661Y0240338D02*
X0291677Y0240338D01*
X0290661Y0240338D01*
X0290925Y0241537D02*
X0292875Y0241537D01*
X0290925Y0241537D01*
X0290925Y0242735D02*
X0293231Y0242735D01*
X0290925Y0242735D01*
X0290925Y0243934D02*
X0291526Y0243934D01*
X0290925Y0243934D01*
X0293000Y0251125D02*
X0308976Y0251125D01*
X0293000Y0251125D01*
X0293000Y0252323D02*
X0307515Y0252323D01*
X0293000Y0252323D01*
X0293000Y0253522D02*
X0306810Y0253522D01*
X0293000Y0253522D01*
X0293146Y0254720D02*
X0306514Y0254720D01*
X0293146Y0254720D01*
X0292746Y0255919D02*
X0306534Y0255919D01*
X0292746Y0255919D01*
X0290904Y0257117D02*
X0306865Y0257117D01*
X0290904Y0257117D01*
X0290450Y0258316D02*
X0307614Y0258316D01*
X0290450Y0258316D01*
X0307991Y0243440D02*
X0307991Y0243440D01*
X0311493Y0250585D02*
X0311525Y0250585D01*
X0312251Y0250700D01*
X0312950Y0250927D01*
X0313605Y0251260D01*
X0314200Y0251692D01*
X0314720Y0252212D01*
X0315152Y0252807D01*
X0315485Y0253462D01*
X0315713Y0254161D01*
X0315828Y0254887D01*
X0315828Y0254920D01*
X0311493Y0254920D01*
X0311493Y0254919D02*
X0311493Y0250585D01*
X0311493Y0251125D02*
X0310822Y0251125D01*
X0311493Y0251125D01*
X0311493Y0252323D02*
X0310822Y0252323D01*
X0311493Y0252323D01*
X0311493Y0253522D02*
X0310822Y0253522D01*
X0311493Y0253522D01*
X0311493Y0254720D02*
X0310822Y0254720D01*
X0311493Y0254720D01*
X0306300Y0235544D02*
X0292539Y0235544D01*
X0306300Y0235544D01*
X0306300Y0234346D02*
X0291341Y0234346D01*
X0306300Y0234346D01*
X0306300Y0227155D02*
X0296899Y0227155D01*
X0296899Y0225956D02*
X0306300Y0225956D01*
X0306300Y0224758D02*
X0284104Y0224758D01*
X0285100Y0223559D02*
X0306300Y0223559D01*
X0306225Y0222361D02*
X0285100Y0222361D01*
X0285100Y0221162D02*
X0306225Y0221162D01*
X0306225Y0219964D02*
X0285100Y0219964D01*
X0285100Y0218765D02*
X0306225Y0218765D01*
X0306225Y0217567D02*
X0285100Y0217567D01*
X0285100Y0216368D02*
X0306300Y0216368D01*
X0306300Y0215170D02*
X0285100Y0215170D01*
X0285100Y0213971D02*
X0306300Y0213971D01*
X0306300Y0212773D02*
X0285100Y0212773D01*
X0285100Y0211574D02*
X0306300Y0211574D01*
X0306300Y0210376D02*
X0285100Y0210376D01*
X0285100Y0209177D02*
X0306300Y0209177D01*
X0306300Y0207979D02*
X0285100Y0207979D01*
X0285100Y0206780D02*
X0306300Y0206780D01*
X0306300Y0205581D02*
X0285100Y0205581D01*
X0285100Y0204383D02*
X0306300Y0204383D01*
X0306300Y0203184D02*
X0285100Y0203184D01*
X0285100Y0201986D02*
X0306300Y0201986D01*
X0306300Y0200787D02*
X0285100Y0200787D01*
X0285100Y0199589D02*
X0306300Y0199589D01*
X0306300Y0198390D02*
X0285100Y0198390D01*
X0285100Y0197192D02*
X0306300Y0197192D01*
X0306300Y0195993D02*
X0285100Y0195993D01*
X0285100Y0194795D02*
X0306300Y0194795D01*
X0306300Y0193596D02*
X0285100Y0193596D01*
X0285100Y0192398D02*
X0306300Y0192398D01*
X0306300Y0191199D02*
X0285100Y0191199D01*
X0285100Y0190001D02*
X0306300Y0190001D01*
X0306300Y0188802D02*
X0285100Y0188802D01*
X0285100Y0187604D02*
X0306300Y0187604D01*
X0306300Y0186405D02*
X0285100Y0186405D01*
X0285100Y0185207D02*
X0306300Y0185207D01*
X0306300Y0184008D02*
X0285100Y0184008D01*
X0285100Y0182810D02*
X0306300Y0182810D01*
X0306300Y0181611D02*
X0285100Y0181611D01*
X0285100Y0180413D02*
X0306300Y0180413D01*
X0306300Y0179214D02*
X0285100Y0179214D01*
X0285100Y0178016D02*
X0306300Y0178016D01*
X0306300Y0176817D02*
X0285100Y0176817D01*
X0285100Y0175619D02*
X0306300Y0175619D01*
X0306300Y0174420D02*
X0285100Y0174420D01*
X0285100Y0173222D02*
X0306300Y0173222D01*
X0306300Y0172023D02*
X0285100Y0172023D01*
X0285100Y0170825D02*
X0306300Y0170825D01*
X0306300Y0169626D02*
X0285100Y0169626D01*
X0285100Y0168428D02*
X0306300Y0168428D01*
X0306300Y0167229D02*
X0285100Y0167229D01*
X0285100Y0166031D02*
X0306300Y0166031D01*
X0306300Y0164832D02*
X0285100Y0164832D01*
X0285089Y0163634D02*
X0306300Y0163634D01*
X0306300Y0162435D02*
X0283890Y0162435D01*
X0282850Y0161237D02*
X0306300Y0161237D01*
X0306300Y0160038D02*
X0282850Y0160038D01*
X0282850Y0158840D02*
X0306300Y0158840D01*
X0282850Y0158840D01*
X0282850Y0157641D02*
X0306300Y0157641D01*
X0282850Y0157641D01*
X0282758Y0156443D02*
X0306300Y0156443D01*
X0282758Y0156443D01*
X0282974Y0155244D02*
X0306300Y0155244D01*
X0282974Y0155244D01*
X0283050Y0154045D02*
X0306300Y0154045D01*
X0283050Y0154045D01*
X0283050Y0152847D02*
X0306300Y0152847D01*
X0283050Y0152847D01*
X0282500Y0151648D02*
X0306300Y0151648D01*
X0278900Y0151648D01*
X0278900Y0150450D02*
X0277700Y0150450D01*
X0277700Y0151593D02*
X0271700Y0151593D01*
X0271700Y0152793D01*
X0273550Y0152793D01*
X0277700Y0152793D01*
X0277700Y0151593D01*
X0277700Y0151648D02*
X0271700Y0151648D01*
X0271700Y0150450D02*
X0270500Y0150450D01*
X0270500Y0149251D02*
X0271700Y0149251D01*
X0271700Y0148053D02*
X0270500Y0148053D01*
X0270000Y0146854D02*
X0306296Y0146854D01*
X0282500Y0146854D01*
X0282500Y0145656D02*
X0306549Y0145656D01*
X0270000Y0145656D01*
X0270000Y0144457D02*
X0307260Y0144457D01*
X0282500Y0144457D01*
X0282500Y0143259D02*
X0309099Y0143259D01*
X0270000Y0143259D01*
X0274530Y0148053D02*
X0274869Y0148053D01*
X0277700Y0148053D02*
X0278900Y0148053D01*
X0278900Y0149251D02*
X0277700Y0149251D01*
X0281730Y0148053D02*
X0306300Y0148053D01*
X0282500Y0148053D01*
X0283003Y0149251D02*
X0306300Y0149251D01*
X0283003Y0149251D01*
X0283050Y0150450D02*
X0306300Y0150450D01*
X0283050Y0150450D01*
X0278300Y0159673D02*
X0283100Y0164473D01*
X0283100Y0222933D01*
X0276700Y0229333D01*
X0270098Y0229333D01*
X0263500Y0234333D02*
X0263500Y0198333D01*
X0263451Y0194795D02*
X0263500Y0194795D01*
X0263500Y0193596D02*
X0263451Y0193596D01*
X0263500Y0192398D02*
X0262645Y0192398D01*
X0263500Y0191199D02*
X0247301Y0191199D01*
X0247301Y0190001D02*
X0263500Y0190001D01*
X0263500Y0188802D02*
X0247302Y0188802D01*
X0247302Y0187605D02*
X0247302Y0187605D01*
X0247302Y0187605D01*
X0247300Y0187604D02*
X0263500Y0187604D01*
X0255158Y0192398D02*
X0247301Y0192398D01*
X0247301Y0193596D02*
X0254352Y0193596D01*
X0254352Y0194795D02*
X0247301Y0194795D01*
X0247301Y0195993D02*
X0254352Y0195993D01*
X0244473Y0186433D02*
X0244473Y0186433D01*
X0256700Y0152193D02*
X0263900Y0152193D01*
X0291082Y0137266D02*
X0317100Y0137266D01*
X0291082Y0137266D01*
X0292285Y0136068D02*
X0317100Y0136068D01*
X0292285Y0136068D01*
X0293488Y0134869D02*
X0317100Y0134869D01*
X0293488Y0134869D01*
X0294691Y0133671D02*
X0317100Y0133671D01*
X0317100Y0132472D02*
X0295895Y0132472D01*
X0297098Y0131274D02*
X0317100Y0131274D01*
X0317100Y0130075D02*
X0298301Y0130075D01*
X0301366Y0128877D02*
X0310634Y0128877D01*
X0310565Y0127678D02*
X0301435Y0127678D01*
X0301435Y0126480D02*
X0310565Y0126480D01*
X0310565Y0125281D02*
X0301436Y0125281D01*
X0301435Y0124083D02*
X0310565Y0124083D01*
X0310565Y0122884D02*
X0301435Y0122884D01*
X0301261Y0121686D02*
X0310739Y0121686D01*
X0322385Y0121686D02*
X0341362Y0121686D01*
X0341752Y0122884D02*
X0324066Y0122884D01*
X0324703Y0124083D02*
X0341976Y0124083D01*
X0342166Y0125281D02*
X0324900Y0125281D01*
X0324900Y0126480D02*
X0342356Y0126480D01*
X0342546Y0127678D02*
X0324900Y0127678D01*
X0324900Y0128877D02*
X0342736Y0128877D01*
X0342926Y0130075D02*
X0324900Y0130075D01*
X0324900Y0131274D02*
X0343030Y0131274D01*
X0343077Y0132472D02*
X0324900Y0132472D01*
X0324900Y0133671D02*
X0343124Y0133671D01*
X0343150Y0134333D02*
X0343150Y0159333D01*
X0326467Y0159333D01*
X0326462Y0159302D01*
X0326578Y0160032D01*
X0321581Y0160032D01*
X0321581Y0161194D01*
X0320419Y0161194D01*
X0320419Y0166191D01*
X0319689Y0166075D01*
X0318850Y0165803D01*
X0318065Y0165402D01*
X0317352Y0164884D01*
X0316729Y0164261D01*
X0316210Y0163548D01*
X0315810Y0162763D01*
X0315538Y0161924D01*
X0315422Y0161194D01*
X0320419Y0161194D01*
X0320419Y0160032D01*
X0315422Y0160032D01*
X0315538Y0159302D01*
X0315810Y0158463D01*
X0316210Y0157678D01*
X0316729Y0156965D01*
X0317352Y0156341D01*
X0318065Y0155823D01*
X0318850Y0155423D01*
X0319689Y0155151D01*
X0320419Y0155035D01*
X0320419Y0160032D01*
X0321581Y0160032D01*
X0321581Y0155035D01*
X0322311Y0155151D01*
X0323150Y0155423D01*
X0323935Y0155823D01*
X0324648Y0156341D01*
X0325271Y0156965D01*
X0325790Y0157678D01*
X0326190Y0158463D01*
X0326462Y0159302D01*
X0326190Y0158463D01*
X0325790Y0157678D01*
X0325271Y0156965D01*
X0324648Y0156341D01*
X0323935Y0155823D01*
X0323150Y0155423D01*
X0322311Y0155151D01*
X0321581Y0155035D01*
X0321581Y0159333D01*
X0320419Y0159333D01*
X0320419Y0155035D01*
X0319689Y0155151D01*
X0318850Y0155423D01*
X0318065Y0155823D01*
X0317352Y0156341D01*
X0316729Y0156965D01*
X0316210Y0157678D01*
X0315810Y0158463D01*
X0315538Y0159302D01*
X0315533Y0159333D01*
X0314100Y0159333D01*
X0314100Y0150862D01*
X0315600Y0150834D01*
X0315600Y0151413D01*
X0316420Y0152233D01*
X0325580Y0152233D01*
X0326400Y0151413D01*
X0326400Y0142253D01*
X0325580Y0141433D01*
X0324900Y0141433D01*
X0324900Y0134333D01*
X0343150Y0134333D01*
X0343150Y0134869D02*
X0324900Y0134869D01*
X0343150Y0134869D01*
X0343150Y0136068D02*
X0324900Y0136068D01*
X0343150Y0136068D01*
X0343150Y0137266D02*
X0324900Y0137266D01*
X0343150Y0137266D01*
X0343150Y0138465D02*
X0324900Y0138465D01*
X0343150Y0138465D01*
X0343150Y0139663D02*
X0324900Y0139663D01*
X0343150Y0139663D01*
X0343150Y0140862D02*
X0324900Y0140862D01*
X0343150Y0140862D01*
X0343150Y0142060D02*
X0326207Y0142060D01*
X0343150Y0142060D01*
X0343150Y0143259D02*
X0326400Y0143259D01*
X0343150Y0143259D01*
X0343150Y0144457D02*
X0326400Y0144457D01*
X0343150Y0144457D01*
X0343150Y0145656D02*
X0326400Y0145656D01*
X0343150Y0145656D01*
X0343150Y0146854D02*
X0326400Y0146854D01*
X0343150Y0146854D01*
X0343150Y0148053D02*
X0326400Y0148053D01*
X0343150Y0148053D01*
X0343150Y0149251D02*
X0326400Y0149251D01*
X0343150Y0149251D01*
X0343150Y0150450D02*
X0326400Y0150450D01*
X0343150Y0150450D01*
X0343150Y0151648D02*
X0326165Y0151648D01*
X0343150Y0151648D01*
X0343150Y0152847D02*
X0314100Y0152847D01*
X0343150Y0152847D01*
X0343150Y0154045D02*
X0314100Y0154045D01*
X0343150Y0154045D01*
X0343150Y0155244D02*
X0322598Y0155244D01*
X0343150Y0155244D01*
X0343150Y0156443D02*
X0324749Y0156443D01*
X0343150Y0156443D01*
X0343150Y0157641D02*
X0325763Y0157641D01*
X0343150Y0157641D01*
X0343150Y0158840D02*
X0326312Y0158840D01*
X0343150Y0158840D01*
X0343150Y0160038D02*
X0321581Y0160038D01*
X0321581Y0161194D02*
X0326578Y0161194D01*
X0326462Y0161924D01*
X0326190Y0162763D01*
X0325790Y0163548D01*
X0325271Y0164261D01*
X0324648Y0164884D01*
X0323935Y0165402D01*
X0323150Y0165803D01*
X0322311Y0166075D01*
X0321581Y0166191D01*
X0321581Y0161194D01*
X0321581Y0161237D02*
X0320419Y0161237D01*
X0320419Y0162435D02*
X0321581Y0162435D01*
X0321581Y0163634D02*
X0320419Y0163634D01*
X0320419Y0164832D02*
X0321581Y0164832D01*
X0321581Y0166031D02*
X0320419Y0166031D01*
X0319552Y0166031D02*
X0314100Y0166031D01*
X0314100Y0167229D02*
X0343150Y0167229D01*
X0343150Y0166031D02*
X0322448Y0166031D01*
X0324700Y0164832D02*
X0343150Y0164832D01*
X0343150Y0163634D02*
X0325727Y0163634D01*
X0326296Y0162435D02*
X0343150Y0162435D01*
X0343150Y0161237D02*
X0326571Y0161237D01*
X0321581Y0158840D02*
X0320419Y0158840D01*
X0321581Y0158840D01*
X0321581Y0157641D02*
X0320419Y0157641D01*
X0321581Y0157641D01*
X0321581Y0156443D02*
X0320419Y0156443D01*
X0321581Y0156443D01*
X0321581Y0155244D02*
X0320419Y0155244D01*
X0321581Y0155244D01*
X0319402Y0155244D02*
X0314100Y0155244D01*
X0319402Y0155244D01*
X0317251Y0156443D02*
X0314100Y0156443D01*
X0317251Y0156443D01*
X0316237Y0157641D02*
X0314100Y0157641D01*
X0316237Y0157641D01*
X0315688Y0158840D02*
X0314100Y0158840D01*
X0315688Y0158840D01*
X0314100Y0160038D02*
X0320419Y0160038D01*
X0315429Y0161237D02*
X0314100Y0161237D01*
X0314100Y0162435D02*
X0315704Y0162435D01*
X0316273Y0163634D02*
X0314100Y0163634D01*
X0314100Y0164832D02*
X0317300Y0164832D01*
X0314100Y0168428D02*
X0343150Y0168428D01*
X0343150Y0169626D02*
X0314100Y0169626D01*
X0314100Y0170825D02*
X0343150Y0170825D01*
X0343150Y0172023D02*
X0314100Y0172023D01*
X0314100Y0173222D02*
X0343150Y0173222D01*
X0343150Y0174420D02*
X0314100Y0174420D01*
X0314100Y0175619D02*
X0343150Y0175619D01*
X0343150Y0176817D02*
X0326400Y0176817D01*
X0326400Y0176753D02*
X0326400Y0185913D01*
X0325580Y0186733D01*
X0316420Y0186733D01*
X0315600Y0185913D01*
X0315600Y0176753D01*
X0316420Y0175933D01*
X0325580Y0175933D01*
X0326400Y0176753D01*
X0326400Y0178016D02*
X0343150Y0178016D01*
X0343150Y0179214D02*
X0326400Y0179214D01*
X0326400Y0180413D02*
X0343150Y0180413D01*
X0343150Y0181611D02*
X0326400Y0181611D01*
X0326400Y0182810D02*
X0343150Y0182810D01*
X0343150Y0184008D02*
X0326400Y0184008D01*
X0326400Y0185207D02*
X0343150Y0185207D01*
X0343150Y0186405D02*
X0325908Y0186405D01*
X0324059Y0190535D02*
X0325578Y0192054D01*
X0326400Y0194039D01*
X0326400Y0196187D01*
X0325578Y0198172D01*
X0324059Y0199691D01*
X0322074Y0200513D01*
X0319926Y0200513D01*
X0317941Y0199691D01*
X0316422Y0198172D01*
X0315600Y0196187D01*
X0315600Y0194039D01*
X0316422Y0192054D01*
X0317941Y0190535D01*
X0319926Y0189713D01*
X0322074Y0189713D01*
X0324059Y0190535D01*
X0324723Y0191199D02*
X0343150Y0191199D01*
X0343150Y0190001D02*
X0322769Y0190001D01*
X0319231Y0190001D02*
X0314100Y0190001D01*
X0314100Y0191199D02*
X0317277Y0191199D01*
X0316280Y0192398D02*
X0314100Y0192398D01*
X0314100Y0193596D02*
X0315783Y0193596D01*
X0315600Y0194795D02*
X0314100Y0194795D01*
X0314100Y0195993D02*
X0315600Y0195993D01*
X0316016Y0197192D02*
X0314100Y0197192D01*
X0314100Y0198390D02*
X0316641Y0198390D01*
X0317839Y0199589D02*
X0314100Y0199589D01*
X0314100Y0200787D02*
X0343150Y0200787D01*
X0343150Y0199589D02*
X0324161Y0199589D01*
X0325359Y0198390D02*
X0343150Y0198390D01*
X0343150Y0197192D02*
X0325984Y0197192D01*
X0326400Y0195993D02*
X0343150Y0195993D01*
X0343150Y0194795D02*
X0326400Y0194795D01*
X0326217Y0193596D02*
X0343150Y0193596D01*
X0343150Y0192398D02*
X0325720Y0192398D01*
X0316092Y0186405D02*
X0314100Y0186405D01*
X0314100Y0185207D02*
X0315600Y0185207D01*
X0315600Y0184008D02*
X0314100Y0184008D01*
X0314100Y0182810D02*
X0315600Y0182810D01*
X0315600Y0181611D02*
X0314100Y0181611D01*
X0314100Y0180413D02*
X0315600Y0180413D01*
X0315600Y0179214D02*
X0314100Y0179214D01*
X0314100Y0178016D02*
X0315600Y0178016D01*
X0315600Y0176817D02*
X0314100Y0176817D01*
X0314100Y0187604D02*
X0343150Y0187604D01*
X0343150Y0188802D02*
X0314100Y0188802D01*
X0314100Y0201986D02*
X0343150Y0201986D01*
X0343150Y0203184D02*
X0314100Y0203184D01*
X0314100Y0204383D02*
X0343150Y0204383D01*
X0343150Y0205581D02*
X0314100Y0205581D01*
X0314100Y0151648D02*
X0315835Y0151648D01*
X0314100Y0151648D01*
X0075132Y0122884D02*
X0064350Y0122884D01*
X0064350Y0121686D02*
X0075132Y0121686D01*
X0075231Y0090524D02*
X0064350Y0090524D01*
X0064350Y0089326D02*
X0075231Y0089326D01*
D31*
X0080000Y0091833D02*
X0080000Y0101833D01*
X0080000Y0124322D01*
X0079488Y0124833D01*
X0090500Y0125333D02*
X0090512Y0124833D01*
X0116000Y0124833D01*
X0124000Y0116833D01*
X0173000Y0116833D01*
X0206000Y0116833D01*
X0206000Y0127755D01*
X0206000Y0168207D01*
X0216000Y0127755D02*
X0274472Y0127755D01*
X0281000Y0134282D01*
X0288500Y0134333D01*
X0297535Y0125333D01*
X0290000Y0115385D02*
X0290000Y0101833D01*
X0300000Y0101833D01*
X0306500Y0101833D01*
X0316000Y0101833D01*
X0333000Y0118833D01*
X0333000Y0152333D01*
X0324720Y0160613D01*
X0321000Y0160613D01*
X0325780Y0160613D01*
X0333500Y0168333D01*
X0333500Y0198333D01*
X0335000Y0199833D01*
X0335000Y0241333D01*
X0321079Y0255255D01*
X0311157Y0255255D01*
X0315479Y0245412D02*
X0321000Y0245412D01*
X0315479Y0245412D02*
X0310200Y0240133D01*
X0310200Y0230333D01*
X0310200Y0219833D01*
X0310200Y0147033D01*
X0321000Y0146833D01*
X0321000Y0125333D01*
X0314465Y0125333D01*
X0290000Y0115385D02*
X0281000Y0115385D01*
X0290000Y0101833D02*
X0290000Y0091833D01*
X0300000Y0091833D02*
X0300000Y0101833D01*
X0245000Y0226333D02*
X0245000Y0230333D01*
X0244900Y0246333D01*
X0231300Y0246333D01*
X0226400Y0253833D01*
X0225000Y0260333D01*
X0225010Y0260138D01*
X0225014Y0259943D01*
X0225014Y0259748D01*
X0225010Y0259553D01*
X0225000Y0259358D01*
X0224986Y0259164D01*
X0224967Y0258969D01*
X0224943Y0258776D01*
X0224914Y0258583D01*
X0224881Y0258390D01*
X0224843Y0258199D01*
X0224801Y0258008D01*
X0224754Y0257819D01*
X0224702Y0257631D01*
X0224646Y0257444D01*
X0224585Y0257258D01*
X0224520Y0257075D01*
X0224450Y0256892D01*
X0224376Y0256712D01*
X0224297Y0256533D01*
X0224214Y0256356D01*
X0224127Y0256182D01*
X0224036Y0256009D01*
X0223940Y0255839D01*
X0223841Y0255671D01*
X0223737Y0255506D01*
X0223629Y0255343D01*
X0223518Y0255183D01*
X0223402Y0255026D01*
X0223283Y0254872D01*
X0223160Y0254720D01*
X0223033Y0254572D01*
X0222903Y0254426D01*
X0222769Y0254284D01*
X0222632Y0254145D01*
X0222492Y0254010D01*
X0222348Y0253878D01*
X0222201Y0253750D01*
X0222051Y0253625D01*
X0221898Y0253504D01*
X0221742Y0253386D01*
X0221583Y0253273D01*
X0221422Y0253163D01*
X0221258Y0253057D01*
X0221091Y0252956D01*
X0220922Y0252858D01*
X0220751Y0252765D01*
X0220577Y0252676D01*
X0220401Y0252591D01*
X0220224Y0252510D01*
X0220044Y0252434D01*
X0219863Y0252362D01*
X0219680Y0252294D01*
X0219495Y0252231D01*
X0219309Y0252173D01*
X0219121Y0252119D01*
X0218932Y0252069D01*
X0218742Y0252025D01*
X0218551Y0251985D01*
X0218359Y0251949D01*
X0218167Y0251918D01*
X0217973Y0251892D01*
X0217779Y0251871D01*
X0217585Y0251854D01*
X0217390Y0251843D01*
X0217195Y0251835D01*
X0217000Y0251833D01*
X0206500Y0251833D01*
X0203000Y0248333D01*
X0181000Y0248333D01*
X0166500Y0233833D01*
X0156000Y0223333D01*
X0156000Y0221333D01*
X0142000Y0221333D01*
X0139000Y0218333D01*
X0139000Y0204333D01*
X0136000Y0201333D01*
X0122500Y0201333D01*
X0146000Y0208333D02*
X0149000Y0211333D01*
X0156000Y0211333D01*
X0146000Y0208333D02*
X0146000Y0170833D01*
X0149500Y0167333D01*
X0156000Y0167333D01*
X0191000Y0226333D02*
X0191000Y0235833D01*
X0193000Y0237833D01*
X0232000Y0237833D01*
X0235000Y0234833D01*
X0235000Y0226333D01*
X0235000Y0260333D02*
X0235000Y0267333D01*
X0231500Y0270833D01*
X0197000Y0270833D01*
X0191000Y0264833D01*
X0191000Y0260333D01*
X0181000Y0260333D02*
X0170000Y0271333D01*
X0139000Y0271333D01*
X0123000Y0271333D01*
X0120500Y0271333D01*
X0094000Y0271333D01*
X0082000Y0271333D01*
X0080000Y0273333D01*
X0080000Y0281833D01*
X0080000Y0291833D01*
X0100000Y0114333D02*
X0100000Y0101833D01*
D32*
X0109100Y0134533D03*
X0176500Y0188333D03*
X0168000Y0217333D03*
X0170000Y0226833D03*
X0158500Y0238833D03*
X0170500Y0250833D03*
X0170500Y0258833D03*
X0185000Y0272333D03*
X0209000Y0244833D03*
X0215500Y0228833D03*
X0209000Y0228333D03*
X0225000Y0210333D03*
X0240200Y0188433D03*
X0280500Y0238833D03*
X0280400Y0254533D03*
X0249000Y0271833D03*
X0313000Y0269333D03*
X0333500Y0198333D03*
X0134500Y0246333D03*
X0123500Y0228833D03*
X0109000Y0249833D03*
X0102000Y0249833D03*
X0094000Y0249833D03*
D33*
X0094000Y0264573D02*
X0086500Y0264573D01*
X0094000Y0264573D02*
X0094000Y0271333D01*
X0094000Y0264573D02*
X0101500Y0264573D01*
X0109000Y0264573D01*
D34*
X0100000Y0101833D02*
X0100000Y0091833D01*
D35*
X0109100Y0134533D02*
X0109100Y0134733D01*
X0101900Y0141933D01*
X0089100Y0141933D01*
X0087900Y0143133D01*
X0087900Y0166233D01*
X0094000Y0172333D01*
X0178059Y0130333D02*
X0196000Y0130333D01*
X0196000Y0127755D01*
D36*
X0176000Y0149833D03*
X0176000Y0159833D03*
X0176000Y0169833D03*
X0176000Y0179833D03*
X0236000Y0178833D03*
X0236000Y0168833D03*
X0236000Y0158833D03*
X0236000Y0148833D03*
D37*
X0310200Y0219833D03*
M02*
