G75*
%MOIN*%
%OFA0B0*%
%FSLAX25Y25*%
%IPPOS*%
%LPD*%
%AMOC8*
5,1,8,0,0,1.08239X$1,22.5*
%
%ADD10R,0.07137X0.07137*%
%ADD11C,0.07137*%
%ADD12R,0.48831X0.39186*%
%ADD13R,0.07099X0.14580*%
%ADD14R,0.08800X0.08800*%
%ADD15C,0.08800*%
%ADD16R,0.05800X0.06587*%
%ADD17R,0.06312X0.12611*%
%ADD18R,0.06312X0.07099*%
%ADD19R,0.03556X0.04343*%
%ADD20C,0.08200*%
%ADD21C,0.07200*%
%ADD22R,0.05918X0.07099*%
%ADD23R,0.04737X0.06312*%
%ADD24R,0.06312X0.04737*%
%ADD25R,0.07099X0.05918*%
%ADD26C,0.06940*%
%ADD27R,0.07099X0.07898*%
%ADD28R,0.08200X0.08200*%
%ADD29C,0.05950*%
%ADD30R,0.05950X0.05950*%
D10*
X0080000Y0091833D03*
X0080000Y0281833D03*
D11*
X0090000Y0281833D03*
X0100000Y0281833D03*
X0110000Y0281833D03*
X0120000Y0281833D03*
X0130000Y0281833D03*
X0140000Y0281833D03*
X0150000Y0281833D03*
X0160000Y0281833D03*
X0170000Y0281833D03*
X0180000Y0281833D03*
X0190000Y0281833D03*
X0200000Y0281833D03*
X0210000Y0281833D03*
X0220000Y0281833D03*
X0230000Y0281833D03*
X0240000Y0281833D03*
X0250000Y0281833D03*
X0260000Y0281833D03*
X0270000Y0281833D03*
X0280000Y0281833D03*
X0290000Y0281833D03*
X0300000Y0281833D03*
X0300000Y0291833D03*
X0290000Y0291833D03*
X0280000Y0291833D03*
X0270000Y0291833D03*
X0260000Y0291833D03*
X0250000Y0291833D03*
X0240000Y0291833D03*
X0230000Y0291833D03*
X0220000Y0291833D03*
X0210000Y0291833D03*
X0200000Y0291833D03*
X0190000Y0291833D03*
X0180000Y0291833D03*
X0170000Y0291833D03*
X0160000Y0291833D03*
X0150000Y0291833D03*
X0140000Y0291833D03*
X0130000Y0291833D03*
X0120000Y0291833D03*
X0110000Y0291833D03*
X0100000Y0291833D03*
X0090000Y0291833D03*
X0080000Y0291833D03*
X0080000Y0101833D03*
X0090000Y0101833D03*
X0090000Y0091833D03*
X0100000Y0091833D03*
X0110000Y0091833D03*
X0120000Y0091833D03*
X0130000Y0091833D03*
X0140000Y0091833D03*
X0150000Y0091833D03*
X0160000Y0091833D03*
X0170000Y0091833D03*
X0180000Y0091833D03*
X0190000Y0091833D03*
X0200000Y0091833D03*
X0210000Y0091833D03*
X0220000Y0091833D03*
X0230000Y0091833D03*
X0240000Y0091833D03*
X0250000Y0091833D03*
X0260000Y0091833D03*
X0270000Y0091833D03*
X0280000Y0091833D03*
X0290000Y0091833D03*
X0300000Y0091833D03*
X0300000Y0101833D03*
X0290000Y0101833D03*
X0280000Y0101833D03*
X0270000Y0101833D03*
X0260000Y0101833D03*
X0250000Y0101833D03*
X0240000Y0101833D03*
X0230000Y0101833D03*
X0220000Y0101833D03*
X0210000Y0101833D03*
X0200000Y0101833D03*
X0190000Y0101833D03*
X0180000Y0101833D03*
X0170000Y0101833D03*
X0160000Y0101833D03*
X0150000Y0101833D03*
X0140000Y0101833D03*
X0130000Y0101833D03*
X0120000Y0101833D03*
X0110000Y0101833D03*
X0100000Y0101833D03*
D12*
X0206000Y0168207D03*
D13*
X0206000Y0127755D03*
X0196000Y0127755D03*
X0216000Y0127755D03*
D14*
X0321000Y0146833D03*
X0321000Y0181333D03*
X0321000Y0213333D03*
D15*
X0321000Y0227113D03*
X0321000Y0195113D03*
X0321000Y0160613D03*
D16*
X0314465Y0125333D03*
X0297535Y0125333D03*
D17*
X0281000Y0134282D03*
X0281000Y0115385D03*
D18*
X0090512Y0124833D03*
X0079488Y0124833D03*
D19*
X0082441Y0134333D03*
X0087559Y0134333D03*
X0172941Y0130333D03*
X0178059Y0130333D03*
X0178059Y0124833D03*
X0172941Y0124833D03*
D20*
X0100000Y0114333D03*
X0070000Y0114333D03*
X0094000Y0162333D03*
X0094000Y0172333D03*
X0094000Y0182333D03*
X0094000Y0204333D03*
X0094000Y0214333D03*
X0094000Y0224333D03*
D21*
X0119300Y0221333D02*
X0125700Y0221333D01*
X0125700Y0211333D02*
X0119300Y0211333D01*
X0119300Y0201333D02*
X0125700Y0201333D01*
X0125700Y0177333D02*
X0119300Y0177333D01*
X0119300Y0167333D02*
X0125700Y0167333D01*
X0125700Y0157333D02*
X0119300Y0157333D01*
X0152800Y0157333D02*
X0159200Y0157333D01*
X0159200Y0167333D02*
X0152800Y0167333D01*
X0152800Y0177333D02*
X0159200Y0177333D01*
X0159200Y0201333D02*
X0152800Y0201333D01*
X0152800Y0211333D02*
X0159200Y0211333D01*
X0159200Y0221333D02*
X0152800Y0221333D01*
X0181000Y0223133D02*
X0181000Y0229533D01*
X0191000Y0229533D02*
X0191000Y0223133D01*
X0201000Y0223133D02*
X0201000Y0229533D01*
X0225000Y0229533D02*
X0225000Y0223133D01*
X0235000Y0223133D02*
X0235000Y0229533D01*
X0245000Y0229533D02*
X0245000Y0223133D01*
X0245000Y0257133D02*
X0245000Y0263533D01*
X0235000Y0263533D02*
X0235000Y0257133D01*
X0225000Y0257133D02*
X0225000Y0263533D01*
X0201000Y0263533D02*
X0201000Y0257133D01*
X0191000Y0257133D02*
X0191000Y0263533D01*
X0181000Y0263533D02*
X0181000Y0257133D01*
D22*
X0162740Y0258833D03*
X0155260Y0258833D03*
X0155260Y0250833D03*
X0162740Y0250833D03*
X0146740Y0237833D03*
X0139260Y0237833D03*
X0132740Y0237833D03*
X0125260Y0237833D03*
X0176760Y0196333D03*
X0184240Y0196333D03*
X0194760Y0207833D03*
X0202240Y0207833D03*
X0211760Y0192333D03*
X0219240Y0192333D03*
X0228760Y0203833D03*
X0236240Y0203833D03*
X0285460Y0229633D03*
X0292940Y0229633D03*
D23*
X0145740Y0260664D03*
X0138260Y0260664D03*
X0132740Y0260664D03*
X0125260Y0260664D03*
X0129000Y0252003D03*
X0142000Y0252003D03*
D24*
X0194169Y0196333D03*
X0202831Y0192593D03*
X0202831Y0200073D03*
X0211169Y0200093D03*
X0211169Y0207573D03*
X0219831Y0203833D03*
X0269869Y0243093D03*
X0269869Y0250573D03*
X0278531Y0246833D03*
X0286569Y0243193D03*
X0286569Y0250673D03*
X0295231Y0246933D03*
D25*
X0285900Y0260493D03*
X0285900Y0267973D03*
X0278300Y0267973D03*
X0278300Y0260493D03*
X0270600Y0260493D03*
X0270600Y0267973D03*
X0263000Y0267973D03*
X0263000Y0260493D03*
X0263900Y0159673D03*
X0256700Y0159673D03*
X0256700Y0152193D03*
X0263900Y0152193D03*
X0271100Y0152193D03*
X0278300Y0152193D03*
X0278300Y0159673D03*
X0271100Y0159673D03*
X0115000Y0234093D03*
X0115000Y0241573D03*
X0107500Y0241573D03*
X0107500Y0234093D03*
X0100000Y0234093D03*
X0100000Y0241573D03*
X0092500Y0241573D03*
X0092500Y0234093D03*
X0094000Y0257093D03*
X0094000Y0264573D03*
X0101500Y0264573D03*
X0101500Y0257093D03*
X0109000Y0257093D03*
X0109000Y0264573D03*
X0086500Y0264573D03*
X0086500Y0257093D03*
D26*
X0311157Y0255255D03*
X0321000Y0245412D03*
X0330843Y0255255D03*
D27*
X0270098Y0229333D03*
X0258902Y0229333D03*
X0258902Y0213333D03*
X0270098Y0213333D03*
X0270098Y0197333D03*
X0258902Y0197333D03*
X0258902Y0181333D03*
X0270098Y0181333D03*
D28*
X0094000Y0194333D03*
X0094000Y0152333D03*
D29*
X0176000Y0149833D03*
X0176000Y0159833D03*
X0176000Y0169833D03*
X0176000Y0179833D03*
X0236000Y0178833D03*
X0236000Y0168833D03*
X0236000Y0158833D03*
X0236000Y0148833D03*
D30*
X0310200Y0219833D03*
M02*
